<?xml version="1.0" encoding="utf-8"?>
<!-- Generator: Adobe Illustrator 19.1.0, SVG Export Plug-In . SVG Version: 6.00 Build 0)  -->
<svg version="1.1" id="_x31_" xmlns="http://www.w3.org/2000/svg" xmlns:xlink="http://www.w3.org/1999/xlink" x="0px" y="0px"
	 viewBox="0 0 10.4 5.8" style="enable-background:new 0 0 10.4 5.8;" xml:space="preserve">
<style type="text/css">
	.st0{fill-rule:evenodd;clip-rule:evenodd;fill:#FFFFFF;}
</style>
<path class="st0" d="M5.2,1.5l4.2,4.2c0.2,0.2,0.6,0.2,0.9,0v0c0.2-0.2,0.2-0.6,0-0.9L5.7,0.3c0,0-0.1-0.1-0.1-0.1l0,0
	C5.5,0.1,5.4,0,5.2,0h0C5,0,4.9,0.1,4.8,0.2l0,0c0,0-0.1,0.1-0.1,0.1L0.2,4.8c-0.2,0.2-0.2,0.6,0,0.9v0c0.2,0.2,0.6,0.2,0.9,0
	L5.2,1.5z"/>
</svg>
