<?xml version="1.0" encoding="utf-8"?>
<!-- Generator: Adobe Illustrator 19.1.0, SVG Export Plug-In . SVG Version: 6.00 Build 0)  -->
<svg version="1.1" id="_x31_" xmlns="http://www.w3.org/2000/svg" xmlns:xlink="http://www.w3.org/1999/xlink" x="0px" y="0px"
	 viewBox="0 0 12.1 13.5" style="enable-background:new 0 0 12.1 13.5;" xml:space="preserve">
<style type="text/css">
	.st0{fill-rule:evenodd;clip-rule:evenodd;fill:#95A6C4;}
</style>
<path class="st0" d="M6.8,10.9l4-4c0.3-0.3,0.7-0.3,1,0v0c0.3,0.3,0.3,0.7,0,1L6.7,13c-0.1,0.2-0.2,0.3-0.4,0.4l0,0l0,0l0,0
	c-0.1,0-0.1,0-0.2,0l0,0l0,0h0l0,0h0l0,0h0l0,0l0,0l0,0l0,0h0c-0.1,0-0.1,0-0.2,0l0,0l0,0l0,0c-0.2-0.1-0.3-0.2-0.4-0.4L0.2,7.9
	c-0.3-0.3-0.3-0.7,0-1v0c0.3-0.3,0.7-0.3,1,0l4,4V0.8C5.2,0.4,5.6,0,6,0h0c0.4,0,0.8,0.4,0.8,0.8V10.9z"/>
</svg>
