<?xml version="1.0" encoding="utf-8"?>
<!-- Generator: Adobe Illustrator 19.1.0, SVG Export Plug-In . SVG Version: 6.00 Build 0)  -->
<svg version="1.1" id="_x31_" xmlns="http://www.w3.org/2000/svg" xmlns:xlink="http://www.w3.org/1999/xlink" x="0px" y="0px"
	 viewBox="0 0 16.8 30.1" style="enable-background:new 0 0 16.8 30.1;" xml:space="preserve">
<style type="text/css">
	.st0{fill-rule:evenodd;clip-rule:evenodd;fill:#fff;}
</style>
<path class="st0" d="M4.3,15l12,12c0.7,0.7,0.7,1.8,0,2.5h0c-0.7,0.7-1.8,0.7-2.5,0l-13-13c-0.1-0.1-0.2-0.2-0.3-0.3l0,0
	C0.2,16,0,15.5,0,15v0c0-0.5,0.2-0.9,0.5-1.3l0,0c0.1-0.1,0.2-0.2,0.3-0.3l13-13c0.7-0.7,1.8-0.7,2.5,0h0C17,1.2,17,2.3,16.3,3
	L4.3,15z"/>
</svg>
