<?xml version="1.0" encoding="utf-8"?>
<!-- Generator: Adobe Illustrator 23.0.1, SVG Export Plug-In . SVG Version: 6.00 Build 0)  -->
<svg version="1.1" id="_x31_" xmlns="http://www.w3.org/2000/svg" xmlns:xlink="http://www.w3.org/1999/xlink" x="0px" y="0px"
	 viewBox="0 0 8.44 4.73" style="enable-background:new 0 0 8.44 4.73;" xml:space="preserve">
<style type="text/css">
	.st0{fill-rule:evenodd;clip-rule:evenodd;fill:#617599;}
</style>
<path class="st0" d="M4.22,3.52L0.85,0.14c-0.19-0.19-0.51-0.19-0.7,0v0c-0.19,0.19-0.19,0.51,0,0.7l3.64,3.65
	c0.02,0.03,0.04,0.06,0.07,0.09l0,0c0.1,0.1,0.23,0.15,0.36,0.14h0c0.13,0,0.26-0.05,0.36-0.14h0c0.03-0.03,0.05-0.06,0.07-0.09
	L8.3,0.84c0.19-0.19,0.19-0.51,0-0.7v0c-0.19-0.19-0.51-0.19-0.7,0L4.22,3.52z"/>
</svg>
