<?xml version="1.0" encoding="utf-8"?>
<!-- Generator: Adobe Illustrator 19.1.0, SVG Export Plug-In . SVG Version: 6.00 Build 0)  -->
<svg version="1.1" id="_x31_" xmlns="http://www.w3.org/2000/svg" xmlns:xlink="http://www.w3.org/1999/xlink" x="0px" y="0px"
	 viewBox="0 0 24 42.9" style="enable-background:new 0 0 24 42.9;" xml:space="preserve">
<style type="text/css">
	.st0{fill-rule:evenodd;clip-rule:evenodd;fill:#AEBCD4;}
</style>
<path class="st0" d="M17.9,21.4L0.7,38.6c-1,1-1,2.6,0,3.6h0c1,1,2.6,1,3.6,0l18.5-18.5c0.2-0.1,0.3-0.2,0.5-0.4l0,0
	c0.5-0.5,0.7-1.2,0.7-1.8v0c0-0.7-0.2-1.3-0.7-1.8l0,0c-0.1-0.1-0.3-0.3-0.5-0.4L4.3,0.7c-1-1-2.6-1-3.6,0h0c-1,1-1,2.6,0,3.6
	L17.9,21.4z"/>
</svg>
