<?xml version="1.0" encoding="utf-8"?>
<!-- Generator: Adobe Illustrator 19.1.0, SVG Export Plug-In . SVG Version: 6.00 Build 0)  -->
<svg version="1.1" id="_x31_" xmlns="http://www.w3.org/2000/svg" xmlns:xlink="http://www.w3.org/1999/xlink" x="0px" y="0px"
	 viewBox="0 0 10.5 5.9" style="enable-background:new 0 0 10.5 5.9;" xml:space="preserve">
<style type="text/css">
	.st0{fill-rule:evenodd;clip-rule:evenodd;fill:#FFFFFF;}
</style>
<path class="st0" d="M5.2,4.4L1.1,0.2c-0.2-0.2-0.6-0.2-0.9,0v0c-0.2,0.2-0.2,0.6,0,0.9l4.5,4.5c0,0,0.1,0.1,0.1,0.1v0
	c0.1,0.1,0.3,0.2,0.4,0.2h0c0.2,0,0.3-0.1,0.4-0.2l0,0c0,0,0.1-0.1,0.1-0.1l4.5-4.5c0.2-0.2,0.2-0.6,0-0.9v0c-0.2-0.2-0.6-0.2-0.9,0
	L5.2,4.4z"/>
</svg>
