<?xml version="1.0" encoding="utf-8"?>
<!-- Generator: Adobe Illustrator 19.1.0, SVG Export Plug-In . SVG Version: 6.00 Build 0)  -->
<svg version="1.1" id="_x31_" xmlns="http://www.w3.org/2000/svg" xmlns:xlink="http://www.w3.org/1999/xlink" x="0px" y="0px"
	 viewBox="0 0 12.1 13.5" style="enable-background:new 0 0 12.1 13.5;" xml:space="preserve">
<style type="text/css">
	.st0{fill-rule:evenodd;clip-rule:evenodd;fill:#95A6C4;}
</style>
<path class="st0" d="M6.8,2.5l4,4c0.3,0.3,0.7,0.3,1,0v0c0.3-0.3,0.3-0.7,0-1L6.7,0.4C6.6,0.3,6.5,0.1,6.3,0.1l0,0l0,0l0,0
	C6.2,0,6.2,0,6.1,0l0,0l0,0h0l0,0h0l0,0h0l0,0l0,0l0,0l0,0h0C5.9,0,5.8,0,5.8,0l0,0l0,0l0,0C5.6,0.1,5.4,0.2,5.3,0.4L0.2,5.5
	c-0.3,0.3-0.3,0.7,0,1v0c0.3,0.3,0.7,0.3,1,0l4-4v10.1c0,0.4,0.4,0.8,0.8,0.8h0c0.4,0,0.8-0.4,0.8-0.8V2.5z"/>
</svg>
