<?xml version="1.0" encoding="utf-8"?>
<!-- Generator: Adobe Illustrator 19.1.0, SVG Export Plug-In . SVG Version: 6.00 Build 0)  -->
<svg version="1.1" id="Layer_1" xmlns="http://www.w3.org/2000/svg" xmlns:xlink="http://www.w3.org/1999/xlink" x="0px" y="0px"
	 viewBox="0 0 66.5 66.5" style="enable-background:new 0 0 66.5 66.5;" xml:space="preserve">
<style type="text/css">
	.st0{fill-rule:evenodd;clip-rule:evenodd;fill:#fff;}
</style>
<g>
	<path class="st0" d="M1,60.7L60.7,1c1.3-1.3,3.5-1.3,4.8,0v0c1.3,1.3,1.3,3.5,0,4.8L5.8,65.5c-1.3,1.3-3.5,1.3-4.8,0l0,0
		C-0.3,64.2-0.3,62,1,60.7z"/>
	<path class="st0" d="M65.5,60.7L5.8,1C4.5-0.3,2.3-0.3,1,1v0c-1.3,1.3-1.3,3.5,0,4.8l59.7,59.7c1.3,1.3,3.5,1.3,4.8,0l0,0
		C66.8,64.2,66.8,62,65.5,60.7z"/>
</g>
</svg>
