<?xml version="1.0" encoding="utf-8"?>
<!-- Generator: Adobe Illustrator 19.1.0, SVG Export Plug-In . SVG Version: 6.00 Build 0)  -->
<svg version="1.1" id="_x31_" xmlns="http://www.w3.org/2000/svg" xmlns:xlink="http://www.w3.org/1999/xlink" x="0px" y="0px"
	 viewBox="0 0 14.3 14.3" style="enable-background:new 0 0 14.3 14.3;" xml:space="preserve">
<style type="text/css">
	.st0{fill-rule:evenodd;clip-rule:evenodd;fill:#D2E1FA;}
</style>
<path class="st0" d="M0.5,0.5L0.5,0.5c0.6-0.6,1.7-0.6,2.3,0l4.3,4.3l4.3-4.3c0.6-0.6,1.7-0.6,2.3,0l0,0c0.6,0.6,0.6,1.7,0,2.3
	L9.5,7.2l4.3,4.3c0.6,0.6,0.6,1.7,0,2.3c-0.6,0.6-1.7,0.6-2.3,0L7.2,9.5l-4.3,4.3c-0.6,0.6-1.7,0.6-2.3,0l0,0
	c-0.6-0.6-0.6-1.7,0-2.3l4.3-4.3L0.5,2.8C-0.2,2.2-0.2,1.1,0.5,0.5L0.5,0.5z M13.8,13.8"/>
</svg>
