<?xml version="1.0" encoding="utf-8"?>
<!-- Generator: Adobe Illustrator 19.1.0, SVG Export Plug-In . SVG Version: 6.00 Build 0)  -->
<svg version="1.1" id="_x31_" xmlns="http://www.w3.org/2000/svg" xmlns:xlink="http://www.w3.org/1999/xlink" x="0px" y="0px"
	 viewBox="0 0 51 50.7" style="enable-background:new 0 0 51 50.7;" xml:space="preserve">
<style type="text/css">
	.st0{fill-rule:evenodd;clip-rule:evenodd;fill:#BDCFF2;}
</style>
<path class="st0" d="M39.3,10.4c-4.1-3.9-9.5-5.7-14.7-5.5C19.4,5,14.2,7.2,10.4,11.4c-3.9,4.1-5.7,9.5-5.5,14.7
	c0.2,5.2,2.4,10.4,6.5,14.3c3.5,3.3,7.8,5.1,12.3,5.4c4.5,0.4,9.1-0.7,13-3.3c1.8-1.2,3.8-0.1,6.1,1.1c1.5,0.8,3.4,1.8,3.4,1.7
	c0.2-0.2-0.8-2.2-1.7-3.9c-1.2-2.2-2.2-4.2-1.2-6c2.3-4.1,3.1-8.7,2.4-13.2C44.9,17.8,42.8,13.6,39.3,10.4L39.3,10.4z M24.5,0
	c6.5-0.2,13,2,18.2,6.8c4.3,4,6.9,9.2,7.7,14.6c1.5,9.3-3.8,13.6-1.7,17.6c1.6,3.1,3.6,6.7,1,9.5c-2.6,2.8-6.2,0.9-9.3-0.8
	c-3.8-2-7.8,3.6-17.2,2.8c-5.5-0.5-10.8-2.7-15.2-6.7c-5.1-4.8-7.8-11.2-8-17.7c-0.2-6.5,2-13,6.8-18.2C11.6,2.9,18,0.2,24.5,0z"/>
<path class="st0" d="M20.6,11.1h9.9h0.3l0.3,0.2l5.4,3.8l0.5,0.3v0.6v15.9v1.1h-1.1h-3v3.4v1.1h-1.1H16.6h-1.1v-1.1V16.6v-1.1h1.1h3
	v-3.4v-1.1H20.6L20.6,11.1z M30.8,32.9H20.6h-1.1v-1.1V17.6h-1.9v17.5h13.1V32.9L30.8,32.9z M23.7,17.6v2.1h9.2v-2.1H23.7L23.7,17.6
	z M23.7,25.7v2.1h9.2v-2.1H23.7L23.7,25.7z M23.7,21.7v2.1h9.2v-2.1L23.7,21.7L23.7,21.7z M30.2,13.2l-8.5,0v17.5h13.1V16.5
	L30.2,13.2z"/>
</svg>
