<?xml version="1.0" encoding="utf-8"?>
<!-- Generator: Adobe Illustrator 19.1.0, SVG Export Plug-In . SVG Version: 6.00 Build 0)  -->
<svg version="1.1" id="_x31_" xmlns="http://www.w3.org/2000/svg" xmlns:xlink="http://www.w3.org/1999/xlink" x="0px" y="0px"
	 viewBox="0 0 18 18" style="enable-background:new 0 0 18 18;" xml:space="preserve">
<style type="text/css">
	.st0{fill-rule:evenodd;clip-rule:evenodd;fill:#FFFFFF;}
</style>
<g>
	<path class="st0" d="M9,14.2c-0.4,0-0.8-0.1-1.2-0.1c-0.3-0.1-0.7-0.2-1-0.3l-0.4-0.2c-0.6-0.3-1.3-0.9-1.7-1.5c-0.6-0.9-1-2-1-3.1
		c0-0.6,0.1-1.1,0.3-1.6C4.3,6.8,4.5,6.4,4.8,6c0.1-0.2,0.3-0.4,0.4-0.5c0.4-0.4,1.2-1,1.7-1.2c0.1,0,0.1,0,0.2-0.1
		c0.3-0.2,1-0.3,1.3-0.3c1.2-0.1,2.1,0.1,3.1,0.7c0.2,0.1,0.4,0.2,0.6,0.4c1.7,1.3,2.4,3.4,1.8,5.5c-0.1,0.4-0.3,0.8-0.5,1.2
		L13,12.3c-0.3,0.4-0.6,0.6-1,0.9c-0.4,0.3-0.8,0.5-1.3,0.6C10.2,14.1,9.6,14.2,9,14.2L9,14.2z M8.4,0C8.3,0,8.3,0,8.1,0
		c-0.2,0-0.3,0-0.4,0.1C7.5,0.4,7.5,0.7,7.4,1c0,0.2-0.2,1.1-0.2,1.2c0,0.1-0.5,0.2-0.6,0.2C6.3,2.5,6.1,2.6,5.8,2.8
		C5.7,2.8,5.6,2.9,5.4,3C5.3,3,5.2,2.8,5.1,2.8l-1-0.7C4,2,3.9,1.9,3.7,1.9C3.4,1.9,3.2,2,3,2.2c-0.3,0.2-0.7,0.7-1,1
		c-0.3,0.4-0.3,0.6,0,1l0.9,1.3c0,0,0,0,0,0L2.9,5.6C2.7,5.9,2.6,6.2,2.5,6.5C2,7.7,2.5,7.1,0.5,7.6c-0.2,0-0.3,0.1-0.5,0.3
		C0,8,0,8.2,0,8.5v1.3c0,0.3,0.1,0.5,0.2,0.6c0.1,0.1,0.4,0.2,0.6,0.2c0.5,0.1,0.9,0.1,1.4,0.3c0.1,0.5,0.4,1.1,0.7,1.6
		c0,0.1,0.1,0.1,0.1,0.2l-0.9,1.3c-0.1,0.2-0.2,0.3-0.2,0.5c0,0.2,0.2,0.4,0.3,0.5L3,15.8c0.1,0.1,0.5,0.4,0.7,0.4
		c0.3,0,0.7-0.3,0.9-0.5l0.9-0.6c0.1,0,0.4,0.2,0.5,0.2c0.4,0.2,1,0.4,1.2,0.5c0.1,0.1,0.1,0.3,0.1,0.4c0.1,0.4,0.1,0.8,0.2,1.3
		c0,0.1,0,0.2,0.1,0.3C7.8,18,8.1,18,8.4,18h1.1c0.5,0,0.8,0,0.9-0.6c0-0.2,0.1-0.4,0.1-0.6c0-0.2,0.1-0.7,0.2-0.9
		c0-0.1,0.3-0.2,0.5-0.2c0.1,0,0.2-0.1,0.3-0.1c0.2-0.1,1-0.5,1.1-0.5c0.1,0,1.3,1,1.6,1c0.1,0,0.2,0,0.3,0c0.2-0.1,1.2-1.2,1.4-1.4
		c0.2-0.3,0.2-0.4,0-0.7l-0.7-1c-0.1-0.1-0.1-0.2-0.2-0.3c-0.1-0.1,0-0.2,0.1-0.4c0.2-0.4,0.4-0.7,0.5-1.1c0.2-0.5,0-0.4,0.3-0.5
		c0.5-0.1,1.1-0.2,1.6-0.3c0.1,0,0.1,0,0.2-0.1C18,10.2,18,9.9,18,9.7V7.9c0,0-0.3-0.3-0.3-0.3c-0.2-0.1-0.4-0.1-0.6-0.1
		c-0.2,0-0.4-0.1-0.6-0.1c-0.2,0-0.4-0.1-0.6-0.1c-0.2,0-0.2-0.2-0.3-0.4c-0.1-0.3-0.2-0.7-0.4-1c-0.1-0.1-0.1-0.3-0.2-0.4
		C15.4,5,15.7,4.5,16,4c0-0.1,0.1-0.2,0.1-0.3c0-0.1,0-0.2-0.1-0.3c-0.1-0.1-0.1-0.1-0.2-0.2c-0.2-0.2-0.5-0.5-0.7-0.7l-0.3-0.3
		c-0.2-0.1-0.3-0.3-0.5-0.3c-0.2,0-0.4,0.1-0.5,0.2c-0.1,0-0.1,0.1-0.2,0.1c-0.1,0-0.1,0.1-0.2,0.1L12.6,3L12,2.7
		c-0.1-0.1-0.2-0.1-0.3-0.1c-0.1,0-0.2-0.1-0.3-0.1c-0.2-0.1-0.4-0.1-0.6-0.2c-0.1-0.1-0.1-0.1-0.2-0.2c-0.1-0.4-0.2-1.5-0.4-1.7
		c-0.1-0.1-0.1-0.1-0.2-0.2C10,0,9.9,0,9.8,0C9.5,0,9.2,0,9,0H8.4z"/>
	<path class="st0" d="M5.4,9c0,0.9,0.3,1.7,0.8,2.3c0,0,0.1,0.1,0.1,0.1c0.2,0.3,0.8,0.7,1.1,0.8c0.6,0.3,1,0.3,1.6,0.3
		c1,0,1.8-0.4,2.4-1c0,0,0.1-0.1,0.1-0.1l0.2-0.2c0,0,0.1-0.1,0.1-0.1c0.8-1.2,0.8-2.8,0-4.1c-0.3-0.4-0.7-0.8-1.2-1.1
		c-0.1-0.1-0.2-0.1-0.3-0.2c-0.3-0.1-0.4-0.1-0.7-0.2c-1-0.2-2,0-2.8,0.5C6.7,6.2,6.7,6.3,6.5,6.5c-0.1,0-0.2,0.2-0.2,0.2
		c0,0.1-0.1,0.1-0.1,0.1L5.9,7.2C5.8,7.4,5.7,7.6,5.6,7.8c0,0.1-0.1,0.2-0.1,0.3C5.5,8.4,5.4,8.7,5.4,9z"/>
</g>
</svg>
