<?xml version="1.0" encoding="utf-8"?>
<!-- Generator: Adobe Illustrator 23.0.1, SVG Export Plug-In . SVG Version: 6.00 Build 0)  -->
<svg version="1.1" id="_x31_" xmlns="http://www.w3.org/2000/svg" xmlns:xlink="http://www.w3.org/1999/xlink" x="0px" y="0px"
	 viewBox="0 0 12.5 17.25" style="enable-background:new 0 0 12.5 17.25;" xml:space="preserve">
<style type="text/css">
	.st0{fill-rule:evenodd;clip-rule:evenodd;fill:#FFFFFF;}
</style>
<g>
	<path class="st0" d="M0,15.85c0.03,0.48,0.29,0.88,0.54,1.05c0.44,0.31,0.66,0.33,1.29,0.33l6.43,0c0.8,0,1.97,0.16,2.49-0.34
		c0.06-0.05,0.04-0.05,0.1-0.1c0.36-0.33,0.43-0.79,0.43-1.37l-0.04-6.55l-0.98,1.02l0.04,1.82c0,0.78,0.09,3.13-0.09,3.55
		C9.83,16.1,9.09,16,8.06,16L2.3,16c-0.51,0-0.81-0.17-1.03-0.43c-0.3-0.36-0.28-0.64-0.28-1.17c0-0.95,0-1.91,0-2.86
		c0-0.92-0.08-2.02-0.01-2.92c0.03-0.89-0.13-3.58,0.07-4.15c0.08-0.23,0.24-0.46,0.43-0.58c0.25-0.16,0.44-0.22,0.78-0.22
		c0.97-0.01,6.79-0.03,7.04,0.02c0.33,0.07,0.47,0.19,0.65,0.37c0.09,0.08,0.15,0.17,0.2,0.27c0.35-0.34,0.74-0.38,1.12-0.45
		l-0.01-0.38C11.19,2.6,10.38,2,9.39,2.17c-0.15,0.35,0.04,0.55-0.33,0.8C8.79,3.16,8.38,3.11,8.02,3.11H3.34
		C2.78,3.11,2.26,3.23,2,2.72c-0.1-0.2-0.04-0.35-0.1-0.5C1.79,2.07,0.86,2.09,0.4,2.6C-0.02,3.07,0,3.51,0,4.27L0,15.85z"/>
	<path class="st0" d="M5.21,0.02C4.36,0.11,3.43,0.56,2.83,1.09C2.57,1.32,2.36,1.36,2.36,1.81c0,0.36-0.11,0.83,0.28,0.86l5.75,0
		c0.56,0,0.52-0.09,0.52-0.62c0-0.73-0.01-0.58-0.66-1.1C7.43,0.28,6.32-0.09,5.21,0.02L5.21,0.02z M5.63,0.85
		c0.36,0,0.65,0.29,0.65,0.65c0,0.36-0.29,0.65-0.65,0.65c-0.36,0-0.65-0.29-0.65-0.65C4.98,1.14,5.27,0.85,5.63,0.85z"/>
	<g>
		<path class="st0" d="M4.5,10.67c-0.04,0.16,0.19,0.31,0.41,0.53l1.5,1.48l4.43-4.42L8.9,6.3L4.5,10.67z"/>
		<path class="st0" d="M9.38,5.84L9.61,6.1c0.31,0.31,1.56,1.59,1.71,1.67l0.78-0.78c0.11-0.11,0.19-0.13,0.27-0.27
			c0.41-0.71-0.19-1.14-0.47-1.42c-0.26-0.26-0.73-0.92-1.41-0.53C10.31,4.86,9.47,5.68,9.38,5.84z"/>
		<path class="st0" d="M3.02,14.13c0.19-0.03,2.85-0.95,2.9-0.99l-1.89-1.92C3.94,11.33,3.12,13.82,3.02,14.13z"/>
	</g>
</g>
</svg>
