<?xml version="1.0" encoding="utf-8"?>
<!-- Generator: Adobe Illustrator 19.1.0, SVG Export Plug-In . SVG Version: 6.00 Build 0)  -->
<svg version="1.1" id="Layer_1" xmlns="http://www.w3.org/2000/svg" xmlns:xlink="http://www.w3.org/1999/xlink" x="0px" y="0px"
	 viewBox="0 0 348.7 346.7" style="enable-background:new 0 0 348.7 346.7;" xml:space="preserve">
<style type="text/css">
	.st0{fill-rule:evenodd;clip-rule:evenodd;fill:#3E99FD;}
</style>
<path class="st0" d="M57,46.7C92,14,136.9-1.4,181.2,0.1C225.6,1.6,269.4,20,302.1,55c32.7,34.9,48.1,79.8,46.6,124.2
	c-1.5,44.4-19.9,88.2-54.9,120.9c-29.6,27.7-66.3,43-103.8,46.1c-64.4,5.4-92.1-33-117.9-19.2c-20.9,11.2-45.6,24.3-63.4,5.2
	c-17.7-19-4.4-44,6.8-65C30,239.9-5.8,210.5,4.1,146.6C9.9,109.6,27.6,74.2,57,46.7L57,46.7z M202.9,202.8c0-7.7,0.7-12.6,2.1-15
	c1.4-2.3,5.3-5.1,11.7-8.3c19.6-9.8,29.4-26.7,29.4-50.9c0-19.6-6.8-36-20.5-49.2c-13.7-13.2-30.5-19.8-50.6-19.8
	c-11.3,0-22.2,2.7-32.7,8c-10.6,5.3-19.1,12.5-25.7,21.5c-8.9,12.2-13.4,28-13.4,47.4h55.1c0-14.4,5.2-21.6,15.6-21.6
	c3.8,0,7,1.3,9.7,4c2.7,2.7,4,5.9,4,9.7c0,6.6-4.1,11.7-12.3,15.3l-10.8,4.8c-7.9,3.5-13.3,8.4-16.2,14.7c-3,6.3-4.5,16.1-4.5,29.4
	v10.1H202.9L202.9,202.8z M174.1,211.3c-10.5,0-19.4,3.7-26.7,11.1c-7.4,7.4-11,16.4-11,27c0,11,3.5,20,10.6,27.1
	c7.1,7.1,16.1,10.6,27.1,10.6c10.5,0,19.5-3.6,27-10.9c7.5-7.3,11.2-16.1,11.2-26.6c0-10.4-3.8-19.4-11.3-27
	C193.5,215,184.5,211.3,174.1,211.3L174.1,211.3z M180.2,33.3C144.3,32.1,108,44.5,79.7,71c-23.8,22.3-38.1,50.9-42.8,80.7
	c-4.7,30.5,0.6,62.4,16.2,90.2c6.9,12.2-0.2,25.6-8.4,40.9c-6.1,11.4-13.3,25.1-11.8,26.7c0.4,0.5,12.9-6.2,23.5-11.8
	c15.6-8.3,29.3-15.6,41.6-7.4c26.7,17.7,58.2,25.3,89.2,22.7c30.3-2.5,60-14.9,83.9-37.3c28.3-26.4,43.2-61.8,44.4-97.6
	c1.2-35.9-11.3-72.2-37.7-100.5C251.3,49.4,216,34.5,180.2,33.3z"/>
</svg>
