<?xml version="1.0" encoding="utf-8"?>
<!-- Generator: Adobe Illustrator 19.1.0, SVG Export Plug-In . SVG Version: 6.00 Build 0)  -->
<svg version="1.1" id="_x31_" xmlns="http://www.w3.org/2000/svg" xmlns:xlink="http://www.w3.org/1999/xlink" x="0px" y="0px"
	 viewBox="0 0 14.9 15" style="enable-background:new 0 0 14.9 15;" xml:space="preserve">
<style type="text/css">
	.st0{fill-rule:evenodd;clip-rule:evenodd;fill:#95A6C4;}
</style>
<path class="st0" d="M11.1,0.1c1.4,0.5,2.1,2,1.6,3.3c-0.3,0.8-0.8,1.3-1.5,1.6l0.5,2.3l0.5,2.3c0.3,0,0.6,0,0.9,0.1
	c1.4,0.5,2.1,2,1.6,3.3c-0.5,1.4-2,2.1-3.3,1.6c-1.2-0.4-1.9-1.6-1.8-2.8l-2.3-0.8L5,10.4c-0.5,1.2-2,1.9-3.2,1.4
	c-1.4-0.5-2.1-2-1.6-3.3c0.5-1.4,2-2.1,3.3-1.6C3.8,7,4,7.1,4.3,7.3l2-1.7L8,4C7.7,3.3,7.5,2.5,7.8,1.8C8.3,0.4,9.8-0.3,11.1,0.1
	L11.1,0.1z M10.3,5.3c-0.3,0-0.6,0-0.9-0.1C9.2,5,8.9,4.9,8.7,4.7L6.9,6.3L4.9,8c0.3,0.4,0.4,1,0.4,1.5l2.4,0.8l2.3,0.8
	c0.3-0.5,0.7-0.9,1.3-1.2l-0.5-2.3L10.3,5.3z"/>
</svg>
