<?xml version="1.0" encoding="utf-8"?>
<!-- Generator: Adobe Illustrator 23.0.1, SVG Export Plug-In . SVG Version: 6.00 Build 0)  -->
<svg version="1.1" id="_x31_" xmlns="http://www.w3.org/2000/svg" xmlns:xlink="http://www.w3.org/1999/xlink" x="0px" y="0px"
	 viewBox="0 0 16.64 19.55" style="enable-background:new 0 0 16.64 19.55;" xml:space="preserve">
<style type="text/css">
	.st0{fill-rule:evenodd;clip-rule:evenodd;fill:#5377B5;}
</style>
<g>
	<path class="st0" d="M5.95,9.9c0.21,0,0.43,0.09,0.57,0.17c0.08,0.04,0.16,0.1,0.23,0.15c0.2,0.15,0.39,0.38,0.52,0.6
		c0.53,0.9-0.33,1.97-1.1,1.97c-0.31,0-0.41-0.01-0.7-0.17c-0.25-0.14-0.55-0.47-0.68-0.72C4.22,10.79,5.27,9.9,5.95,9.9L5.95,9.9z
		 M4.66,0C4.5,0,4.38,0.02,4.22,0.17C3.99,0.41,4.01,0.61,3.96,0.99L3.68,2.87C3.66,3.01,3.64,3.21,3.61,3.35L2.4,3.48
		C1.56,3.6,0.87,4.28,0.62,5.07C0.56,5.26,0.28,7.85,0.26,8.08c-0.03,0.39-0.09,0.81-0.14,1.2C0.08,9.69,0,10.26,0,10.65
		c0,0.6,0.29,1.28,0.56,1.61c0.35,0.43,1.67,1.71,2.15,2.2l4.63,4.61c0.26,0.26,0.78,0.48,1.17,0.48h0.05
		c0.43,0,0.57-0.01,0.99-0.21c0.23-0.12,0.38-0.25,0.56-0.42l5.91-5.91c0.18-0.18,0.29-0.33,0.41-0.56c0.12-0.24,0.19-0.49,0.2-0.75
		v-0.22c-0.02-0.29-0.1-0.58-0.23-0.85c-0.19-0.38-1.26-1.37-1.59-1.7l-5.2-5.2C9.13,3.24,8.39,2.91,7.68,2.91
		c-0.27,0-1.92,0.2-2.35,0.24C5.23,3.17,5.1,3.19,4.99,3.19c0-0.24,0.36-2.32,0.36-2.53C5.35,0.3,5.05,0,4.77,0H4.66L4.66,0z
		 M9.02,10.91c0-0.32,0-0.41,0.17-0.72c0.15-0.26,0.47-0.54,0.74-0.66c0.18-0.08,0.36-0.1,0.58-0.07c0.17,0.03,0.36,0.12,0.5,0.2
		c0.8,0.53,1.14,1.52,0.39,2.27C10.3,13.03,9.02,11.69,9.02,10.91L9.02,10.91z M7.22,8.26c0,0.11,0.13,0.66,0.16,0.82l0.84,3.98
		c0.05,0.27,0.11,0.54,0.17,0.79l0.16,0.79c0.06-0.04,0.64-0.62,0.64-0.64c0-0.13-0.46-2.23-0.5-2.41C8.53,10.87,8.35,9.94,8.2,9.2
		L7.86,7.62C7.8,7.66,7.22,8.24,7.22,8.26L7.22,8.26z M3.13,6.74c0,0.73,1.16,0.92,1.32,0.07C4.49,6.65,4.5,6.45,4.53,6.27
		C4.55,6.2,4.56,6.1,4.57,6.01c0.01-0.08,0.04-0.19,0.04-0.28c0.12,0.03,0.26,0.25,0.32,0.36c0.3,0.51,0.18,1.17-0.26,1.58
		c-0.21,0.2-0.62,0.37-0.91,0.35c-0.51-0.05-0.94-0.3-1.15-0.77C2.24,6.41,2.87,5.62,3.29,5.53C3.29,5.8,3.13,6.43,3.13,6.74
		L3.13,6.74z M1.32,10.53c0-0.19,0.02-0.34,0.04-0.52C1.48,8.91,1.63,7.7,1.74,6.61c0.03-0.35,0.08-1.12,0.23-1.4
		c0.26-0.47,0.72-0.42,1.16-0.48c0.32-0.04,0.29,0,0.31-0.11c0-0.03,0.01-0.09,0.01-0.11c0.02-0.15,0.06-0.34,0.07-0.47
		C3.46,4.06,3.09,4.08,2.98,4.1c-0.4,0.05-0.59,0.03-0.94,0.21C1.93,4.36,1.78,4.47,1.7,4.55C1.17,5.07,1.22,5.56,1.13,6.32
		C1.06,6.95,0.95,7.81,0.9,8.42L0.72,9.98c-0.09,0.7-0.07,1.23,0.35,1.83c0.18,0.25,5.55,5.58,6.31,6.34
		c0.3,0.3,0.45,0.52,0.85,0.67c0.39,0.14,0.8,0.07,1.12-0.14c0.2-0.13,1.23-1.19,1.39-1.35c0.49-0.49,4.8-4.75,4.98-5.01
		c0.33-0.47,0.31-1.18-0.05-1.56c-0.41-0.44-1.07-1.07-1.52-1.52l-2.02-2.03c-0.2-0.2-2.89-2.93-3.18-3.16
		C8.64,3.79,8.1,3.59,7.66,3.59c-0.26,0-1.42,0.15-1.74,0.18C5.64,3.8,5.34,3.84,5.07,3.87C4.82,3.89,4.88,3.89,4.85,4.13
		c-0.02,0.11-0.06,0.29-0.06,0.4c0.12,0,0.25-0.02,0.36-0.04l1.06-0.12C6.46,4.34,6.7,4.32,6.93,4.3c0.6-0.08,0.93-0.14,1.47,0.13
		c0.2,0.1,0.32,0.25,0.47,0.4l6.2,6.21c0.16,0.16,0.29,0.33,0.25,0.62c-0.04,0.29-0.17,0.38-0.34,0.54l-5.76,5.76
		c-0.15,0.15-0.28,0.3-0.57,0.3c-0.3,0-0.46-0.17-0.61-0.32L2.92,12.8c-0.27-0.27-1.19-1.15-1.38-1.44
		C1.38,11.12,1.32,10.86,1.32,10.53z"/>
	<path class="st0" d="M9.72,10.69c0,0.29,0.16,0.43,0.3,0.6c0.5,0.58,1.1,0.29,1.1-0.24c0-0.32-0.52-0.84-0.84-0.84h-0.1
		C9.95,10.22,9.72,10.47,9.72,10.69z"/>
	<path class="st0" d="M5.33,11.13c0,0.42,0.55,0.92,0.84,0.92h0.1c0.21,0,0.46-0.23,0.46-0.54c0-0.31-0.64-1.09-1.12-0.81
		C5.48,10.78,5.33,10.95,5.33,11.13z"/>
</g>
</svg>
