<?xml version="1.0" encoding="utf-8"?>
<!-- Generator: Adobe Illustrator 19.1.0, SVG Export Plug-In . SVG Version: 6.00 Build 0)  -->
<svg version="1.1" id="_x31_" xmlns="http://www.w3.org/2000/svg" xmlns:xlink="http://www.w3.org/1999/xlink" x="0px" y="0px"
	 viewBox="0 0 15.1 15.1" style="enable-background:new 0 0 15.1 15.1;" xml:space="preserve">
<style type="text/css">
	.st0{fill-rule:evenodd;clip-rule:evenodd;fill:#FFFFFF;}
</style>
<path class="st0" d="M5.3,4c0.1-0.4-0.8-2.6-1-3.1C4.1,0.3,3.8-0.1,3,0C1.6,0.2,0.1,1.5,0,3.2c-0.1,1.3,0.4,2.3,0.9,3.3
	c0.9,1.9,3.6,4.8,5.4,6.1c1,0.8,1.9,1.5,3.2,2c2.6,1,4.7,0.1,5.5-2c0.5-1.6-0.6-1.7-1.7-2.2c-0.5-0.2-1-0.4-1.5-0.6
	c-0.8-0.2-1,0-1.3,0.6c-0.3,0.6-0.3,1-1.2,0.9c-0.5,0-1-0.4-1.4-0.6c-1.1-0.6-2.5-2-3.2-3c-0.2-0.3-0.6-1-0.8-1.3
	C3.7,6.1,3.6,5.8,3.7,5.5C3.8,4.6,5.1,4.9,5.3,4z"/>
</svg>
