<?xml version="1.0" encoding="utf-8"?>
<!-- Generator: Adobe Illustrator 19.1.0, SVG Export Plug-In . SVG Version: 6.00 Build 0)  -->
<svg version="1.1" id="Layer_1" xmlns="http://www.w3.org/2000/svg" xmlns:xlink="http://www.w3.org/1999/xlink" x="0px" y="0px"
	 viewBox="0 0 9.3 9.2" style="enable-background:new 0 0 9.3 9.2;" xml:space="preserve">
<style type="text/css">
	.st0{fill-rule:evenodd;clip-rule:evenodd;fill:#FFFFFF;}
</style>
<g>
	<path class="st0" d="M1.5,1.2C2.5,0.4,3.6,0,4.8,0C6,0,7.2,0.5,8,1.5c0.9,0.9,1.3,2.1,1.2,3.3C9.2,6,8.8,7.1,7.8,8
		C7,8.7,6.1,9.1,5.1,9.2C3.3,9.4,2.6,8.3,1.9,8.7C1.4,9,0.7,9.4,0.2,8.9c-0.5-0.5-0.1-1.2,0.2-1.7c0.4-0.7-0.6-1.5-0.3-3.2
		C0.3,2.9,0.7,2,1.5,1.2L1.5,1.2z M4.8,0.9c-1,0-1.9,0.3-2.7,1C1.5,2.5,1.1,3.2,1,4C0.9,4.9,1,5.7,1.4,6.4c0.2,0.3,0,0.7-0.2,1.1
		C1,7.8,0.8,8.2,0.9,8.2c0,0,0.3-0.2,0.6-0.3c0.4-0.2,0.8-0.4,1.1-0.2C3.3,8.2,4.2,8.4,5,8.3c0.8-0.1,1.6-0.4,2.2-1
		C8,6.6,8.4,5.7,8.4,4.7c0-1-0.3-1.9-1-2.7C6.7,1.3,5.8,0.9,4.8,0.9z"/>
	<path class="st0" d="M5.4,5.4H3.8V5.1c0-0.4,0-0.6,0.1-0.8C4,4.2,4.2,4.1,4.4,4l0.3-0.1C4.9,3.7,5,3.6,5,3.4c0-0.1,0-0.2-0.1-0.3
		C4.8,3.1,4.7,3.1,4.6,3.1c-0.3,0-0.4,0.2-0.4,0.6H2.7c0-0.5,0.1-0.9,0.4-1.3c0.2-0.2,0.4-0.4,0.7-0.6c0.3-0.1,0.6-0.2,0.9-0.2
		c0.5,0,1,0.2,1.3,0.5c0.4,0.4,0.5,0.8,0.5,1.3c0,0.6-0.3,1.1-0.8,1.4C5.6,4.9,5.5,4.9,5.5,5C5.4,5.1,5.4,5.2,5.4,5.4L5.4,5.4z
		 M4.6,5.6c0.3,0,0.5,0.1,0.7,0.3c0.2,0.2,0.3,0.4,0.3,0.7c0,0.3-0.1,0.5-0.3,0.7C5.2,7.6,4.9,7.7,4.6,7.7c-0.3,0-0.5-0.1-0.7-0.3
		C3.7,7.2,3.6,6.9,3.6,6.6c0-0.3,0.1-0.5,0.3-0.7C4.1,5.7,4.4,5.6,4.6,5.6z"/>
</g>
</svg>
