<?xml version="1.0" encoding="utf-8"?>
<!-- Generator: Adobe Illustrator 23.0.1, SVG Export Plug-In . SVG Version: 6.00 Build 0)  -->
<svg version="1.1" id="_x31_" xmlns="http://www.w3.org/2000/svg" xmlns:xlink="http://www.w3.org/1999/xlink" x="0px" y="0px"
	 viewBox="0 0 19.84 19.84" style="enable-background:new 0 0 19.84 19.84;" xml:space="preserve">
<style type="text/css">
	.st0{fill-rule:evenodd;clip-rule:evenodd;fill:#95A6C4;}
</style>
<path class="st0" d="M3.81,0h12.23c1.05,0,2,0.43,2.69,1.12c0.69,0.69,1.12,1.64,1.12,2.69v12.23c0,1.05-0.43,2-1.12,2.69
	c-0.69,0.69-1.64,1.12-2.69,1.12H3.81c-1.05,0-2-0.43-2.69-1.12C0.43,18.04,0,17.08,0,16.04v-3.34h2.35v3.34
	c0,0.4,0.16,0.76,0.43,1.03c0.26,0.26,0.63,0.43,1.03,0.43h12.23c0.4,0,0.76-0.16,1.03-0.43c0.26-0.26,0.43-0.63,0.43-1.03V3.81
	c0-0.4-0.16-0.76-0.43-1.03c-0.26-0.26-0.63-0.43-1.03-0.43H3.81c-0.4,0-0.76,0.16-1.03,0.43C2.52,3.04,2.35,3.41,2.35,3.81v3.34H0
	V3.81c0-1.05,0.43-2,1.12-2.69S2.76,0,3.81,0L3.81,0z M10.99,3.37L9.06,4.72l2.81,4.02H0.01v2.36h11.86l-2.81,4.02l1.93,1.35
	l4.58-6.53l0.01-0.01l0,0l0,0l-0.01-0.01L10.99,3.37z"/>
</svg>
