<?xml version="1.0" encoding="utf-8"?>
<!-- Generator: Adobe Illustrator 19.1.0, SVG Export Plug-In . SVG Version: 6.00 Build 0)  -->
<svg version="1.1" id="Layer_1" xmlns="http://www.w3.org/2000/svg" xmlns:xlink="http://www.w3.org/1999/xlink" x="0px" y="0px"
	 viewBox="0 0 350.8 348.7" style="enable-background:new 0 0 350.8 348.7;" xml:space="preserve">
<style type="text/css">
	.st0{fill-rule:evenodd;clip-rule:evenodd;fill:#3E99FD;}
</style>
<g>
	<path class="st0" d="M270.7,71.4c-28.5-26.6-65-39.2-101.1-37.9c-36,1.2-71.6,16.2-98.2,44.6c-26.6,28.5-39.2,65-37.9,101.1
		c1.2,36,16.2,71.6,44.6,98.2c24.1,22.5,53.9,34.9,84.4,37.5c31.1,2.6,62.9-5.1,89.7-22.9c12.4-8.2,26.1-0.9,41.8,7.5
		c10.6,5.7,23.2,12.4,23.6,11.9c1.6-1.7-5.7-15.4-11.8-26.9c-8.2-15.4-15.4-28.9-8.5-41.2c15.7-28,21.1-60,16.3-90.7
		C309,122.6,294.6,93.8,270.7,71.4L270.7,71.4z M168.5,0.1c44.6-1.5,89.8,14,124.9,46.8c29.6,27.7,47.4,63.3,53.2,100.5
		c10,64.3-26,93.8-11.4,121.3c11.3,21.1,24.7,46.3,6.9,65.4c-18,19.2-42.8,6-63.8-5.2c-26-13.9-53.8,24.7-118.6,19.3
		c-37.7-3.2-74.6-18.5-104.4-46.4C20.1,269,1.6,224.9,0.1,180.3c-1.5-44.6,14-89.8,46.8-124.9C79.8,20.1,123.9,1.6,168.5,0.1z"/>
	<g>
		<circle class="st0" cx="101.6" cy="178.9" r="31.6"/>
		<circle class="st0" cx="174.6" cy="178.9" r="31.6"/>
		<circle class="st0" cx="247.5" cy="178.9" r="31.6"/>
	</g>
</g>
</svg>
