<?xml version="1.0" encoding="utf-8"?>
<!-- Generator: Adobe Illustrator 19.1.0, SVG Export Plug-In . SVG Version: 6.00 Build 0)  -->
<svg version="1.1" id="_x31_" xmlns="http://www.w3.org/2000/svg" xmlns:xlink="http://www.w3.org/1999/xlink" x="0px" y="0px"
	 viewBox="0 0 18.3 21" style="enable-background:new 0 0 18.3 21;" xml:space="preserve">
<style type="text/css">
	.st0{fill-rule:evenodd;clip-rule:evenodd;fill:#fff;}
</style>
<path class="st0" d="M5.9,10.3l0,5.1c0.2,0,1.1-0.2,1.3-0.2l0-4.9c0.2,0,0.5-0.1,0.7-0.1c0.2,0,0.4-0.1,0.6-0.1
	c1.3-0.3,2-0.8,2.9-1.6c0.1-0.1,0.3-0.2,0.4-0.4c0.6-0.8,1.1-1.4,1.2-2.5c0-0.2,0.1-0.5,0.1-0.7c0-0.3-0.1-0.3-0.4-0.3H0.4
	C0.1,4.7,0,4.7,0,5c0,1.4,0.8,2.8,1.8,3.7l0.6,0.5C3.5,9.8,4.7,10.3,5.9,10.3L5.9,10.3z M5.9,18l0,0.8c-1.2,0.1-2.8,1-2.7,2.2l6.8,0
	c0-0.8-0.5-1.3-0.9-1.6c-0.4-0.3-1.2-0.6-1.8-0.7v-1.1L5.9,18L5.9,18z M5.3,14.4c-0.5,0-1.6,0.3-2.1,0.4c-1.2,0.5-0.5,1,0,1.1
	c3,0.8,6.1-1.5,8.7,0.1c0.1,0.1,0.3,0.2,0.4,0.3l0.3,0.3c0.4,0.3,0.2,0.8-0.2,0.7c-0.2,0-0.7-0.7-1.7-0.8c-1.3-0.2-3,0.4-4.2,0.7
	c-1.3,0.3-3.2,0.5-4.3-0.1c-1.2-0.6-1.7-2.1-0.6-3.2c0.2-0.2,0.4-0.4,0.7-0.5c0.3-0.1,0.6-0.3,0.9-0.3c0.6-0.2,1.4-0.4,2.1-0.5
	L5.3,14.4L5.3,14.4z M7,0c0.3,0.1,0.8,0.1,1.4,0.4c0.2,0.1,0.1,0.1,0.4,0.1c2.2-0.4,5.2,0.7,6.9,2C15.8,2.5,16,2.6,16,2.7
	c0.2,0.2,0.7,0.6,0.8,0.8c0.2,0.3,0.2,0.3,0.5,0.6c0.1,0.2,0.3,0.5,0.4,0.7c0.9,1.8,0.6,3.7-0.3,5.4c-0.6,1-1.3,1.8-2.2,2.3
	c-2.2,1.4-4.7,1.4-7.5,1.6l0-1.9l2.2-0.2c0.7-0.1,1.4-0.2,2.1-0.3c0.8-0.2,1.8-0.6,2.5-1.2c0.1-0.1,0.2-0.2,0.3-0.3l0.3-0.3
	c0.3-0.4,0.6-1,0.9-1.6c0.3-1,0.3-2-0.3-2.9c-0.2-0.2-0.3-0.5-0.5-0.7c-0.1-0.1-0.2-0.2-0.3-0.3c-0.1-0.1-0.2-0.2-0.3-0.3
	c-1.2-1.1-3.7-2-5.5-1.7C8.9,2.6,8.9,2.7,8.4,3C8,3.3,7.3,3.5,6.6,3.6c-2.8,0.3-4.3-1.8-2.2-3C5.3,0,6.1,0.1,6.3,0H7z"/>
</svg>
