<?xml version="1.0" encoding="utf-8"?>
<!-- Generator: Adobe Illustrator 19.1.0, SVG Export Plug-In . SVG Version: 6.00 Build 0)  -->
<svg version="1.1" id="_x31_" xmlns="http://www.w3.org/2000/svg" xmlns:xlink="http://www.w3.org/1999/xlink" x="0px" y="0px"
	 viewBox="0 0 11.8 15" style="enable-background:new 0 0 11.8 15;" xml:space="preserve">
<style type="text/css">
	.st0{fill-rule:evenodd;clip-rule:evenodd;fill:#95A6C4;}
</style>
<g>
	<path class="st0" d="M2,6.1C2,5.2,2,5,2.4,4.2C2.5,4,2.6,3.7,2.7,3.6l0.4-0.5l0.5-0.4c0.2-0.1,0.4-0.2,0.6-0.3
		c0.9-0.4,2.2-0.4,3.1,0c0.4,0.2,1,0.5,1.3,0.9c0,0,0.1,0.1,0.1,0.1c0.5,0.5,1,1.6,1,2.4c0,1-0.1,1.4-0.5,2.2C9.1,8.1,9,8.3,8.8,8.4
		C8.6,8.7,8.7,8.6,8.5,8.8C7.1,10,5.2,10.1,3.7,9.1L3.3,8.8C2.6,8.2,2,7.1,2,6.1L2,6.1z M5.7,0C4.9,0,4,0.2,3.3,0.6
		C2.3,1.1,1.3,2,0.8,3C0.3,3.9,0,4.7,0,5.8c0,0.3,0,0.6,0.1,0.9c0.1,0.6,0.4,1.6,0.6,2.2C0.8,9.1,0.9,9.3,1,9.5
		c0.1,0.1,0.1,0.2,0.2,0.3c0.3,0.6,0.9,1.4,1.3,2l1.3,1.5c0.2,0.2,0.3,0.3,0.5,0.5l0.5,0.5C5,14.4,5.5,15,5.8,15
		c0.3,0,0.4-0.1,0.7-0.3c0.3-0.3,0.6-0.5,1-0.9c0.2-0.2,0.3-0.3,0.5-0.5l1.3-1.5c1.7-2.1,3.3-5.4,2-8.3c0-0.1-0.1-0.2-0.1-0.2
		c-0.7-1.2-1.4-2-2.7-2.7C7.7,0.2,6.9,0,6.1,0H5.7z"/>
	<path class="st0" d="M3.6,5.7v0.1c0,1.9,2.5,2.9,3.8,1.6c0.9-0.9,0.9-2.3,0.1-3.2c-0.3-0.4-1-0.7-1.5-0.7H5.7
		C4.7,3.6,3.6,4.6,3.6,5.7z"/>
</g>
</svg>
