<?xml version="1.0" encoding="utf-8"?>
<!-- Generator: Adobe Illustrator 19.1.0, SVG Export Plug-In . SVG Version: 6.00 Build 0)  -->
<svg version="1.1" id="_x31_" xmlns="http://www.w3.org/2000/svg" xmlns:xlink="http://www.w3.org/1999/xlink" x="0px" y="0px"
	 viewBox="0 0 16.6 19.6" style="enable-background:new 0 0 16.6 19.6;" xml:space="preserve">
<style type="text/css">
	.st0{fill-rule:evenodd;clip-rule:evenodd;fill:#3972D1;}
</style>
<g>
	<path class="st0" d="M5.9,9.9c0.2,0,0.4,0.1,0.6,0.2c0.1,0,0.2,0.1,0.2,0.2c0.2,0.2,0.4,0.4,0.5,0.6c0.5,0.9-0.3,2-1.1,2
		c-0.3,0-0.4,0-0.7-0.2c-0.3-0.1-0.6-0.5-0.7-0.7C4.2,10.8,5.3,9.9,5.9,9.9L5.9,9.9z M4.7,0C4.5,0,4.4,0,4.2,0.2C4,0.4,4,0.6,4,1
		L3.7,2.9c0,0.1,0,0.3-0.1,0.5L2.4,3.5C1.6,3.6,0.9,4.3,0.6,5.1c-0.1,0.2-0.3,2.8-0.4,3c0,0.4-0.1,0.8-0.1,1.2c0,0.4-0.1,1-0.1,1.4
		c0,0.6,0.3,1.3,0.6,1.6c0.4,0.4,1.7,1.7,2.2,2.2l4.6,4.6c0.3,0.3,0.8,0.5,1.2,0.5h0.1c0.4,0,0.6,0,1-0.2c0.2-0.1,0.4-0.2,0.6-0.4
		L16,13c0.2-0.2,0.3-0.3,0.4-0.6c0.1-0.2,0.2-0.5,0.2-0.8v-0.2c0-0.3-0.1-0.6-0.2-0.9c-0.2-0.4-1.3-1.4-1.6-1.7L9.6,3.7
		C9.1,3.2,8.4,2.9,7.7,2.9c-0.3,0-1.9,0.2-2.4,0.2c-0.1,0-0.2,0-0.3,0C5,3,5.3,0.9,5.3,0.7C5.3,0.3,5,0,4.8,0H4.7L4.7,0z M9,10.9
		c0-0.3,0-0.4,0.2-0.7c0.1-0.3,0.5-0.5,0.7-0.7c0.2-0.1,0.4-0.1,0.6-0.1c0.2,0,0.4,0.1,0.5,0.2c0.8,0.5,1.1,1.5,0.4,2.3
		C10.3,13,9,11.7,9,10.9L9,10.9z M7.2,8.3c0,0.1,0.1,0.7,0.2,0.8l0.8,4c0.1,0.3,0.1,0.5,0.2,0.8l0.2,0.8c0.1,0,0.6-0.6,0.6-0.6
		c0-0.1-0.5-2.2-0.5-2.4c-0.2-0.7-0.3-1.7-0.5-2.4L7.9,7.6C7.8,7.7,7.2,8.2,7.2,8.3L7.2,8.3z M3.1,6.7c0,0.7,1.2,0.9,1.3,0.1
		c0-0.2,0-0.4,0.1-0.5c0-0.1,0-0.2,0-0.3c0-0.1,0-0.2,0-0.3c0.1,0,0.3,0.3,0.3,0.4c0.3,0.5,0.2,1.2-0.3,1.6C4.5,7.9,4.1,8,3.8,8
		C3.2,8,2.8,7.7,2.6,7.2C2.2,6.4,2.9,5.6,3.3,5.5C3.3,5.8,3.1,6.4,3.1,6.7L3.1,6.7z M1.3,10.5c0-0.2,0-0.3,0-0.5
		c0.1-1.1,0.3-2.3,0.4-3.4c0-0.3,0.1-1.1,0.2-1.4c0.3-0.5,0.7-0.4,1.2-0.5c0.3,0,0.3,0,0.3-0.1c0,0,0-0.1,0-0.1
		c0-0.1,0.1-0.3,0.1-0.5C3.5,4.1,3.1,4.1,3,4.1C2.6,4.1,2.4,4.1,2,4.3C1.9,4.4,1.8,4.5,1.7,4.6c-0.5,0.5-0.5,1-0.6,1.8
		C1.1,7,1,7.8,0.9,8.4L0.7,10c-0.1,0.7-0.1,1.2,0.4,1.8c0.2,0.3,5.5,5.6,6.3,6.3c0.3,0.3,0.5,0.5,0.9,0.7C8.6,19,9,18.9,9.4,18.7
		c0.2-0.1,1.2-1.2,1.4-1.3c0.5-0.5,4.8-4.7,5-5c0.3-0.5,0.3-1.2-0.1-1.6c-0.4-0.4-1.1-1.1-1.5-1.5l-2-2C11.9,7,9.3,4.3,9,4
		C8.6,3.8,8.1,3.6,7.7,3.6c-0.3,0-1.4,0.2-1.7,0.2c-0.3,0-0.6,0.1-0.9,0.1c-0.2,0-0.2,0-0.2,0.3c0,0.1-0.1,0.3-0.1,0.4
		c0.1,0,0.3,0,0.4,0l1.1-0.1c0.2,0,0.5-0.1,0.7-0.1c0.6-0.1,0.9-0.1,1.5,0.1c0.2,0.1,0.3,0.3,0.5,0.4l6.2,6.2
		c0.2,0.2,0.3,0.3,0.2,0.6c0,0.3-0.2,0.4-0.3,0.5L9.2,18c-0.2,0.2-0.3,0.3-0.6,0.3c-0.3,0-0.5-0.2-0.6-0.3l-5.1-5.1
		c-0.3-0.3-1.2-1.2-1.4-1.4C1.4,11.1,1.3,10.9,1.3,10.5z"/>
	<path class="st0" d="M9.7,10.7c0,0.3,0.2,0.4,0.3,0.6c0.5,0.6,1.1,0.3,1.1-0.2c0-0.3-0.5-0.8-0.8-0.8h-0.1
		C9.9,10.2,9.7,10.5,9.7,10.7z"/>
	<path class="st0" d="M5.3,11.1c0,0.4,0.5,0.9,0.8,0.9h0.1c0.2,0,0.5-0.2,0.5-0.5c0-0.3-0.6-1.1-1.1-0.8C5.5,10.8,5.3,11,5.3,11.1z"
		/>
</g>
</svg>
