<?xml version="1.0" encoding="utf-8"?>
<!-- Generator: Adobe Illustrator 19.1.0, SVG Export Plug-In . SVG Version: 6.00 Build 0)  -->
<svg version="1.1" id="_x31_" xmlns="http://www.w3.org/2000/svg" xmlns:xlink="http://www.w3.org/1999/xlink" x="0px" y="0px"
	 viewBox="0 0 38.9 45.6" style="enable-background:new 0 0 38.9 45.6;" xml:space="preserve">
<style type="text/css">
	.st0{fill-rule:evenodd;clip-rule:evenodd;fill:#EF041D;}
</style>
<g>
	<path class="st0" d="M0,41.9c0.1,1.3,0.8,2.3,1.4,2.8c1.2,0.8,1.8,0.9,3.4,0.9l17,0c2.1,0,5.2,0.4,6.6-0.9c0.1-0.1,0.1-0.1,0.3-0.3
		c0.9-0.9,1.1-2.1,1.1-3.6c0-4,0.1-9.1,0-12.8c-0.4,0.3-1.8,1.7-2.4,2.3c-0.2,0.2-0.2,0.2-0.2,0.7c0,2.1,0.2,8.3-0.2,9.4
		c-0.9,2.2-2.9,2-5.6,2l-15.2,0c-1.3,0-2.1-0.4-2.7-1.1c-0.8-0.9-0.7-1.7-0.7-3.1c0-2.5,0-5,0-7.6c0-2.4-0.2-5.3,0-7.7
		c0.1-2.3-0.3-9.5,0.2-11c0.2-0.6,0.6-1.2,1.1-1.5C4.6,9.9,5.1,9.7,6,9.7c2.6,0,18-0.1,18.6,0.1c0.9,0.2,1.2,0.5,1.7,1
		c1.1,1.1,0.8,2.7,0.9,4.5c0.4-0.2,1.7-1.7,2.1-2.1c0.6-0.6,0.5-0.6,0.5-1.7c0-0.7,0-1.5,0-2.1c-0.2-2.3-2.4-4-5-3.5
		c-0.4,0.9,0.1,1.5-0.9,2.1c-0.7,0.5-1.8,0.3-2.7,0.3H8.8c-1.5,0-2.9,0.3-3.6-1C5,6.7,5.2,6.3,5,5.9c-0.3-0.4-2.7-0.3-3.9,1
		C0,8.1,0,9.3,0,11.3L0,41.9z"/>
	<path class="st0" d="M13.8,0.1c-2.2,0.2-4.7,1.4-6.3,2.8C6.8,3.5,6.2,3.6,6.2,4.8C6.2,5.7,6,7,7,7.1l15.2,0c1.5,0,1.4-0.2,1.4-1.7
		c0-1.9,0-1.5-1.7-2.9C19.6,0.7,16.7-0.2,13.8,0.1L13.8,0.1z M14.9,2.2c1,0,1.7,0.8,1.7,1.7s-0.8,1.7-1.7,1.7c-1,0-1.7-0.8-1.7-1.7
		S13.9,2.2,14.9,2.2z"/>
	<path class="st0" d="M17.7,27.1c-0.1,0.4,0.5,0.8,1.1,1.4l4,3.9l11.7-11.7l-5.1-5.2L17.7,27.1z"/>
	<path class="st0" d="M30.6,14.3l0.6,0.7c0.8,0.8,4.1,4.2,4.5,4.4l2.1-2.1c0.3-0.3,0.5-0.4,0.7-0.7c1.1-1.9-0.5-3-1.3-3.8
		c-0.7-0.7-1.9-2.4-3.7-1.4C33.1,11.7,30.8,13.9,30.6,14.3z"/>
	<path class="st0" d="M13.8,36.3c0.5-0.1,7.6-2.5,7.7-2.6l-5-5.1C16.2,28.8,14,35.4,13.8,36.3z"/>
</g>
</svg>
