<?xml version="1.0" encoding="utf-8"?>
<!-- Generator: Adobe Illustrator 21.1.0, SVG Export Plug-In . SVG Version: 6.00 Build 0)  -->
<svg version="1.1" id="_x31_" xmlns="http://www.w3.org/2000/svg" xmlns:xlink="http://www.w3.org/1999/xlink" x="0px" y="0px"
	 viewBox="0 0 18 18" style="enable-background:new 0 0 18 18;" xml:space="preserve">
<style type="text/css">
	.st0{fill-rule:evenodd;clip-rule:evenodd;fill:#508EF4;}
</style>
<path class="st0" d="M5.6,4.6c1-0.3,2.5,0.6,3.2,1c0.5,0.3,0.8,0.5,1.3,0.8l1.1,1c1,1,0.9,2.2,0.1,3.1c-0.6,0.6-1.6,1.3-2.4,1.8
	c-2.1,1.3-4.6,2.1-5.1-1.2c-0.2-1.3-0.2-2.8,0-4C4,5.7,4.4,4.9,5.6,4.6L5.6,4.6z M14.6,7.5c0,2,0.1,6-0.4,7.6
	c-0.6,1.9-1.9,1.9-2.8,2.4c6.1,0.1,6.1-2.2,6.1-7.8c0-1.9,0.1-5.3-0.5-6.9c-0.9-2-3.4-2.3-5.4-2.2c0.1,0.1,0,0,0.2,0.1
	c0.9,0.4,1.8,0.6,2.4,2.3C14.6,4.2,14.6,6.1,14.6,7.5L14.6,7.5z M0,7.7C0,17.8,0.1,18,10.1,18c8.2,0,7.9-1.5,7.9-10.1
	C18-0.3,16.5,0,7.8,0C1,0,0,0.9,0,7.7L0,7.7z M5.5,9.1c0,3.1,0.6,2.5,1.5,2.2c1-0.4,1.9-1,2.6-1.6c0.9-0.8,0.7-1-0.9-2.1
	c-3.1-2.1-3-1.2-3.1-0.1L5.5,9.1z"/>
</svg>
