<?xml version="1.0" encoding="utf-8"?>
<!-- Generator: Adobe Illustrator 19.1.0, SVG Export Plug-In . SVG Version: 6.00 Build 0)  -->
<svg version="1.1" id="_x31_" xmlns="http://www.w3.org/2000/svg" xmlns:xlink="http://www.w3.org/1999/xlink" x="0px" y="0px"
	 viewBox="0 0 18 12.5" style="enable-background:new 0 0 18 12.5;" xml:space="preserve">
<style type="text/css">
	.st0{fill-rule:evenodd;clip-rule:evenodd;fill:#FFFFFF;}
</style>
<g>
	<path class="st0" d="M7.9,4c0.5-0.2,1-0.3,1.9-0.8c0.3-0.2,0.6-0.3,0.9-0.5c0.3-0.2,0.5-0.4,0.9-0.6v6.2c-0.3-0.1-0.5-0.3-0.9-0.5
		c-0.3-0.2-0.6-0.4-0.9-0.5c-0.4-0.2-1.5-0.7-2-0.7V4L7.9,4z M2,6.2c-1.1,0-1.4-1.8,0.1-1.8C3.2,4.4,3.1,6.2,2,6.2L2,6.2z M0,5.1
		c0,2.7,2.3,2.4,2.6,2.7l2.7,3.8c0.9,1.2,0.6,1.1,1.8,0.3c1.3-1,0.9-0.6-0.9-3.3C6,8.2,5.7,7.9,5.6,7.6c3.7,0,6.3,3,6.7,3
		c0.5,0,0.7-0.5,0.7-1V0.9c0-1-0.5-0.9-0.9-0.9C12,0,11.4,0.6,11,0.9c-0.7,0.6-2,1.2-2.8,1.5C4.4,3.7,2.4,2,0.7,3.6
		C0.4,3.9,0,4.5,0,5.1z"/>
	<path class="st0" d="M13.9,7.4c-0.2,0.8,0,0.7,1.2,1.9c0.3,0.3,1.2,1.3,1.6,1.3c0.3,0,0.4-0.2,0.4-0.5c0-0.2-2.5-2.7-2.6-2.8
		C14.2,7.2,14.3,7.3,13.9,7.4z"/>
	<path class="st0" d="M13.7,3c0.5,0.8,0.8,0.2,1.9-1C16.1,1.6,17,0.9,17,0.5c0-0.3-0.2-0.4-0.5-0.4C16.3,0.1,13.8,2.5,13.7,3z"/>
	<path class="st0" d="M13.8,5.3c0,0.2,0.1,0.5,0.4,0.5h3.5c0.5,0,0.5-0.8,0-0.8h-3.5C14,4.9,13.8,5.1,13.8,5.3z"/>
</g>
</svg>
