<?xml version="1.0" encoding="utf-8"?>
<!-- Generator: Adobe Illustrator 19.1.0, SVG Export Plug-In . SVG Version: 6.00 Build 0)  -->
<svg version="1.1" id="Layer_1" xmlns="http://www.w3.org/2000/svg" xmlns:xlink="http://www.w3.org/1999/xlink" x="0px" y="0px"
	 viewBox="0 0 267.2 348.7" style="enable-background:new 0 0 267.2 348.7;" xml:space="preserve">
<style type="text/css">
	.st0{fill-rule:evenodd;clip-rule:evenodd;fill:#3E99FD;}
</style>
<path class="st0" d="M61,161.6c-0.1-0.2-0.1-0.1-0.2-0.5l0-1.4C61,137.9,60.3,38.9,61,37.2c3.4-0.4,9.1-0.1,12.8-0.1
	c13.7,0,88.6-0.3,89.7,0.2c4.8-0.5,24.7,0.6,29.5,3.1l6.6,4.3c9,6.3,14.4,11.9,19,24.4c9,24.3,5.1,51.1-7.4,69.6
	c-5.7,8.4-12.4,15.3-24,19.4c-12,4.2-26.1,3.6-39.5,3.6H82.5C75.6,161.6,67.9,161.3,61,161.6L61,161.6z M0.2,212.5l0,36.1l21.9,0.2
	l0,99.9l38.8,0l0-99.9c2.5-0.6,14-0.1,17.4-0.1c29,0,58,0,87,0c11.5,0,23.1,0.2,34.6,0l0-36.2l-139-0.1l0-14.5
	c2.2-0.3,79.1-0.1,81.1-0.1c26.2,0,49.4,0.4,71.5-9.7c4.7-2.2,9.2-4.5,13-7.3c2.1-1.5,3.9-2.8,5.7-4.4c1.9-1.7,3.6-3.1,5.3-4.9
	c5.4-5.8,13.2-16,17.4-23.2c11.8-20.2,14.8-43.4,10.3-67C261,59.5,254.1,41.1,239,26.4c-3.5-3.4-6.5-6.3-10.9-9.4
	c-13.5-9.2-27.6-14.1-44.8-15.8c-13-1.3-26.4-1-39.6-1H42.1c-6.5,0-13.6-0.3-20,0v161.5L0,161.7l0,36.2l22.1,0L22,212.5L0.2,212.5z"
	/>
</svg>
