<?xml version="1.0" encoding="utf-8"?>
<!-- Generator: Adobe Illustrator 19.1.0, SVG Export Plug-In . SVG Version: 6.00 Build 0)  -->
<svg version="1.1" id="_x31_" xmlns="http://www.w3.org/2000/svg" xmlns:xlink="http://www.w3.org/1999/xlink" x="0px" y="0px"
	 viewBox="0 0 30 30" style="enable-background:new 0 0 30 30;" xml:space="preserve">
<style type="text/css">
	.st0{fill-rule:evenodd;clip-rule:evenodd;fill:#FFCC00;}
	.st1{fill-rule:evenodd;clip-rule:evenodd;fill:#FFFFFF;}
</style>
<path class="st0" d="M15,30c8.3,0,15-6.7,15-15c0-8.3-6.7-15-15-15S0,6.7,0,15C0,23.3,6.7,30,15,30z"/>
<path class="st1" d="M22.5,9l-15,0c0.1,0.2,3.2,3.3,3.6,3.7c0.6,0.6,3,3.5,3.8,3.5c0.8,0,3.2-3,3.8-3.5C20.1,11.6,21.4,10.2,22.5,9
	L22.5,9z M12.5,16c0.6,0.5,1.2,1.6,2.5,1.6c1.3,0,1.9-1,2.5-1.6c0.4,0.3,2,2.1,2.5,2.5c0.4,0.4,0.8,0.8,1.3,1.3
	c0.2,0.2,0.4,0.4,0.6,0.6c0.2,0.2,0.8,0.6,0.3,0.6H7.8c-0.4,0,0.8-1,1-1.2c0.4-0.4,0.8-0.9,1.2-1.3C10.8,17.6,11.7,16.8,12.5,16
	L12.5,16z M6.6,20V10c0.4,0.6,4.9,4.7,4.9,5C11.5,15,6.8,19.9,6.6,20L6.6,20z M18.5,15l4.8-4.9l0,9.9L18.5,15z"/>
</svg>
