<?xml version="1.0" encoding="utf-8"?>
<!-- Generator: Adobe Illustrator 23.0.1, SVG Export Plug-In . SVG Version: 6.00 Build 0)  -->
<svg version="1.1" xmlns="http://www.w3.org/2000/svg" xmlns:xlink="http://www.w3.org/1999/xlink" x="0px" y="0px"
	 viewBox="0 0 39 38.8" style="enable-background:new 0 0 39 38.8;" xml:space="preserve">
<style type="text/css">
	.st0{fill-rule:evenodd;clip-rule:evenodd;fill:#BDCFF2;}
</style>
<g id="_x31_">
	<g>
		<path class="st0" d="M9.3,13.3v13.4c0,0.4,0.4,0.7,0.8,0.7h17.6c0.3,0,0.7-0.2,0.8-0.5c0.1-0.2,0-0.9,0-1.2c0-0.8,0-1.7,0-2.5
			c-0.1,0-0.1,0-0.1,0h-1.5c-1,0-1.9-0.6-2.4-1.4c-0.5-1-0.3-2,0.3-2.8c0.2-0.2,0.5-0.4,0.7-0.6c0.7-0.4,1.4-0.3,2.2-0.3l0.6,0
			c0.1,0,0.1,0,0.2,0l0-4.4c0-0.3-0.1-0.4-0.2-0.5c-0.3-0.3-0.7-0.2-1.2-0.2H11.6c-0.3,0-0.5,0-0.7,0c-0.1,0-0.2,0-0.3-0.1
			c-0.2-0.1-0.2-0.5,0.1-0.5l1.7,0c0.2,0,0.2,0,0.4-0.1l0.6-0.4c0.1,0,0.1-0.1,0.1-0.1h-2.2c-0.3,0-0.5,0-0.7,0
			c-0.4,0-0.8,0.1-1,0.4C9.4,12.3,9.3,12.8,9.3,13.3z"/>
		<path class="st0" d="M13.1,12.6l3.5,0l1.9-0.7c0.6-0.2,1.3-0.5,1.9-0.7l2.8-1.1c0.1,0,0.2-0.1,0.3-0.1l0.6-0.2
			c0-0.1-2-2.7-2.3-3.1c0-0.1-0.1-0.2-0.2-0.2c-0.1,0-0.2,0.1-0.3,0.2l-1.6,1.1c-0.1,0.1-0.2,0.1-0.3,0.2c-0.1,0.1-0.2,0.1-0.3,0.2
			c-0.5,0.3-1,0.7-1.5,1.1c0,0-0.1,0.1-0.1,0.1c-0.1,0.1-0.2,0.1-0.3,0.2l-1.5,1.1c0,0-0.1,0.1-0.1,0.1l-2.1,1.5
			C13.6,12.3,13.2,12.5,13.1,12.6z"/>
		<path class="st0" d="M25.9,20.6c0-0.6,0.6-1.1,1.2-0.9c0.6,0.1,1,0.9,0.6,1.5c-0.1,0.1-0.2,0.3-0.4,0.3
			C26.5,21.8,25.9,21.3,25.9,20.6L25.9,20.6z M24.9,20.6c0,0.3,0.1,0.6,0.2,0.8c0.1,0.1,0.1,0.2,0.2,0.3c0.3,0.5,0.9,0.9,1.5,0.9
			h1.7c0.1,0,0.1,0,0.1-0.1c0.1-0.1,1.1-0.9,1.1-1c0-0.1,0-0.6,0-0.8c0-0.1,0-0.2,0-0.4v-2.7c-0.3,0.2-1,0.8-1.2,1
			c-0.1,0-0.1,0-0.2,0c-0.5,0-1.4,0-1.9,0.1c-0.6,0.1-1.1,0.6-1.3,1.1C25,20,24.9,20.3,24.9,20.6z"/>
		<path class="st0" d="M18.1,12.6h8.3c0-0.1-0.1-0.3-0.1-0.3l-0.9-2.3l-4.6,1.7c-0.3,0.1-0.6,0.2-0.9,0.3L18.1,12.6z"/>
		<path class="st0" d="M26.9,12.3c0.3,0,0.6,0,0.9,0c0.6,0,1.1-0.1,1.2,0.6c0,0.3,0,4.1,0,4.5l0.5-0.2c0,0,0.1,0,0.1-0.1v-4.5
			c0-0.3-0.3-0.7-0.6-0.9c-0.3-0.2-0.9-0.1-1.4-0.1c-0.3,0-0.7,0-1,0C26.7,11.7,26.9,12.2,26.9,12.3z"/>
		<path class="st0" d="M29,22.6v3.7c0.3,0,0.6-0.3,0.6-0.5c0.1-0.2,0-0.9,0-1.1c0-0.8,0-1.6,0-2.3c-0.1,0-0.4,0.2-0.5,0.2
			C29.1,22.5,29,22.6,29,22.6z"/>
	</g>
</g>
<g id="Capa_1">
	<path class="st0" d="M30.1,7.9c-3.2-3-7.2-4.4-11.2-4.2c-4,0.1-8,1.8-10.9,5c-3,3.2-4.4,7.2-4.2,11.2c0.1,4,1.8,8,5,10.9
		c2.7,2.5,6,3.9,9.4,4.2c3.5,0.3,7-0.6,10-2.5c1.4-0.9,2.9-0.1,4.7,0.8c1.2,0.6,2.6,1.4,2.6,1.3c0.2-0.2-0.6-1.7-1.3-3
		c-0.9-1.7-1.7-3.2-0.9-4.6c1.7-3.1,2.3-6.7,1.8-10.1C34.4,13.6,32.8,10.4,30.1,7.9L30.1,7.9z M18.7,0c5-0.2,10,1.6,13.9,5.2
		c3.3,3.1,5.3,7,5.9,11.2c1.1,7.1-2.9,10.4-1.3,13.5c1.3,2.3,2.7,5.1,0.8,7.3c-2,2.1-4.8,0.7-7.1-0.6c-2.9-1.5-6,2.7-13.2,2.1
		c-4.2-0.4-8.3-2.1-11.6-5.2C2.2,29.9,0.2,25,0,20c-0.2-5,1.6-10,5.2-13.9C8.9,2.2,13.8,0.2,18.7,0z"/>
</g>
</svg>
