<?xml version="1.0" encoding="utf-8"?>
<!-- Generator: Adobe Illustrator 19.1.0, SVG Export Plug-In . SVG Version: 6.00 Build 0)  -->
<svg version="1.1" id="_x31_" xmlns="http://www.w3.org/2000/svg" xmlns:xlink="http://www.w3.org/1999/xlink" x="0px" y="0px"
	 viewBox="0 0 11.7 18" style="enable-background:new 0 0 11.7 18;" xml:space="preserve">
<style type="text/css">
	.st0{fill-rule:evenodd;clip-rule:evenodd;fill:#FFFFFF;}
</style>
<g>
	<path class="st0" d="M11,6.7c0-0.3,0-0.6-0.4-0.6c-0.4,0-0.5,0.3-0.5,0.5l0,1c0,0.5,0,1,0,1.5c0,1.7-0.1,3.1-1.6,4.3
		c-1.8,1.3-4.7,1.1-6.1-0.9c-0.8-1.1-0.7-2.2-0.7-3.7c0-0.7,0-1.5,0-2.2c0-0.4-0.1-0.6-0.5-0.6c-0.4,0-0.5,0.2-0.5,0.6
		c0,2.8-0.5,5.3,1.6,7.2c0.9,0.8,1.7,1.1,3,1.3l0,1.4l-2.4,0C2.7,16.8,2,17.8,1.9,18l7.9,0c-0.2-0.3-0.7-1.1-0.9-1.3
		c-0.5,0-2,0.1-2.4,0l0-1.4c1.3-0.2,2.2-0.5,3.1-1.4C11.6,11.8,11,9.4,11,6.7z"/>
	<path class="st0" d="M5.5,5.9L5.1,6C5,5,5.2,1.5,5.1,0.1c-0.6,0-0.6,0.2-0.6,0.5c0,0.1,0,0.3,0,0.4l0,3.9c0,1.1,0.1,1.3-0.4,1.1
		l0-5.5C3.3,0.7,3.4,1.1,3.4,1.4c0,0.5,0,1,0,1.5c0,0.7,0.1,2.3,0,3L3,6C2.9,5.5,3,2.3,3,1.5C2.4,1.9,2.4,3.3,2.4,4.1c0,1,0,2.1,0,3
		l6.9,0l0-1.2c0-1.3,0.2-3.2-0.4-4.2C8.7,1.4,8.8,1.5,8.7,1.4c0,0.8,0.1,3.9,0,4.5L8.3,6c-0.1-0.3,0-4.4,0-5.1
		C8.1,0.7,7.9,0.5,7.6,0.4c0,0.7,0.1,5.1,0,5.5L7.2,6C7,5,7.3,0.6,7.1,0.2C7.1,0.1,6.8,0.1,6.6,0.1l0,5.9C6,6.1,6.1,5.8,6.1,4.8
		c0-1,0.1-4.3,0-4.8L5.5,0L5.5,5.9z"/>
	<path class="st0" d="M4.6,13.3c0,0,0.1,0.1,0.2,0.1c1.5,0.2,2.8,0.2,3.8-1c0.9-1,0.7-2.3,0.7-3.6l-6.8,0c-0.1,1-0.1,2.1,0.4,2.9
		C3.1,12.4,3.8,13.1,4.6,13.3z"/>
	<polygon class="st0" points="1.8,7.8 2.3,7.8 2.2,6.9 1.8,6.9 	"/>
	<polygon class="st0" points="11.3,7.8 11.7,7.8 11.7,6.9 11.3,6.9 	"/>
	<polygon class="st0" points="9.6,7.8 10,7.8 10,6.9 9.5,6.9 	"/>
	
		<rect x="0" y="6.9" transform="matrix(-0.9997 2.257186e-002 -2.257186e-002 -0.9997 0.6094 14.7454)" class="st0" width="0.4" height="0.9"/>
	<rect x="2.4" y="7.6" class="st0" width="6.9" height="0.7"/>
</g>
</svg>
