<?xml version="1.0" encoding="utf-8"?>
<!-- Generator: Adobe Illustrator 19.1.0, SVG Export Plug-In . SVG Version: 6.00 Build 0)  -->
<svg version="1.1" id="_x31_" xmlns="http://www.w3.org/2000/svg" xmlns:xlink="http://www.w3.org/1999/xlink" x="0px" y="0px"
	 viewBox="0 0 14.2 18" style="enable-background:new 0 0 14.2 18;" xml:space="preserve">
<style type="text/css">
	.st0{fill-rule:evenodd;clip-rule:evenodd;fill:#508EF4;}
</style>
<g>
	<path class="st0" d="M7.1,0c2,0,3.7,0.7,5,1.9c1.3,1.2,2.1,2.9,2.1,4.8c0,1.5-1,3.7-2.2,5.7C10.3,15.3,7.8,18,7.1,18
		c-0.7,0-3.2-2.7-4.9-5.6C1,10.4,0,8.2,0,6.7c0-1.9,0.8-3.5,2.1-4.8C3.4,0.7,5.2,0,7.1,0L7.1,0z M11,3.2c-1-0.9-2.4-1.5-3.9-1.5
		S4.2,2.2,3.2,3.2c-1,0.9-1.6,2.2-1.6,3.5c0,1.2,0.9,3,1.9,4.8c1.5,2.5,3.2,4.8,3.5,4.8c0.3,0,2-2.3,3.5-4.8
		c1.1-1.8,1.9-3.7,1.9-4.8C12.6,5.3,12,4.1,11,3.2z"/>
	<path class="st0" d="M7.1,2.9c1,0,2,0.4,2.7,1.1l0,0l0,0c0.7,0.7,1.1,1.6,1.1,2.7c0,1.1-0.4,2-1.1,2.7l0,0
		c-0.7,0.7-1.6,1.1-2.7,1.1c-1.1,0-2-0.4-2.7-1.1C3.7,8.7,3.3,7.8,3.3,6.7c0-1,0.4-2,1.1-2.7l0,0C5.1,3.3,6.1,2.9,7.1,2.9L7.1,2.9z
		 M8.4,5.4C8.1,5.1,7.6,4.9,7.1,4.9c-0.5,0-0.9,0.2-1.3,0.5h0C5.5,5.8,5.3,6.2,5.3,6.7c0,0.5,0.2,0.9,0.5,1.3
		c0.3,0.3,0.8,0.5,1.3,0.5c0.5,0,0.9-0.2,1.3-0.5v0c0.3-0.3,0.5-0.8,0.5-1.3C8.9,6.2,8.7,5.8,8.4,5.4L8.4,5.4z"/>
</g>
</svg>
