<?xml version="1.0" encoding="utf-8"?>
<!-- Generator: Adobe Illustrator 23.0.1, SVG Export Plug-In . SVG Version: 6.00 Build 0)  -->
<svg version="1.1" id="_x31_" xmlns="http://www.w3.org/2000/svg" xmlns:xlink="http://www.w3.org/1999/xlink" x="0px" y="0px"
	 viewBox="0 0 21.12 21" style="enable-background:new 0 0 21.12 21;" xml:space="preserve">
<style type="text/css">
	.st0{fill-rule:evenodd;clip-rule:evenodd;fill:#95A6C4;}
</style>
<path class="st0" d="M3.45,2.83c2.12-1.98,4.84-2.91,7.52-2.82c2.69,0.09,5.34,1.21,7.32,3.33c1.98,2.12,2.91,4.84,2.82,7.52
	c-0.09,2.69-1.21,5.34-3.33,7.32c-1.79,1.68-4.02,2.6-6.29,2.79c-3.9,0.33-5.58-2-7.14-1.16c-1.27,0.68-2.76,1.47-3.84,0.32
	c-1.07-1.15-0.26-2.66,0.41-3.94c0.88-1.65-1.29-3.43-0.69-7.3C0.6,6.64,1.67,4.49,3.45,2.83L3.45,2.83z M12.29,12.28
	c0-0.47,0.04-0.77,0.13-0.91c0.08-0.14,0.32-0.31,0.71-0.5c1.18-0.59,1.78-1.62,1.78-3.08c0-1.18-0.41-2.18-1.24-2.98
	c-0.83-0.8-1.85-1.2-3.06-1.2c-0.68,0-1.34,0.16-1.98,0.48c-0.64,0.32-1.16,0.76-1.56,1.3c-0.54,0.74-0.81,1.7-0.81,2.87h3.34
	c0-0.87,0.31-1.31,0.94-1.31c0.23,0,0.43,0.08,0.59,0.24c0.16,0.16,0.24,0.36,0.24,0.59c0,0.4-0.25,0.71-0.74,0.93L9.95,9
	C9.48,9.21,9.15,9.51,8.97,9.89c-0.18,0.38-0.27,0.98-0.27,1.78v0.61H12.29L12.29,12.28z M10.55,12.8c-0.63,0-1.17,0.22-1.62,0.67
	c-0.45,0.45-0.67,0.99-0.67,1.64c0,0.67,0.21,1.21,0.64,1.64c0.43,0.43,0.97,0.64,1.64,0.64c0.64,0,1.18-0.22,1.63-0.66
	c0.45-0.44,0.68-0.98,0.68-1.61c0-0.63-0.23-1.17-0.68-1.63C11.72,13.03,11.18,12.8,10.55,12.8L10.55,12.8z M10.91,2.02
	C8.74,1.94,6.54,2.7,4.83,4.3C3.38,5.65,2.52,7.38,2.23,9.19c-0.29,1.85,0.04,3.78,0.98,5.46c0.42,0.74-0.01,1.55-0.51,2.48
	C2.34,17.82,1.9,18.65,2,18.75c0.03,0.03,0.78-0.38,1.42-0.72c0.94-0.5,1.77-0.95,2.52-0.45c1.62,1.07,3.53,1.53,5.4,1.38
	c1.83-0.15,3.63-0.9,5.08-2.26c1.71-1.6,2.61-3.74,2.69-5.91c0.07-2.17-0.68-4.37-2.28-6.09C15.22,2.99,13.08,2.09,10.91,2.02z"/>
</svg>
