<?xml version="1.0" encoding="utf-8"?>
<!-- Generator: Adobe Illustrator 21.1.0, SVG Export Plug-In . SVG Version: 6.00 Build 0)  -->
<svg version="1.1" id="Capa_1" xmlns="http://www.w3.org/2000/svg" xmlns:xlink="http://www.w3.org/1999/xlink" x="0px" y="0px"
	 viewBox="0 0 13.5 22.5" style="enable-background:new 0 0 13.5 22.5;" xml:space="preserve">
<style type="text/css">
	.st0{fill-rule:evenodd;clip-rule:evenodd;fill:#508EF4;}
</style>
<g>
	<path class="st0" d="M0.4,11.8C0.3,11.9,0.4,11.9,0.4,11.8c-0.1,0.7-1,1.2,0.7,2.4c0.1,0.1,0.6,0.4,0.7,0.5l1,0.5
		c0,0,0.1,0,0.2,0.1l0.2,0.1c0,0,1.8,0.5,2.6,0.5l-3.8,3.8c-1,1-0.7,0.7-0.9,1.6c0.1,0.2,0.1,0.4,0.5,0.8c0.3,0.3,0.4,0.3,0.8,0.5
		h0.3L3,22.4c0.5-0.2,2-1.9,2.5-2.4c0.3-0.3,0.6-0.7,0.9-0.9c0.1-0.2,0.2-0.2,0.3-0.4c0.2,0.1,1.7,1.7,2,1.9
		c0.3,0.3,1.1,1.2,1.5,1.5c0.2,0.2,0.6,0.3,0.6,0.3c0,0,0,0,0,0h0.4c0.5-0.3,0.1,0.1,0.9-0.5c0.1,0,0,0,0.1-0.1c0-0.1,0-0.1,0.1-0.2
		c0-0.1,0.1-0.2,0.1-0.3c0,0,0-0.1,0-0.1c0.1-0.1,0,0,0.1-0.1c0-0.2,0-0.3,0-0.5c0-0.2-0.1-0.2-0.1-0.4c-0.1-0.1-0.2-0.2-0.3-0.3
		l-4.2-4.3c1-0.1,2.2-0.3,3-0.7c0.7-0.3,1.5-0.8,2-1.2c0-0.1,0-0.1,0,0c0.2-0.2,0.5-0.4,0.6-0.9c0.1-0.4-0.1-0.8-0.3-1.1
		c-0.1-0.1-0.2-0.2-0.3-0.3c-1.1-0.6-1.6,0.1-1.9,0.2c-0.1,0.2-0.1,0.1-0.3,0.3c-0.1,0.1-0.2,0.1-0.3,0.2c-0.2,0.1-0.5,0.3-0.7,0.3
		c-0.2,0.2-1.2,0.4-1.5,0.4c-0.1,0,0,0-0.1,0c0,0-0.1,0-0.1,0c-0.1,0-0.1,0-0.2,0L7,13.1c-0.1,0-0.2,0-0.3,0c-0.1,0-0.1,0-0.1,0
		c-0.2,0-0.1,0-0.1,0c-0.3,0.1-0.7,0-1-0.1l-0.3-0.1c-0.3,0-1.2-0.3-1.5-0.4c-0.3-0.1-0.5-0.2-0.7-0.4c-0.1-0.1-0.2-0.1-0.3-0.2
		c-0.1-0.1-0.2-0.1-0.3-0.2c-0.3,0-0.5-0.3-1.1-0.3C0.7,11.4,0.5,11.7,0.4,11.8z"/>
	<path class="st0" d="M9.5,6.1L9.4,6.6C9.3,7,9,7.4,8.7,7.7C8.6,7.9,8,8.3,7.6,8.3c0,0.1,0,0-0.1,0.1c0,0-0.1,0-0.1,0
		c-0.1,0-0.2,0-0.3,0c-0.4,0-0.6,0-0.9,0c-0.3,0-0.5-0.1-0.7-0.2C5.4,8.1,5.3,8.1,5.2,8C5.1,7.9,5.1,7.9,5,7.8
		c-0.2,0-0.2-0.1-0.3-0.2c0-0.1-0.1-0.1-0.1-0.1c-0.1-0.1,0,0-0.1-0.1C4.3,7.2,4.1,6.7,4.1,6.5c-0.3-1,0-2,0.7-2.7
		c0.9-1,2.7-1.1,3.5-0.4c0.2,0.1,0.2,0.1,0.4,0.3C8.8,3.8,8.9,3.8,9,4c0.2,0.2,0.5,0.7,0.5,1.1C9.6,5.5,9.6,5.7,9.5,6.1L9.5,6.1z
		 M1.6,3.3L1.4,3.9c-0.1,0.3-0.3,1-0.3,1.4l0,0.7l0.2,1.2l0.2,0.6C1.6,8,1.7,8.4,1.8,8.6c0.1,0.2,0.4,0.5,0.4,0.7
		c0.2,0.1,0.2,0.2,0.4,0.4C2.8,9.8,2.9,9.8,3,10c0.1,0.1,0.2,0.2,0.4,0.3c0.1,0.1,0.2,0.1,0.3,0.2c0.1,0.1,0.6,0.4,0.7,0.4l1.1,0.4
		c0,0,0,0,0,0l0.8,0.1c0.8,0,1.2,0,1.9-0.2c0.3-0.1,0.5-0.1,0.7-0.2c0.2-0.1,0.5-0.3,0.6-0.3c0.1-0.1,0.2-0.2,0.3-0.3
		c0.1-0.1,0.2-0.1,0.3-0.2l0.6-0.5c0.3-0.3,0.5-0.5,0.7-0.9l0.2-0.2c0.1-0.1,0,0,0.1-0.1c0-0.2,0.2-0.4,0.3-0.6
		c0.1-0.2,0.1-0.4,0.2-0.6c0-0.1,0.1-0.7,0.2-0.8c-0.1-0.3,0-0.6,0-0.9c0-0.3-0.1-0.6-0.1-0.9c-0.1-0.2-0.1-0.5-0.2-0.7
		c-0.1-0.2-0.2-0.4-0.2-0.6c-0.1-0.3-0.2-0.5-0.4-0.7c-0.1-0.1-0.1-0.2-0.2-0.3c-0.1-0.1-0.2-0.2-0.2-0.3c-0.1-0.1,0,0-0.1-0.1
		c0,0,0,0-0.1,0c-0.2-0.2-0.4-0.4-0.6-0.5c-0.1-0.1-0.1,0-0.2-0.2C10,1.1,9.5,0.5,8,0.1c-1.9-0.4-3.7,0.2-5,1.3
		C2.1,2.2,1.9,2.9,1.6,3.3z"/>
</g>
</svg>
