<?xml version="1.0" encoding="utf-8"?>
<!-- Generator: Adobe Illustrator 19.1.0, SVG Export Plug-In . SVG Version: 6.00 Build 0)  -->
<svg version="1.1" id="_x31_" xmlns="http://www.w3.org/2000/svg" xmlns:xlink="http://www.w3.org/1999/xlink" x="0px" y="0px"
	 viewBox="0 0 14.2 15.4" style="enable-background:new 0 0 14.2 15.4;" xml:space="preserve">
<style type="text/css">
	.st0{fill-rule:evenodd;clip-rule:evenodd;fill:#3972D1;}
</style>
<path class="st0" d="M6.7,0c3.7,0,6.7,3,6.7,6.7c0,1.5-0.5,2.9-1.3,4l0,0l1.6,2c0.6,0.7,0.5,1.8-0.2,2.4l0,0
	c-0.7,0.6-1.8,0.5-2.4-0.2l-1.6-2l0,0c-0.9,0.4-1.8,0.6-2.9,0.6C3,13.5,0,10.5,0,6.7C0,3,3,0,6.7,0L6.7,0z M6.7,2.7
	c-2.3,0-4.1,1.8-4.1,4.1c0,2.3,1.8,4.1,4.1,4.1c2.3,0,4.1-1.8,4.1-4.1C10.8,4.5,9,2.7,6.7,2.7z"/>
</svg>
