<?xml version="1.0" encoding="utf-8"?>
<!-- Generator: Adobe Illustrator 19.1.0, SVG Export Plug-In . SVG Version: 6.00 Build 0)  -->
<svg version="1.1" id="Layer_1" xmlns="http://www.w3.org/2000/svg" xmlns:xlink="http://www.w3.org/1999/xlink" x="0px" y="0px"
	 viewBox="0 0 26.4 26.4" style="enable-background:new 0 0 26.4 26.4;" xml:space="preserve">
<style type="text/css">
	.st0{fill-rule:evenodd;clip-rule:evenodd;fill:#007AFF;}
</style>
<path class="st0" d="M6.4,0H20c3.5,0,6.4,2.9,6.4,6.4V20c0,3.5-2.9,6.4-6.4,6.4H6.4C2.9,26.4,0,23.5,0,20V6.4C0,2.9,2.9,0,6.4,0
	L6.4,0z M6.9,15.7c-0.1,0.3,0.4,0.6,0.8,1l2.9,2.9l8.6-8.6l-3.8-3.8L6.9,15.7L6.9,15.7z M16.3,6.3l0.4,0.5c0.6,0.6,3,3.1,3.3,3.3
	l1.5-1.5C21.8,8.3,22,8.3,22.1,8c0.8-1.4-0.4-2.2-0.9-2.8c-0.5-0.5-1.4-1.8-2.7-1C18.1,4.4,16.5,6,16.3,6.3L16.3,6.3z M4,22.4
	c0.4-0.1,5.5-1.8,5.6-1.9l-3.7-3.7C5.8,17,4.2,21.8,4,22.4z"/>
</svg>
