<?xml version="1.0" encoding="utf-8"?>
<!-- Generator: Adobe Illustrator 19.1.0, SVG Export Plug-In . SVG Version: 6.00 Build 0)  -->
<svg version="1.1" id="Layer_1" xmlns="http://www.w3.org/2000/svg" xmlns:xlink="http://www.w3.org/1999/xlink" x="0px" y="0px"
	 viewBox="0 0 27.2 30.3" style="enable-background:new 0 0 27.2 30.3;" xml:space="preserve">
<style type="text/css">
	.st0{fill-rule:evenodd;clip-rule:evenodd;fill:#3E99FD;}
</style>
<path class="st0" d="M19.4,20.2c1,0.3,3.9,2.3,4.6,3.1c1.3,1.3,1.9,3.1,2,5.7l-9.1,0L19.4,20.2L19.4,20.2z M7.9,20.1l2.6,9l-9.3,0
	c-0.1-4.3,0.9-5.5,4.2-7.5C5.9,21.2,7.5,20.2,7.9,20.1L7.9,20.1z M7,19.2c-1.1,1-6,2.7-6.8,6.7c-0.2,1-0.3,3.5,0,4.2
	c0.7,0.2,25.8,0.3,26.8,0c0.4-0.8,0.2-3.7-0.1-4.6c-0.3-1.3-1.3-2.5-2-3.1c-1-0.9-1.8-1.3-3-2.1c-0.5-0.3-1-0.6-1.6-0.9
	c-0.3-0.2-1.4-0.7-1.5-1c-0.3,0.1-0.2,0-0.4,0.5c-0.9,3-2.1,8-3,10.4c0-0.1-0.9-5.6-1-6.3c0.6-0.4,1.1-0.9,1.1-2
	c0-1.4-2.4-1.2-3.5-1c-1.4,0.3-0.7,2.3,0.4,3c-0.1,1-0.3,2-0.5,3c-0.1,1.1-0.2,2.2-0.3,3.3l-3.2-11C8.1,18.5,7.6,18.9,7,19.2L7,19.2
	z M8.5,10.3c0.8-1.4-0.5-2.9,1.2-4C11.5,5,16.1,5,17.8,6.5c0.6,0.6,0.6,1,0.6,2c0,1.6,0,1.8,0.9,1.7c0.3-0.6,0.2-1.2,1.2-1.1
	c1.4,0.1,0.9,2,0.1,3c-0.6,0.7-1.1,0.5-1.4,0.9c-0.2,0.2-1.2,3.9-4.7,4.5c-3.4,0.6-5.3-2-6.3-4.2c-0.4-1-0.9,0.1-1.9-1.5
	C5.2,9.9,6.2,8.7,7.2,9.2c0.5,0.2,0.2,0.5,0.6,1.1L8.5,10.3L8.5,10.3z M9.4,17.3c-0.1-0.2,0.1,0-0.2-0.2c-0.6-0.7-0.9-0.8-1.5-1.8
	c-0.2-0.3-0.4-1-0.7-1.2c-0.2-0.2-0.8-0.4-1.2-0.7c-1.1-1.1-2.3-4.5-0.2-5.2C6,4.8,6.7,2.3,8.9,1c2.7-1.5,5.9-1.1,8.8-0.3
	c0.1,0.2,0.6,0.4,0.8,0.5c3.1,1.9,2.7,6.5,2.9,6.8c0.1,0.3,1.3,0.4,1.3,2.1c0,2.9-2.3,3.6-2.6,4.2c-0.2,0.4-0.4,0.8-0.6,1.1
	c-0.4,0.7-0.5,0.6-0.6,1c-0.7,0.5-1.7,2-4.2,2.3C12.1,19.1,11,18.2,9.4,17.3L9.4,17.3z M9.9,15c0.8,0.2,1.5,0.4,2.3,0.1
	c0.8-0.3,0.9-0.6,1.3-1c0.2-0.2,0,0,0.2-0.1c0.9,1.2,2.1,1.6,3.7,1C17.3,11.8,10.2,11.1,9.9,15z"/>
</svg>
