<?xml version="1.0" encoding="utf-8"?>
<!-- Generator: Adobe Illustrator 19.1.0, SVG Export Plug-In . SVG Version: 6.00 Build 0)  -->
<svg version="1.1" id="_x31_" xmlns="http://www.w3.org/2000/svg" xmlns:xlink="http://www.w3.org/1999/xlink" x="0px" y="0px"
	 viewBox="0 0 16.6 16.5" style="enable-background:new 0 0 16.6 16.5;" xml:space="preserve">
<style type="text/css">
	.st0{fill-rule:evenodd;clip-rule:evenodd;fill:#FFFFFF;}
</style>
<path class="st0" d="M2.7,2.2C4.4,0.7,6.5-0.1,8.6,0c2.1,0.1,4.2,0.9,5.8,2.6c1.6,1.7,2.3,3.8,2.2,5.9c-0.1,2.1-0.9,4.2-2.6,5.8
	c-1.4,1.3-3.2,2-4.9,2.2c-3.1,0.3-4.4-1.6-5.6-0.9c-1,0.5-2.2,1.2-3,0.2c-0.8-0.9-0.2-2.1,0.3-3.1c0.7-1.3-1-2.7-0.5-5.7
	C0.5,5.2,1.3,3.5,2.7,2.2L2.7,2.2z M9.7,9.7c0-0.4,0-0.6,0.1-0.7c0.1-0.1,0.3-0.2,0.6-0.4c0.9-0.5,1.4-1.3,1.4-2.4
	c0-0.9-0.3-1.7-1-2.3c-0.7-0.6-1.5-0.9-2.4-0.9C7.8,2.8,7.3,3,6.8,3.2c-0.5,0.3-0.9,0.6-1.2,1C5.1,4.8,4.9,5.6,4.9,6.5h2.6
	c0-0.7,0.2-1,0.7-1c0.2,0,0.3,0.1,0.5,0.2c0.1,0.1,0.2,0.3,0.2,0.5c0,0.3-0.2,0.6-0.6,0.7L7.8,7.1C7.4,7.2,7.2,7.5,7,7.8
	C6.9,8.1,6.8,8.5,6.8,9.2v0.5H9.7L9.7,9.7z M8.3,10.1c-0.5,0-0.9,0.2-1.3,0.5c-0.4,0.4-0.5,0.8-0.5,1.3c0,0.5,0.2,1,0.5,1.3
	c0.3,0.3,0.8,0.5,1.3,0.5c0.5,0,0.9-0.2,1.3-0.5c0.4-0.3,0.5-0.8,0.5-1.3c0-0.5-0.2-0.9-0.5-1.3C9.2,10.2,8.8,10.1,8.3,10.1
	L8.3,10.1z M8.6,1.6C6.9,1.5,5.1,2.1,3.8,3.4C2.7,4.4,2,5.8,1.8,7.2c-0.2,1.5,0,3,0.8,4.3c0.3,0.6,0,1.2-0.4,1.9
	c-0.3,0.5-0.6,1.2-0.6,1.3c0,0,0.6-0.3,1.1-0.6c0.7-0.4,1.4-0.7,2-0.4c1.3,0.8,2.8,1.2,4.2,1.1c1.4-0.1,2.9-0.7,4-1.8
	c1.3-1.3,2.1-2.9,2.1-4.6c0.1-1.7-0.5-3.4-1.8-4.8C12,2.4,10.3,1.6,8.6,1.6z"/>
</svg>
