<?xml version="1.0" encoding="utf-8"?>
<!-- Generator: Adobe Illustrator 23.0.1, SVG Export Plug-In . SVG Version: 6.00 Build 0)  -->
<svg version="1.1" id="_x31_" xmlns="http://www.w3.org/2000/svg" xmlns:xlink="http://www.w3.org/1999/xlink" x="0px" y="0px"
	 viewBox="0 0 167.44 167.44" style="enable-background:new 0 0 167.44 167.44;" xml:space="preserve">
<style type="text/css">
	.st0{fill-rule:evenodd;clip-rule:evenodd;fill:#FFFFFF;}
</style>
<path class="st0" d="M32.12,0h103.2c8.84,0,16.88,3.61,22.69,9.43c5.82,5.82,9.43,13.85,9.43,22.69v103.2
	c0,8.84-3.61,16.88-9.43,22.69c-5.82,5.82-13.85,9.43-22.69,9.43H32.12c-8.84,0-16.88-3.61-22.69-9.43C3.61,152.2,0,144.17,0,135.32
	v-28.2h19.84v28.2c0,3.37,1.38,6.43,3.61,8.66c2.23,2.23,5.3,3.61,8.66,3.61h103.2c3.37,0,6.43-1.38,8.66-3.61
	c2.23-2.23,3.61-5.3,3.61-8.66V32.12c0-3.37-1.38-6.43-3.61-8.66c-2.23-2.23-5.3-3.61-8.66-3.61H32.12c-3.37,0-6.43,1.38-8.66,3.61
	s-3.61,5.3-3.61,8.66v28.2H0v-28.2c0-8.84,3.61-16.88,9.43-22.69S23.28,0,32.12,0L32.12,0z M92.74,28.47l-16.28,11.4l23.75,33.92
	H0.1v19.88h100.12l-23.75,33.92l16.28,11.4l38.61-55.14l0.11-0.07l-0.03-0.04l0.03-0.04l-0.11-0.07L92.74,28.47z"/>
</svg>
