<?xml version="1.0" encoding="utf-8"?>
<!-- Generator: Adobe Illustrator 19.1.0, SVG Export Plug-In . SVG Version: 6.00 Build 0)  -->
<svg version="1.1" id="_x31_" xmlns="http://www.w3.org/2000/svg" xmlns:xlink="http://www.w3.org/1999/xlink" x="0px" y="0px"
	 viewBox="0 0 30.2 30" style="enable-background:new 0 0 30.2 30;" xml:space="preserve">
<style type="text/css">
	.st0{fill-rule:evenodd;clip-rule:evenodd;fill:#508EF4;}
</style>
<path class="st0" d="M4.9,4c3-2.8,6.9-4.2,10.7-4c3.8,0.1,7.6,1.7,10.5,4.8c2.8,3,4.2,6.9,4,10.7c-0.1,3.8-1.7,7.6-4.8,10.5
	c-2.6,2.4-5.7,3.7-9,4c-5.6,0.5-8-2.9-10.2-1.7c-1.8,1-3.9,2.1-5.5,0.5c-1.5-1.6-0.4-3.8,0.6-5.6c1.3-2.4-1.8-4.9-1-10.4
	C0.9,9.5,2.4,6.4,4.9,4L4.9,4z M17.6,17.5c0-0.7,0.1-1.1,0.2-1.3c0.1-0.2,0.5-0.4,1-0.7c1.7-0.8,2.5-2.3,2.5-4.4
	c0-1.7-0.6-3.1-1.8-4.3c-1.2-1.1-2.6-1.7-4.4-1.7c-1,0-1.9,0.2-2.8,0.7c-0.9,0.5-1.7,1.1-2.2,1.9c-0.8,1.1-1.2,2.4-1.2,4.1h4.8
	c0-1.2,0.4-1.9,1.3-1.9c0.3,0,0.6,0.1,0.8,0.3c0.2,0.2,0.3,0.5,0.3,0.8c0,0.6-0.4,1-1.1,1.3l-0.9,0.4c-0.7,0.3-1.2,0.7-1.4,1.3
	c-0.3,0.5-0.4,1.4-0.4,2.5v0.9H17.6L17.6,17.5z M15.1,18.3c-0.9,0-1.7,0.3-2.3,1c-0.6,0.6-1,1.4-1,2.3c0,1,0.3,1.7,0.9,2.3
	c0.6,0.6,1.4,0.9,2.3,0.9c0.9,0,1.7-0.3,2.3-0.9c0.6-0.6,1-1.4,1-2.3c0-0.9-0.3-1.7-1-2.3C16.7,18.6,16,18.3,15.1,18.3L15.1,18.3z
	 M15.6,2.9c-3.1-0.1-6.2,1-8.7,3.3c-2.1,1.9-3.3,4.4-3.7,7c-0.4,2.6,0.1,5.4,1.4,7.8c0.6,1.1,0,2.2-0.7,3.5c-0.5,1-1.2,2.2-1,2.3
	c0,0,1.1-0.5,2-1c1.3-0.7,2.5-1.4,3.6-0.6c2.3,1.5,5,2.2,7.7,2c2.6-0.2,5.2-1.3,7.3-3.2c2.4-2.3,3.7-5.3,3.8-8.4
	c0.1-3.1-1-6.2-3.3-8.7C21.7,4.3,18.7,3,15.6,2.9z"/>
</svg>
