<?xml version="1.0" encoding="utf-8"?>
<!-- Generator: Adobe Illustrator 19.1.0, SVG Export Plug-In . SVG Version: 6.00 Build 0)  -->
<svg version="1.1" id="_x31_" xmlns="http://www.w3.org/2000/svg" xmlns:xlink="http://www.w3.org/1999/xlink" x="0px" y="0px"
	 viewBox="0 0 51 50.7" style="enable-background:new 0 0 51 50.7;" xml:space="preserve">
<style type="text/css">
	.st0{fill-rule:evenodd;clip-rule:evenodd;fill:#BDCFF2;}
</style>
<path class="st0" d="M42.7,6.8C37.5,2,31-0.2,24.5,0C18,0.2,11.6,2.9,6.8,8C2,13.2-0.2,19.7,0,26.2c0.2,6.5,2.9,12.9,8,17.7
	c4.3,4,9.7,6.3,15.2,6.7c9.4,0.8,13.5-4.8,17.2-2.8c3.1,1.6,6.7,3.6,9.3,0.8c2.6-2.8,0.6-6.4-1-9.5c-2.1-4,3.1-8.3,1.7-17.6
	C49.6,16,47,10.8,42.7,6.8L42.7,6.8z M32,21.6l0.2-0.1l5.4-3.9v7.7v7.7l-5.4-3.9L32,29.1v0.6c0,2.2-1.8,4.1-4.1,4.1H17.5
	c-2.2,0-4.1-1.8-4.1-4.1V21c0-2.2,1.8-4.1,4.1-4.1h10.4c2.2,0,4.1,1.8,4.1,4.1V21.6L32,21.6z M24.7,4.9c5.2-0.2,10.6,1.6,14.7,5.5
	c3.5,3.3,5.6,7.4,6.3,11.8c0.7,4.5-0.1,9.1-2.4,13.2c-1,1.8,0,3.7,1.2,6c0.9,1.7,2,3.7,1.7,3.9c-0.1,0.1-1.9-0.9-3.4-1.7
	c-2.3-1.2-4.3-2.3-6.1-1.1c-3.9,2.6-8.5,3.7-13,3.3c-4.4-0.4-8.8-2.2-12.3-5.4c-4.1-3.9-6.3-9-6.5-14.3c-0.2-5.2,1.6-10.6,5.5-14.7
	C14.2,7.2,19.4,5,24.7,4.9z"/>
</svg>
