<?xml version="1.0" encoding="utf-8"?>
<!-- Generator: Adobe Illustrator 19.1.0, SVG Export Plug-In . SVG Version: 6.00 Build 0)  -->
<svg version="1.1" id="Layer_1" xmlns="http://www.w3.org/2000/svg" xmlns:xlink="http://www.w3.org/1999/xlink" x="0px" y="0px"
	 viewBox="0 0 16.8 12" style="enable-background:new 0 0 16.8 12;" xml:space="preserve">
<style type="text/css">
	.st0{fill-rule:evenodd;clip-rule:evenodd;fill:#FFFFFF;}
</style>
<g>
	<path class="st0" d="M15.9,0L1,0c0.1,0.2,3.2,3.3,3.6,3.7c0.6,0.6,3,3.5,3.8,3.5c0.8,0,3.2-3,3.8-3.5C13.5,2.6,14.8,1.2,15.9,0z"/>
	<path class="st0" d="M5.9,7C5.1,7.8,4.2,8.7,3.4,9.5c-0.4,0.4-0.8,0.9-1.2,1.3C1.9,11,0.7,12,1.2,12h14.5c0.4,0-0.2-0.4-0.3-0.6
		c-0.2-0.2-0.4-0.4-0.6-0.6c-0.4-0.4-0.8-0.8-1.3-1.3C13,9.1,11.3,7.3,10.9,7c-0.6,0.5-1.2,1.6-2.5,1.6C7.1,8.5,6.5,7.5,5.9,7z"/>
	<path class="st0" d="M0,11c0.2-0.1,4.9-5,4.9-5c0-0.3-4.5-4.4-4.9-5V11z"/>
	<polygon class="st0" points="11.9,6 16.8,11 16.8,1.1 	"/>
</g>
</svg>
