<?xml version="1.0" encoding="utf-8"?>
<!-- Generator: Adobe Illustrator 19.1.0, SVG Export Plug-In . SVG Version: 6.00 Build 0)  -->
<svg version="1.1" id="Layer_1" xmlns="http://www.w3.org/2000/svg" xmlns:xlink="http://www.w3.org/1999/xlink" x="0px" y="0px"
	 viewBox="-131 255.5 348.8 283.5" style="enable-background:new -131 255.5 348.8 283.5;" xml:space="preserve">
<style type="text/css">
	.st0{fill:#3E99FD;}
	.st1{fill:#C2BC90;}
</style>
<g>
	<g>
		<path class="st0" d="M159.5,517c-42,0.9-85.1,0-127.3,0H-63c-19.6,0-41.7,4.6-45.8-17.9c-1.3-7.4-0.5-23.1-0.5-31.3
			c0-62.9,0.8-128.4,0-190.7l261.8,0.1v185c0,10.2-1,36.2,1.7,44.7C156,512.9,158,513.9,159.5,517L159.5,517z M-131,499.9l1.4,5
			c2.7,11.4,7.9,21.7,18.4,27.8c13.7,7.9,29.4,5.9,47,5.9c70.4,0,140.8,0,211.1,0c35.5,0,62.2,6.4,69.8-32.6l0.9-2.8V299h-43.7
			v-43.5H-131V499.9z"/>
		<polygon class="st0" points="-86.8,473.3 10.5,473.3 10.5,364.8 -87,364.8 		"/>
		<polygon class="st0" points="-87.3,342.2 130.4,342.5 130.4,320.8 -87.3,320.8 		"/>
		<polygon class="st0" points="32.6,386 130.4,386 130.4,364.5 32.6,364.5 		"/>
		<polygon class="st0" points="32.6,410.4 32.6,429.6 126.4,429.6 128.1,429.6 130.4,429.6 130.4,408.1 32.6,408.1 		"/>
		<polygon class="st0" points="32.6,455.6 32.6,471.2 32.7,473.3 108.6,473.3 108.6,471.2 108.6,454.4 108.6,451.6 32.6,451.6 		"/>
	</g>
	<path class="st1" d="M-86.8,473.3L-87,364.8h97.6c-1-1.3-9.9-0.6-11.7-0.6c-12.4,0-81.3-0.5-86.1,0.2c-0.9,3.7-0.3,89.5-0.3,105.6
		C-87.6,474.2-87.5,472.7-86.8,473.3z"/>
</g>
</svg>
