<?xml version="1.0" encoding="utf-8"?>
<!-- Generator: Adobe Illustrator 19.1.0, SVG Export Plug-In . SVG Version: 6.00 Build 0)  -->
<svg version="1.1" id="Layer_1" xmlns="http://www.w3.org/2000/svg" xmlns:xlink="http://www.w3.org/1999/xlink" x="0px" y="0px"
	 viewBox="0 0 355.7 348.7" style="enable-background:new 0 0 355.7 348.7;" xml:space="preserve">
<style type="text/css">
	.st0{fill-rule:evenodd;clip-rule:evenodd;fill:#3E99FD;}
</style>
<path class="st0" d="M0,85c0-23.6,5.9-43.7,17.9-60.2C29.8,8.2,47.1,0,69.8,0c20.8,0,38.1,7.4,51.7,22.2C135.1,37,142,58.8,142,87.5
	c0,28-6.9,49.6-20.7,64.7c-13.8,15.1-30.8,22.7-51,22.7c-20.1,0-36.8-7.5-50.2-22.4C6.7,137.6,0,115.1,0,85L0,85z M70.9,28.2
	c-10.1,0-18.5,4.3-25.2,13C39,50,35.6,65.9,35.6,89.1c0,21.1,3.4,36,10.2,44.6c6.8,8.6,15.2,13,25.1,13c10.3,0,18.7-4.3,25.4-13
	c6.7-8.7,10-24.6,10-47.6c0-21.3-3.4-36.2-10.2-44.8C89.4,32.5,81,28.2,70.9,28.2L70.9,28.2z M71.2,348.7L251.8,0h33.1L104.8,348.7
	H71.2L71.2,348.7z M213.7,258.9c0-23.7,5.9-43.9,17.9-60.4c11.9-16.4,29.2-24.7,52-24.7c20.8,0,38.1,7.4,51.7,22.2
	c13.6,14.8,20.4,36.6,20.4,65.3c0,28-6.9,49.6-20.7,64.7c-13.8,15.1-30.9,22.7-51.3,22.7c-20,0-36.7-7.5-50-22.4
	C220.4,311.4,213.7,288.8,213.7,258.9L213.7,258.9z M284.7,202.1c-10.3,0-18.7,4.3-25.4,13c-6.7,8.7-10,24.7-10,47.9
	c0,21,3.4,35.8,10.2,44.5c6.7,8.7,15,13,25,13c10.4,0,18.9-4.3,25.6-13c6.7-8.7,10-24.6,10-47.6c0-21.3-3.4-36.2-10.2-44.8
	C303.2,206.4,294.8,202.1,284.7,202.1z"/>
</svg>
