<?xml version="1.0" encoding="utf-8"?>
<!-- Generator: Adobe Illustrator 19.1.0, SVG Export Plug-In . SVG Version: 6.00 Build 0)  -->
<svg version="1.1" id="_x31_" xmlns="http://www.w3.org/2000/svg" xmlns:xlink="http://www.w3.org/1999/xlink" x="0px" y="0px"
	 viewBox="0 0 14.9 18" style="enable-background:new 0 0 14.9 18;" xml:space="preserve">
<style type="text/css">
	.st0{fill-rule:evenodd;clip-rule:evenodd;fill:#FFFFFF;}
</style>
<g>
	<path class="st0" d="M4.5,10c0,0.4,0.3,0.8,0.7,1c0.2,0,0.4,0,0.6,0c0,0.1,0,0.3,0.1,0.5c0,0.2,0,0.3,0.1,0.5l0.6,5.3
		c0,0.2,0,0.4,0.2,0.6C6.8,17.9,6.9,18,7.1,18H8c0.3,0,0.5-0.2,0.6-0.5l0.7-6.1c0-0.1,0-0.1,0-0.2c0-0.1,0-0.2,0-0.2
		c0.4,0,0.7,0,1-0.3c0.5-0.5,0.3-0.9,0.2-1.5c-0.1-0.8-0.2-1.7-0.3-2.5l-0.1-1.3c-0.1-0.6,0-1-0.6-1.3C9.5,4,9.3,4,9.2,4H6
		C5.5,4,5,4.4,5,4.9L4.8,6.6c0,0.3-0.1,0.6-0.1,0.8c0,0.3-0.1,0.6-0.1,0.9C4.6,8.6,4.5,9.8,4.5,10z"/>
	<path class="st0" d="M2.5,17.4h0.9c0.1,0,0.3-0.1,0.3-0.1c0.2-0.2,0.2-0.3,0.2-0.5c0-0.1,0-0.1,0-0.2c0.1-0.8,0.2-1.8,0.3-2.5
		l0.2-1.3c0-0.3,0.2-1.5,0.2-1.7c0,0-0.2-0.2-0.3-0.2c-0.2-0.2-0.3-0.5-0.3-0.7c0-0.2,0.1-1.5,0.2-1.8c0-0.2,0-0.3,0.1-0.5
		C4.4,7.2,4.5,6.5,4.5,6c0-0.3,0.1-0.6,0.1-0.9c0-0.4,0-0.5,0.2-0.8c-0.1,0-0.2-0.1-0.3-0.1h-3c-0.3,0-0.6,0.2-0.7,0.4
		C0.5,4.8,0.5,5,0.5,5.4l-0.1,1C0.3,7,0.2,7.7,0.2,8.3L0,9.7c-0.1,0.5,0.2,0.8,0.6,1c0.2,0.1,0.2,0.1,0.5,0.1c0.1,0,0.2,0,0.2,0.1
		l0.1,1.2c0,0.3,0.1,0.6,0.1,1L1.7,15c0,0.2,0.2,2,0.3,2.1c0,0.1,0.1,0.1,0.1,0.2C2.2,17.3,2.3,17.4,2.5,17.4z"/>
	<path class="st0" d="M10.3,4.2c0,0.2,0.1,0,0.2,0.8L11,9.3c0,0.2,0,0.3,0.1,0.5c0,0.1,0,0.1,0,0.2c0,0.4-0.1,0.5-0.3,0.8
		c-0.1,0.1-0.3,0.3-0.4,0.4c0,0.1,0,0.3,0,0.4l0.1,1.2c0.2,1.2,0.3,2.5,0.4,3.7c0,0.3,0,0.5,0.2,0.7c0.1,0.1,0.2,0.1,0.3,0.1h0.9
		c0.2,0,0.5-0.2,0.5-0.5l0.7-6.1c0.4,0,0.7,0,1-0.3c0.1-0.1,0.1-0.2,0.2-0.3c0.2-0.4,0.1-0.7,0-1.1l-0.4-3.6c0-0.1,0-0.3,0-0.4
		c0-0.3-0.1-0.5-0.3-0.6c-0.1-0.1-0.4-0.3-0.6-0.3h-3.1C10.4,4.2,10.4,4.2,10.3,4.2z"/>
	<path class="st0" d="M5.9,1.6c0,0.5,0.1,0.9,0.5,1.3c0.5,0.5,1.3,0.6,1.9,0.3C8.5,3.1,8.5,3,8.7,2.9C9,2.7,9.1,2.4,9.2,2.1
		c0.2-0.6-0.1-1.2-0.4-1.6C8.3,0,7.6-0.1,6.9,0.1c-0.1,0-0.2,0.1-0.3,0.1c0,0-0.1,0.1-0.1,0.1C6.2,0.6,5.9,1.1,5.9,1.6z"/>
	<path class="st0" d="M10.4,2.1c0,0.4,0.1,0.7,0.4,1c0.6,0.7,1.7,0.8,2.3,0.1c0.5-0.5,0.6-1.4,0.2-2C13.2,1,13.1,1,13,0.9
		c0,0-0.1-0.1-0.1-0.1c-0.1-0.1-0.2-0.1-0.3-0.1c-0.3-0.1-0.6-0.2-1-0.1c-0.3,0.1-0.6,0.2-0.8,0.4C10.6,1.3,10.4,1.6,10.4,2.1z"/>
	<path class="st0" d="M1.4,2.1c0,0.2,0.1,0.4,0.1,0.6c0.2,0.5,0.8,1,1.4,1c0.7,0,1.2-0.3,1.5-0.9c0.3-0.6,0.2-1.2-0.2-1.7
		C4,0.9,4,0.9,3.8,0.8C3.3,0.4,2.6,0.4,2,0.8C1.7,1,1.5,1.3,1.4,1.7C1.4,1.8,1.4,2,1.4,2.1z"/>
</g>
</svg>
