<?xml version="1.0" encoding="utf-8"?>
<!-- Generator: Adobe Illustrator 19.1.0, SVG Export Plug-In . SVG Version: 6.00 Build 0)  -->
<svg version="1.1" id="Layer_1" xmlns="http://www.w3.org/2000/svg" xmlns:xlink="http://www.w3.org/1999/xlink" x="0px" y="0px"
	 viewBox="0 0 34.7 34.7" style="enable-background:new 0 0 34.7 34.7;" xml:space="preserve">
<style type="text/css">
	.st0{fill-rule:evenodd;clip-rule:evenodd;fill:#FF3333;}
	.st1{fill-rule:evenodd;clip-rule:evenodd;fill:none;stroke:#FF3333;stroke-width:2.8346;stroke-miterlimit:22.9256;}
</style>
<path class="st0" d="M17.4,5.3c6.7,0,12.1,5.4,12.1,12.1S24,29.4,17.4,29.4S5.3,24,5.3,17.4S10.7,5.3,17.4,5.3L17.4,5.3z M15.2,13.9
	c0.1-0.4-0.8-2.6-1-3C14,10.3,13.7,10,13,10c-1.4,0.2-2.9,1.4-2.9,3.1c-0.1,1.3,0.4,2.3,0.8,3.2c0.9,1.8,3.5,4.7,5.2,6
	c1,0.8,1.9,1.4,3.1,1.9c2.6,1,4.6,0.1,5.3-2c0.5-1.5-0.5-1.7-1.7-2.1c-0.5-0.2-1-0.4-1.5-0.6c-0.8-0.2-1,0-1.3,0.6
	c-0.3,0.6-0.3,1-1.1,0.9c-0.5,0-1-0.4-1.4-0.6c-1.1-0.6-2.4-2-3.1-3c-0.2-0.3-0.6-1-0.7-1.3c-0.1-0.2-0.2-0.6-0.1-0.9
	C13.7,14.5,15,14.8,15.2,13.9z"/>
<path class="st1" d="M17.4,33.3c8.8,0,15.9-7.2,15.9-15.9c0-8.8-7.2-15.9-15.9-15.9S1.4,8.6,1.4,17.4C1.4,26.1,8.6,33.3,17.4,33.3z"
	/>
</svg>
