<?xml version="1.0" encoding="utf-8"?>
<!-- Generator: Adobe Illustrator 21.1.0, SVG Export Plug-In . SVG Version: 6.00 Build 0)  -->
<svg version="1.1" id="Capa_1" xmlns="http://www.w3.org/2000/svg" xmlns:xlink="http://www.w3.org/1999/xlink" x="0px" y="0px"
	 viewBox="0 0 18 15" style="enable-background:new 0 0 18 15;" xml:space="preserve">
<style type="text/css">
	.st0{fill-rule:evenodd;clip-rule:evenodd;fill:#FFFFFF;}
</style>
<path class="st0" d="M5.3,8.4l9.5-5.6L7.7,9.4l-1,3.6L5.3,8.4L5.3,8.4z M9.6,11.8c0.5,0.2,0.8,0.5,1.2,0.8l2.4,1.7
	c2.1,1.6,2.1-0.2,2.5-2.3c0.7-3.4,1.4-6.8,2.1-10.1c0.4-1.7,0.1-2.4-1.6-1.7L1.7,5.9c-0.8,0.3-2.8,1-0.8,1.7
	c4.6,1.5,3.5,0.3,4.6,3.6c1,3,0.8,3.8,2.8,1.9C8.7,12.7,9.1,12.3,9.6,11.8z"/>
</svg>
