<svg id="Capa_1" data-name="Capa 1" xmlns="http://www.w3.org/2000/svg" viewBox="0 0 21.01 21"><defs><style>.cls-1{fill:#fff;fill-rule:evenodd;}</style></defs><title>icon_social_zen_wh</title><path class="cls-1" d="M10.63,21c1.72,0,3.45,0,5.18,0A5.12,5.12,0,0,0,20,19.31,5.32,5.32,0,0,0,21,15.85c0-1.74,0-3.49,0-5.23-2.11,0-5,.06-6.93.86A5.07,5.07,0,0,0,11.49,14c-.77,1.69-.87,5.12-.87,7ZM0,10.37c2.74-.07,6.56,0,8.47-1.9S10.33,3.15,10.36,0C8.65,0,6.92,0,5.2,0,1.91,0,0,1.84,0,5.15c0,1.74,0,3.48,0,5.22Zm21,0c0-1.72,0-3.45,0-5.17a4.9,4.9,0,0,0-1.37-3.83A4.91,4.91,0,0,0,15.85,0c-1.74,0-3.48,0-5.22,0,0,2,.07,5.11.85,6.91a4.68,4.68,0,0,0,1.06,1.54,2.76,2.76,0,0,0,.33.31,6.17,6.17,0,0,0,3.22,1.29,39.93,39.93,0,0,0,4.91.31ZM10.37,21c0-3.7,0-8.09-3.41-9.51-1.94-.82-4.84-.83-7-.87,0,1.72,0,3.46,0,5.18a6.42,6.42,0,0,0,.34,2.26,4.45,4.45,0,0,0,2.57,2.59A6.56,6.56,0,0,0,5.15,21C6.89,21,8.63,21,10.37,21Z"/></svg>