<?xml version="1.0" encoding="utf-8"?>
<!-- Generator: Adobe Illustrator 19.1.0, SVG Export Plug-In . SVG Version: 6.00 Build 0)  -->
<svg version="1.1" id="_x31_" xmlns="http://www.w3.org/2000/svg" xmlns:xlink="http://www.w3.org/1999/xlink" x="0px" y="0px"
	 viewBox="0 0 19.4 13.9" style="enable-background:new 0 0 19.4 13.9;" xml:space="preserve">
<style type="text/css">
	.st0{fill-rule:evenodd;clip-rule:evenodd;fill:#FFFFFF;}
</style>
<g>
	<path class="st0" d="M18.4,0L1.1,0c0.1,0.3,3.7,3.9,4.2,4.3c0.7,0.7,3.5,4.1,4.4,4.1c0.9,0,3.7-3.4,4.4-4.1C15.6,3,17.1,1.4,18.4,0
		z"/>
	<path class="st0" d="M6.8,8.1c-0.9,1-2,2-2.9,3c-0.5,0.5-0.9,1-1.4,1.5c-0.2,0.2-1.6,1.4-1.1,1.4h16.7c0.5,0-0.2-0.5-0.4-0.7
		c-0.3-0.3-0.5-0.5-0.7-0.8c-0.5-0.5-1-1-1.5-1.5c-0.5-0.5-2.4-2.6-2.9-2.9c-0.7,0.6-1.4,1.8-2.9,1.8C8.2,9.9,7.5,8.7,6.8,8.1z"/>
	<path class="st0" d="M0,12.7c0.3-0.1,5.6-5.8,5.6-5.8c0-0.3-5.2-5.1-5.6-5.8L0,12.7z"/>
	<polygon class="st0" points="13.8,7 19.4,12.7 19.4,1.3 	"/>
</g>
</svg>
