<?xml version="1.0" encoding="utf-8"?>
<!-- Generator: Adobe Illustrator 19.1.0, SVG Export Plug-In . SVG Version: 6.00 Build 0)  -->
<svg version="1.1" id="_x31_" xmlns="http://www.w3.org/2000/svg" xmlns:xlink="http://www.w3.org/1999/xlink" x="0px" y="0px"
	 viewBox="0 0 18 11.8" style="enable-background:new 0 0 18 11.8;" xml:space="preserve">
<style type="text/css">
	.st0{fill-rule:evenodd;clip-rule:evenodd;fill:#FFFFFF;}
</style>
<g>
	<path class="st0" d="M2.8,0.4c-0.3,0-0.3,0.1-0.5,0.3l-1,1.3C1.3,2.3,1.2,2.4,1.1,2.5C1,2.7,0.9,2.9,0.8,3C0.7,3.2,0.6,3.3,0.5,3.4
		c-0.6,0.9-0.8,0.7,0.4,1.6C1.3,5.4,2.8,6.7,3,6.8c0.4-0.3,0.3-0.5,1.1-0.5C4.6,6.3,5,6.8,5,7.4c0.3-0.1,0.5-0.7,1.3-0.5
		C6.6,6.9,6.8,7,6.9,7.2C7.1,7.4,7.1,7.7,7.1,8c0.7-0.4,1.5,0.2,1.5,0.9c0,0.2,0,0.2,0,0.4c0.2,0.1,0.6,0.5,0.6,0.8
		c0,0.6-0.8,0.9,0.1,1.4c0.6,0.3,1.2,0.2,1.7-0.2c-0.1-0.2-1.1-1-1.1-1.2c0-0.1,0-0.1,0.1-0.2c0.2,0,0.6,0.6,0.8,0.7
		c0.2,0.2,0.5,0.6,0.9,0.6c0.7,0,1-0.8,0.7-1.2c-0.1-0.1-0.2-0.2-0.3-0.3l-1.3-1.3c-0.1-0.1-0.2-0.1-0.2-0.3C10.8,8,11,8.4,11.4,8.7
		l1.3,1.3c0.3,0.3,0.4,0.5,0.8,0.5c0.5,0,0.9-0.5,0.7-1.1c-0.2-0.5-2.8-2.8-2.8-3c0-0.4,0.5,0.2,0.5,0.2l2,2
		c0.5,0.5,0.5,0.7,1.2,0.7c0.3,0,0.7-0.3,0.7-0.8c0-0.4-0.3-0.6-0.5-0.8l-4.1-4.1c-0.1-0.1-0.6-0.7-0.7-0.7c-0.5,0-1.3,1.1-1.6,1.4
		C8.8,4.6,8.8,4.6,8.7,4.7C7.7,6,6.6,5.5,6.6,5c0-1,0.4-1.8,0.9-2.6C7.8,1.7,8,1.5,8.5,1l0.3-0.3c0.1-0.1,0.1,0,0.1-0.1
		C8.7,0.5,8.1,0,7.1,0C6.3,0,5.6,0.3,5,0.6C3.7,1,3.3,0.4,2.8,0.4z"/>
	<path class="st0" d="M6.8,4.6c0,0.4,0.1,0.7,0.5,0.7c0.2,0,0.4-0.1,0.5-0.2l0.9-0.9C8.9,4.2,8.9,4.1,9,4.1c0.1-0.1,0.2-0.2,0.3-0.4
		c0.3-0.4,0.8-0.9,1.3-0.9c0,0,4.2,4.2,4.4,4.4c0.3-0.2,2-1.4,2.4-1.7c0.8-0.5,0.8-0.4,0.2-1.4c-0.4-0.7-0.8-1.4-1.2-2.1
		c-0.7-1.1-0.5-1.2-1.2-1c-1.6,0.4-1.8-0.3-3.3-0.8c-1.2-0.4-2.6,0.2-3.4,1.2C8.3,1.5,8.3,1.6,8.2,1.6c-0.4,0.4-0.8,1.2-1,1.8
		C7.1,3.6,6.8,4.3,6.8,4.6z"/>
	<path class="st0" d="M4.1,8.9c0,0.3,0,0.5,0.2,0.7c0.5,0.5,1,0.1,1.3-0.2C5.9,9.1,6.9,8.3,6.9,8V7.7c0-0.3-0.4-0.7-0.7-0.7
		c-0.6,0-0.7,0.3-1.3,0.8C4.7,8.1,4.1,8.6,4.1,8.9z"/>
	<path class="st0" d="M5.6,10.1c0,0.5,0.3,0.8,0.9,0.8c0.4,0,0.7-0.5,1.1-0.8l0.7-0.8c0.3-0.5-0.2-1.2-0.5-1.2C7,8.2,6.9,8.5,6.4,9
		C6.1,9.2,5.6,9.7,5.6,10.1z"/>
	<path class="st0" d="M4.8,7.4c0-0.4-0.3-0.8-0.8-0.8C3.5,6.6,3.2,7,3,7.3C2.8,7.4,2.7,7.5,2.7,7.8c0,0.2,0.1,0.5,0.2,0.6
		C3,8.6,3.3,8.7,3.5,8.7C4,8.6,4.8,7.8,4.8,7.4z"/>
	<path class="st0" d="M6.9,11c0.3,0.4,0.8,0.7,1.5,0.7c0.3,0,0.4-0.1,0.7-0.1v-0.1c-0.2-0.1-0.5-0.4-0.5-0.6c0-0.5,0.8-0.9-0.2-1.5
		L6.9,11z"/>
</g>
</svg>
