<?xml version="1.0" encoding="utf-8"?>
<!-- Generator: Adobe Illustrator 19.1.0, SVG Export Plug-In . SVG Version: 6.00 Build 0)  -->
<svg version="1.1" id="_x31_" xmlns="http://www.w3.org/2000/svg" xmlns:xlink="http://www.w3.org/1999/xlink" x="0px" y="0px"
	 viewBox="0 0 15.3 18" style="enable-background:new 0 0 15.3 18;" xml:space="preserve">
<style type="text/css">
	.st0{fill-rule:evenodd;clip-rule:evenodd;fill:#FFFFFF;}
</style>
<g>
	<path class="st0" d="M5.5,9.1c0.2,0,0.4,0.1,0.5,0.2c0.1,0,0.1,0.1,0.2,0.1C6.4,9.5,6.6,9.8,6.7,10c0.5,0.8-0.3,1.8-1,1.8
		c-0.3,0-0.4,0-0.6-0.2c-0.2-0.1-0.5-0.4-0.6-0.7C3.9,9.9,4.9,9.1,5.5,9.1L5.5,9.1z M4.3,0C4.1,0,4,0,3.9,0.2
		C3.7,0.4,3.7,0.6,3.6,0.9L3.4,2.6c0,0.1,0,0.3-0.1,0.4L2.2,3.2C1.4,3.3,0.8,3.9,0.6,4.7C0.5,4.8,0.3,7.2,0.2,7.4
		c0,0.4-0.1,0.7-0.1,1.1C0.1,8.9,0,9.4,0,9.8c0,0.6,0.3,1.2,0.5,1.5c0.3,0.4,1.5,1.6,2,2l4.3,4.2C7,17.8,7.5,18,7.8,18h0
		c0.4,0,0.5,0,0.9-0.2c0.2-0.1,0.4-0.2,0.5-0.4l5.4-5.4c0.2-0.2,0.3-0.3,0.4-0.5c0.1-0.2,0.2-0.5,0.2-0.7v-0.2
		c0-0.3-0.1-0.5-0.2-0.8c-0.2-0.3-1.2-1.3-1.5-1.6L8.9,3.4C8.4,3,7.7,2.7,7.1,2.7c-0.3,0-1.8,0.2-2.2,0.2c-0.1,0-0.2,0-0.3,0
		c0-0.2,0.3-2.1,0.3-2.3C4.9,0.3,4.6,0,4.3,0L4.3,0L4.3,0z M8.3,10c0-0.3,0-0.4,0.2-0.7c0.1-0.2,0.4-0.5,0.7-0.6
		c0.2-0.1,0.3-0.1,0.5-0.1c0.2,0,0.3,0.1,0.5,0.2c0.7,0.5,1,1.4,0.4,2.1C9.5,12,8.3,10.8,8.3,10L8.3,10z M6.6,7.6
		c0,0.1,0.1,0.6,0.1,0.8L7.6,12c0,0.2,0.1,0.5,0.2,0.7l0.2,0.7c0.1,0,0.6-0.6,0.6-0.6c0-0.1-0.4-2.1-0.5-2.2C7.9,10,7.7,9.1,7.5,8.5
		L7.2,7C7.2,7.1,6.6,7.6,6.6,7.6L6.6,7.6z M2.9,6.2c0,0.7,1.1,0.8,1.2,0.1c0-0.2,0-0.3,0.1-0.5c0-0.1,0-0.2,0-0.2c0-0.1,0-0.2,0-0.3
		c0.1,0,0.2,0.2,0.3,0.3c0.3,0.5,0.2,1.1-0.2,1.5C4.1,7.2,3.7,7.4,3.5,7.4C3,7.3,2.6,7.1,2.4,6.7C2.1,5.9,2.6,5.2,3,5.1
		C3,5.3,2.9,5.9,2.9,6.2L2.9,6.2z M1.2,9.7c0-0.2,0-0.3,0-0.5c0.1-1,0.3-2.1,0.3-3.1c0-0.3,0.1-1,0.2-1.3C2,4.4,2.5,4.4,2.9,4.3
		c0.3,0,0.3,0,0.3-0.1c0,0,0-0.1,0-0.1c0-0.1,0.1-0.3,0.1-0.4c-0.1,0-0.4,0-0.5,0.1c-0.4,0-0.5,0-0.9,0.2C1.8,4,1.6,4.1,1.6,4.2
		C1.1,4.7,1.1,5.1,1,5.8C1,6.4,0.9,7.2,0.8,7.8L0.7,9.2C0.6,9.8,0.6,10.3,1,10.9c0.2,0.2,5.1,5.1,5.8,5.8c0.3,0.3,0.4,0.5,0.8,0.6
		c0.4,0.1,0.7,0.1,1-0.1c0.2-0.1,1.1-1.1,1.3-1.2c0.4-0.4,4.4-4.4,4.6-4.6c0.3-0.4,0.3-1.1,0-1.4c-0.4-0.4-1-1-1.4-1.4l-1.9-1.9
		C11,6.4,8.5,3.9,8.3,3.7C8,3.5,7.5,3.3,7.1,3.3c-0.2,0-1.3,0.1-1.6,0.2c-0.3,0-0.5,0.1-0.8,0.1c-0.2,0-0.2,0-0.2,0.2
		c0,0.1-0.1,0.3-0.1,0.4c0.1,0,0.2,0,0.3,0l1-0.1C5.9,4,6.2,4,6.4,4c0.6-0.1,0.9-0.1,1.4,0.1C7.9,4.2,8,4.3,8.2,4.4l5.7,5.7
		c0.1,0.1,0.3,0.3,0.2,0.6c0,0.3-0.2,0.3-0.3,0.5l-5.3,5.3c-0.1,0.1-0.3,0.3-0.5,0.3c-0.3,0-0.4-0.2-0.6-0.3l-4.7-4.7
		c-0.3-0.3-1.1-1.1-1.3-1.3C1.3,10.2,1.2,10,1.2,9.7z"/>
	<path class="st0" d="M8.9,9.8c0,0.3,0.1,0.4,0.3,0.6c0.5,0.5,1,0.3,1-0.2c0-0.3-0.5-0.8-0.8-0.8H9.4C9.2,9.4,8.9,9.6,8.9,9.8z"/>
	<path class="st0" d="M4.9,10.2c0,0.4,0.5,0.8,0.8,0.8h0.1c0.2,0,0.4-0.2,0.4-0.5c0-0.3-0.6-1-1-0.7C5,9.9,4.9,10.1,4.9,10.2z"/>
</g>
</svg>
