<?xml version="1.0" encoding="utf-8"?>
<!-- Generator: Adobe Illustrator 19.1.0, SVG Export Plug-In . SVG Version: 6.00 Build 0)  -->
<svg version="1.1" id="Layer_1" xmlns="http://www.w3.org/2000/svg" xmlns:xlink="http://www.w3.org/1999/xlink" x="0px" y="0px"
	 viewBox="0 0 34.7 34.7" style="enable-background:new 0 0 34.7 34.7;" xml:space="preserve">
<style type="text/css">
	.st0{fill-rule:evenodd;clip-rule:evenodd;fill:none;stroke:#1D8DE3;stroke-width:2.8346;stroke-miterlimit:22.9256;}
	.st1{fill-rule:evenodd;clip-rule:evenodd;fill:#1D8DE3;}
	.st2{fill-rule:evenodd;clip-rule:evenodd;fill:#FFFFFF;}
</style>
<path class="st0" d="M17.4,33.3c8.8,0,15.9-7.2,15.9-15.9c0-8.8-7.2-15.9-15.9-15.9C8.6,1.4,1.4,8.6,1.4,17.4
	C1.4,26.1,8.6,33.3,17.4,33.3z"/>
<path class="st1" d="M17.4,29.5c6.7,0,12.1-5.4,12.1-12.1S24,5.2,17.4,5.2c-6.7,0-12.1,5.4-12.1,12.1S10.7,29.5,17.4,29.5z"/>
<g>
	<path class="st2" d="M12.4,19.3c-0.1,0.2,0.3,0.5,0.6,0.8l2.3,2.2l6.7-6.7l-2.9-3L12.4,19.3z"/>
	<path class="st2" d="M19.8,12l0.3,0.4c0.5,0.5,2.4,2.4,2.6,2.5l1.2-1.2c0.2-0.2,0.3-0.2,0.4-0.4c0.6-1.1-0.3-1.7-0.7-2.2
		c-0.4-0.4-1.1-1.4-2.1-0.8C21.2,10.5,19.9,11.7,19.8,12z"/>
	<path class="st2" d="M10.2,24.6c0.3,0,4.3-1.4,4.4-1.5l-2.9-2.9C11.6,20.3,10.3,24.1,10.2,24.6z"/>
</g>
</svg>
