<?xml version="1.0" encoding="utf-8"?>
<!-- Generator: Adobe Illustrator 19.1.0, SVG Export Plug-In . SVG Version: 6.00 Build 0)  -->
<svg version="1.1" id="Layer_1" xmlns="http://www.w3.org/2000/svg" xmlns:xlink="http://www.w3.org/1999/xlink" x="0px" y="0px"
	 viewBox="0 0 494 348.8" style="enable-background:new 0 0 494 348.8;" xml:space="preserve">
<style type="text/css">
	.st0{fill-rule:evenodd;clip-rule:evenodd;fill:#3E99FD;}
</style>
<g>
	<g>
		<path class="st0" d="M30.5,271.7c0-9.1,4.1-9.1,12.7-9.1c34.4,0,31.5-2.4,31.1,18.3c-0.5,25.4,4.9,26.7-20.2,26.1
			c-17.1-0.4-23.4,3-23.4-10.6L30.5,271.7L30.5,271.7z M427,262.9c4.7-0.8,15.7,0.1,21.5-0.1c6.8-0.2,14.2-1.3,15.2,6.2l-0.2,22
			c0,9.3,0.9,14.6-6.7,15.4c-6.5,0.7-14.6,0.3-21.3,0.3c-7.5,0-14.1,1-15.2-6.9c-0.9-6.7,0-15.2-0.2-22.3
			C419.9,269.6,418.4,264.3,427,262.9L427,262.9z M446,187.1c8.4,0,18.7-1.7,18.1,8.8c-2,37.7,7.9,35.7-26.5,35.7
			c-13.1,0-17.8,1.2-17.8-11.4l0-12.6c0.3-10.6-2.9-20.6,9.5-20.6L446,187.1L446,187.1z M44.9,187c5.5-0.5,16.2-0.3,21.7,0.3
			c8.9,0.9,8.6,5,8.2,13.8c-0.4,7.4,0.3,15.2-0.2,22.5c-0.6,8.9-6.1,7.8-14.2,8.1c-6.5,0.2-15.9,0.6-21.9,0.1
			c-3.9-0.3-6.2-0.8-7.3-4c-1.2-3.4-1.1-29.5-0.9-33C30.9,186,37.4,187.6,44.9,187L44.9,187z M419.3,123.9c0-8.9,6.9-9.1,14.9-9.1
			h16.3c8.3,0,13.8,0.2,13.8,9.1l-0.4,24.7c0,10.6-1.9,11.4-12.6,11.4l-20.5,0c-8.1,0-11-1.2-11.3-9.3L419.3,123.9L419.3,123.9z
			 M43.2,115c6.1-0.5,15.5-0.2,21.8,0.1c9.5,0.5,10.4,3.1,10.1,12.6c-0.9,28,3.5,32.1-13.1,32.3c-7.4,0.1-15.3,0.2-22.6-0.1
			c-9.4-0.4-9.2-4.5-9.2-13.4c0-7.4-0.3-15.1-0.3-22.2C30,114.7,34.7,115.8,43.2,115L43.2,115z M121.5,29.6
			c4.9-0.6,12.3-0.2,17.6-0.2h195.5c11.1,0,24.8-0.7,35.5,0.1c11.7,0.9,18.5,4.5,18.5,17c0.1,47.4-0.3,94.9-0.2,142.4
			c0.1,34.7-1.4,70.5-1.4,105.1c0,13.1-0.5,20.2-13.9,21.4c-10.5,1-24.2,0.3-35.2,0.3H160c-11.7,0-24,0.4-35.6-0.1
			c-13.5-0.5-16.9-4.5-17.1-18.3l-0.5-106.4c0-11.4,0.4-24.1-0.2-35.3c-0.6-11.1-0.2-24.1-0.2-35.4L106,49.4
			C105.9,36.5,109.3,31.1,121.5,29.6L121.5,29.6z M427.3,39.5c5.9-0.7,16.5-0.4,22.8-0.2c19.2,0.6,14.1,1.8,14.1,30.6
			c0,9.7,0.9,13.9-7.6,14.9c-6.5,0.8-16,0.2-22.8,0.2c-9.3,0-13.6,0.1-14.3-8.4c-0.6-7.1-0.2-15.3-0.4-22.6
			C418.8,45,418,40.6,427.3,39.5L427.3,39.5z M36.2,39.7c5.7-1,16.2-0.3,22.5-0.3c18,0,17.6-0.5,16.7,28.9
			C74.8,87.1,75.7,85,46.6,85c-7.3,0-15.1,1.2-16.2-6.4c-0.3-2-0.7-30.3-0.2-33.4C30.8,41.2,32.3,40.3,36.2,39.7L36.2,39.7z
			 M0.5,206v127.8c1.7,4.2-0.5,12.2,12,14.3c2.2,0.4,6.3,0.1,8,0.7h452.7c2.7-1,9,0.4,14.7-2.8c5.9-3.2,5.1-8.6,6.5-11.6v-76.2
			c-0.5-1.2-0.7-129.5-0.7-134.3l-0.4-101.3c0-4.9,0.5-11.3-1.2-15.6c-2.5-6.5-6.8-5.4-9.9-7h-470C6.4,2.8,1.2,0.6,1.1,15.9
			C1.1,25,1,34,1,43.1C1,58.4,1.1,204.4,0.5,206z"/>
		<path class="st0" d="M224.4,221c9-4.5,89.9-44.5,94.6-47.5l-126.2-62.9c-0.4,5.7-0.3,123.5,0.1,126.1L224.4,221z"/>
	</g>
	<path class="st0" d="M494.5,258.3V0h-12.3c3,1.5,7.4,0.5,9.9,7c1.7,4.3,1.2,10.7,1.2,15.6l0.4,101.3
		C493.8,128.8,494.1,257,494.5,258.3z"/>
	<path class="st0" d="M473.3,348.8h21.3v-14.3c-1.4,3-0.7,8.3-6.5,11.6C482.2,349.2,475.9,347.8,473.3,348.8z"/>
	<path class="st0" d="M0.5,348.8h20c-1.7-0.6-5.8-0.4-8-0.7c-12.5-2-10.4-10.1-12-14.3V348.8z"/>
</g>
</svg>
