<?xml version="1.0" encoding="utf-8"?>
<!-- Generator: Adobe Illustrator 23.0.1, SVG Export Plug-In . SVG Version: 6.00 Build 0)  -->
<svg version="1.1" id="_x31_" xmlns="http://www.w3.org/2000/svg" xmlns:xlink="http://www.w3.org/1999/xlink" x="0px" y="0px"
	 viewBox="0 0 18.11 18" style="enable-background:new 0 0 18.11 18;" xml:space="preserve">
<style type="text/css">
	.st0{fill-rule:evenodd;clip-rule:evenodd;fill:#FFFFFF;}
</style>
<path class="st0" d="M2.96,2.42c1.81-1.7,4.15-2.5,6.45-2.42c2.3,0.08,4.58,1.03,6.28,2.85C17.38,4.67,18.18,7,18.1,9.3
	c-0.08,2.3-1.03,4.58-2.85,6.28c-1.54,1.44-3.44,2.23-5.39,2.39c-3.34,0.28-4.78-1.71-6.12-1c-1.09,0.58-2.37,1.26-3.29,0.27
	c-0.92-0.98-0.23-2.28,0.35-3.37c0.76-1.42-1.1-2.94-0.59-6.26C0.51,5.69,1.43,3.85,2.96,2.42L2.96,2.42z M10.53,10.53
	c0-0.4,0.04-0.66,0.11-0.78c0.07-0.12,0.27-0.27,0.61-0.43c1.02-0.51,1.53-1.39,1.53-2.64c0-1.02-0.35-1.87-1.06-2.55
	C11,3.44,10.12,3.09,9.08,3.09c-0.59,0-1.15,0.14-1.7,0.41C6.83,3.78,6.39,4.15,6.05,4.62c-0.46,0.63-0.7,1.45-0.7,2.46h2.86
	c0-0.75,0.27-1.12,0.81-1.12c0.2,0,0.36,0.07,0.5,0.21c0.14,0.14,0.21,0.31,0.21,0.5c0,0.34-0.21,0.61-0.64,0.8L8.53,7.72
	C8.12,7.9,7.84,8.15,7.69,8.48c-0.16,0.33-0.23,0.84-0.23,1.52v0.52H10.53L10.53,10.53z M9.04,10.97c-0.54,0-1,0.19-1.39,0.58
	c-0.38,0.38-0.57,0.85-0.57,1.4c0,0.57,0.18,1.04,0.55,1.41c0.37,0.37,0.83,0.55,1.41,0.55c0.55,0,1.01-0.19,1.4-0.57
	c0.39-0.38,0.58-0.84,0.58-1.38c0-0.54-0.2-1.01-0.59-1.4C10.05,11.17,9.58,10.97,9.04,10.97L9.04,10.97z M9.35,1.73
	C7.49,1.66,5.61,2.31,4.14,3.69C2.9,4.84,2.16,6.33,1.92,7.88c-0.25,1.58,0.03,3.24,0.84,4.68c0.36,0.63-0.01,1.33-0.44,2.12
	c-0.32,0.59-0.69,1.3-0.61,1.39c0.02,0.02,0.67-0.32,1.22-0.61c0.81-0.43,1.52-0.81,2.16-0.39c1.38,0.92,3.02,1.31,4.63,1.18
	c1.57-0.13,3.11-0.77,4.36-1.93c1.47-1.37,2.24-3.21,2.3-5.07c0.06-1.86-0.58-3.75-1.96-5.22C13.05,2.56,11.21,1.79,9.35,1.73z"/>
</svg>
