<?xml version="1.0" encoding="utf-8"?>
<!-- Generator: Adobe Illustrator 19.1.0, SVG Export Plug-In . SVG Version: 6.00 Build 0)  -->
<svg version="1.1" id="_x31_" xmlns="http://www.w3.org/2000/svg" xmlns:xlink="http://www.w3.org/1999/xlink" x="0px" y="0px"
	 viewBox="0 0 18 18" style="enable-background:new 0 0 18 18;" xml:space="preserve">
<style type="text/css">
	.st0{fill-rule:evenodd;clip-rule:evenodd;fill:#FFFFFF;}
</style>
<path class="st0" d="M3.5,0h11.1c1,0,1.8,0.4,2.4,1c0.6,0.6,1,1.5,1,2.4v11.1c0,1-0.4,1.8-1,2.4c-0.6,0.6-1.5,1-2.4,1H3.5
	c-1,0-1.8-0.4-2.4-1c-0.6-0.6-1-1.5-1-2.4v-3h2.1v3c0,0.4,0.1,0.7,0.4,0.9c0.2,0.2,0.6,0.4,0.9,0.4h11.1c0.4,0,0.7-0.1,0.9-0.4
	c0.2-0.2,0.4-0.6,0.4-0.9V3.5c0-0.4-0.1-0.7-0.4-0.9c-0.2-0.2-0.6-0.4-0.9-0.4H3.5c-0.4,0-0.7,0.1-0.9,0.4C2.3,2.8,2.1,3.1,2.1,3.5
	v3H0v-3c0-1,0.4-1.8,1-2.4C1.6,0.4,2.5,0,3.5,0L3.5,0z M10,3.1L8.2,4.3l2.6,3.6H0v2.1h10.8l-2.6,3.6l1.8,1.2L14.1,9l0,0l0,0l0,0l0,0
	L10,3.1z"/>
</svg>
