<?xml version="1.0" encoding="utf-8"?>
<!-- Generator: Adobe Illustrator 23.0.1, SVG Export Plug-In . SVG Version: 6.00 Build 0)  -->
<svg version="1.1" id="_x31_" xmlns="http://www.w3.org/2000/svg" xmlns:xlink="http://www.w3.org/1999/xlink" x="0px" y="0px"
	 viewBox="0 0 14.93 15" style="enable-background:new 0 0 14.93 15;" xml:space="preserve">
<style type="text/css">
	.st0{fill-rule:evenodd;clip-rule:evenodd;fill:#508EF4;}
</style>
<path class="st0" d="M11.15,0.14c1.38,0.47,2.11,1.96,1.65,3.34c-0.26,0.76-0.83,1.32-1.52,1.6l0.46,2.33l0.46,2.32
	c0.31-0.01,0.63,0.03,0.94,0.14c1.38,0.47,2.11,1.96,1.65,3.34c-0.47,1.38-1.96,2.11-3.34,1.65c-1.21-0.41-1.93-1.62-1.76-2.84
	l-2.3-0.78l-2.34-0.79c-0.55,1.23-1.95,1.85-3.25,1.41c-1.38-0.47-2.11-1.96-1.65-3.34C0.61,7.14,2.1,6.4,3.48,6.87
	c0.29,0.1,0.55,0.24,0.77,0.42l1.99-1.74l1.79-1.57C7.65,3.34,7.55,2.55,7.8,1.79C8.27,0.41,9.77-0.33,11.15,0.14L11.15,0.14z
	 M10.33,5.27c-0.29,0-0.59-0.04-0.88-0.14C9.16,5.03,8.9,4.88,8.67,4.7L6.88,6.27L4.89,8.01c0.26,0.44,0.4,0.96,0.37,1.49l2.42,0.82
	l2.29,0.78c0.29-0.53,0.75-0.93,1.28-1.16L10.79,7.6L10.33,5.27z"/>
</svg>
