<?xml version="1.0" encoding="utf-8"?>
<!-- Generator: Adobe Illustrator 23.0.1, SVG Export Plug-In . SVG Version: 6.00 Build 0)  -->
<svg version="1.1" id="_x31_" xmlns="http://www.w3.org/2000/svg" xmlns:xlink="http://www.w3.org/1999/xlink" x="0px" y="0px"
	 viewBox="0 0 14.23 18" style="enable-background:new 0 0 14.23 18;" xml:space="preserve">
<style type="text/css">
	.st0{fill-rule:evenodd;clip-rule:evenodd;fill:#FFFFFF;}
</style>
<path class="st0" d="M7.12,0c1.95,0,3.72,0.74,5.01,1.94c1.3,1.21,2.11,2.89,2.11,4.75c0,1.5-0.98,3.68-2.19,5.7
	C10.29,15.32,7.85,18,7.12,18c-0.73,0-3.17-2.68-4.92-5.61C0.98,10.37,0,8.2,0,6.69c0-1.86,0.81-3.54,2.11-4.75
	C3.39,0.74,5.16,0,7.12,0L7.12,0z M7.12,2.91c-1.05,0-2,0.43-2.69,1.12l0,0C3.74,4.72,3.31,5.67,3.31,6.72c0,1.05,0.43,2,1.12,2.69
	c0.69,0.69,1.64,1.12,2.69,1.12c1.05,0,2-0.43,2.69-1.12l0,0c0.69-0.69,1.12-1.64,1.12-2.69c0-1.05-0.43-2-1.12-2.69l0,0l0,0
	C9.11,3.34,8.16,2.91,7.12,2.91L7.12,2.91z M8.38,5.45C8.06,5.12,7.61,4.92,7.12,4.92c-0.5,0-0.94,0.2-1.27,0.53h0
	C5.52,5.77,5.32,6.22,5.32,6.72c0,0.5,0.2,0.94,0.53,1.27c0.32,0.32,0.77,0.53,1.27,0.53c0.5,0,0.95-0.2,1.27-0.52v0
	c0.32-0.32,0.53-0.77,0.53-1.27C8.91,6.22,8.71,5.77,8.38,5.45L8.38,5.45L8.38,5.45z M10.98,3.17C10,2.25,8.63,1.68,7.12,1.68
	S4.23,2.25,3.25,3.17c-0.97,0.9-1.57,2.15-1.57,3.53c0,1.17,0.87,3.04,1.95,4.84c1.5,2.5,3.2,4.79,3.49,4.79
	c0.29,0,1.99-2.29,3.49-4.79c1.08-1.8,1.95-3.67,1.95-4.84C12.55,5.32,11.95,4.07,10.98,3.17z"/>
</svg>
