<?xml version="1.0" encoding="utf-8"?>
<!-- Generator: Adobe Illustrator 23.0.1, SVG Export Plug-In . SVG Version: 6.00 Build 0)  -->
<svg version="1.1" id="_x31_" xmlns="http://www.w3.org/2000/svg" xmlns:xlink="http://www.w3.org/1999/xlink" x="0px" y="0px"
	 viewBox="0 0 12.29 15" style="enable-background:new 0 0 12.29 15;" xml:space="preserve">
<style type="text/css">
	.st0{fill-rule:evenodd;clip-rule:evenodd;fill:#508EF4;}
</style>
<path class="st0" d="M2.94,0H8.6h0.19l0.16,0.11l3.08,2.16l0.26,0.19v0.32v9.08v0.61h-0.61H9.97v1.92V15H9.35H0.61H0v-0.61V3.15
	V2.53h0.61h1.71V0.61V0H2.94L2.94,0z M8.74,12.47h-5.8H2.32v-0.61V3.76h-1.1v10.01h7.51V12.47L8.74,12.47z M4.68,3.75v1.23h5.26
	V3.75H4.68L4.68,3.75z M4.68,8.36v1.23h5.26V8.36H4.68L4.68,8.36z M4.68,6.06v1.23h5.26V6.06H4.68L4.68,6.06z M8.41,1.23l-4.85,0
	v10.01h7.51V3.09L8.41,1.23z"/>
</svg>
