<?xml version="1.0" encoding="utf-8"?>
<!-- Generator: Adobe Illustrator 19.1.0, SVG Export Plug-In . SVG Version: 6.00 Build 0)  -->
<svg version="1.1" id="_x31_" xmlns="http://www.w3.org/2000/svg" xmlns:xlink="http://www.w3.org/1999/xlink" x="0px" y="0px"
	 viewBox="0 0 15 15" style="enable-background:new 0 0 15 15;" xml:space="preserve">
<style type="text/css">
	.st0{fill-rule:evenodd;clip-rule:evenodd;fill:#508EF4;}
</style>
<path class="st0" d="M6.2,4.2c0-0.3,0.1-0.6,0.3-0.8C6.7,3.2,7,3.1,7.3,3.1c0.3,0,0.6,0.1,0.8,0.3c0.2,0.2,0.3,0.5,0.3,0.8
	c0,0.3-0.1,0.6-0.3,0.8C7.9,5.3,7.7,5.4,7.3,5.4C7,5.4,6.7,5.3,6.5,5.1C6.3,4.8,6.2,4.6,6.2,4.2L6.2,4.2z M7.5,0
	C5.4,0,3.6,0.8,2.2,2.2C0.8,3.6,0,5.4,0,7.5s0.8,3.9,2.2,5.3C3.6,14.2,5.4,15,7.5,15s3.9-0.8,5.3-2.2c1.4-1.4,2.2-3.2,2.2-5.3
	s-0.8-3.9-2.2-5.3C11.4,0.8,9.6,0,7.5,0L7.5,0z M11.8,3.2c-1.1-1.1-2.6-1.8-4.3-1.8c-1.7,0-3.2,0.7-4.3,1.8C2.1,4.3,1.5,5.8,1.5,7.5
	s0.7,3.2,1.8,4.3c1.1,1.1,2.6,1.8,4.3,1.8c1.7,0,3.2-0.7,4.3-1.8c1.1-1.1,1.8-2.6,1.8-4.3S12.9,4.3,11.8,3.2L11.8,3.2z M8.8,10.2
	c0,0.2,0,0.4,0.1,0.5c0.1,0.1,0.2,0.1,0.5,0.1h0.2v1.1H5.4v-1.1h0.3c0.2,0,0.4,0,0.5-0.1c0.1-0.1,0.1-0.2,0.1-0.5V7.6
	c0-0.3,0-0.4-0.1-0.5C6.1,7,5.9,7,5.7,7H5.4V5.9h3.4V10.2z"/>
</svg>
