<?xml version="1.0" encoding="utf-8"?>
<!-- Generator: Adobe Illustrator 21.1.0, SVG Export Plug-In . SVG Version: 6.00 Build 0)  -->
<svg version="1.1" id="Слой_1" xmlns="http://www.w3.org/2000/svg" xmlns:xlink="http://www.w3.org/1999/xlink" x="0px" y="0px"
	 viewBox="0 0 355.8 313.8" style="enable-background:new 0 0 355.8 313.8;" xml:space="preserve">
<style type="text/css">
	.st0{fill:#6699FF;}
</style>
<g>
	<g>
		<g>
			<circle class="st0" cx="323.5" cy="32.3" r="32.3"/>
		</g>
		<path class="st0" d="M227.3,61.1H0v252.7h63.3v-82.2h121.2l55.3,82.2h70.9l-61-82.6c18.9-3,32.6-10.2,40.9-21.6
			s12.5-29.6,12.5-53.8v-18.9c0-14.4-1.5-25.8-4.2-34.5c-2.7-8.7-7.2-16.3-13.6-23.1c-6.8-6.4-14.4-11-23.5-14
			C252.7,62.6,241.4,61.1,227.3,61.1z M217.1,175.9H63.3v-59.1h153.8c8.7,0,14.8,1.5,17.8,4.2c3,2.7,4.9,7.6,4.9,14.8V157
			c0,7.6-1.9,12.5-4.9,15.2C231.9,174.8,225.8,175.9,217.1,175.9z"/>
	</g>
</g>
</svg>
