<svg xmlns="http://www.w3.org/2000/svg" viewBox="0 0 357.9 419.8"><defs><style>.cls-1{fill:#fff;fill-rule:evenodd;}</style></defs><g id="Layer_2" data-name="Layer 2"><g id="_1" data-name="???? 1"><path class="cls-1" d="M.9,329.66c-4.53,35.81,8.17,68.29,36,75.94,12,3.3,25.07,5.55,38.35,7.65,37.57,5.95,75.87,6.51,114.06,6.55H207.7c23.44,0,60.43-3,84.43-6.57,60.81-3.31,65.77-70.38,65.77-80.23,0-35-9.85-59.3-29.42-84.58-9.34-12.06-32.13-22.49-46.24-28.76-7.3-3.25-37.26-16.52-43.34-16.66-1.2,14.39-18.75,65.83-23.71,78.29S193.94,327,185.32,340.42c-2.6,4.05-2.33,3.81-6.42,6-6-5.17-10.16-14.84-14.42-22-5.77-9.66-16.82-33-20.87-43.13a387.25,387.25,0,0,1-13.14-37.87c-2.4-8.43-10-33.36-10.57-40.42-8.18.18-53.79,21.4-63.67,26.33-7.64,3.82-20.69,12.34-25.92,19.09-7.64,9.87-12.13,15.14-17.27,27.72C8.06,288.31.9,307.42.9,324Z"/><path class="cls-1" d="M98.9,127c0,36.54,15.91,41.11,20.33,51.67,2.7,6.48,2.52,8,6.6,15.39,19.18,34.64,58.91,43.71,86.66,23.53,9.72-7.08,14.62-13,20.47-23.53,2.8-5,4-8.6,6.33-14.67C244.09,167,259.9,163.68,259.9,127a17,17,0,0,0-3.77-11.23c-2.55-2.93-2.33-.77-3.09-4.91-.8-4.39,1-3-1.37-6.63-2-3.12-12.81-12.48-16.44-14.57-29.92-17.21-81.76-17.2-111.67,0-3.63,2.09-14.39,11.45-16.44,14.57-2.29,3.49-.69,1.32-1.28,5.72C104.8,117.83,98.9,115,98.9,127Z"/><path class="cls-1" d="M174.36,7.9c16.41-3.57,29.47,8.47,32.18,21.32,3.66,17.32-8.4,30.09-21.26,33C150.15,70,136.68,16.07,174.36,7.9ZM98.9,34c0,9.11-1.46,55.8,1.24,60.76,7.11,13,12.61-22.76,70.76-22.76,27,0,56.88.74,77.26,20.73,2.55,2.5,3.21,4.33,6.74,5.27,2.64-1.77,5-3.56,5-8V34c0-22.26-50.23-34-70-34-28.62,0-57,.29-80.87,18.13C104.31,21.66,98.9,26,98.9,34Z"/><path class="cls-1" d="M161.9,298c0,5,14.19,28.69,17,34,2-1.5,3.63-4.73,4.95-7.05C198,300,198.43,303,194.3,284.6c-3.19-14.12.22-11.6-24.4-11.6-3.76,0-4.33,7-5.21,10.79C164,286.85,161.9,294.56,161.9,298Z"/><path class="cls-1" d="M169.9,268c26.32,0,21.45,3.21,24.91-14.08,3.61-18,6.58-14.92-28.91-14.92-6.69,0-2.93,9.88-2.09,14.08.62,3,1,5,1.62,8.39C166.08,265.07,166.11,268,169.9,268Z"/><path class="cls-1" d="M157.89,31.85c-.9,3.68-.64,4.4.73,7.65l15.88.77c.19,5.36-.37,11.57,1.3,15.82a9,9,0,0,0,7.2,0c1.68-4.22,1.1-10.46,1.29-16l15.87-1c1.86-3.93,1.85-4.33-.11-8.49l-15.8-.82c-.09-5.38.4-11.64-1.29-15.89a8.93,8.93,0,0,0-7.13,0c-1.7,4.23-1.19,10.51-1.28,15.89C167.39,31.12,163.78,28.91,157.89,31.85Z"/></g></g></svg>