<?xml version="1.0" encoding="utf-8"?>
<!-- Generator: Adobe Illustrator 19.1.0, SVG Export Plug-In . SVG Version: 6.00 Build 0)  -->
<svg version="1.1" id="_x31_" xmlns="http://www.w3.org/2000/svg" xmlns:xlink="http://www.w3.org/1999/xlink" x="0px" y="0px"
	 viewBox="0 0 15.1 15" style="enable-background:new 0 0 15.1 15;" xml:space="preserve">
<style type="text/css">
	.st0{fill-rule:evenodd;clip-rule:evenodd;fill:#95A6C4;}
</style>
<g>
	<path class="st0" d="M11.6,3.1c-1.2-1.1-2.8-1.7-4.3-1.6C5.7,1.5,4.2,2.1,3.1,3.4C1.9,4.6,1.4,6.2,1.4,7.7c0.1,1.5,0.7,3.1,1.9,4.2
		c1,1,2.3,1.5,3.6,1.6c1.3,0.1,2.7-0.2,3.9-1c0.5-0.4,1.1,0,1.8,0.3c0.5,0.2,1,0.5,1,0.5c0.1-0.1-0.2-0.7-0.5-1.2
		c-0.4-0.7-0.7-1.2-0.4-1.8c0.7-1.2,0.9-2.6,0.7-3.9C13.3,5.3,12.7,4,11.6,3.1L11.6,3.1z M7.2,0c1.9-0.1,3.9,0.6,5.4,2
		c1.3,1.2,2,2.7,2.3,4.3c0.4,2.8-1.1,4-0.5,5.2c0.5,0.9,1.1,2,0.3,2.8c-0.8,0.8-1.8,0.3-2.7-0.2c-1.1-0.6-2.3,1.1-5.1,0.8
		c-1.6-0.1-3.2-0.8-4.5-2C0.9,11.6,0.1,9.7,0,7.8c-0.1-1.9,0.6-3.9,2-5.4C3.4,0.9,5.3,0.1,7.2,0z"/>
	<circle class="st0" cx="4.4" cy="7.7" r="1.4"/>
	<circle class="st0" cx="7.5" cy="7.7" r="1.4"/>
	<circle class="st0" cx="10.6" cy="7.7" r="1.4"/>
</g>
</svg>
