<?xml version="1.0" encoding="utf-8"?>
<!-- Generator: Adobe Illustrator 23.0.1, SVG Export Plug-In . SVG Version: 6.00 Build 0)  -->
<svg version="1.1" id="_x31_" xmlns="http://www.w3.org/2000/svg" xmlns:xlink="http://www.w3.org/1999/xlink" x="0px" y="0px"
	 viewBox="0 0 39 38.8" style="enable-background:new 0 0 39 38.8;" xml:space="preserve">
<style type="text/css">
	.st0{fill-rule:evenodd;clip-rule:evenodd;fill:#BDCFF2;}
</style>
<g>
	<path class="st0" d="M30.1,7.9c-3.2-3-7.2-4.4-11.2-4.2c-4,0.1-8,1.8-10.9,5c-3,3.2-4.4,7.2-4.2,11.2c0.1,4,1.8,8,5,10.9
		c2.7,2.5,6,3.9,9.4,4.2c3.5,0.3,7-0.6,10-2.5c1.4-0.9,2.9-0.1,4.7,0.8c1.2,0.6,2.6,1.4,2.6,1.3c0.2-0.2-0.6-1.7-1.3-3
		c-0.9-1.7-1.7-3.2-0.9-4.6c1.7-3.1,2.3-6.7,1.8-10.1C34.4,13.6,32.8,10.4,30.1,7.9L30.1,7.9z M18.7,0c5-0.2,10,1.6,13.9,5.2
		c3.3,3.1,5.3,7,5.9,11.2c1.1,7.1-2.9,10.4-1.3,13.5c1.3,2.3,2.7,5.1,0.8,7.3c-2,2.1-4.8,0.7-7.1-0.6c-2.9-1.5-6,2.7-13.2,2.1
		c-4.2-0.4-8.3-2.1-11.6-5.2C2.2,29.9,0.2,25,0,20c-0.2-5,1.6-10,5.2-13.9C8.9,2.2,13.8,0.2,18.7,0z"/>
	<g>
		<g>
			<path class="st0" d="M19.1,27.5l3.2-3.2c0.2-0.2,0.2-0.5,0-0.7l-2-2l-1.8,1.8l0.6,0.6l-1.8,1.8c-1.1,1.1-3,1.1-4.1,0l-0.1-0.1
				c-1.1-1.1-1.1-3,0-4.1l1.8-1.8l0.6,0.6l1.8-1.8l-2-2c-0.2-0.2-0.5-0.2-0.7,0l-3.2,3.2c-1,1-1.6,2.4-1.6,3.9
				c0,1.5,0.6,2.8,1.6,3.9l0.1,0.1c1,1,2.4,1.6,3.9,1.6C16.7,29.1,18.1,28.6,19.1,27.5z"/>
			<path class="st0" d="M19.9,11.2l-3.3,3.3c-0.2,0.2-0.2,0.5,0,0.7l2,2l1.8-1.8l-0.6-0.6l1.8-1.8c1.1-1.1,3-1.1,4.1,0l0.1,0.1
				c1.1,1.1,1.1,3,0,4.1L24,19l-0.6-0.6l-1.8,1.8l2,2c0.2,0.2,0.5,0.2,0.7,0l3.3-3.3c1-1,1.6-2.4,1.6-3.9c0-1.5-0.6-2.8-1.6-3.9
				l-0.1-0.1c-1-1-2.4-1.6-3.9-1.6C22.3,9.6,20.9,10.2,19.9,11.2z"/>
			<path class="st0" d="M16.2,21l-0.5,0.5c-0.5,0.5-0.5,1.2,0,1.7s1.2,0.5,1.7,0l0.5-0.5l1.8-1.8l1.3-1.3l1.8-1.8l0.5-0.5
				c0.5-0.5,0.5-1.2,0-1.7c-0.5-0.5-1.2-0.5-1.7,0l-0.5,0.5l-1.8,1.8L18,19.2L16.2,21z"/>
		</g>
	</g>
</g>
</svg>
