<?xml version="1.0" encoding="utf-8"?>
<!-- Generator: Adobe Illustrator 19.1.0, SVG Export Plug-In . SVG Version: 6.00 Build 0)  -->
<svg version="1.1" id="Layer_1" xmlns="http://www.w3.org/2000/svg" xmlns:xlink="http://www.w3.org/1999/xlink" x="0px" y="0px"
	 viewBox="0 0 26.4 26.4" style="enable-background:new 0 0 26.4 26.4;" xml:space="preserve">
<style type="text/css">
	.st0{fill-rule:evenodd;clip-rule:evenodd;fill:#FFCC00;}
</style>
<path class="st0" d="M6.4,0H20c3.5,0,6.4,2.9,6.4,6.4V20c0,3.5-2.9,6.4-6.4,6.4H6.4C2.9,26.4,0,23.5,0,20V6.4C0,2.9,2.9,0,6.4,0
	L6.4,0z M20.7,7.2l-15,0c0.1,0.2,3.2,3.3,3.6,3.7c0.6,0.6,3,3.5,3.8,3.5c0.8,0,3.2-3,3.8-3.5C18.3,9.8,19.6,8.4,20.7,7.2L20.7,7.2z
	 M10.7,14.2C9.9,15,9,15.8,8.2,16.7c-0.4,0.4-0.8,0.9-1.2,1.3c-0.2,0.2-1.4,1.2-1,1.2h14.5c0.4,0-0.2-0.4-0.3-0.6
	c-0.2-0.2-0.4-0.4-0.6-0.6c-0.4-0.4-0.8-0.8-1.3-1.3c-0.4-0.5-2.1-2.3-2.5-2.5c-0.6,0.5-1.2,1.6-2.5,1.6
	C11.9,15.7,11.3,14.7,10.7,14.2L10.7,14.2z M4.8,18.2c0.2-0.1,4.9-5,4.9-5c0-0.3-4.5-4.4-4.9-5V18.2L4.8,18.2z M16.7,13.2l4.9,5
	l0-9.9L16.7,13.2z"/>
</svg>
