<?xml version="1.0" encoding="utf-8"?>
<!-- Generator: Adobe Illustrator 19.1.0, SVG Export Plug-In . SVG Version: 6.00 Build 0)  -->
<svg version="1.1" id="_x31_" xmlns="http://www.w3.org/2000/svg" xmlns:xlink="http://www.w3.org/1999/xlink" x="0px" y="0px"
	 viewBox="0 0 9.3 33.1" style="enable-background:new 0 0 9.3 33.1;" xml:space="preserve">
<style type="text/css">
	.st0{fill-rule:evenodd;clip-rule:evenodd;fill:#778CB0;}
</style>
<g>
	<path class="st0" d="M4.7,9.3c2.6,0,4.7-2.1,4.7-4.7C9.3,2.1,7.2,0,4.7,0S0,2.1,0,4.7C0,7.2,2.1,9.3,4.7,9.3z"/>
	<path class="st0" d="M4.7,21.2c2.6,0,4.7-2.1,4.7-4.7s-2.1-4.7-4.7-4.7S0,14,0,16.5S2.1,21.2,4.7,21.2z"/>
	<path class="st0" d="M4.7,33.1c2.6,0,4.7-2.1,4.7-4.7s-2.1-4.7-4.7-4.7S0,25.9,0,28.4S2.1,33.1,4.7,33.1z"/>
</g>
</svg>
