<?xml version="1.0" encoding="utf-8"?>
<!-- Generator: Adobe Illustrator 23.0.1, SVG Export Plug-In . SVG Version: 6.00 Build 0)  -->
<svg version="1.1" id="_x31_" xmlns="http://www.w3.org/2000/svg" xmlns:xlink="http://www.w3.org/1999/xlink" x="0px" y="0px"
	 viewBox="0 0 34.23 31.65" style="enable-background:new 0 0 34.23 31.65;" xml:space="preserve">
<style type="text/css">
	.st0{fill-rule:evenodd;clip-rule:evenodd;fill:#508EF4;}
</style>
<g>
	<path class="st0" d="M14.01,25.83c0-1.4-0.29-2.17,1.22-2.17c5.23,0,4.97-0.39,4.97,1.85c0,2.1-0.12,3.94,0.19,5.93
		c0.94,0.28,7.81,0.27,8.75-0.01c0.33-1.11,0.18-7.57,0.18-9.35c0.01-3.11,0.28-2.65-0.93-3.87l-9.68-9.73
		c-0.53-0.56-0.88-1.24-1.86-1.26c-0.34,0.08-3.16,2.97-3.45,3.26L6.87,17.3c-0.45,0.47-1.52,1.2-1.79,1.64
		c-0.41,0.68-0.19,2.19-0.19,3.13c-0.02,3.11-0.16,6.26,0.18,9.34c0.67,0.2,7.56,0.38,8.76,0.01
		C14.14,30.55,14.01,27.12,14.01,25.83z"/>
	<path class="st0" d="M16.48,0.13c-1.04,0.38-7.83,7.89-9.37,9.43c-0.4,0.39-0.75,0.57-1.14,0.97c-0.74,0.75-1.35,1.4-2.09,2.15
		C3.21,13.36,0.02,16.32,0,17.35c-0.02,1.23,1.12,2,2.34,1.47c0.71-0.3,5.57-5.62,6.33-6.4c0.41-0.43,0.72-0.57,1.15-0.97l5.2-5.4
		c1.99-2.11,2.51-1.7,4.8,0.67c0.73,0.76,1.35,1.4,2.08,2.16l6.17,6.39c1.86,1.63,3.5,3.87,4.76,3.72c1.19-0.14,1.88-1.5,1.02-2.65
		c-0.98-1.31-6.68-6.75-8.34-8.47C24.27,6.6,19.45,1.4,18.16,0.4C17.66,0.02,17.21-0.13,16.48,0.13z"/>
</g>
</svg>
