<?xml version="1.0" encoding="utf-8"?>
<!-- Generator: Adobe Illustrator 19.1.0, SVG Export Plug-In . SVG Version: 6.00 Build 0)  -->
<svg version="1.1" id="_x31_" xmlns="http://www.w3.org/2000/svg" xmlns:xlink="http://www.w3.org/1999/xlink" x="0px" y="0px"
	 viewBox="0 0 17.4 18" style="enable-background:new 0 0 17.4 18;" xml:space="preserve">
<style type="text/css">
	.st0{fill-rule:evenodd;clip-rule:evenodd;fill:#FFFFFF;}
</style>
<g>
	<path class="st0" d="M0,5.9v11.5C0,17.7,0.3,18,0.7,18h15c0.3,0,0.6-0.2,0.7-0.4c0.1-0.2,0-0.8,0-1c0-0.7,0-1.4,0-2.2
		c-0.1,0-0.1,0-0.1,0H15c-0.9,0-1.7-0.5-2-1.2c-0.4-0.8-0.3-1.7,0.3-2.4c0.1-0.2,0.4-0.4,0.6-0.5C14.5,9.9,15,10,15.7,10l0.5,0
		c0.1,0,0.1,0,0.1,0l0-3.8c0-0.2-0.1-0.3-0.2-0.4c-0.3-0.3-0.6-0.2-1-0.2H2c-0.2,0-0.4,0-0.6,0c-0.1,0-0.2,0-0.3-0.1
		C0.9,5.4,1,5.1,1.2,5l1.5,0c0.2,0,0.1,0,0.3-0.1l0.5-0.4c0.1,0,0.1-0.1,0.1-0.1H1.7c-0.2,0-0.4,0-0.6,0c-0.3,0-0.7,0.1-0.9,0.4
		C0.1,5.1,0,5.5,0,5.9z"/>
	<path class="st0" d="M3.2,5.3l3,0l1.6-0.6C8.3,4.5,8.9,4.2,9.4,4l2.4-0.9C12,3.1,12,3.1,12.1,3l0.5-0.2c0-0.1-1.7-2.3-2-2.6
		c0,0-0.1-0.2-0.1-0.2c-0.1,0-0.2,0.1-0.2,0.2L9,1.1C8.9,1.2,8.8,1.3,8.7,1.3C8.7,1.4,8.6,1.4,8.5,1.5C8.1,1.8,7.6,2.1,7.3,2.4
		c0,0-0.1,0.1-0.1,0.1C7.1,2.5,7,2.6,6.9,2.6L5.7,3.5c0,0-0.1,0.1-0.1,0.1L3.7,4.9C3.6,5,3.3,5.2,3.2,5.3z"/>
	<path class="st0" d="M14.2,12.2c0-0.5,0.5-0.9,1-0.8c0.5,0.1,0.9,0.8,0.5,1.3c-0.1,0.1-0.2,0.2-0.3,0.3
		C14.7,13.2,14.2,12.7,14.2,12.2L14.2,12.2z M13.3,12.2c0,0.3,0.1,0.5,0.1,0.7c0.1,0.1,0.1,0.2,0.1,0.3c0.3,0.4,0.8,0.7,1.3,0.7h1.4
		c0.1,0,0.1,0,0.1,0c0.1-0.1,1-0.8,1-0.8c0-0.1,0-0.6,0-0.7c0-0.1,0-0.2,0-0.3l0-2.3c-0.2,0.1-0.9,0.7-1,0.8c0,0-0.1,0-0.2,0
		c-0.5,0-1.2,0-1.6,0c-0.5,0.1-0.9,0.5-1.1,0.9C13.4,11.7,13.3,11.9,13.3,12.2z"/>
	<path class="st0" d="M7.5,5.3h7.1c0-0.1-0.1-0.2-0.1-0.3l-0.7-2L9.9,4.4C9.6,4.5,9.4,4.6,9.1,4.7L7.5,5.3z"/>
	<path class="st0" d="M15.1,5c0.3,0,0.5,0,0.8,0c0.5,0,0.9-0.1,1,0.6c0,0.2,0,3.5,0,3.9l0.4-0.2c0,0,0.1,0,0.1-0.1V5.3
		c0-0.3-0.3-0.6-0.5-0.8c-0.3-0.2-0.8-0.1-1.2-0.1c-0.3,0-0.6,0-0.9,0C14.9,4.5,15,5,15.1,5z"/>
	<path class="st0" d="M16.9,13.9V17c0.3,0,0.5-0.2,0.5-0.5c0-0.2,0-0.7,0-1c0-0.7,0-1.3,0-2c-0.1,0-0.3,0.2-0.4,0.2
		C16.9,13.8,16.9,13.9,16.9,13.9z"/>
</g>
</svg>
