<?xml version="1.0" encoding="utf-8"?>
<!-- Generator: Adobe Illustrator 23.0.1, SVG Export Plug-In . SVG Version: 6.00 Build 0)  -->
<svg version="1.1" id="_x31_" xmlns="http://www.w3.org/2000/svg" xmlns:xlink="http://www.w3.org/1999/xlink" x="0px" y="0px"
	 viewBox="0 0 4.64 16.5" style="enable-background:new 0 0 4.64 16.5;" xml:space="preserve">
<style type="text/css">
	.st0{fill-rule:evenodd;clip-rule:evenodd;fill:#EF041D;}
</style>
<g>
	<path class="st0" d="M2.32,4.64c1.28,0,2.32-1.04,2.32-2.32C4.64,1.04,3.6,0,2.32,0C1.04,0,0,1.04,0,2.32
		C0,3.6,1.04,4.64,2.32,4.64z"/>
	<path class="st0" d="M2.32,10.57c1.28,0,2.32-1.04,2.32-2.32c0-1.28-1.04-2.32-2.32-2.32C1.04,5.93,0,6.97,0,8.25
		C0,9.53,1.04,10.57,2.32,10.57z"/>
	<path class="st0" d="M2.32,16.5c1.28,0,2.32-1.04,2.32-2.32c0-1.28-1.04-2.32-2.32-2.32C1.04,11.86,0,12.9,0,14.18
		C0,15.46,1.04,16.5,2.32,16.5z"/>
</g>
</svg>
