<?xml version="1.0" encoding="utf-8"?>
<!-- Generator: Adobe Illustrator 23.0.1, SVG Export Plug-In . SVG Version: 6.00 Build 0)  -->
<svg version="1.1" id="_x31_" xmlns="http://www.w3.org/2000/svg" xmlns:xlink="http://www.w3.org/1999/xlink" x="0px" y="0px"
	 viewBox="0 0 18.11 18" style="enable-background:new 0 0 18.11 18;" xml:space="preserve">
<style type="text/css">
	.st0{fill-rule:evenodd;clip-rule:evenodd;fill:#FFFFFF;}
</style>
<g>
	<path class="st0" d="M13.97,3.69c-1.47-1.37-3.36-2.02-5.22-1.96c-1.86,0.06-3.7,0.84-5.07,2.3C2.31,5.5,1.66,7.39,1.73,9.25
		c0.06,1.86,0.84,3.69,2.3,5.07c1.24,1.16,2.78,1.8,4.35,1.93c1.61,0.13,3.25-0.26,4.63-1.18c0.64-0.42,1.35-0.05,2.16,0.39
		c0.55,0.29,1.2,0.64,1.22,0.61c0.08-0.09-0.29-0.8-0.61-1.39c-0.42-0.8-0.79-1.49-0.44-2.12c0.81-1.44,1.09-3.1,0.84-4.68
		C15.95,6.33,15.21,4.84,13.97,3.69L13.97,3.69z M8.7,0.01c2.3-0.08,4.63,0.72,6.45,2.42c1.53,1.43,2.45,3.27,2.75,5.19
		c0.52,3.32-1.34,4.84-0.59,6.26c0.58,1.09,1.27,2.39,0.35,3.37c-0.93,0.99-2.21,0.31-3.29-0.27c-1.34-0.72-2.78,1.28-6.12,1
		c-1.95-0.16-3.85-0.96-5.39-2.39c-1.82-1.7-2.77-3.97-2.85-6.28C-0.07,7,0.73,4.67,2.42,2.86C4.12,1.04,6.39,0.08,8.7,0.01z"/>
	<g>
		<path class="st0" d="M5.24,7.6c0.9,0,1.63,0.73,1.63,1.63c0,0.9-0.73,1.63-1.63,1.63c-0.9,0-1.63-0.73-1.63-1.63
			C3.61,8.33,4.34,7.6,5.24,7.6z"/>
		<path class="st0" d="M9.01,7.6c0.9,0,1.63,0.73,1.63,1.63c0,0.9-0.73,1.63-1.63,1.63c-0.9,0-1.63-0.73-1.63-1.63
			C7.38,8.33,8.11,7.6,9.01,7.6z"/>
		<path class="st0" d="M12.78,7.6c0.9,0,1.63,0.73,1.63,1.63c0,0.9-0.73,1.63-1.63,1.63c-0.9,0-1.63-0.73-1.63-1.63
			C11.15,8.33,11.88,7.6,12.78,7.6z"/>
	</g>
</g>
</svg>
