<?xml version="1.0" encoding="utf-8"?>
<!-- Generator: Adobe Illustrator 19.1.0, SVG Export Plug-In . SVG Version: 6.00 Build 0)  -->
<svg version="1.1" id="_x31_" xmlns="http://www.w3.org/2000/svg" xmlns:xlink="http://www.w3.org/1999/xlink" x="0px" y="0px"
	 viewBox="0 0 39 38.8" style="enable-background:new 0 0 39 38.8;" xml:space="preserve">
<style type="text/css">
	.st0{fill-rule:evenodd;clip-rule:evenodd;fill:#BDCFF2;}
</style>
<g>
	<path class="st0" d="M30.1,7.9c-3.2-3-7.2-4.4-11.2-4.2c-4,0.1-8,1.8-10.9,5c-3,3.2-4.4,7.2-4.2,11.2c0.1,4,1.8,8,5,10.9
		c2.7,2.5,6,3.9,9.4,4.2c3.5,0.3,7-0.6,10-2.5c1.4-0.9,2.9-0.1,4.7,0.8c1.2,0.6,2.6,1.4,2.6,1.3c0.2-0.2-0.6-1.7-1.3-3
		c-0.9-1.7-1.7-3.2-0.9-4.6c1.7-3.1,2.3-6.7,1.8-10.1C34.4,13.6,32.8,10.4,30.1,7.9L30.1,7.9z M18.7,0c5-0.2,10,1.6,13.9,5.2
		c3.3,3.1,5.3,7,5.9,11.2c1.1,7.1-2.9,10.4-1.3,13.5c1.3,2.3,2.7,5.1,0.8,7.3c-2,2.1-4.8,0.7-7.1-0.6c-2.9-1.5-6,2.7-13.2,2.1
		c-4.2-0.4-8.3-2.1-11.6-5.2C2.2,29.9,0.2,25,0,20c-0.2-5,1.6-10,5.2-13.9C8.9,2.2,13.8,0.2,18.7,0z"/>
	<g>
		<circle class="st0" cx="11.3" cy="19.9" r="3.5"/>
		<circle class="st0" cx="19.4" cy="19.9" r="3.5"/>
		<circle class="st0" cx="27.5" cy="19.9" r="3.5"/>
	</g>
</g>
</svg>
