<?xml version="1.0" encoding="utf-8"?>
<!-- Generator: Adobe Illustrator 23.0.1, SVG Export Plug-In . SVG Version: 6.00 Build 0)  -->
<svg version="1.1" id="calendar" xmlns="http://www.w3.org/2000/svg" xmlns:xlink="http://www.w3.org/1999/xlink" x="0px" y="0px"
	 viewBox="0 0 17.1 17.1" style="enable-background:new 0 0 17.1 17.1;" xml:space="preserve">

	<path id="SVGID_1_" d="M15.8,8.5l0,0.5l0,0.4l0,0.5l0,0.4l0,0.5l0,0.4l0,0.5l0,0.4l0,0.5l0,0.4l0,0.5l0,0.4l0,0.5l0,0.4l0,0.5
		c0,0.1,0,0.3,0,0.4c0,0.2-0.2,0.3-0.4,0.4c-0.1,0.1-0.3,0-0.4,0h-0.5h-0.4h-0.5h-0.4h-0.5h-0.4h-0.5h-0.4h-0.5h-0.4h-0.5H9.8H9.4H9
		H8.5H8.1H7.7H7.3H6.8H6.4H6H5.6H5.1H4.7H4.2H3.9H3.4H3H2.5H2.1c-0.1,0-0.4,0-0.5-0.1c-0.1,0-0.3-0.2-0.3-0.3c-0.1-0.2,0-0.4,0-0.6
		l0-3.8c0-0.4,0-4.8,0-5.1l14.4,0L15.8,8.5L15.8,8.5z M1.3,1.4c0,0-0.3,0.2-0.4,0.2L0.8,1.7C0.5,1.9,0.5,1.9,0.4,2.1c0,0,0,0,0,0
		c0,0-0.2,0.3-0.2,0.4C0,3.2,0,3.4,0,4.1c0,3.6,0,7.3,0,10.9c0,0.3,0.1,0.5,0.1,0.7c0,0,0.1,0.1,0.1,0.2c0,0,0,0.1,0.1,0.1
		c0,0.1,0,0,0,0.1c0.1,0,0.1,0.1,0.1,0.2c0,0.1,0.1,0.1,0.1,0.1c0,0,0.1,0.1,0.1,0.1c0.1,0,0.1,0.1,0.2,0.1c0.1,0,0,0,0.1,0
		c0,0,0.1,0,0.1,0.1c0,0,0.1,0.1,0.2,0.1c0.4,0.1,0.5,0.1,0.9,0.1h0.4H3h0.4h0.5h0.4h0.5h0.4h0.5H6h0.5h0.4h0.5h0.4h0.5h0.4H9h0.4
		h0.5h0.4h0.5h0.4h0.5h0.4h0.5h0.4h0.5h0.4h0.5h0.4H15c0.1,0,0.3,0,0.4,0c0.1,0,0.3-0.1,0.5-0.1c0.2-0.1,0.3-0.1,0.4-0.2
		c0,0,0,0,0,0l0.5-0.5c0,0,0,0,0,0c0.1-0.2,0.1-0.3,0.2-0.4c0-0.1,0.1-0.5,0.1-0.5l0-0.3l0-0.5l0-0.4l0-0.5l0-0.4l0-0.5l0-0.4l0-0.5
		l0-0.4l0-0.5l0-0.4l0-0.5l0-0.4l0-0.5l0-0.4l0-0.5l0-0.4l0-0.5l0-0.4l0-0.5l0-0.4l0-0.5l0-0.4l0-0.5l0-0.4l0-0.5l0-0.4V3.4
		c0-0.1,0-0.3,0-0.4C17,2.8,17,2.7,17,2.6c0,0,0,0,0,0l-0.1-0.2c-0.1-0.1-0.1-0.2-0.1-0.2c-0.1,0-0.2-0.2-0.4-0.4l-0.1-0.1
		c-0.2-0.1-0.3-0.2-0.5-0.2c-0.4-0.1-1.5-0.1-1.9-0.1c0,0.5,0.1,1.4-0.1,1.9c-0.5,1-1.9,1-2.4,0c-0.1-0.3-0.1-0.5-0.1-0.9
		c0-0.3,0-0.8,0-1l-5.3,0l0,0.4v0.4c0,0.3,0,0.6,0,0.7c0,0.1,0,0.1,0,0.1C5.8,3.3,5.4,3.7,5.1,3.8C5,3.9,4.6,3.9,4.4,3.9
		C4.2,3.9,4,3.8,3.9,3.7c-0.3-0.2-0.6-0.6-0.6-1c-0.1-0.1,0-1.2,0-1.4C2.5,1.3,2,1.3,1.3,1.4z" style="fill:#fff;"/>
	<path id="SVGID_2_" d="M7.1,9.3C7.1,9.4,7.1,9.3,7.1,9.3c0,0.1,0,0.1,0,0.1c0,0,0,0.1,0,0.1c0,0.1,0,0.1,0,0.2c0.2,0,0.8-0.4,1-0.5
		l0,4.5l1.3,0l0-5.6c-0.2,0-0.6,0-0.8,0c-0.3,0-0.4,0-0.6,0.2C7.9,8.4,7.1,8.7,7,8.8C7,9,7.1,9.2,7.1,9.3z" style="fill:#fff;"/>
	<path id="SVGID_3_" d="M11.9,0.2C11.9,0.3,11.9,0.2,11.9,0.2C11.9,0.3,11.9,0.3,11.9,0.2c-0.1,0.1-0.1,0.2-0.1,0.2
		c-0.1,0.3,0,0.8,0,1.2c0,0.4,0,0.8,0,1.2L11.9,3c0,0,0,0,0.1,0.1c0,0.1,0,0,0,0.1c0.1,0,0.1,0.1,0.2,0.1c0.1,0,0.2,0.1,0.4,0
		c0.3,0,0.4-0.2,0.5-0.3c0.1-0.2,0.1-0.2,0.1-0.5l0-1.7c0-0.4-0.1-0.6-0.4-0.8C12.6,0,12.4,0,12.3,0C12.2,0.1,12.1,0.1,11.9,0.2
		L11.9,0.2z" style="fill:#fff;"/>
	<path id="SVGID_4_" d="M4,3C4,3,4,3,4,3c0.2,0.2,0.2,0.3,0.5,0.3c0.4,0,0.5-0.1,0.6-0.2c0-0.1,0,0,0-0.1c0.1-0.4,0.1-0.4,0.1-0.9
		l0-1.4C5.2,0.2,5,0,4.5,0C3.9,0.2,4,0.6,3.9,1.2v1.3C3.9,2.7,4,2.9,4,3z" style="fill:#fff;"/>
</svg>
