<?xml version="1.0" encoding="utf-8"?>
<!-- Generator: Adobe Illustrator 19.1.0, SVG Export Plug-In . SVG Version: 6.00 Build 0)  -->
<svg version="1.1" id="_x31_" xmlns="http://www.w3.org/2000/svg" xmlns:xlink="http://www.w3.org/1999/xlink" x="0px" y="0px"
	 viewBox="0 0 30 30" style="enable-background:new 0 0 30 30;" xml:space="preserve">
<style type="text/css">
	.st0{fill-rule:evenodd;clip-rule:evenodd;fill:#4C8EFF;}
	.st1{fill-rule:evenodd;clip-rule:evenodd;fill:#FFFFFF;}
</style>
<path class="st0" d="M15,30c8.3,0,15-6.7,15-15S23.3,0,15,0C6.7,0,0,6.7,0,15S6.7,30,15,30z"/>
<path class="st1" d="M8.7,17.5c-0.1,0.3,0.4,0.6,0.8,1l2.9,2.9l8.6-8.6L17.2,9L8.7,17.5L8.7,17.5z M18.1,8.1
	c0.2-0.3,1.8-1.9,2.1-2.1c1.3-0.7,2.2,0.5,2.7,1c0.6,0.5,1.7,1.4,0.9,2.8c-0.2,0.3-0.3,0.3-0.5,0.5l-1.5,1.5
	c-0.3-0.2-2.7-2.6-3.3-3.3L18.1,8.1L18.1,8.1z M5.8,24.2c0.2-0.6,1.8-5.4,1.9-5.6l3.7,3.7C11.3,22.4,6.2,24.2,5.8,24.2z"/>
</svg>
