<?xml version="1.0" encoding="utf-8"?>
<!-- Generator: Adobe Illustrator 23.0.1, SVG Export Plug-In . SVG Version: 6.00 Build 0)  -->
<svg version="1.1" id="_x31_" xmlns="http://www.w3.org/2000/svg" xmlns:xlink="http://www.w3.org/1999/xlink" x="0px" y="0px"
	 viewBox="0 0 4.71 16.73" style="enable-background:new 0 0 4.71 16.73;" xml:space="preserve">
<style type="text/css">
	.st0{fill-rule:evenodd;clip-rule:evenodd;fill:#508EF4;}
</style>
<g>
	<path class="st0" d="M2.35,4.71c1.3,0,2.35-1.06,2.35-2.35S3.65,0,2.35,0S0,1.06,0,2.35S1.06,4.71,2.35,4.71z"/>
	<path class="st0" d="M2.35,10.72c1.3,0,2.35-1.06,2.35-2.35S3.65,6.01,2.35,6.01S0,7.07,0,8.37S1.06,10.72,2.35,10.72z"/>
	<path class="st0" d="M2.35,16.73c1.3,0,2.35-1.06,2.35-2.35s-1.06-2.35-2.35-2.35S0,13.08,0,14.38S1.06,16.73,2.35,16.73z"/>
</g>
</svg>
