<?xml version="1.0" encoding="utf-8"?>
<!-- Generator: Adobe Illustrator 23.0.1, SVG Export Plug-In . SVG Version: 6.00 Build 0)  -->
<svg version="1.1" id="_x31_" xmlns="http://www.w3.org/2000/svg" xmlns:xlink="http://www.w3.org/1999/xlink" x="0px" y="0px"
	 viewBox="0 0 45.7 45.9" style="enable-background:new 0 0 45.7 45.9;" xml:space="preserve">
<style type="text/css">
	.st0{fill-rule:evenodd;clip-rule:evenodd;fill:#808080;}
	.st1{fill-rule:evenodd;clip-rule:evenodd;fill:#508EF4;}
</style>
<path class="st0" d="M26.2,4.3c0.6,0.1,1.3,0.2,1.9,0.4l3.9-2L33.3,7c0.6,0.3,1.1,0.7,1.6,1.1l4.4-0.4L38.8,12
	c0.4,0.5,0.7,1.1,1.1,1.6l4.2,1.3L42,18.8c0.2,0.6,0.3,1.3,0.4,1.9l3.4,2.8l-3.4,2.8c-0.1,0.6-0.2,1.3-0.4,1.9l2.1,3.9l-4.3,1.3
	c-0.3,0.6-0.7,1.1-1.1,1.6l0.4,4.4L34.5,39c-0.5,0.4-1.1,0.7-1.6,1.1l-1.3,4.2l-3.9-2.1c-0.6,0.2-1.3,0.3-1.9,0.4L23,45.9l-2.8-3.4
	c-0.6-0.1-1.3-0.2-1.9-0.4l-3.9,2.1l-1.3-4.3c-0.6-0.3-1.1-0.7-1.6-1.1l-4.4,0.4l0.5-4.4c-0.4-0.5-0.7-1.1-1.1-1.6l-4.2-1.3L4.4,28
	c-0.2-0.6-0.3-1.3-0.4-1.9l-3.4-2.8L4,20.5c0.1-0.6,0.2-1.3,0.4-1.9l-2.1-3.9l4.3-1.3c0.3-0.6,0.7-1.1,1.1-1.6L7.4,7.3l4.4,0.5
	c0.5-0.4,1.1-0.7,1.6-1.1l1.3-4.2l3.9,2.1c0.6-0.2,1.3-0.3,1.9-0.4l2.8-3.4L26.2,4.3z"/>
<path class="st1" d="M25.5,3.4c0.6,0.1,1.3,0.2,1.9,0.4l3.9-2.1L32.6,6c0.6,0.3,1.1,0.7,1.6,1.1l4.4-0.4l-0.5,4.4
	c0.4,0.5,0.7,1.1,1.1,1.6l4.2,1.3l-2.1,4c0.2,0.6,0.3,1.3,0.4,1.9l3.4,2.8l-3.4,2.8c-0.1,0.6-0.2,1.3-0.4,1.9l2.1,3.9L39,32.6
	c-0.3,0.6-0.7,1.1-1.1,1.6l0.4,4.4l-4.4-0.5c-0.5,0.4-1.1,0.7-1.6,1.1L31,43.4l-4-2.1c-0.6,0.2-1.3,0.3-1.9,0.4L22.3,45l-2.8-3.4
	c-0.6-0.1-1.3-0.2-1.9-0.4l-3.9,2.1L12.4,39c-0.6-0.3-1.1-0.7-1.6-1.1l-4.4,0.4l0.5-4.4c-0.4-0.5-0.7-1.1-1.1-1.6L1.6,31l2.1-4
	c-0.2-0.6-0.3-1.3-0.4-1.9L0,22.3l3.4-2.8c0.1-0.6,0.2-1.3,0.4-1.9l-2.1-3.9L6,12.4c0.3-0.6,0.7-1.1,1.1-1.6L6.7,6.5L11.1,7
	c0.5-0.4,1.1-0.7,1.6-1.1L14,1.7l4,2c0.6-0.2,1.3-0.3,1.9-0.4L22.7,0L25.5,3.4z"/>
</svg>
