<?xml version="1.0" encoding="utf-8"?>
<!-- Generator: Adobe Illustrator 23.0.1, SVG Export Plug-In . SVG Version: 6.00 Build 0)  -->
<svg version="1.1" id="_x31_" xmlns="http://www.w3.org/2000/svg" xmlns:xlink="http://www.w3.org/1999/xlink" x="0px" y="0px"
	 viewBox="0 0 17.42 22.2" style="enable-background:new 0 0 17.42 22.2;" xml:space="preserve">
<style type="text/css">
	.st0{fill-rule:evenodd;clip-rule:evenodd;fill:#508EF4;}
</style>
<g>
	<g>
		<path class="st0" d="M2.95,9.02c0-1.27,0.05-1.69,0.56-2.86c0.12-0.28,0.35-0.63,0.52-0.87L4.7,4.52l0.78-0.61
			C5.78,3.7,6.03,3.56,6.39,3.4c1.4-0.65,3.23-0.64,4.63-0.01c0.58,0.26,1.47,0.81,1.86,1.31c0.06,0.07,0.1,0.11,0.17,0.18
			c0.77,0.75,1.44,2.36,1.44,3.5c0,1.47-0.13,2.08-0.81,3.31c-0.17,0.31-0.36,0.54-0.59,0.8c-0.35,0.4-0.16,0.22-0.54,0.54
			c-2.06,1.74-4.79,1.97-7.03,0.5l-0.59-0.46C3.81,12.12,2.95,10.5,2.95,9.02L2.95,9.02z M8.39,0c-1.21,0.04-2.4,0.32-3.43,0.84
			C3.43,1.6,1.91,2.9,1.13,4.42C0.46,5.71,0,6.92,0,8.63c0,0.46,0.04,0.88,0.09,1.3c0.1,0.89,0.53,2.39,0.94,3.23
			c0.16,0.33,0.29,0.63,0.45,0.94c0.08,0.17,0.16,0.28,0.25,0.45c0.51,0.94,1.28,2.08,1.94,2.92l1.94,2.22
			c0.24,0.24,0.45,0.45,0.69,0.69l0.71,0.67c0.4,0.33,1.13,1.16,1.62,1.16c0.48,0,0.62-0.1,1.03-0.49c0.46-0.44,0.87-0.74,1.45-1.32
			c0.24-0.24,0.46-0.45,0.69-0.69l1.93-2.23c2.5-3.04,4.96-7.98,2.94-12.29c-0.06-0.13-0.1-0.23-0.17-0.35c-1-1.83-2.08-3-4.01-3.97
			C11.46,0.33,10.25,0.04,9.03,0H8.39z"/>
		<path class="st0" d="M5.38,8.5v0.22c0,2.84,3.64,4.34,5.65,2.31c1.36-1.38,1.36-3.36,0.11-4.73C10.66,5.78,9.7,5.29,8.98,5.29
			H8.45C6.89,5.29,5.38,6.85,5.38,8.5z"/>
	</g>
</g>
</svg>
