<?xml version="1.0" encoding="utf-8"?>
<!-- Generator: Adobe Illustrator 23.0.1, SVG Export Plug-In . SVG Version: 6.00 Build 0)  -->
<svg version="1.1" id="_x31_" xmlns="http://www.w3.org/2000/svg" xmlns:xlink="http://www.w3.org/1999/xlink" x="0px" y="0px"
	 viewBox="0 0 18 18" style="enable-background:new 0 0 18 18;" xml:space="preserve">
<style type="text/css">
	.st0{fill-rule:evenodd;clip-rule:evenodd;fill:#FFFFFF;}
</style>
<path class="st0" d="M7.43,5.08c0-0.39,0.13-0.72,0.4-0.99C8.1,3.82,8.43,3.68,8.81,3.68c0.38,0,0.71,0.14,0.98,0.41
	c0.27,0.27,0.41,0.6,0.41,0.98c0,0.39-0.14,0.72-0.41,0.99C9.53,6.33,9.2,6.47,8.81,6.47c-0.39,0-0.72-0.13-0.99-0.4
	C7.56,5.8,7.43,5.47,7.43,5.08L7.43,5.08z M9,0C6.51,0,4.26,1.01,2.64,2.64C1.01,4.26,0,6.51,0,9s1.01,4.74,2.64,6.36
	C4.26,16.99,6.51,18,9,18s4.74-1.01,6.36-2.64C16.99,13.74,18,11.49,18,9s-1.01-4.74-2.64-6.36C13.74,1.01,11.49,0,9,0L9,0z
	 M14.13,3.87C12.82,2.56,11,1.75,9,1.75S5.18,2.56,3.87,3.87C2.56,5.18,1.75,7,1.75,9c0,2,0.81,3.82,2.12,5.13
	C5.18,15.44,7,16.25,9,16.25s3.82-0.81,5.13-2.12C15.44,12.82,16.25,11,16.25,9C16.25,7,15.44,5.18,14.13,3.87L14.13,3.87z
	 M10.54,12.24c0,0.3,0.05,0.49,0.14,0.58c0.09,0.09,0.29,0.14,0.58,0.14h0.26v1.35H6.48v-1.35h0.31c0.3,0,0.49-0.05,0.59-0.14
	c0.09-0.09,0.14-0.29,0.14-0.58V9.13c0-0.3-0.05-0.5-0.14-0.59C7.27,8.45,7.08,8.41,6.78,8.41H6.48V7.05h4.06V12.24z"/>
</svg>
