<?xml version="1.0" encoding="utf-8"?>
<!-- Generator: Adobe Illustrator 19.1.0, SVG Export Plug-In . SVG Version: 6.00 Build 0)  -->
<svg version="1.1" id="_x31_" xmlns="http://www.w3.org/2000/svg" xmlns:xlink="http://www.w3.org/1999/xlink" x="0px" y="0px"
	 viewBox="0 0 30.2 30" style="enable-background:new 0 0 30.2 30;" xml:space="preserve">
<style type="text/css">
	.st0{fill-rule:evenodd;clip-rule:evenodd;fill:#FCFCFC;}
</style>
<g>
	<path class="st0" d="M23.3,6.1c-2.4-2.3-5.6-3.4-8.7-3.3C11.5,3,8.4,4.3,6.1,6.7c-2.3,2.4-3.4,5.6-3.3,8.7c0.1,3.1,1.4,6.2,3.8,8.4
		c2.1,1.9,4.6,3,7.3,3.2c2.7,0.2,5.4-0.4,7.7-2c1.1-0.7,2.2-0.1,3.6,0.6c0.9,0.5,2,1.1,2,1c0.1-0.1-0.5-1.3-1-2.3
		c-0.7-1.3-1.3-2.5-0.7-3.5c1.4-2.4,1.8-5.2,1.4-7.8C26.6,10.5,25.3,8.1,23.3,6.1L23.3,6.1z M14.5,0c3.8-0.1,7.7,1.2,10.7,4
		c2.5,2.4,4.1,5.4,4.6,8.6c0.9,5.5-2.2,8.1-1,10.4c1,1.8,2.1,4,0.6,5.6c-1.5,1.7-3.7,0.5-5.5-0.5c-2.2-1.2-4.6,2.1-10.2,1.7
		c-3.2-0.3-6.4-1.6-9-4c-3-2.8-4.6-6.6-4.8-10.5c-0.1-3.8,1.2-7.7,4-10.7C6.9,1.7,10.7,0.1,14.5,0z"/>
	<g>
		<circle class="st0" cx="8.7" cy="15.4" r="2.7"/>
		<circle class="st0" cx="15" cy="15.4" r="2.7"/>
		<circle class="st0" cx="21.3" cy="15.4" r="2.7"/>
	</g>
</g>
</svg>
