<?xml version="1.0" encoding="utf-8"?>
<!-- Generator: Adobe Illustrator 23.0.1, SVG Export Plug-In . SVG Version: 6.00 Build 0)  -->
<svg version="1.1" id="Capa_1" xmlns="http://www.w3.org/2000/svg" xmlns:xlink="http://www.w3.org/1999/xlink" x="0px" y="0px"
	 viewBox="0 0 950 950" xml:space="preserve">
<style type="text/css">
	.st0{fill:#FFFFFF;}
</style>
<g>
	<g>
		<path class="st0" d="M460.1,812.1l133-133c8.1-8.1,8.2-21.4,0-29.6L510,566.4l-73.4,73.4l23.1,23.1l-74.4,74.4
			c-47,47-123.2,47-170.1,0l-2.5-2.5c-47-47-47-123.2,0-170.1l74.4-74.4l23.1,23.1l73.4-73.4l-83.2-83.2c-8.1-8.1-21.4-8.2-29.6,0
			l-133,133c-42.7,42.7-66.3,99.5-66.3,159.9c0,60.4,23.5,117.2,66.3,159.9l2.5,2.5c42.7,42.7,99.5,66.3,159.9,66.3
			C360.6,878.3,417.4,854.8,460.1,812.1z"/>
		<path class="st0" d="M489.9,137.9L354.1,273.8c-8.1,8.1-8.2,21.4,0,29.6l83.2,83.2l76.2-76.2l-23.1-23.1l74.4-74.4
			c47-47,123.2-47,170.1,0l2.5,2.5c47,47,47,123.2,0,170.1l-74.4,74.4l-23.1-23.1l-76.2,76.2l83.2,83.2c8.1,8.1,21.4,8.2,29.6,0
			l135.8-135.8c42.7-42.7,66.3-99.5,66.3-159.9c0-60.4-23.5-117.2-66.3-159.9l-2.5-2.5C767,95.2,710.2,71.7,649.8,71.7
			C589.4,71.7,532.6,95.2,489.9,137.9z"/>
		<path class="st0" d="M338,541.3l-22.1,22.1c-19.5,19.5-19.5,51.2,0,70.7c19.5,19.5,51.2,19.5,70.7,0l22.1-22.1l73.4-73.4
			l53.7-53.7l76.2-76.2l22.1-22.1c19.5-19.5,19.5-51.2,0-70.7c-19.5-19.5-51.2-19.5-70.7,0L541.3,338L465,414.3l-53.7,53.7
			L338,541.3z"/>
	</g>
</g>
</svg>
