<?xml version="1.0" encoding="utf-8"?>
<!-- Generator: Adobe Illustrator 19.1.0, SVG Export Plug-In . SVG Version: 6.00 Build 0)  -->
<svg version="1.1" id="_x31_" xmlns="http://www.w3.org/2000/svg" xmlns:xlink="http://www.w3.org/1999/xlink" x="0px" y="0px"
	 viewBox="0 0 12.3 15" style="enable-background:new 0 0 12.3 15;" xml:space="preserve">
<style type="text/css">
	.st0{fill-rule:evenodd;clip-rule:evenodd;fill:#95A6C4;}
</style>
<path class="st0" d="M2.9,0h5.7h0.2l0.2,0.1L12,2.3l0.3,0.2v0.3v9.1v0.6h-0.6H10v1.9V15H9.4H0.6H0v-0.6V3.1V2.5h0.6h1.7V0.6V0H2.9
	L2.9,0z M8.7,12.5H2.9H2.3v-0.6V3.8H1.2v10h7.5V12.5L8.7,12.5z M4.7,3.8V5h5.3V3.8H4.7L4.7,3.8z M4.7,8.4v1.2h5.3V8.4H4.7L4.7,8.4z
	 M4.7,6.1v1.2h5.3V6.1H4.7L4.7,6.1z M8.4,1.2l-4.9,0v10h7.5V3.1L8.4,1.2z"/>
</svg>
