<?xml version="1.0" encoding="utf-8"?>
<!-- Generator: Adobe Illustrator 19.1.0, SVG Export Plug-In . SVG Version: 6.00 Build 0)  -->
<svg version="1.1" id="_x31_" xmlns="http://www.w3.org/2000/svg" xmlns:xlink="http://www.w3.org/1999/xlink" x="0px" y="0px"
	 viewBox="-2464.8 -2378.1 4355 5549.9" style="enable-background:new -2464.8 -2378.1 4355 5549.9;" xml:space="preserve">
<style type="text/css">
	.st0{fill:#95A6C4;}
</style>
<g id="icon-addr">
	<g>
		<path class="st0" d="M-1727.7-123.5c0-318.2,11.6-422.9,141.1-715.3c30.9-69.9,86.8-157.4,129.8-217l165.9-191.9l194.1-152.8
			c77.8-51.7,139.3-86.8,229-128.6c348.9-162.7,807.1-159.1,1156.3-3.6c145.2,64.6,367.3,203.3,464.5,326.7
			c14.4,18.2,25.2,27.8,42.3,44.5c192.9,188.4,360.4,588.9,360.4,875.3c0,366.9-32.5,520.5-202.5,827.2
			c-42.6,76.8-89.9,134.9-146.8,200.1c-87.3,100.3-40.1,55.2-135.2,135.8c-515.2,435.9-1196.3,491.5-1757.4,125l-146.3-114
			C-1512.1,652.8-1727.7,247-1727.7-123.5L-1727.7-123.5z M-366.8-2378.1c-301.8,10.4-600.4,80.1-858.8,209.4
			c-382.2,191.2-761.3,516.6-957.5,896.1C-2349.6-950.4-2464.8-648-2464.8-221c0,113.9,10.8,219.8,22.5,324.3
			c24.7,221.5,133.5,598.1,234,806.6c40.2,83.3,73,156.4,112.1,234.8c20.8,42,39.1,70.4,61.4,112c126.4,235.3,321,520.3,485,729.1
			l486,554.6c60.5,60.4,113,113,173.5,173.4l178.4,168.5c99.8,83.5,283.4,289.5,404.2,289.5c120.1,0,155.8-25.1,257.5-121.9
			C64,2941,167.4,2864.8,312.9,2719.3c60.1-60.1,114.9-112.1,173.7-173.3L969,1987.8c625.4-761.2,1238.9-1995.9,735.9-3072.4
			c-14.8-31.7-25.7-58.3-41.9-88.1c-250.2-458.7-520.4-749.5-1002.2-992.3c-260.9-131.5-563-202.6-868.3-213.1H-366.8z"/>
		<path class="st0" d="M-1120.7-253.5v54.2c0,709.7,909.9,1084.5,1411.9,577.3C632,33.8,631.8-461.9,318.5-803.9
			C199.3-934-39-1055.7-221-1055.7h-130.1C-743.3-1055.7-1120.7-666.1-1120.7-253.5z"/>
	</g>
</g>
</svg>
