<?xml version="1.0" encoding="utf-8"?>
<!-- Generator: Adobe Illustrator 23.0.1, SVG Export Plug-In . SVG Version: 6.00 Build 0)  -->
<svg version="1.1" id="_x31_" xmlns="http://www.w3.org/2000/svg" xmlns:xlink="http://www.w3.org/1999/xlink" x="0px" y="0px"
	 viewBox="0 0 17.91 18" style="enable-background:new 0 0 17.91 18;" xml:space="preserve">
<style type="text/css">
	.st0{fill-rule:evenodd;clip-rule:evenodd;fill:#FFFFFF;}
</style>
<path class="st0" d="M13.37,0.17c1.65,0.56,2.54,2.36,1.98,4.01c-0.31,0.91-0.99,1.59-1.82,1.92l0.56,2.8l0.55,2.79
	c0.37-0.01,0.75,0.04,1.13,0.17c1.65,0.56,2.54,2.36,1.98,4.01c-0.56,1.65-2.36,2.54-4.01,1.98c-1.45-0.49-2.31-1.94-2.12-3.41
	l-2.77-0.94l-2.81-0.95c-0.66,1.47-2.34,2.23-3.9,1.7c-1.65-0.56-2.54-2.36-1.98-4.01c0.56-1.65,2.36-2.54,4.01-1.98
	c0.35,0.12,0.66,0.29,0.93,0.5l2.39-2.09l2.14-1.88C9.19,4.01,9.06,3.05,9.37,2.14C9.93,0.49,11.72-0.39,13.37,0.17L13.37,0.17z
	 M12.39,6.32c-0.35,0-0.7-0.05-1.05-0.17c-0.35-0.12-0.66-0.29-0.94-0.51L8.26,7.53L5.87,9.61c0.32,0.53,0.48,1.15,0.44,1.78
	l2.91,0.99l2.75,0.94c0.35-0.64,0.89-1.12,1.53-1.39l-0.56-2.81L12.39,6.32z"/>
</svg>
