<?xml version="1.0" encoding="utf-8"?>
<!-- Generator: Adobe Illustrator 19.1.0, SVG Export Plug-In . SVG Version: 6.00 Build 0)  -->
<svg version="1.1" id="_x31_" xmlns="http://www.w3.org/2000/svg" xmlns:xlink="http://www.w3.org/1999/xlink" x="0px" y="0px"
	 viewBox="0 0 24 24" style="enable-background:new 0 0 24 24;" xml:space="preserve">
<style type="text/css">
	.st0{fill-rule:evenodd;clip-rule:evenodd;fill:#508EF4;}
	.st1{fill-rule:evenodd;clip-rule:evenodd;fill:#FFFFFF;}
</style>
<path class="st0" d="M12,24c6.6,0,12-5.4,12-12c0-6.6-5.4-12-12-12C5.4,0,0,5.4,0,12C0,18.6,5.4,24,12,24z"/>
<path class="st1" d="M11.3,5c3.4,0,6.1,2.7,6.1,6.1c0,1.3-0.4,2.6-1.2,3.6l0,0l1.5,1.8c0.5,0.6,0.5,1.6-0.2,2.1l0,0
	c-0.6,0.5-1.6,0.5-2.1-0.2l-1.5-1.8l0,0c-0.8,0.4-1.7,0.6-2.6,0.6c-3.4,0-6.1-2.7-6.1-6.1S7.9,5,11.3,5L11.3,5z M11.3,7.4
	c-2,0-3.7,1.7-3.7,3.7s1.7,3.7,3.7,3.7c2,0,3.7-1.7,3.7-3.7S13.3,7.4,11.3,7.4z"/>
</svg>
