<?xml version="1.0" encoding="utf-8"?>
<!-- Generator: Adobe Illustrator 19.1.0, SVG Export Plug-In . SVG Version: 6.00 Build 0)  -->
<svg version="1.1" id="_x31_" xmlns="http://www.w3.org/2000/svg" xmlns:xlink="http://www.w3.org/1999/xlink" x="0px" y="0px"
	 viewBox="0 0 15.7 18" style="enable-background:new 0 0 15.7 18;" xml:space="preserve">
<style type="text/css">
	.st0{fill-rule:evenodd;clip-rule:evenodd;fill:#FFFFFF;}
</style>
<path class="st0" d="M5,8.9l0,4.4c0.2,0,1-0.1,1.1-0.2l0-4.2c0.2,0,0.4-0.1,0.6-0.1c0.2,0,0.4-0.1,0.5-0.1C8.4,8.4,8.9,8,9.8,7.4
	C9.9,7.3,10,7.2,10.1,7c0.5-0.7,0.9-1.2,1.1-2.1c0-0.2,0-0.4,0-0.6C11.2,4,11.1,4,10.8,4H0.3C0.1,4,0,4.1,0,4.3
	c0,1.2,0.7,2.4,1.6,3.2l0.6,0.4C3,8.4,4,8.8,5,8.9L5,8.9z M5,15.4l0,0.7C4,16.2,2.6,16.9,2.7,18l5.8,0c0-0.6-0.4-1.1-0.8-1.3
	c-0.4-0.3-1-0.5-1.6-0.6v-0.9L5,15.4L5,15.4z M4.5,12.3c-0.5,0-1.4,0.2-1.8,0.4c-1,0.4-0.5,0.9,0,1c2.6,0.7,5.2-1.3,7.5,0.1
	c0.1,0.1,0.2,0.2,0.3,0.2l0.3,0.2c0.3,0.2,0.1,0.6-0.2,0.6c-0.2,0-0.6-0.6-1.4-0.7C8,14,6.6,14.5,5.6,14.8c-1.1,0.3-2.7,0.4-3.7-0.1
	c-1-0.5-1.4-1.8-0.5-2.8c0.2-0.2,0.4-0.3,0.6-0.5c0.2-0.1,0.5-0.2,0.8-0.3C3.3,11,4,10.9,4.5,10.8L4.5,12.3L4.5,12.3z M6,0
	c0.3,0.1,0.7,0.1,1.2,0.3c0.2,0.1,0.1,0.1,0.4,0.1c1.9-0.3,4.5,0.6,5.9,1.7c0.1,0.1,0.2,0.2,0.3,0.2c0.2,0.2,0.6,0.5,0.7,0.7
	c0.2,0.2,0.2,0.2,0.4,0.5C15,3.7,15.2,4,15.3,4.2C16,5.8,15.8,7.4,15,8.8c-0.5,0.9-1.1,1.5-1.9,2c-1.8,1.2-4,1.2-6.4,1.4l0-1.6
	l1.9-0.2c0.6-0.1,1.2-0.1,1.8-0.3c0.7-0.2,1.6-0.5,2.1-1c0.1-0.1,0.2-0.2,0.3-0.2L13,8.6c0.3-0.4,0.6-0.8,0.7-1.3
	C14,6.4,14,5.5,13.5,4.8c-0.1-0.2-0.3-0.4-0.4-0.6C13,4.1,12.9,4,12.8,3.9c-0.1-0.1-0.1-0.1-0.3-0.2c-1-0.9-3.2-1.7-4.7-1.5
	c-0.2,0-0.2,0.2-0.6,0.4C6.9,2.9,6.2,3,5.7,3.1C3.3,3.4,2,1.6,3.8,0.5C4.6,0,5.2,0.1,5.4,0H6z"/>
</svg>
