<?xml version="1.0" encoding="utf-8"?>
<!-- Generator: Adobe Illustrator 19.1.0, SVG Export Plug-In . SVG Version: 6.00 Build 0)  -->
<svg version="1.1" id="_x31_" xmlns="http://www.w3.org/2000/svg" xmlns:xlink="http://www.w3.org/1999/xlink" x="0px" y="0px"
	 viewBox="0 0 30 30" style="enable-background:new 0 0 30 30;" xml:space="preserve">
<style type="text/css">
	.st0{fill-rule:evenodd;clip-rule:evenodd;fill:#EF041D;}
	.st1{fill-rule:evenodd;clip-rule:evenodd;fill:#FFFFFF;}
</style>
<path class="st0" d="M15,30c8.3,0,15-6.7,15-15c0-8.3-6.7-15-15-15C6.7,0,0,6.7,0,15C0,23.3,6.7,30,15,30z"/>
<path class="st1" d="M12.4,10.9c0.1-0.5-0.9-3-1.2-3.6c-0.2-0.6-0.6-1-1.4-0.9C8.1,6.5,6.4,8,6.3,10c-0.1,1.5,0.4,2.7,1,3.8
	c1,2.2,4.2,5.5,6.2,7.1c1.1,0.9,2.2,1.7,3.7,2.3c3,1.2,5.4,0.2,6.3-2.3c0.6-1.8-0.6-2-2-2.5c-0.6-0.2-1.2-0.5-1.7-0.7
	c-0.9-0.3-1.2,0.1-1.5,0.7c-0.3,0.7-0.4,1.2-1.3,1.1c-0.6,0-1.2-0.4-1.7-0.7c-1.3-0.7-2.9-2.3-3.7-3.5c-0.2-0.3-0.7-1.1-0.9-1.5
	c-0.1-0.3-0.2-0.7-0.1-1C10.7,11.6,12.2,12,12.4,10.9z"/>
</svg>
