<?xml version="1.0" encoding="utf-8"?>
<!-- Generator: Adobe Illustrator 19.1.0, SVG Export Plug-In . SVG Version: 6.00 Build 0)  -->
<svg version="1.1" id="Layer_1" xmlns="http://www.w3.org/2000/svg" xmlns:xlink="http://www.w3.org/1999/xlink" x="0px" y="0px"
	 viewBox="0 0 34.7 34.7" style="enable-background:new 0 0 34.7 34.7;" xml:space="preserve">
<style type="text/css">
	.st0{fill-rule:evenodd;clip-rule:evenodd;fill:none;stroke:#FFCC00;stroke-width:2.8346;stroke-miterlimit:22.9256;}
	.st1{fill-rule:evenodd;clip-rule:evenodd;fill:#FFCC00;}
</style>
<path class="st0" d="M17.4,33.3c8.8,0,15.9-7.2,15.9-15.9c0-8.8-7.2-15.9-15.9-15.9C8.6,1.4,1.4,8.6,1.4,17.4
	C1.4,26.1,8.6,33.3,17.4,33.3z"/>
<path class="st1" d="M17.4,5.2c6.7,0,12.1,5.4,12.1,12.1S24,29.5,17.4,29.5c-6.7,0-12.1-5.4-12.1-12.1S10.7,5.2,17.4,5.2L17.4,5.2z
	 M24.9,11.3l-15,0c0.1,0.2,3.2,3.3,3.6,3.7c0.6,0.6,3,3.5,3.8,3.5c0.8,0,3.2-3,3.8-3.5C22.5,13.9,23.8,12.5,24.9,11.3L24.9,11.3z
	 M14.8,18.3c-0.8,0.9-1.7,1.7-2.5,2.6c-0.4,0.4-0.8,0.9-1.2,1.3c-0.2,0.2-1.4,1.2-1,1.2h14.5c0.4,0-0.2-0.4-0.3-0.6
	c-0.2-0.2-0.4-0.4-0.6-0.6c-0.4-0.4-0.8-0.8-1.3-1.3c-0.4-0.5-2.1-2.3-2.5-2.5c-0.6,0.5-1.2,1.6-2.5,1.6
	C16,19.9,15.4,18.9,14.8,18.3L14.8,18.3z M9,22.4c0.2-0.1,4.9-5,4.9-5c0-0.3-4.5-4.4-4.9-5V22.4L9,22.4z M20.9,17.4l4.9,5l0-9.9
	L20.9,17.4z"/>
</svg>
