<?xml version="1.0" encoding="utf-8"?>
<!-- Generator: Adobe Illustrator 19.1.0, SVG Export Plug-In . SVG Version: 6.00 Build 0)  -->
<svg version="1.1" id="Layer_1" xmlns="http://www.w3.org/2000/svg" xmlns:xlink="http://www.w3.org/1999/xlink" x="0px" y="0px"
	 viewBox="0 0 252.4 275.7" style="enable-background:new 0 0 252.4 275.7;" xml:space="preserve">
<style type="text/css">
	.st0{fill-rule:evenodd;clip-rule:evenodd;fill:#3E99FD;}
</style>
<path class="st0" d="M29.3,126.2c-14.6-5.6-19.8,17.1-7.1,21.1C36.1,151.7,44.4,132,29.3,126.2L29.3,126.2z M36.2,161.3
	c-3.6,28.4,10.3,64.8,31.7,85.1c22.8,21.6,55,11,73.2-20.6c6.2-10.8,21.3-49.8,11.3-59.9c-0.2-0.2-2-1.9-2.2-2
	c-8.8-6-46.4-1.8-60.8-32.9c-10.3-22.3-13.1-88.4-8.1-104.4c7.1-22.7,23.6-13.1,35.6-22c16.5-12.2,36.6,4.1,27.4,19.3
	c-3.1,5.1-10.6,9.6-19.9,7.8c-10.1-2-5.6-9.2-18.6-2.1c-8.6,4.7-8.4,9.1-8.6,20.4c-0.2,9.3,0.4,18.7,1.3,27.9
	c1.3,13.1,2.9,38.7,10.3,47.2c6,6.9,29.3,20.3,41.4,10.7c23.4-18.5,24.7,2.8,41.7,2.5c17.6-0.3,31.9-8.7,35.6-23.1
	c3.8-14.5,10.7-63.4,5.7-78.4c-2.2-6.5-12.9-11.2-16.9-9.3c-3.2,1.6-10.5,8.1-21.7,2.4c-20.8-10.8-0.5-42.1,22.1-24.8
	c10.2,7.8,34.8-2.7,35.5,36.8c0.6,31.8,1.3,79.5-16.8,99.9c-20.4,23.1-51.2,13.6-60.4,27.9c-2.9,4.5-2.9,18-4.3,24.1
	c-16,73.4-77,111.1-124.9,54.6c-17.8-21-25.8-53.4-28.1-87.5c-27.9-8.1-21.2-50.3,8-50.3c12.9,0,23.7,9.5,25.8,20.6
	C54.7,148.2,45.3,154.3,36.2,161.3z"/>
</svg>
