<?xml version="1.0" encoding="utf-8"?>
<!-- Generator: Adobe Illustrator 19.1.0, SVG Export Plug-In . SVG Version: 6.00 Build 0)  -->
<svg version="1.1" id="_x31_" xmlns="http://www.w3.org/2000/svg" xmlns:xlink="http://www.w3.org/1999/xlink" x="0px" y="0px"
	 viewBox="0 0 39 38.8" style="enable-background:new 0 0 39 38.8;" xml:space="preserve">
<style type="text/css">
	.st0{fill-rule:evenodd;clip-rule:evenodd;fill:#BDCFF2;}
</style>
<path class="st0" d="M6.4,5.2c3.9-3.7,8.9-5.4,13.9-5.2c5,0.2,9.9,2.2,13.5,6.1c3.7,3.9,5.4,8.9,5.2,13.9c-0.2,5-2.2,9.9-6.1,13.5
	c-3.3,3.1-7.4,4.8-11.6,5.2C14,39.3,10.9,35,8.1,36.6C5.7,37.8,3,39.3,1,37.1c-2-2.1-0.5-4.9,0.8-7.3c1.6-3.1-2.4-6.3-1.3-13.5
	C1.1,12.3,3.1,8.3,6.4,5.2L6.4,5.2z M22.7,22.7c0-0.9,0.1-1.4,0.2-1.7c0.2-0.3,0.6-0.6,1.3-0.9c2.2-1.1,3.3-3,3.3-5.7
	c0-2.2-0.8-4-2.3-5.5c-1.5-1.5-3.4-2.2-5.7-2.2c-1.3,0-2.5,0.3-3.7,0.9C14.7,8.1,13.8,8.9,13,10c-1,1.4-1.5,3.1-1.5,5.3h6.2
	c0-1.6,0.6-2.4,1.7-2.4c0.4,0,0.8,0.1,1.1,0.4c0.3,0.3,0.4,0.7,0.4,1.1c0,0.7-0.5,1.3-1.4,1.7l-1.2,0.5c-0.9,0.4-1.5,0.9-1.8,1.6
	c-0.3,0.7-0.5,1.8-0.5,3.3v1.1H22.7L22.7,22.7z M19.5,23.6c-1.2,0-2.2,0.4-3,1.2c-0.8,0.8-1.2,1.8-1.2,3c0,1.2,0.4,2.2,1.2,3
	c0.8,0.8,1.8,1.2,3,1.2c1.2,0,2.2-0.4,3-1.2c0.8-0.8,1.2-1.8,1.2-3c0-1.2-0.4-2.2-1.3-3C21.6,24,20.6,23.6,19.5,23.6L19.5,23.6z
	 M20.1,3.7c-4-0.1-8.1,1.3-11.2,4.2c-2.7,2.5-4.3,5.7-4.8,9c-0.5,3.4,0.1,7,1.8,10.1c0.8,1.4,0,2.9-0.9,4.6c-0.7,1.3-1.5,2.8-1.3,3
	c0.1,0.1,1.4-0.7,2.6-1.3c1.7-0.9,3.3-1.7,4.7-0.8c3,2,6.5,2.8,10,2.5c3.4-0.3,6.7-1.7,9.4-4.2c3.2-3,4.8-6.9,5-10.9
	c0.1-4-1.3-8.1-4.2-11.2C28.1,5.5,24.2,3.9,20.1,3.7z"/>
</svg>
