<?xml version="1.0" encoding="utf-8"?>
<!-- Generator: Adobe Illustrator 19.1.0, SVG Export Plug-In . SVG Version: 6.00 Build 0)  -->
<svg version="1.1" id="Layer_1" xmlns="http://www.w3.org/2000/svg" xmlns:xlink="http://www.w3.org/1999/xlink" x="0px" y="0px"
	 viewBox="0 0 17.3 17.3" style="enable-background:new 0 0 17.3 17.3;" xml:space="preserve">
<style type="text/css">
	.st0{fill-rule:evenodd;clip-rule:evenodd;fill:#FFFFFF;}
</style>
<path class="st0" d="M6.1,4.6c0.1-0.5-0.9-3-1.2-3.6C4.7,0.4,4.3-0.1,3.5,0C1.8,0.2,0.1,1.7,0,3.7c-0.1,1.5,0.4,2.7,1,3.8
	c1,2.2,4.2,5.5,6.2,7.1c1.1,0.9,2.2,1.7,3.7,2.3c3,1.2,5.4,0.2,6.3-2.3c0.6-1.8-0.6-2-2-2.5c-0.6-0.2-1.2-0.5-1.7-0.7
	c-0.9-0.3-1.2,0.1-1.5,0.7c-0.3,0.7-0.4,1.2-1.3,1.1c-0.6,0-1.2-0.4-1.7-0.7c-1.3-0.7-2.9-2.3-3.7-3.5C5,8.6,4.5,7.7,4.4,7.4
	c-0.1-0.3-0.2-0.7-0.1-1C4.4,5.3,5.9,5.7,6.1,4.6z"/>
</svg>
