<?xml version="1.0" encoding="utf-8"?>
<!-- Generator: Adobe Illustrator 19.1.0, SVG Export Plug-In . SVG Version: 6.00 Build 0)  -->
<svg version="1.1" id="_x31_" xmlns="http://www.w3.org/2000/svg" xmlns:xlink="http://www.w3.org/1999/xlink" x="0px" y="0px"
	 viewBox="0 0 14.8 18" style="enable-background:new 0 0 14.8 18;" xml:space="preserve">
<style type="text/css">
	.st0{fill-rule:evenodd;clip-rule:evenodd;fill:#FFFFFF;}
</style>
<path class="st0" d="M3.5,0h6.8h0.2l0.2,0.1l3.7,2.6l0.3,0.2v0.4v10.9V15H14H12v2.3V18h-0.7H0.7H0v-0.7V3.8V3h0.7h2.1V0.7V0H3.5
	L3.5,0z M10.5,15h-7H2.8v-0.7V4.5H1.5v12h9V15L10.5,15z M5.6,4.5V6h6.3V4.5H5.6L5.6,4.5z M5.6,10v1.5l6.3,0V10H5.6L5.6,10z M5.6,7.3
	v1.5h6.3V7.3L5.6,7.3L5.6,7.3z M10.1,1.5H4.3v12h9V3.7L10.1,1.5z"/>
</svg>
