<?xml version="1.0" encoding="utf-8"?>
<!-- Generator: Adobe Illustrator 19.1.0, SVG Export Plug-In . SVG Version: 6.00 Build 0)  -->
<svg version="1.1" id="_x31_" xmlns="http://www.w3.org/2000/svg" xmlns:xlink="http://www.w3.org/1999/xlink" x="0px" y="0px"
	 viewBox="0 0 31 36.4" style="enable-background:new 0 0 31 36.4;" xml:space="preserve">
<style type="text/css">
	.st0{fill-rule:evenodd;clip-rule:evenodd;fill:#EF041D;}
</style>
<g>
	<path class="st0" d="M11.1,18.4c0.4,0,0.8,0.2,1.1,0.3c0.2,0.1,0.3,0.2,0.4,0.3c0.4,0.3,0.7,0.7,1,1.1c1,1.7-0.6,3.7-2,3.7
		c-0.6,0-0.8,0-1.3-0.3c-0.5-0.3-1-0.9-1.3-1.3C7.9,20.1,9.8,18.4,11.1,18.4L11.1,18.4z M8.7,0C8.4,0,8.1,0,7.9,0.3
		C7.4,0.8,7.5,1.1,7.4,1.8L6.9,5.3c0,0.3-0.1,0.6-0.1,0.9L4.5,6.5C2.9,6.7,1.6,8,1.2,9.4C1,9.8,0.5,14.6,0.5,15
		c-0.1,0.7-0.2,1.5-0.3,2.2C0.1,18,0,19.1,0,19.8c0,1.1,0.5,2.4,1.1,3c0.7,0.8,3.1,3.2,4,4.1l8.6,8.6c0.5,0.5,1.4,0.9,2.2,0.9h0.1
		c0.8,0,1.1,0,1.8-0.4c0.4-0.2,0.7-0.5,1-0.8l11-11c0.3-0.3,0.5-0.6,0.8-1c0.2-0.4,0.3-0.9,0.4-1.4v-0.4c0-0.5-0.2-1.1-0.4-1.6
		c-0.4-0.7-2.3-2.6-3-3.2l-9.7-9.7C17,6,15.6,5.4,14.3,5.4c-0.5,0-3.6,0.4-4.4,0.5c-0.2,0-0.4,0.1-0.6,0.1c0-0.4,0.7-4.3,0.7-4.7
		C9.9,0.6,9.4,0,8.9,0H8.7L8.7,0z M16.8,20.3c0-0.6,0-0.8,0.3-1.3c0.3-0.5,0.9-1,1.4-1.2c0.3-0.1,0.7-0.2,1.1-0.1
		c0.3,0,0.7,0.2,0.9,0.4c1.5,1,2.1,2.8,0.7,4.2C19.2,24.2,16.8,21.7,16.8,20.3L16.8,20.3z M13.4,15.4c0,0.2,0.2,1.2,0.3,1.5l1.6,7.4
		c0.1,0.5,0.2,1,0.3,1.5l0.3,1.5c0.1-0.1,1.2-1.2,1.2-1.2c0-0.2-0.8-4.2-0.9-4.5c-0.3-1.3-0.6-3.1-0.9-4.4l-0.6-2.9
		C14.5,14.3,13.4,15.3,13.4,15.4L13.4,15.4z M5.8,12.5c0,1.4,2.2,1.7,2.5,0.1c0.1-0.3,0.1-0.7,0.1-1c0-0.1,0-0.3,0.1-0.5
		c0-0.1,0.1-0.4,0.1-0.5c0.2,0.1,0.5,0.5,0.6,0.7c0.6,1,0.3,2.2-0.5,2.9C8.3,14.6,7.5,15,7,14.9c-1-0.1-1.7-0.6-2.1-1.4
		c-0.7-1.6,0.5-3,1.3-3.2C6.1,10.8,5.8,12,5.8,12.5L5.8,12.5z M2.4,19.6c0-0.4,0-0.6,0.1-1c0.2-2.1,0.5-4.3,0.7-6.3
		c0.1-0.6,0.1-2.1,0.4-2.6C4.1,8.8,5,8.9,5.8,8.8c0.6-0.1,0.5,0,0.6-0.2c0-0.1,0-0.2,0-0.2c0-0.3,0.1-0.6,0.1-0.9
		c-0.1,0-0.8,0.1-1,0.1C4.8,7.7,4.4,7.7,3.8,8C3.6,8.1,3.3,8.3,3.2,8.5c-1,1-0.9,1.9-1.1,3.3c-0.1,1.2-0.3,2.8-0.4,3.9l-0.3,2.9
		C1.2,19.9,1.2,20.9,2,22c0.3,0.5,10.3,10.4,11.7,11.8c0.6,0.6,0.8,1,1.6,1.2c0.7,0.3,1.5,0.1,2.1-0.3c0.4-0.2,2.3-2.2,2.6-2.5
		c0.9-0.9,8.9-8.8,9.3-9.3c0.6-0.9,0.6-2.2-0.1-2.9c-0.8-0.8-2-2-2.8-2.8l-3.7-3.8C22.2,13,17.2,8,16.7,7.5
		c-0.6-0.5-1.6-0.8-2.4-0.8C13.8,6.7,11.6,7,11,7c-0.5,0-1.1,0.1-1.6,0.2C9,7.2,9.1,7.2,9,7.7c0,0.2-0.1,0.5-0.1,0.7
		c0.2,0,0.5,0,0.7-0.1l2-0.2C12,8.1,12.5,8,12.9,8c1.1-0.1,1.7-0.3,2.7,0.2C16,8.4,16.2,8.7,16.5,9l11.5,11.5
		c0.3,0.3,0.5,0.6,0.5,1.1c-0.1,0.5-0.3,0.7-0.6,1L17.2,33.4c-0.3,0.3-0.5,0.6-1.1,0.6c-0.6,0-0.9-0.3-1.1-0.6l-9.5-9.5
		c-0.5-0.5-2.2-2.1-2.6-2.7C2.6,20.7,2.4,20.2,2.4,19.6z"/>
	<path class="st0" d="M18.1,19.9c0,0.5,0.3,0.8,0.6,1.1c0.9,1.1,2,0.5,2-0.4c0-0.6-1-1.6-1.6-1.6h-0.2C18.5,19,18.1,19.5,18.1,19.9z
		"/>
	<path class="st0" d="M9.9,20.7c0,0.8,1,1.7,1.6,1.7h0.2c0.4,0,0.9-0.4,0.9-1c0-0.6-1.2-2-2.1-1.5C10.2,20,9.9,20.4,9.9,20.7z"/>
</g>
</svg>
