<?xml version="1.0" encoding="utf-8"?>
<!-- Generator: Adobe Illustrator 19.1.0, SVG Export Plug-In . SVG Version: 6.00 Build 0)  -->
<svg version="1.1" id="_x31_" xmlns="http://www.w3.org/2000/svg" xmlns:xlink="http://www.w3.org/1999/xlink" x="0px" y="0px"
	 viewBox="0 0 24 24" style="enable-background:new 0 0 24 24;" xml:space="preserve">
<style type="text/css">
	.st0{fill-rule:evenodd;clip-rule:evenodd;fill:#95A6C4;}
	.st1{fill-rule:evenodd;clip-rule:evenodd;fill:#FFFFFF;}
</style>
<path class="st0" d="M12,24c6.6,0,12-5.4,12-12c0-6.6-5.4-12-12-12S0,5.4,0,12C0,18.6,5.4,24,12,24z"/>
<path class="st1" d="M19.6,19.8H4.5c0.5-3.7,3.1-6.6,6.4-7.1c-1.8-0.5-3.1-2.1-3.1-4.1c0-2.4,1.9-4.3,4.3-4.3c2.4,0,4.3,1.9,4.3,4.3
	c0,2-1.3,3.6-3.1,4.1C16.5,13.2,19.1,16.1,19.6,19.8z"/>
</svg>
