<?xml version="1.0" encoding="utf-8"?>
<!-- Generator: Adobe Illustrator 19.1.0, SVG Export Plug-In . SVG Version: 6.00 Build 0)  -->
<svg version="1.1" id="_x31_" xmlns="http://www.w3.org/2000/svg" xmlns:xlink="http://www.w3.org/1999/xlink" x="0px" y="0px"
	 viewBox="0 0 7.5 4.2" style="enable-background:new 0 0 7.5 4.2;" xml:space="preserve">
<style type="text/css">
	.st0{fill-rule:evenodd;clip-rule:evenodd;fill:#AEBCD4;}
</style>
<path class="st0" d="M3.7,3.1l3-3C6.9,0,7.2,0,7.4,0.1v0c0.2,0.2,0.2,0.5,0,0.6L4.1,4c0,0,0,0.1-0.1,0.1l0,0C4,4.2,3.9,4.2,3.8,4.2
	h0c-0.1,0-0.2,0-0.3-0.1l0,0c0,0,0-0.1-0.1-0.1L0.1,0.8C0,0.6,0,0.3,0.1,0.1v0C0.3,0,0.6,0,0.8,0.1L3.7,3.1z"/>
</svg>
