<?xml version="1.0" encoding="utf-8"?>
<!-- Generator: Adobe Illustrator 19.1.0, SVG Export Plug-In . SVG Version: 6.00 Build 0)  -->
<svg version="1.1" id="_x31_" xmlns="http://www.w3.org/2000/svg" xmlns:xlink="http://www.w3.org/1999/xlink" x="0px" y="0px"
	 viewBox="0 0 13.8 18" style="enable-background:new 0 0 13.8 18;" xml:space="preserve">
<style type="text/css">
	.st0{fill-rule:evenodd;clip-rule:evenodd;fill:#FFFFFF;}
</style>
<g>
	<path class="st0" d="M4.2,2.8h1.4V2.1c0-0.4,0.6-0.6,0.9-0.7c0.6-0.1,1.2,0,1.7,0.3C8.2,1.8,8.2,1.9,8.3,2c0,0.1,0,0.6,0,0.8h1.4
		v1.4H4.2V2.8L4.2,2.8z M2.1,2.8c-0.3,0-0.5,0.1-0.6,0.3c0,0,0,0,0,0.1l0,0c0,0,0,0,0,0c0,0.1-0.1,0.2-0.1,0.3v12.4
		c0,0.5,0.3,0.7,0.7,0.7h9.6c0.2,0,0.4-0.1,0.5-0.2c0.1-0.1,0.2-0.3,0.2-0.5V3.5c0-0.1,0-0.2-0.1-0.3c-0.1-0.3-0.4-0.4-0.7-0.4h-0.7
		v2.8c-0.1,0-8.2,0-8.3,0V2.8H2.1L2.1,2.8z M4.6,1.4H2.1C1.5,1.4,1,1.6,0.6,2C0.5,2.1,0.4,2.2,0.4,2.3C0.2,2.6,0,2.9,0,3.4V16
		c0,0.3,0.1,0.7,0.3,1c0.2,0.4,0.5,0.6,0.9,0.8C1.4,17.9,1.7,18,2,18h9.8c0.3,0,0.6-0.1,0.8-0.2c0.1,0,0.1-0.1,0.2-0.1
		c0.1-0.1,0.2-0.1,0.3-0.2l0.1-0.1c0,0,0,0,0,0c0,0,0,0,0,0l0,0c0,0,0,0,0.1-0.1c0.1-0.1,0.1-0.1,0.2-0.3c0.2-0.3,0.3-0.6,0.3-1V3.4
		c0-0.4-0.2-0.8-0.4-1.1c0,0,0,0,0,0L13.3,2c0,0,0,0-0.1-0.1c-0.1-0.1-0.1-0.1-0.2-0.2l-0.1-0.1c-0.2-0.1-0.4-0.2-0.6-0.3
		c-0.3-0.1-1-0.1-1.4-0.1c-0.6,0-1.1,0-1.7,0L9.1,1.1C9,0.6,8.8,0.5,8.4,0.3C8,0.1,7.9,0.1,7.5,0L7.2,0C7,0,6.8,0,6.7,0
		c0,0-0.1,0-0.1,0C6.4,0,6.2,0.1,6,0.1C5.7,0.2,5.7,0.2,5.4,0.3c0,0,0,0-0.1,0C4.7,0.7,4.8,0.9,4.6,1.4z"/>
	<path class="st0" d="M7,12.1c0,0.1,0.5,0.5,0.5,0.5L8,13.2c0,0,0,0,0.1,0.1c0,0-0.2,0.1-0.2,0.2L7,14.3c0,0.1,0.2,0.2,0.2,0.2
		L8,15.3c0.1,0,0.5-0.5,0.5-0.5L9,14.2l1.1,1c0.1,0,0.4-0.4,0.5-0.5c0.1-0.1,0.5-0.4,0.5-0.5L10,13.2l1.1-1.1l-1-1
		c-0.1,0-0.2,0.2-0.3,0.3L9,12.2L8,11.2c-0.1,0-0.7,0.6-0.7,0.7C7.2,12,7,12.1,7,12.1z"/>
	<path class="st0" d="M6.8,7.9c0,0.1,0.3,0.3,0.4,0.4l0.7,0.6c0,0,0,0,0.1,0.1l0.9,0.8c0,0,0,0,0,0c0,0,0.1,0.1,0.1,0.1
		c0.1,0,0.4-0.3,0.5-0.4l0.2-0.2c0,0,0,0,0,0l0,0c0,0,0,0,0.1-0.1l1.1-1.1c0,0,0,0,0,0l0,0c0,0,0,0,0,0l0,0c0,0,0,0,0,0
		c0,0,0,0,0.1-0.1c0-0.1-0.1-0.1-0.2-0.2c0,0,0,0,0,0c0,0,0,0,0,0c0,0,0,0,0,0l0,0c-0.2-0.2-0.6-0.6-0.7-0.7L9.3,7.7
		C9.2,7.8,9,8,9,8C8.9,8,8.6,7.7,8.6,7.7C8.4,7.5,8.3,7.4,8.2,7.3L8,7.1c0,0,0,0-0.1-0.1C7.9,7,7.8,6.9,7.8,6.9C7.7,7,7.7,7,7.7,7
		L7.5,7.2C7.3,7.4,7,7.7,6.9,7.8C6.9,7.8,6.8,7.9,6.8,7.9z"/>
	<rect x="2.8" y="8.3" class="st0" width="2.8" height="1.4"/>
	<rect x="2.8" y="12.5" class="st0" width="2.8" height="1.4"/>
</g>
</svg>
