<?xml version="1.0" encoding="utf-8"?>
<!-- Generator: Adobe Illustrator 19.1.0, SVG Export Plug-In . SVG Version: 6.00 Build 0)  -->
<svg version="1.1" id="_x31_" xmlns="http://www.w3.org/2000/svg" xmlns:xlink="http://www.w3.org/1999/xlink" x="0px" y="0px"
	 viewBox="0 0 34.2 31.6" style="enable-background:new 0 0 34.2 31.6;" xml:space="preserve">
<style type="text/css">
	.st0{fill-rule:evenodd;clip-rule:evenodd;fill:#95A6C4;}
</style>
<g>
	<path class="st0" d="M14,25.8c0-1.4-0.3-2.2,1.2-2.2c5.2,0,5-0.4,5,1.8c0,2.1-0.1,3.9,0.2,5.9c0.9,0.3,7.8,0.3,8.8,0
		c0.3-1.1,0.2-7.6,0.2-9.3c0-3.1,0.3-2.7-0.9-3.9l-9.7-9.7c-0.5-0.6-0.9-1.2-1.9-1.3c-0.3,0.1-3.2,3-3.4,3.3l-6.6,6.8
		c-0.5,0.5-1.5,1.2-1.8,1.6c-0.4,0.7-0.2,2.2-0.2,3.1c0,3.1-0.2,6.3,0.2,9.3c0.7,0.2,7.6,0.4,8.8,0C14.1,30.5,14,27.1,14,25.8z"/>
	<path class="st0" d="M16.5,0.1c-1,0.4-7.8,7.9-9.4,9.4c-0.4,0.4-0.7,0.6-1.1,1c-0.7,0.7-1.4,1.4-2.1,2.2C3.2,13.4,0,16.3,0,17.4
		c0,1.2,1.1,2,2.3,1.5c0.7-0.3,5.6-5.6,6.3-6.4c0.4-0.4,0.7-0.6,1.2-1L15,6.1c2-2.1,2.5-1.7,4.8,0.7c0.7,0.8,1.3,1.4,2.1,2.2
		l6.2,6.4c1.9,1.6,3.5,3.9,4.8,3.7c1.2-0.1,1.9-1.5,1-2.6c-1-1.3-6.7-6.7-8.3-8.5c-1.2-1.3-6.1-6.5-7.4-7.5
		C17.7,0,17.2-0.1,16.5,0.1z"/>
</g>
</svg>
