<?xml version="1.0" encoding="utf-8"?>
<!-- Generator: Adobe Illustrator 19.1.0, SVG Export Plug-In . SVG Version: 6.00 Build 0)  -->
<svg version="1.1" id="Слой_1" xmlns="http://www.w3.org/2000/svg" xmlns:xlink="http://www.w3.org/1999/xlink" x="0px" y="0px"
	 viewBox="-262 386 86 22" style="enable-background:new -262 386 86 22;" xml:space="preserve">
<style type="text/css">
	.st0{fill:#FFFFFF;}
</style>
<g>
	<g transform="translate(-38 -17)">
		<g>
			<path id="l0fua" class="st0" d="M-148.2,417c0.2-2.1,1.1-3.8,2.4-3.8s1.8,1.7,1.6,3.8c-0.2,2.1-1.1,3.7-2.4,3.7
				S-148.4,419-148.2,417z M-138,409.6c0-0.1-0.1-0.1-0.1-0.1h-5.4c0,0-0.2,0-0.2,0.2c0,0-0.1,0.8-0.2,2c-0.6-1.6-1.8-2.7-3.7-2.7
				c-3.5,0-5.8,3.5-6.3,7.4c-0.5,3.8,1,8.1,4.3,8.1c1.9,0,3.5-1.4,4.6-3.2c0.1,2,1.4,3.3,3.3,3.3c1.5,0,3.1-1.1,3.5-2
				c0.3-0.8-1.6,0.2-1.1-4.3C-138.9,416.1-138,409.6-138,409.6z M-162.2,421.2c-2,0-1.4-4.5-1.2-5.7c0,0,0.9-0.3,1.6-0.2
				c1.4,0.3,1.8,1.2,1.7,2.8C-160,418.9-160.7,421.2-162.2,421.2L-162.2,421.2z M-159.5,407.5c-0.2,1.7-3.1,3-3.1,3
				c0.3-1,1.1-3.7,2.3-3.7C-159.5,406.8-159.5,407.1-159.5,407.5L-159.5,407.5z M-163.1,412.5c11.2-1.3,9.4-9.7,3.8-9.5
				c-6.4,0.2-10,8.3-10,14.4c0,3.9,2.3,7.1,6.4,7.1c4.3,0,7.8-3.1,7.4-7.6c-0.3-4-4.7-4.8-7.8-3.7L-163.1,412.5z M-170.3,410.1
				L-170.3,410.1c-4.2-0.9-7.9-0.9-11.6,0c0,0-0.1,0-0.1,0.1c0,0-0.5,4.6-1.3,6.8c-1.5,4.1-3.2,4.3-3.2,4.8
				c-0.1,0.6,0.6,3.1,3.1,3.1c2.2,0,3.7-1.5,4.5-4.9c0.5-2.2,0.9-4.8,1-7.4h2.2c-0.5,4.2-1.3,11.5-1.3,11.5c0,0.1,0.1,0.1,0.1,0.1
				h5.2c0,0,0.1,0,0.1-0.1c0,0,1.6-13.4,1.6-14C-170.3,410.1-170.3,410.1-170.3,410.1L-170.3,410.1z M-198.3,417
				c0.2-2.1,1.1-3.8,2.4-3.8c1.3,0,1.8,1.7,1.6,3.8c-0.2,2.1-1.1,3.7-2.4,3.7S-198.6,419-198.3,417z M-188.2,409.6
				c0-0.1-0.1-0.1-0.1-0.1h-5.4c0,0-0.2,0-0.2,0.2c0,0-0.1,0.8-0.2,2c-0.6-1.6-1.8-2.7-3.7-2.7c-3.5,0-5.8,3.5-6.3,7.4
				c-0.5,3.8,1,8.1,4.3,8.1c1.9,0,3.5-1.4,4.6-3.2c0.1,2,1.4,3.3,3.3,3.3c1.5,0,3.1-1.1,3.5-2c0.3-0.8-1.6,0.2-1.1-4.3
				C-189.1,416.1-188.2,409.6-188.2,409.6z M-210.2,414.9c3.9-1.2,6.6-4.2,6.6-7.1c0.1-2.5-1.6-4.4-4.3-4.2c-2.5,0.2-3.2,2-3,2.2
				c0.6,0.6,2.1,4.4-0.6,6.1l-2.8-7.5c0,0-0.1-0.2-0.2-0.2h-6.8c-0.2,0-0.2,0.2-0.2,0.2l4.3,9.1c-3.8,1.2-6.8,4.1-6.9,7
				c-0.1,2.5,1.6,4.5,3.9,4.5c2.5,0,3.8-2.3,3.6-2.7c-0.5-0.6-1.9-3.6,0.6-5.5l2.9,7.4c0,0,0,0.1,0.2,0.1h7.2c0.2,0,0.1-0.1,0.1-0.1
				L-210.2,414.9z"/>
		</g>
	</g>
</g>
</svg>
