<?xml version="1.0" encoding="utf-8"?>
<!-- Generator: Adobe Illustrator 19.1.0, SVG Export Plug-In . SVG Version: 6.00 Build 0)  -->
<svg version="1.1" id="_x31_" xmlns="http://www.w3.org/2000/svg" xmlns:xlink="http://www.w3.org/1999/xlink" x="0px" y="0px"
	 viewBox="0 0 87 13.7" style="enable-background:new 0 0 87 13.7;" xml:space="preserve">
<style type="text/css">
	.st0{fill-rule:evenodd;clip-rule:evenodd;fill:#FFFFFF;}
	.st1{fill-rule:evenodd;clip-rule:evenodd;fill:#EF041D;}
</style>
<path class="st0" d="M18.7,6.6c0.1-0.2,0.2-0.5,0.3-0.7c0.1-0.3,0.2-0.5,0.4-0.7c0.1-0.2,0.3-0.4,0.5-0.5c0.2-0.1,0.4-0.2,0.7-0.2
	c0.2,0,0.4,0.1,0.5,0.2c0.1,0.1,0.2,0.3,0.2,0.5c0.1,0.2,0.1,0.4,0.1,0.7c0,0.2,0,0.5,0,0.7c0,0.2-0.1,0.5-0.1,0.7h-2.7
	C18.6,7.1,18.6,6.9,18.7,6.6L18.7,6.6z M23.3,8.1c0.1-0.6,0.2-1.2,0.2-1.8c0-0.5-0.1-1-0.3-1.4C23,4.6,22.7,4.3,22.3,4
	c-0.4-0.2-0.9-0.3-1.6-0.3c-0.6,0-1.2,0.1-1.7,0.3c-0.5,0.2-1,0.5-1.4,0.9c-0.4,0.4-0.8,0.8-1.1,1.3c-0.3,0.5-0.5,1.1-0.6,1.7
	c-0.2,1-0.2,1.8,0,2.5c0.2,0.7,0.6,1.2,1.2,1.6c0.6,0.4,1.3,0.6,2.3,0.6c0.3,0,0.6,0,0.9-0.1c0.3-0.1,0.6-0.1,0.9-0.3
	c0.3-0.1,0.6-0.2,0.8-0.4l0.5-1l-0.2-0.1c-0.2,0.1-0.4,0.3-0.7,0.4c-0.2,0.1-0.5,0.2-0.7,0.3c-0.3,0.1-0.5,0.1-0.7,0.1
	c-0.5,0-0.8-0.1-1.1-0.3c-0.3-0.2-0.5-0.4-0.7-0.7c-0.1-0.3-0.2-0.6-0.2-1c0-0.4,0-0.8,0.1-1.3H23.3z"/>
<path class="st0" d="M27.7,11.3c-0.2,0-0.5,0-0.7,0c-0.4,0-0.7,0-1,0c-0.3,0-0.7,0-1-0.1c0.2-0.4,0.4-0.8,0.6-1.2
	c0.2-0.4,0.4-0.7,0.6-1.1c0.2-0.3,0.4-0.7,0.7-1.1c0.2-0.4,0.5-0.8,0.7-1.2c0.1,0.5,0.2,1,0.3,1.5c0.1,0.5,0.2,1,0.2,1.5
	c0.1,0.5,0.1,1,0.2,1.5C28.1,11.2,27.9,11.3,27.7,11.3L27.7,11.3z M30.8,11.3c-0.3-1.2-0.5-2.5-0.7-3.7c-0.2-1.2-0.4-2.5-0.6-3.7
	c-0.1,0-0.2,0-0.3,0h-0.3h-0.3c-0.1,0-0.2,0-0.3,0c-0.7,1.3-1.5,2.6-2.2,3.8c-0.8,1.2-1.6,2.5-2.3,3.7h-0.6c0,0.1,0,0.2,0,0.4
	c0,0.1,0,0.2-0.1,0.4c0,0.2-0.1,0.3-0.1,0.5c0,0.2-0.1,0.3-0.2,0.5H23c0.2-0.2,0.4-0.3,0.6-0.4c0.2-0.1,0.4-0.2,0.7-0.2
	c0.3,0,0.6-0.1,0.9-0.1h1.2H28c0.5,0,1,0,1.4,0c0.4,0,0.7,0.1,1,0.2c0.2,0.1,0.4,0.3,0.6,0.5h0.2c0-0.2,0-0.3,0-0.5
	c0-0.1,0-0.3,0.1-0.5c0-0.1,0.1-0.3,0.1-0.4c0-0.1,0.1-0.3,0.1-0.4H30.8z"/>
<path class="st0" d="M39.7,12.4l1.7-8.6c-0.2,0-0.4,0-0.6,0c-0.2,0-0.4,0-0.6,0c-0.6,0.6-1.1,1.2-1.7,1.8c-0.6,0.6-1.2,1.2-1.7,1.8
	c-0.6,0.6-1.1,1.1-1.6,1.6l1.1-5.2c-0.2,0-0.4,0-0.6,0c-0.2,0-0.4,0-0.6,0c-0.2,0-0.4,0-0.6,0c-0.2,0-0.4,0-0.6,0l-1.7,8.5
	c0.2,0,0.4,0,0.6,0c0.2,0,0.4,0,0.6,0c0.5-0.6,1-1.1,1.6-1.7c0.6-0.6,1.1-1.2,1.7-1.8c0.6-0.6,1.2-1.2,1.8-1.8l-1.1,5.3
	c0.2,0,0.4,0,0.6-0.1c0.2,0,0.4,0,0.6,0c0.2,0,0.4,0,0.6,0C39.3,12.4,39.5,12.4,39.7,12.4z"/>
<path class="st0" d="M48.9,12.4l0-0.1c-0.2-0.5-0.3-1-0.5-1.5c-0.2-0.5-0.3-1-0.5-1.4L47,7.1c0.4-0.4,0.8-0.7,1.1-1
	c0.4-0.3,0.8-0.7,1.2-1c0.4-0.3,0.8-0.7,1.1-1.1l0-0.1c-0.1,0-0.2,0-0.4,0c-0.1,0-0.2,0-0.4,0c-0.1,0-0.3,0-0.4,0
	c-0.1,0-0.2,0-0.4,0c-0.7,0.7-1.4,1.3-2,1.9c-0.7,0.6-1.3,1.2-2,1.8h-0.1c0,0,0,0-0.1,0l0.8-3.8c-0.2,0-0.4,0-0.6,0.1
	c-0.2,0-0.4,0-0.6,0c-0.2,0-0.4,0-0.6,0c-0.2,0-0.4,0-0.6-0.1l-1.7,8.5c0.2,0,0.4,0,0.6,0c0.2,0,0.4,0,0.6,0c0.2,0,0.4,0,0.6,0
	c0.2,0,0.4,0,0.6,0l0.8-4.1c0.1,0.1,0.2,0.1,0.2,0.2C45,8.7,45,8.8,45.1,8.9c0.2,0.4,0.3,0.7,0.5,1.1c0.2,0.4,0.3,0.8,0.4,1.2
	c0.1,0.4,0.3,0.8,0.4,1.1c0.2,0,0.4,0,0.7,0c0.2,0,0.4,0,0.7,0c0.2,0,0.4,0,0.6,0C48.5,12.4,48.7,12.4,48.9,12.4z"/>
<path class="st1" d="M62.1,0.9c-0.3-0.2-0.6-0.4-1-0.5c-0.4-0.1-0.7-0.2-1.1-0.3C59.6,0,59.2,0,58.9,0c-0.7,0-1.5,0.1-2.2,0.2
	c-0.7,0.2-1.4,0.4-2,0.8c-0.6,0.3-1.2,0.8-1.7,1.3c-0.5,0.5-1,1.2-1.4,1.9c-0.4,0.7-0.6,1.6-0.8,2.5c-0.2,0.9-0.2,1.7,0,2.5
	c0.2,0.7,0.5,1.4,1,1.9c0.5,0.5,1.1,0.9,1.8,1.2c0.7,0.3,1.5,0.4,2.4,0.4c0.6,0,1.1-0.1,1.7-0.2c0.6-0.1,1.2-0.3,1.8-0.6l0.7-1.5
	l-0.2-0.1c-0.3,0.3-0.6,0.5-1,0.7c-0.4,0.2-0.8,0.4-1.2,0.5c-0.4,0.1-0.8,0.2-1.1,0.2c-0.6,0-1.2-0.1-1.6-0.4
	c-0.5-0.2-0.8-0.6-1.1-1c-0.2-0.5-0.4-1-0.4-1.6c0-0.6,0-1.3,0.2-2.1c0.1-0.5,0.3-1,0.5-1.5c0.2-0.5,0.4-1,0.7-1.5
	c0.3-0.5,0.6-0.9,1-1.2c0.4-0.4,0.8-0.6,1.3-0.9c0.5-0.2,1-0.3,1.6-0.3c0.4,0,0.7,0.1,1,0.2c0.3,0.1,0.6,0.3,0.9,0.6
	c0.2,0.2,0.4,0.5,0.6,0.9h0.2c0.1-0.3,0.3-0.6,0.4-0.9C61.8,1.5,62,1.2,62.1,0.9z"/>
<path class="st0" d="M68.7,12.4l1.7-8.6c-0.2,0-0.4,0-0.6,0c-0.2,0-0.4,0-0.6,0c-0.5,0.6-1.1,1.2-1.7,1.8c-0.6,0.6-1.2,1.2-1.7,1.8
	c-0.6,0.6-1.1,1.1-1.6,1.6l1.1-5.2c-0.2,0-0.4,0-0.6,0c-0.2,0-0.4,0-0.6,0c-0.2,0-0.4,0-0.6,0c-0.2,0-0.4,0-0.6,0l-1.7,8.5
	c0.2,0,0.4,0,0.6,0c0.2,0,0.4,0,0.6,0c0.5-0.6,1-1.1,1.6-1.7c0.6-0.6,1.1-1.2,1.7-1.8c0.6-0.6,1.2-1.2,1.8-1.8l-1.1,5.3
	c0.2,0,0.4,0,0.6-0.1c0.2,0,0.4,0,0.6,0c0.2,0,0.4,0,0.6,0C68.4,12.4,68.6,12.4,68.7,12.4z"/>
<path class="st0" d="M78.2,5.1V4.8c0-0.1,0-0.2,0-0.3c0-0.1,0-0.2,0.1-0.3c0-0.1,0.1-0.2,0.1-0.3h-7v0.3c0,0.1,0,0.2,0,0.3
	c0,0.1,0,0.2-0.1,0.3c0,0.1-0.1,0.2-0.1,0.3C71.5,5,71.8,5,72,5c0.2,0,0.5-0.1,0.7-0.1c0.3,0,0.6,0,0.9,0l-1.5,7.5
	c0.2,0,0.4,0,0.6,0c0.2,0,0.4,0,0.6,0c0.2,0,0.4,0,0.6,0c0.2,0,0.4,0,0.6,0l1.5-7.5c0.3,0,0.6,0,0.9,0c0.2,0,0.5,0,0.7,0.1
	C77.7,5,78,5,78.2,5.1z"/>
<path class="st0" d="M85.2,12.4L87,3.8c-0.2,0-0.4,0-0.6,0c-0.2,0-0.4,0-0.6,0c-0.5,0.6-1.1,1.2-1.7,1.8c-0.6,0.6-1.2,1.2-1.8,1.8
	c-0.6,0.6-1.1,1.1-1.6,1.6l1.1-5.2c-0.2,0-0.4,0-0.6,0c-0.2,0-0.4,0-0.6,0c-0.2,0-0.4,0-0.6,0c-0.2,0-0.4,0-0.6,0l-1.8,8.5
	c0.2,0,0.4,0,0.6,0c0.2,0,0.4,0,0.6,0c0.5-0.6,1-1.1,1.6-1.7c0.6-0.6,1.1-1.2,1.7-1.8c0.6-0.6,1.2-1.2,1.8-1.8l-1.1,5.3
	c0.2,0,0.4,0,0.6-0.1c0.2,0,0.4,0,0.6,0c0.2,0,0.4,0,0.6,0C84.9,12.4,85.1,12.4,85.2,12.4z"/>
<path class="st1" d="M14.1,13.7c0.1-1.3,0.1-2.7,0.2-4.1c0.1-1.4,0.2-2.9,0.3-4.4c0.1-1.6,0.3-3.2,0.4-5c-0.1,0-0.2,0-0.4,0.1
	c-0.1,0-0.2,0-0.4,0c-0.1,0-0.2,0-0.4,0c-0.1,0-0.2,0-0.3-0.1c-0.6,1.1-1.3,2.2-1.9,3.3C11,4.6,10.4,5.6,9.7,6.6
	c-0.6,1-1.3,2-1.8,2.9C7.5,7.9,7.1,6.4,6.7,4.8C6.4,3.3,6,1.8,5.7,0.2c-0.1,0-0.2,0-0.4,0.1c-0.1,0-0.2,0-0.4,0c-0.1,0-0.2,0-0.3,0
	c-0.1,0-0.2,0-0.3-0.1C3.5,2.7,2.8,5.1,2.1,7.4C1.4,9.6,0.7,11.7,0,13.7c0.1,0,0.3,0,0.4-0.1c0.1,0,0.3,0,0.4,0c0.1,0,0.3,0,0.4,0
	c0.1,0,0.3,0,0.4,0.1C1.8,12.8,2,11.9,2.2,11C2.5,10,2.7,9,3,8c0.3-1,0.6-2.1,1-3.3c0.2,1,0.5,2,0.7,3.1c0.2,1,0.5,2,0.7,3
	c0.2,1,0.5,1.9,0.7,2.8c0.1,0,0.2,0,0.3,0c0.1,0,0.2,0,0.3,0c0.9-1.5,1.8-3,2.7-4.6c0.9-1.5,1.8-3,2.8-4.5c-0.1,1-0.2,2-0.3,3
	c-0.1,1-0.2,2-0.3,3c-0.1,1-0.2,2-0.4,3.1c0.2,0,0.5,0,0.7-0.1c0.2,0,0.5,0,0.7,0c0.2,0,0.5,0,0.7,0C13.6,13.7,13.9,13.7,14.1,13.7z
	"/>
</svg>
