<?xml version="1.0" encoding="utf-8"?>
<!-- Generator: Adobe Illustrator 19.1.0, SVG Export Plug-In . SVG Version: 6.00 Build 0)  -->
<svg version="1.1" id="_x31_" xmlns="http://www.w3.org/2000/svg" xmlns:xlink="http://www.w3.org/1999/xlink" x="0px" y="0px"
	 viewBox="0 0 124.2 28.2" style="enable-background:new 0 0 124.2 28.2;" xml:space="preserve">
<style type="text/css">
	.st0{fill-rule:evenodd;clip-rule:evenodd;fill:#3972D1;}
	.st1{fill-rule:evenodd;clip-rule:evenodd;fill:#EF041D;}
	.st2{fill-rule:evenodd;clip-rule:evenodd;fill:#617599;}
</style>
<path class="st0" d="M26.7,9.5c0.1-0.3,0.2-0.7,0.4-1c0.1-0.4,0.3-0.7,0.6-1c0.2-0.3,0.5-0.6,0.7-0.7c0.3-0.2,0.6-0.3,0.9-0.3
	c0.3,0,0.5,0.1,0.7,0.3c0.2,0.2,0.3,0.4,0.3,0.7c0.1,0.3,0.1,0.6,0.1,1c0,0.4,0,0.7-0.1,1c-0.1,0.4-0.1,0.7-0.1,0.9h-3.8
	C26.5,10.1,26.6,9.8,26.7,9.5L26.7,9.5z M33.3,11.6c0.2-0.9,0.3-1.7,0.3-2.5c0-0.7-0.2-1.4-0.4-2c-0.3-0.6-0.7-1-1.3-1.3
	c-0.6-0.3-1.3-0.5-2.3-0.5c-0.9,0-1.7,0.1-2.4,0.4c-0.7,0.3-1.4,0.7-2,1.2c-0.6,0.5-1.1,1.2-1.5,1.9c-0.4,0.7-0.7,1.5-0.9,2.4
	c-0.3,1.4-0.3,2.6,0,3.5c0.3,1,0.9,1.7,1.7,2.3c0.8,0.5,1.9,0.8,3.2,0.8c0.4,0,0.8-0.1,1.2-0.1c0.4-0.1,0.9-0.2,1.3-0.4
	c0.4-0.2,0.8-0.4,1.2-0.6l0.8-1.4l-0.2-0.2c-0.3,0.2-0.6,0.4-0.9,0.6c-0.3,0.2-0.7,0.3-1.1,0.4c-0.4,0.1-0.7,0.1-1,0.1
	c-0.7,0-1.2-0.1-1.6-0.4c-0.4-0.2-0.7-0.6-0.9-1C26.1,14.5,26,14,26,13.4c0-0.6,0.1-1.2,0.2-1.8H33.3z"/>
<path class="st0" d="M39.6,16.1c-0.3,0-0.7,0-1,0c-0.5,0-1,0-1.4,0c-0.5,0-0.9-0.1-1.4-0.1c0.3-0.6,0.6-1.1,0.9-1.7
	c0.3-0.5,0.6-1,0.9-1.5c0.3-0.5,0.6-1,0.9-1.5c0.3-0.5,0.7-1.1,1-1.7c0.1,0.7,0.3,1.5,0.4,2.2c0.1,0.7,0.2,1.4,0.3,2.1
	c0.1,0.7,0.2,1.4,0.3,2.1C40.2,16,39.9,16.1,39.6,16.1L39.6,16.1z M44,16.1c-0.4-1.8-0.7-3.6-1-5.3c-0.3-1.8-0.6-3.5-0.9-5.3
	c-0.1,0-0.3,0-0.4,0.1h-0.4h-0.4c-0.1,0-0.3,0-0.4-0.1c-1,1.8-2.1,3.6-3.2,5.4c-1.1,1.8-2.2,3.5-3.3,5.2h-0.9c0,0.1,0,0.3,0,0.5
	c0,0.2,0,0.4-0.1,0.6c0,0.2-0.1,0.4-0.1,0.7c-0.1,0.2-0.1,0.4-0.2,0.7h0.2c0.3-0.2,0.5-0.4,0.9-0.6c0.3-0.1,0.6-0.2,1-0.3
	c0.4-0.1,0.8-0.1,1.2-0.1h1.7H40c0.8,0,1.4,0,2,0c0.5,0,1,0.1,1.4,0.3c0.3,0.1,0.6,0.4,0.8,0.7h0.3c0-0.2,0-0.5,0-0.7
	c0-0.2,0.1-0.4,0.1-0.7c0-0.2,0.1-0.4,0.1-0.6c0.1-0.2,0.1-0.4,0.2-0.5H44z"/>
<path class="st0" d="M56.7,17.7l2.5-12.2c-0.3,0-0.5,0.1-0.8,0c-0.3,0-0.6,0-0.8,0c-0.8,0.9-1.6,1.7-2.4,2.6
	c-0.8,0.9-1.6,1.7-2.5,2.5c-0.8,0.8-1.6,1.6-2.3,2.3l1.5-7.4c-0.3,0-0.5,0-0.8,0.1c-0.3,0-0.6,0.1-0.9,0.1c-0.3,0-0.5,0-0.8-0.1
	c-0.3,0-0.5-0.1-0.8-0.1L46,17.7c0.3,0,0.5,0,0.8,0c0.3,0,0.5,0,0.8,0c0.7-0.8,1.4-1.6,2.2-2.5c0.8-0.9,1.6-1.7,2.5-2.6
	c0.9-0.9,1.7-1.7,2.6-2.6l-1.5,7.6c0.3,0,0.6-0.1,0.9-0.1c0.3,0,0.6,0,0.8,0c0.3,0,0.6,0,0.9,0.1C56.1,17.6,56.4,17.7,56.7,17.7z"/>
<path class="st0" d="M69.8,17.7l0-0.2c-0.2-0.7-0.5-1.5-0.7-2.1c-0.2-0.7-0.5-1.4-0.7-2L67,10.1c0.5-0.5,1.1-1,1.6-1.5
	c0.6-0.5,1.1-0.9,1.7-1.5c0.5-0.5,1.1-1,1.6-1.5l0-0.1c-0.2,0-0.3,0-0.5,0c-0.2,0-0.3,0.1-0.5,0.1c-0.2,0-0.4,0-0.5-0.1
	c-0.2,0-0.3,0-0.5,0c-1,0.9-1.9,1.9-2.9,2.8c-0.9,0.9-1.9,1.8-2.8,2.6h-0.1c-0.1,0-0.1,0-0.1,0l1.1-5.4c-0.3,0-0.6,0.1-0.9,0.1
	c-0.3,0-0.6,0-0.8,0c-0.3,0-0.6,0-0.8,0c-0.3,0-0.6-0.1-0.8-0.1l-2.5,12.2c0.3,0,0.5,0,0.8-0.1c0.3,0,0.6-0.1,0.9-0.1
	c0.3,0,0.5,0,0.8,0.1c0.3,0,0.5,0.1,0.8,0.1l1.2-5.8c0.1,0.1,0.2,0.2,0.3,0.4c0.1,0.1,0.1,0.3,0.2,0.4c0.2,0.5,0.5,1.1,0.7,1.6
	c0.2,0.6,0.4,1.2,0.6,1.7c0.2,0.6,0.4,1.1,0.5,1.6c0.3,0,0.6,0,0.9-0.1c0.3,0,0.6-0.1,0.9-0.1c0.3,0,0.6,0,0.9,0.1
	C69.2,17.6,69.5,17.7,69.8,17.7z"/>
<path class="st1" d="M88.6,1.2c-0.4-0.3-0.9-0.5-1.4-0.7c-0.5-0.2-1.1-0.3-1.6-0.4C85.1,0.1,84.5,0,84,0c-1.1,0-2.1,0.1-3.1,0.4
	c-1,0.3-2,0.6-2.8,1.1c-0.9,0.5-1.7,1.1-2.5,1.9C74.9,4.1,74.2,5,73.7,6c-0.5,1-0.9,2.2-1.2,3.5c-0.3,1.3-0.3,2.5,0,3.5
	c0.3,1,0.7,1.9,1.4,2.7c0.7,0.7,1.5,1.3,2.5,1.7c1,0.4,2.2,0.6,3.5,0.6c0.8,0,1.6-0.1,2.5-0.2c0.9-0.2,1.7-0.4,2.5-0.8l1-2.2
	l-0.3-0.1C85,15,84.5,15.3,84,15.6c-0.5,0.3-1.1,0.5-1.6,0.7c-0.5,0.1-1.1,0.2-1.6,0.2c-0.9,0-1.7-0.2-2.3-0.5
	c-0.7-0.4-1.2-0.9-1.5-1.5c-0.3-0.7-0.6-1.4-0.6-2.3c-0.1-0.9,0-1.9,0.2-3c0.1-0.7,0.4-1.5,0.7-2.2c0.3-0.7,0.6-1.5,1.1-2.1
	c0.4-0.7,0.9-1.2,1.4-1.7c0.5-0.5,1.1-0.9,1.8-1.2c0.7-0.3,1.4-0.4,2.2-0.4c0.5,0,1,0.1,1.4,0.3C85.6,2,86,2.3,86.4,2.6
	C86.7,3,87,3.4,87.2,3.8h0.3c0.2-0.4,0.4-0.9,0.5-1.3C88.3,2.1,88.4,1.7,88.6,1.2z"/>
<path class="st0" d="M98.1,17.7l2.5-12.2c-0.3,0-0.5,0.1-0.8,0c-0.3,0-0.6,0-0.9,0c-0.8,0.9-1.6,1.7-2.4,2.6
	C95.7,9,94.8,9.8,94,10.6c-0.8,0.8-1.6,1.6-2.3,2.3l1.5-7.4c-0.3,0-0.5,0-0.8,0.1c-0.3,0-0.6,0.1-0.9,0.1c-0.3,0-0.6,0-0.8-0.1
	c-0.3,0-0.5-0.1-0.8-0.1l-2.5,12.2c0.3,0,0.5,0,0.8,0c0.3,0,0.5,0,0.8,0c0.7-0.8,1.4-1.6,2.2-2.5c0.8-0.9,1.6-1.7,2.4-2.6
	c0.9-0.9,1.7-1.7,2.6-2.6l-1.5,7.6c0.3,0,0.6-0.1,0.9-0.1c0.3,0,0.6,0,0.8,0c0.3,0,0.6,0,0.8,0.1C97.5,17.6,97.8,17.7,98.1,17.7z"/>
<path class="st0" d="M111.7,7.2V6.8c0-0.2,0-0.3,0.1-0.5c0-0.1,0.1-0.3,0.1-0.4c0.1-0.1,0.1-0.3,0.2-0.4h-10v0.4
	c0,0.1,0,0.3-0.1,0.4c0,0.1-0.1,0.3-0.1,0.5c-0.1,0.1-0.1,0.3-0.2,0.4c0.4-0.1,0.7-0.1,1.1-0.1c0.3-0.1,0.7-0.1,1.1-0.1
	c0.4,0,0.8,0,1.2,0l-2.2,10.7c0.3,0,0.6,0,0.9-0.1c0.3,0,0.6-0.1,0.9-0.1c0.3,0,0.5,0,0.8,0.1c0.3,0,0.5,0.1,0.8,0.1L108.4,7
	c0.5,0,0.9,0,1.2,0c0.3,0,0.7,0,1,0.1C111,7.1,111.3,7.1,111.7,7.2z"/>
<path class="st0" d="M121.7,17.7l2.5-12.2c-0.3,0-0.5,0.1-0.8,0c-0.3,0-0.5,0-0.8,0c-0.8,0.9-1.6,1.7-2.4,2.6
	c-0.9,0.9-1.7,1.7-2.5,2.5c-0.8,0.8-1.6,1.6-2.3,2.3l1.5-7.4c-0.3,0-0.6,0-0.9,0.1c-0.3,0-0.6,0.1-0.9,0.1c-0.3,0-0.5,0-0.8-0.1
	c-0.3,0-0.5-0.1-0.8-0.1L111,17.7c0.3,0,0.6,0,0.8,0c0.3,0,0.5,0,0.8,0c0.7-0.8,1.4-1.6,2.2-2.5c0.8-0.9,1.6-1.7,2.5-2.6
	c0.9-0.9,1.7-1.7,2.6-2.6l-1.5,7.6c0.3,0,0.5-0.1,0.8-0.1c0.3,0,0.6,0,0.9,0c0.3,0,0.5,0,0.8,0.1C121.1,17.6,121.4,17.7,121.7,17.7z
	"/>
<path class="st1" d="M20.1,19.6c0.1-1.9,0.2-3.8,0.3-5.8c0.1-2,0.3-4.1,0.5-6.3c0.2-2.2,0.4-4.6,0.6-7.1c-0.2,0-0.3,0.1-0.6,0.1
	c-0.2,0-0.3,0-0.5,0.1c-0.2,0-0.3,0-0.5-0.1c-0.1,0-0.3-0.1-0.5-0.1c-0.9,1.6-1.8,3.2-2.8,4.7c-0.9,1.5-1.9,3-2.7,4.4
	c-0.9,1.4-1.8,2.8-2.6,4.1c-0.5-2.2-1.1-4.4-1.6-6.6c-0.5-2.2-1-4.4-1.5-6.6c-0.2,0-0.3,0.1-0.5,0.1c-0.2,0-0.3,0-0.5,0.1
	c-0.2,0-0.3,0-0.5-0.1c-0.2,0-0.3-0.1-0.5-0.1C5,3.9,4,7.3,3,10.5c-1,3.3-2,6.3-2.9,9.1c0.2,0,0.4-0.1,0.6-0.1c0.2,0,0.4,0,0.6,0
	c0.2,0,0.4,0,0.5,0c0.2,0,0.4,0.1,0.6,0.1c0.3-1.3,0.6-2.6,0.9-3.9c0.3-1.4,0.7-2.8,1.1-4.2c0.4-1.5,0.9-3,1.4-4.6
	c0.3,1.5,0.7,2.9,1,4.4c0.3,1.4,0.7,2.9,1,4.2c0.3,1.4,0.7,2.7,1,4c0.1,0,0.3-0.1,0.5-0.1c0.1,0,0.3,0,0.5,0.1
	c1.3-2.2,2.5-4.3,3.9-6.5c1.3-2.2,2.6-4.3,4-6.4c-0.1,1.4-0.3,2.9-0.4,4.3c-0.1,1.4-0.3,2.9-0.4,4.3c-0.1,1.5-0.3,2.9-0.5,4.4
	c0.3,0,0.7-0.1,1-0.1c0.3,0,0.7,0,1,0c0.3,0,0.7,0,1,0C19.4,19.5,19.8,19.5,20.1,19.6z"/>
<path class="st2" d="M4.8,28h0.7l-0.3-5.5H4.3l-1,2.7c-0.2,0.7-0.4,1.3-0.6,1.9h0c-0.1-0.6-0.3-1.2-0.5-1.9l-0.9-2.7H0.4L0,28h0.7
	l0.1-2.4c0-0.8,0.1-1.8,0.1-2.4h0c0.2,0.7,0.4,1.4,0.6,2.2L2.4,28h0.5l0.9-2.7c0.3-0.8,0.5-1.5,0.7-2.1h0c0,0.7,0,1.6,0.1,2.4
	L4.8,28L4.8,28z M6.5,22.5V28h0.8v-2.6h2.9V28H11v-5.5h-0.8v2.3H7.2v-2.3H6.5L6.5,22.5z M14.6,22.4c-1.6,0-2.8,1.1-2.8,2.9
	c0,1.7,1.1,2.8,2.7,2.8c1.5,0,2.8-1,2.8-2.9C17.3,23.5,16.2,22.4,14.6,22.4L14.6,22.4z M14.5,23c1.3,0,1.9,1.2,1.9,2.3
	c0,1.3-0.7,2.3-1.9,2.3c-1.2,0-1.9-1.1-1.9-2.2C12.6,24.1,13.2,23,14.5,23L14.5,23z M18.1,22.5V28h0.8v-4.9h2.4v-0.6H18.1L18.1,22.5
	z M23.9,22.4c1.7,0,2.7,1.2,2.7,2.8c0,1.9-1.3,2.9-2.8,2.9c-1.6,0-2.7-1.1-2.7-2.8C21.1,23.5,22.3,22.4,23.9,22.4L23.9,22.4z
	 M23.9,23c-1.3,0-1.9,1.1-1.9,2.3c0,1.2,0.7,2.2,1.9,2.2c1.2,0,1.9-1,1.9-2.3C25.8,24.1,25.2,23,23.9,23L23.9,23z M27.5,22.5V28h0.8
	v-4.9h2.8V28h0.8v-5.5H27.5L27.5,22.5z M33,28h0.8v-2.2c0.2,0,0.4,0,0.6,0c0.8,0,1.4-0.2,1.8-0.6c0.3-0.3,0.5-0.7,0.5-1.2
	c0-0.5-0.2-0.9-0.5-1.2c-0.4-0.3-0.9-0.5-1.7-0.5c-0.6,0-1.1,0-1.5,0.1V28L33,28z M33.8,23.1c0.1,0,0.4-0.1,0.7-0.1
	c0.9,0,1.4,0.4,1.4,1.1c0,0.7-0.6,1.2-1.5,1.2c-0.3,0-0.5,0-0.6-0.1V23.1L33.8,23.1z M40,22.4c-1.6,0-2.8,1.1-2.8,2.9
	c0,1.7,1.1,2.8,2.7,2.8c1.5,0,2.8-1,2.8-2.9C42.7,23.5,41.6,22.4,40,22.4L40,22.4z M40,23c1.3,0,1.9,1.2,1.9,2.3
	c0,1.3-0.7,2.3-1.9,2.3S38,26.5,38,25.3C38,24.1,38.7,23,40,23L40,23z M45.7,22.3v0.5c-1.2,0.1-2.6,0.7-2.6,2.5
	c0,1.7,1.3,2.4,2.5,2.4v0.5h0.8v-0.5c1.3-0.1,2.6-0.7,2.6-2.5c0-1.7-1.3-2.4-2.5-2.5v-0.5H45.7L45.7,22.3z M45.7,27.2
	c-0.9-0.1-1.7-0.6-1.7-2c0-1.4,0.9-1.9,1.7-2V27.2L45.7,27.2z M46.5,23.3c0.9,0,1.7,0.6,1.7,2c0,1.4-0.9,1.9-1.7,2V23.3L46.5,23.3z
	 M49.9,22.5V28h0.8l1.9-2.8c0.4-0.6,0.8-1.2,1.1-1.9l0,0c-0.1,0.7-0.1,1.4-0.1,2.2l0,2.4h0.7v-5.5h-0.8l-2,2.8
	c-0.4,0.7-0.8,1.3-1.1,1.8l0,0c0.1-0.7,0.1-1.5,0.1-2.3l0-2.3H49.9L49.9,22.5z M56,22.5v2.3c0,0.9,0,2-0.5,2.4
	c-0.1,0.1-0.4,0.3-0.6,0.3l0.1,0.6c0.3,0,0.7-0.1,0.9-0.3c0.8-0.5,0.9-1.9,0.9-3.1v-1.7h2V28h0.8v-5.5H56L56,22.5z M60.7,22.5V28
	c0.3,0,0.7,0.1,1.2,0.1c0.8,0,1.7-0.2,2.2-0.6c0.3-0.3,0.5-0.7,0.5-1.2c0-1.2-1.1-1.7-2.3-1.7c-0.2,0-0.6,0-0.7,0v-2.1H60.7
	L60.7,22.5z M61.5,25.1c0.2,0,0.4,0,0.6,0c0.9,0,1.6,0.3,1.6,1.2c0,0.9-0.7,1.2-1.6,1.2c-0.3,0-0.5,0-0.6,0V25.1L61.5,25.1z
	 M65.4,22.5V28h0.8v-2.6h2.9V28h0.8v-5.5h-0.8v2.3h-2.9v-2.3H65.4L65.4,22.5z M74.2,26.3l0.6,1.7h0.8l-2.1-5.5h-0.9L70.6,28h0.8
	l0.6-1.7H74.2L74.2,26.3z M72.2,25.7l0.6-1.6c0.1-0.3,0.2-0.7,0.3-1h0c0.1,0.3,0.2,0.6,0.3,1l0.6,1.6H72.2L72.2,25.7z M76.7,28
	c0.1-0.1,0.1-0.3,0.2-0.4c0.2-0.5,0.4-1.3,0.8-1.7c0.2-0.2,0.5-0.3,0.9-0.3h0.6V28h0.8v-5.5c-0.4-0.1-0.9-0.1-1.4-0.1
	c-0.8,0-1.4,0.1-1.7,0.4c-0.3,0.3-0.6,0.6-0.6,1.1c0,0.8,0.6,1.2,1.3,1.4v0c-0.2,0.1-0.4,0.2-0.5,0.3c-0.5,0.5-0.6,1.2-0.9,1.9
	c-0.1,0.2-0.2,0.4-0.3,0.5H76.7L76.7,28z M79.1,25.1c-0.2,0-0.4,0-0.7,0c-0.9,0-1.5-0.4-1.5-1.1c0-0.8,0.7-1,1.4-1
	c0.4,0,0.6,0,0.7,0.1V25.1L79.1,25.1z M87.6,22.5V28h0.8v-2.5h0.3c1,0,1.4,0.5,1.7,1.2c0.2,0.4,0.3,0.9,0.6,1.3h0.8
	c-0.3-0.5-0.4-1-0.7-1.6c-0.3-0.7-0.7-1.3-1.7-1.4l2.3-2.5h-0.9l-2.1,2.5h-0.2v-2.5H87.6L87.6,22.5z M92.9,22.5v2.3
	c0,0.9,0,2-0.5,2.4c-0.1,0.1-0.4,0.3-0.6,0.3l0.1,0.6c0.4,0,0.7-0.1,0.9-0.3c0.8-0.5,0.9-1.9,0.9-3.1v-1.7h2V28h0.8v-5.5H92.9
	L92.9,22.5z M97.5,22.5V28h0.8l1.9-2.8c0.4-0.6,0.8-1.2,1.1-1.9l0,0c-0.1,0.7-0.1,1.4-0.1,2.2V28h0.7v-5.5h-0.8l-2,2.8
	c-0.4,0.7-0.8,1.3-1.1,1.8l0,0c0.1-0.7,0.1-1.5,0.1-2.3v-2.3H97.5L97.5,22.5z M103.2,22.5V28h0.8v-2.6h2.9V28h0.8v-5.5h-0.8v2.3
	h-2.9v-2.3H103.2L103.2,22.5z M108.7,22.5V28h0.8l1.9-2.8c0.4-0.6,0.8-1.2,1.1-1.9l0,0c-0.1,0.7-0.1,1.4-0.1,2.2V28h0.7v-5.5h-0.8
	l-2,2.8c-0.4,0.7-0.8,1.3-1.1,1.8l0,0c0.1-0.7,0.1-1.5,0.1-2.3v-2.3H108.7L108.7,22.5z M114.4,22.5V28h0.8v-2.5h0.3
	c1,0,1.4,0.5,1.7,1.2c0.2,0.4,0.3,0.9,0.6,1.3h0.8c-0.3-0.5-0.4-1-0.7-1.6c-0.3-0.7-0.7-1.3-1.7-1.4l2.3-2.5h-0.9l-2.1,2.5h-0.2
	v-2.5H114.4L114.4,22.5z M122.1,26.3l0.6,1.7h0.8l-2.1-5.5h-0.9l-2.1,5.5h0.8l0.6-1.7H122.1L122.1,26.3z M120.1,25.7l0.6-1.6
	c0.1-0.3,0.2-0.7,0.3-1h0c0.1,0.3,0.2,0.6,0.3,1l0.6,1.6H120.1z"/>
</svg>
