<svg id="_1" data-name="1" xmlns="http://www.w3.org/2000/svg" viewBox="0 0 328.49 452.01"><defs><style>.cls-1{fill:#fff;fill-rule:evenodd;}</style></defs><title>spec</title><path class="cls-1" d="M192,386c0-31.48-4.42-27,25-27,0-29.29-4.32-25,26-25,2.7,0,2.76.48,5,1,1.79,7.69,1,14.79,1,24,29.9,0,25-4.59,25,26,0,2.7-.48,2.76-1,5-7.69,1.79-14.79,1-24,1,0,29.42,4.48,25-27,25-7.34,0-5-14.25-5-25-10.75,0-25,2.34-25-5ZM0,360v73c0,12.26,6.74,19,19,19H309c12.26,0,19-6.74,19-19,0-37.58,3.48-98.65-8.14-129.86-14.53-39-41.33-66.1-80.13-81.87C233.31,218.68,221.42,215,213,215c-.72,2.69-37.51,45-42.24,49.76-2.71,2.73-4.12,5.48-6.76,7.25l-21.7-24.3c-3.43-4.07-26.44-29.52-27.3-32.7-8,0-18.89,3.12-26,6-29.13,11.71-55.24,31.93-70.33,59.67A156,156,0,0,0,8.14,303.15C2.1,319.38,0,338,0,360Z"/><path class="cls-1" d="M78,83c0,37-4,65.57,24.25,93.75,7.5,7.48,12.88,12.33,22.74,17.26a87,87,0,0,0,77.36.33c15.66-7.81,32.38-24,39.65-40.35,10.75-24.16,8-44.62,8-71,0-26.6-16.95-53.7-37.6-67.4C198.6,6.44,181,0,164,0c-3.77,0-4.46.74-9,1a73.71,73.71,0,0,0-25.35,6.65c-10.64,5.17-16.81,9-24.9,17.1S92.07,37.85,86.65,48.66C82.36,57.25,78,70.67,78,83Z"/></svg>