<?xml version="1.0" encoding="utf-8"?>
<!-- Generator: Adobe Illustrator 19.1.0, SVG Export Plug-In . SVG Version: 6.00 Build 0)  -->
<svg version="1.1" id="_x31_" xmlns="http://www.w3.org/2000/svg" xmlns:xlink="http://www.w3.org/1999/xlink" x="0px" y="0px"
	 viewBox="0 0 595.3 841.9" style="enable-background:new 0 0 595.3 841.9;" xml:space="preserve">
<style type="text/css">
	.st0{fill-rule:evenodd;clip-rule:evenodd;fill:#B3B3B3;}
	.st1{opacity:0.5;fill-rule:evenodd;clip-rule:evenodd;}
	.st2{fill-rule:evenodd;clip-rule:evenodd;fill:#FC051E;}
	.st3{fill-rule:evenodd;clip-rule:evenodd;fill:#365382;}
	.st4{fill-rule:evenodd;clip-rule:evenodd;fill:#FFCC00;}
	.st5{fill-rule:evenodd;clip-rule:evenodd;fill:#BDCFF2;}
	.st6{fill-rule:evenodd;clip-rule:evenodd;fill:#508EF4;}
	.st7{fill-rule:evenodd;clip-rule:evenodd;fill:#FFFFFF;}
	.st8{fill-rule:evenodd;clip-rule:evenodd;fill:#95A6C4;}
	.st9{fill-rule:evenodd;clip-rule:evenodd;fill:#EF041D;}
	.st10{fill-rule:evenodd;clip-rule:evenodd;fill:#3972D1;}
	.st11{fill-rule:evenodd;clip-rule:evenodd;fill:#617599;}
	.st12{fill-rule:evenodd;clip-rule:evenodd;fill:#D2E1FA;}
	.st13{fill-rule:evenodd;clip-rule:evenodd;fill:#FEFEFE;}
	.st14{fill-rule:evenodd;clip-rule:evenodd;fill:#778CB0;}
</style>
<rect id="bckg" x="3.9" y="4" class="st0" width="588" height="835.2"/>
<g id="icon-red-star">
	<path class="st1" d="M47,28c0.6,0.1,1.3,0.2,1.9,0.4l3.9-2.1l1.3,4.3c0.6,0.3,1.1,0.7,1.6,1.1l4.4-0.4l-0.5,4.4
		c0.4,0.5,0.7,1.1,1.1,1.6l4.2,1.3l-2.1,3.9c0.2,0.6,0.3,1.3,0.4,1.9l3.4,2.8L63.1,50c-0.1,0.6-0.2,1.3-0.4,1.9l2.1,3.9l-4.3,1.3
		c-0.3,0.6-0.7,1.1-1.1,1.6l0.4,4.4l-4.4-0.5c-0.5,0.4-1.1,0.7-1.6,1.1l-1.3,4.2l-3.9-2.1c-0.6,0.2-1.3,0.3-1.9,0.4l-2.8,3.4
		l-2.8-3.4c-0.6-0.1-1.3-0.2-1.9-0.4l-3.9,2.1L34,63.5c-0.6-0.3-1.1-0.7-1.6-1.1L28,62.8l0.5-4.4c-0.4-0.5-0.7-1.1-1.1-1.6l-4.2-1.3
		l2.1-3.9c-0.2-0.6-0.3-1.3-0.4-1.9l-3.4-2.8L25,44c0.1-0.6,0.2-1.3,0.4-1.9l-2.1-3.9l4.3-1.3c0.3-0.6,0.7-1.1,1.1-1.6L28.3,31
		l4.4,0.5c0.5-0.4,1.1-0.7,1.6-1.1l1.3-4.2l3.9,2.1c0.6-0.2,1.3-0.3,1.9-0.4l2.8-3.4L47,28z" style="fill: var(--secondary-color)"/>
	<path class="st2" d="M45.7,26.8c0.6,0.1,1.3,0.2,1.9,0.4l3.9-2.1l1.3,4.3c0.6,0.3,1.1,0.7,1.6,1.1l4.4-0.4l-0.5,4.4
		c0.4,0.5,0.7,1.1,1.1,1.6l4.2,1.3l-2.1,3.9c0.2,0.6,0.3,1.3,0.4,1.9l3.4,2.8l-3.4,2.8c-0.1,0.6-0.2,1.3-0.4,1.9l2.1,3.9l-4.3,1.3
		c-0.3,0.6-0.7,1.1-1.1,1.6l0.4,4.4l-4.4-0.5c-0.5,0.4-1.1,0.7-1.6,1.1l-1.3,4.2l-3.9-2.1c-0.6,0.2-1.3,0.3-1.9,0.4l-2.8,3.4
		l-2.8-3.4c-0.6-0.1-1.3-0.2-1.9-0.4L34,66.6l-1.3-4.3c-0.6-0.3-1.1-0.7-1.6-1.1l-4.4,0.4l0.5-4.4c-0.4-0.5-0.7-1.1-1.1-1.6
		l-4.2-1.3l2.1-3.9c-0.2-0.6-0.3-1.3-0.4-1.9l-3.4-2.8l3.4-2.8c0.1-0.6,0.2-1.3,0.4-1.9L22,37.1l4.3-1.3c0.3-0.6,0.7-1.1,1.1-1.6
		L27,29.8l4.4,0.5c0.5-0.4,1.1-0.7,1.6-1.1l1.3-4.2l3.9,2.1c0.6-0.2,1.3-0.3,1.9-0.4l2.8-3.4L45.7,26.8z" style="fill: var(--primary-color)"/>
</g>
<g id="icon-blue-star">
	<path class="st1" d="M108.1,28c0.6,0.1,1.3,0.2,1.9,0.4l3.9-2.1l1.3,4.3c0.6,0.3,1.1,0.7,1.6,1.1l4.4-0.4l-0.5,4.4
		c0.4,0.5,0.7,1.1,1.1,1.6l4.2,1.3l-2.1,3.9c0.2,0.6,0.3,1.3,0.4,1.9l3.4,2.8l-3.4,2.8c-0.1,0.6-0.2,1.3-0.4,1.9l2.1,3.9l-4.3,1.3
		c-0.3,0.6-0.7,1.1-1.1,1.6l0.4,4.4l-4.4-0.5c-0.5,0.4-1.1,0.7-1.6,1.1l-1.3,4.2l-3.9-2.1c-0.6,0.2-1.3,0.3-1.9,0.4l-2.8,3.4
		l-2.8-3.4c-0.6-0.1-1.3-0.2-1.9-0.4l-3.9,2.1l-1.3-4.3c-0.6-0.3-1.1-0.7-1.6-1.1l-4.4,0.4l0.5-4.4c-0.4-0.5-0.7-1.1-1.1-1.6
		l-4.2-1.3l2.1-3.9c-0.2-0.6-0.3-1.3-0.4-1.9l-3.4-2.8l3.4-2.8c0.1-0.6,0.2-1.3,0.4-1.9l-2.1-3.9l4.3-1.3c0.3-0.6,0.7-1.1,1.1-1.6
		L89.3,31l4.4,0.5c0.5-0.4,1.1-0.7,1.6-1.1l1.3-4.2l3.9,2.1c0.6-0.2,1.3-0.3,1.9-0.4l2.8-3.4L108.1,28z" style="fill: var(--secondary-color)"/>
	<path class="st3" d="M106.8,26.8c0.6,0.1,1.3,0.2,1.9,0.4l3.9-2.1l1.3,4.3c0.6,0.3,1.1,0.7,1.6,1.1l4.4-0.4l-0.5,4.4
		c0.4,0.5,0.7,1.1,1.1,1.6l4.2,1.3l-2.1,3.9c0.2,0.6,0.3,1.3,0.4,1.9l3.4,2.8l-3.4,2.8c-0.1,0.6-0.2,1.3-0.4,1.9l2.1,3.9l-4.3,1.3
		c-0.3,0.6-0.7,1.1-1.1,1.6l0.4,4.4l-4.4-0.5c-0.5,0.4-1.1,0.7-1.6,1.1l-1.3,4.2l-3.9-2.1c-0.6,0.2-1.3,0.3-1.9,0.4l-2.8,3.4
		l-2.8-3.4c-0.6-0.1-1.3-0.2-1.9-0.4L95,66.6l-1.3-4.3c-0.6-0.3-1.1-0.7-1.6-1.1l-4.4,0.4l0.5-4.4c-0.4-0.5-0.7-1.1-1.1-1.6
		l-4.2-1.3l2.1-3.9c-0.2-0.6-0.3-1.3-0.4-1.9l-3.4-2.8l3.4-2.8c0.1-0.6,0.2-1.3,0.4-1.9l-2.1-3.9l4.3-1.3c0.3-0.6,0.7-1.1,1.1-1.6
		L88,29.8l4.4,0.5c0.5-0.4,1.1-0.7,1.6-1.1l1.3-4.2l3.9,2.1c0.6-0.2,1.3-0.3,1.9-0.4l2.8-3.4L106.8,26.8z" style="fill: var(--primary-color)"/>
</g>
<g id="icon-yellow-star">
	<polygon class="st1" points="167.3,24.7 175.8,37.7 191,41.8 181.2,54 181.9,69.7 167.4,64.1 152.7,69.7 153.4,54.1 143.6,41.8 
		158.6,37.8 	" opacity="0.5" fill-rule="evenodd" clip-rule="evenodd" style="fill: var(--secondary-color)"/>
	<polygon class="st4" points="166,23.2 174.5,36.2 189.7,40.4 180,52.5 180.6,68.2 166.1,62.7 151.4,68.2 152.2,52.7 142.4,40.4 
		157.4,36.3 	" style="fill: var(--primary-color)"/>
</g>
<g id="icon-excl">
	<path class="st5" d="M336.1,33.2l-0.1,15.7h-6.6L329,33.2H336.1L336.1,33.2z M332.5,50.2c1.2,0,2.2,0.4,3.1,1.3
		c0.9,0.9,1.3,1.9,1.3,3.1c0,1.2-0.4,2.2-1.3,3.1c-0.9,0.8-1.9,1.3-3.1,1.3c-1.3,0-2.3-0.4-3.1-1.2c-0.8-0.8-1.2-1.9-1.2-3.1
		c0-1.2,0.4-2.3,1.3-3.1C330.3,50.6,331.3,50.2,332.5,50.2z"/>
	<path class="st5" d="M346.3,32.2c-3.9-3.7-9-5.4-14-5.2c-5,0.2-9.9,2.2-13.6,6.2c-3.7,3.9-5.4,9-5.2,14c0.2,5,2.2,9.9,6.2,13.6
		c3.3,3.1,7.5,4.8,11.7,5.2c7.2,0.6,10.4-3.7,13.3-2.2c2.4,1.3,5.1,2.7,7.1,0.6c2-2.1,0.5-4.9-0.8-7.3c-1.6-3.1,2.4-6.4,1.3-13.6
		C351.6,39.3,349.6,35.3,346.3,32.2L346.3,32.2z M332.4,30.7c4-0.1,8.1,1.3,11.3,4.2c2.7,2.5,4.3,5.7,4.8,9.1
		c0.5,3.4-0.1,7-1.8,10.1c-0.8,1.4,0,2.9,0.9,4.6c0.7,1.3,1.5,2.8,1.3,3c0,0.1-1.5-0.7-2.6-1.3c-1.8-0.9-3.3-1.8-4.7-0.8
		c-3,2-6.5,2.8-10,2.6c-3.4-0.3-6.7-1.7-9.4-4.2c-3.2-3-4.9-6.9-5-11c-0.1-4,1.3-8.1,4.2-11.3C324.4,32.5,328.4,30.8,332.4,30.7z"/>
</g>
<path id="icon-respond" class="st5" d="M397.5,35c-3.2-3-7.2-4.4-11.2-4.2c-4,0.1-8,1.8-10.9,5c-3,3.2-4.4,7.2-4.2,11.2
	c0.1,4,1.8,8,5,10.9c2.7,2.5,6,3.9,9.4,4.2c3.5,0.3,7-0.6,10-2.5c1.4-0.9,2.9-0.1,4.7,0.8c1.2,0.6,2.6,1.4,2.6,1.3
	c0.2-0.2-0.6-1.7-1.3-3c-0.9-1.7-1.7-3.2-0.9-4.6c1.7-3.1,2.3-6.7,1.8-10.1C401.8,40.7,400.2,37.5,397.5,35L397.5,35z M378.7,43.4
	c1.9,0,3.5,1.6,3.5,3.5c0,1.9-1.6,3.5-3.5,3.5c-1.9,0-3.5-1.6-3.5-3.5C375.2,45,376.8,43.4,378.7,43.4L378.7,43.4z M386.8,43.4
	c1.9,0,3.5,1.6,3.5,3.5c0,1.9-1.6,3.5-3.5,3.5c-1.9,0-3.5-1.6-3.5-3.5C383.3,45,384.9,43.4,386.8,43.4L386.8,43.4z M394.9,43.4
	c1.9,0,3.5,1.6,3.5,3.5c0,1.9-1.6,3.5-3.5,3.5s-3.5-1.6-3.5-3.5C391.4,45,393,43.4,394.9,43.4L394.9,43.4z M386.2,27.1
	c5-0.2,10,1.6,13.9,5.2c3.3,3.1,5.3,7,5.9,11.2c1.1,7.1-2.9,10.4-1.3,13.5c1.3,2.3,2.7,5.1,0.8,7.3c-2,2.1-4.8,0.7-7.1-0.6
	c-2.9-1.5-6,2.7-13.2,2.1c-4.2-0.4-8.3-2.1-11.6-5.2c-3.9-3.7-6-8.6-6.1-13.5c-0.2-5,1.6-10,5.2-13.9
	C376.3,29.3,381.2,27.2,386.2,27.1z"/>
<path id="icon-consult" class="st5" d="M212.1,32.3c3.9-3.7,8.9-5.4,13.9-5.2c5,0.2,9.9,2.2,13.5,6.1c3.7,3.9,5.4,8.9,5.2,13.9
	c-0.2,5-2.2,9.9-6.1,13.5c-3.3,3.1-7.4,4.8-11.6,5.2c-7.2,0.6-10.3-3.7-13.2-2.1c-2.3,1.2-5.1,2.7-7.1,0.6c-2-2.1-0.5-4.9,0.8-7.3
	c1.6-3.1-2.4-6.3-1.3-13.5C206.8,39.3,208.8,35.4,212.1,32.3L212.1,32.3z M228.4,49.7c0-0.9,0.1-1.4,0.2-1.7
	c0.2-0.3,0.6-0.6,1.3-0.9c2.2-1.1,3.3-3,3.3-5.7c0-2.2-0.8-4-2.3-5.5c-1.5-1.5-3.4-2.2-5.7-2.2c-1.3,0-2.5,0.3-3.7,0.9
	c-1.2,0.6-2.1,1.4-2.9,2.4c-1,1.4-1.5,3.1-1.5,5.3h6.2c0-1.6,0.6-2.4,1.7-2.4c0.4,0,0.8,0.1,1.1,0.4c0.3,0.3,0.4,0.7,0.4,1.1
	c0,0.7-0.5,1.3-1.4,1.7l-1.2,0.5c-0.9,0.4-1.5,0.9-1.8,1.6c-0.3,0.7-0.5,1.8-0.5,3.3v1.1H228.4L228.4,49.7z M225.2,50.7
	c-1.2,0-2.2,0.4-3,1.2c-0.8,0.8-1.2,1.8-1.2,3c0,1.2,0.4,2.2,1.2,3c0.8,0.8,1.8,1.2,3,1.2c1.2,0,2.2-0.4,3-1.2
	c0.8-0.8,1.2-1.8,1.2-3c0-1.2-0.4-2.2-1.3-3C227.4,51.1,226.3,50.7,225.2,50.7L225.2,50.7z M225.9,30.8c-4-0.1-8.1,1.3-11.2,4.2
	c-2.7,2.5-4.3,5.7-4.8,9c-0.5,3.4,0.1,7,1.8,10.1c0.8,1.4,0,2.9-0.9,4.6c-0.7,1.3-1.5,2.8-1.3,3c0.1,0.1,1.4-0.7,2.6-1.3
	c1.7-0.9,3.3-1.7,4.7-0.8c3,2,6.5,2.8,10,2.5c3.4-0.3,6.7-1.7,9.4-4.2c3.2-3,4.8-6.9,5-10.9c0.1-4-1.3-8.1-4.2-11.2
	C233.8,32.6,229.9,30.9,225.9,30.8z"/>
<path id="icon-consult-blue" class="st6" d="M235.2,142.2c1.8-1.7,4.1-2.5,6.4-2.4c2.3,0.1,4.6,1,6.2,2.8c1.7,1.8,2.5,4.1,2.4,6.4
	c-0.1,2.3-1,4.6-2.8,6.2c-1.5,1.4-3.4,2.2-5.4,2.4c-3.3,0.3-4.8-1.7-6.1-1c-1.1,0.6-2.4,1.3-3.3,0.3c-0.9-1-0.2-2.3,0.4-3.4
	c0.8-1.4-1.1-2.9-0.6-6.2C232.8,145.4,233.7,143.6,235.2,142.2L235.2,142.2z M242.8,150.2c0-0.4,0-0.7,0.1-0.8
	c0.1-0.1,0.3-0.3,0.6-0.4c1-0.5,1.5-1.4,1.5-2.6c0-1-0.4-1.9-1.1-2.5c-0.7-0.7-1.6-1-2.6-1c-0.6,0-1.1,0.1-1.7,0.4
	c-0.5,0.3-1,0.6-1.3,1.1c-0.5,0.6-0.7,1.4-0.7,2.4h2.8c0-0.7,0.3-1.1,0.8-1.1c0.2,0,0.4,0.1,0.5,0.2c0.1,0.1,0.2,0.3,0.2,0.5
	c0,0.3-0.2,0.6-0.6,0.8l-0.6,0.2c-0.4,0.2-0.7,0.4-0.8,0.8c-0.2,0.3-0.2,0.8-0.2,1.5v0.5H242.8L242.8,150.2z M241.3,150.7
	c-0.5,0-1,0.2-1.4,0.6c-0.4,0.4-0.6,0.8-0.6,1.4c0,0.6,0.2,1,0.5,1.4c0.4,0.4,0.8,0.5,1.4,0.5c0.5,0,1-0.2,1.4-0.6
	c0.4-0.4,0.6-0.8,0.6-1.4c0-0.5-0.2-1-0.6-1.4C242.3,150.9,241.8,150.7,241.3,150.7L241.3,150.7z M241.6,141.5
	c-1.9-0.1-3.7,0.6-5.2,1.9c-1.2,1.1-2,2.6-2.2,4.2c-0.2,1.6,0,3.2,0.8,4.7c0.4,0.6,0,1.3-0.4,2.1c-0.3,0.6-0.7,1.3-0.6,1.4
	c0,0,0.7-0.3,1.2-0.6c0.8-0.4,1.5-0.8,2.1-0.4c1.4,0.9,3,1.3,4.6,1.2c1.6-0.1,3.1-0.8,4.3-1.9c1.5-1.4,2.2-3.2,2.3-5
	c0.1-1.9-0.6-3.7-1.9-5.2C245.3,142.3,243.4,141.6,241.6,141.5z"/>
<path id="icon-video" class="st5" d="M292.3,32.2c-3.9-3.7-9-5.4-14-5.2c-5,0.2-9.9,2.2-13.6,6.2c-3.7,3.9-5.4,9-5.2,14
	c0.2,5,2.2,9.9,6.2,13.6c3.3,3.1,7.5,4.8,11.7,5.2c7.2,0.6,10.4-3.7,13.3-2.2c2.4,1.3,5.1,2.7,7.1,0.6c2-2.1,0.5-4.9-0.8-7.3
	c-1.6-3.1,2.4-6.4,1.3-13.6C297.6,39.3,295.6,35.3,292.3,32.2L292.3,32.2z M284.1,43.6l0.1-0.1l4.2-3v5.9v5.9l-4.2-3l-0.1-0.1v0.5
	c0,1.7-1.4,3.1-3.1,3.1h-8c-1.7,0-3.1-1.4-3.1-3.1v-6.7c0-1.7,1.4-3.1,3.1-3.1h8c1.7,0,3.1,1.4,3.1,3.1V43.6L284.1,43.6z
	 M278.4,30.7c4-0.1,8.1,1.3,11.3,4.2c2.7,2.5,4.3,5.7,4.8,9.1c0.5,3.4-0.1,7-1.8,10.1c-0.8,1.4,0,2.9,0.9,4.6c0.7,1.3,1.5,2.8,1.3,3
	c-0.1,0.1-1.5-0.7-2.6-1.3c-1.8-0.9-3.3-1.8-4.7-0.8c-3,2-6.5,2.8-10,2.6c-3.4-0.3-6.7-1.7-9.4-4.2c-3.2-3-4.9-6.9-5-11
	c-0.1-4,1.3-8.1,4.2-11.3C270.4,32.5,274.4,30.8,278.4,30.7z"/>
<g id="icon-event">
	<path class="st7" d="M113.2,100.3c0.2,0,0.5,0.1,0.6,0.2c0.1,0,0.2,0.1,0.2,0.2c0.2,0.2,0.4,0.4,0.6,0.6c0.6,1-0.4,2.1-1.2,2.1
		c-0.3,0-0.4,0-0.8-0.2c-0.3-0.2-0.6-0.5-0.7-0.8C111.4,101.3,112.5,100.3,113.2,100.3L113.2,100.3z M111.8,89.7
		c-0.2,0-0.3,0-0.5,0.2c-0.3,0.3-0.2,0.5-0.3,0.9l-0.3,2c0,0.2,0,0.4-0.1,0.5l-1.3,0.1c-0.9,0.1-1.6,0.9-1.9,1.7
		c-0.1,0.2-0.4,3-0.4,3.2c0,0.4-0.1,0.9-0.1,1.3c0,0.4-0.1,1-0.1,1.5c0,0.6,0.3,1.4,0.6,1.7c0.4,0.5,1.8,1.8,2.3,2.4l5,5
		c0.3,0.3,0.8,0.5,1.3,0.5h0.1c0.5,0,0.6,0,1.1-0.2c0.3-0.1,0.4-0.3,0.6-0.5l6.3-6.3c0.2-0.2,0.3-0.3,0.4-0.6
		c0.1-0.3,0.2-0.5,0.2-0.8V102c0-0.3-0.1-0.6-0.2-0.9c-0.2-0.4-1.3-1.5-1.7-1.8l-5.6-5.6c-0.5-0.5-1.3-0.9-2.1-0.9
		c-0.3,0-2.1,0.2-2.5,0.3c-0.1,0-0.3,0-0.4,0c0-0.3,0.4-2.5,0.4-2.7c0-0.4-0.3-0.7-0.6-0.7H111.8L111.8,89.7z M116.5,101.4
		c0-0.3,0-0.4,0.2-0.8c0.2-0.3,0.5-0.6,0.8-0.7c0.2-0.1,0.4-0.1,0.6-0.1c0.2,0,0.4,0.1,0.5,0.2c0.9,0.6,1.2,1.6,0.4,2.4
		C117.9,103.7,116.5,102.3,116.5,101.4L116.5,101.4z M114.6,98.6c0,0.1,0.1,0.7,0.2,0.9l0.9,4.3c0.1,0.3,0.1,0.6,0.2,0.8l0.2,0.9
		c0.1,0,0.7-0.7,0.7-0.7c0-0.1-0.5-2.4-0.5-2.6c-0.2-0.8-0.4-1.8-0.5-2.6l-0.4-1.7C115.2,97.9,114.6,98.6,114.6,98.6L114.6,98.6z
		 M110.2,97c0,0.8,1.2,1,1.4,0.1c0-0.2,0.1-0.4,0.1-0.6c0-0.1,0-0.2,0-0.3c0-0.1,0-0.2,0-0.3c0.1,0,0.3,0.3,0.3,0.4
		c0.3,0.6,0.2,1.3-0.3,1.7c-0.2,0.2-0.7,0.4-1,0.4c-0.6-0.1-1-0.3-1.2-0.8c-0.4-0.9,0.3-1.7,0.7-1.8C110.4,95.9,110.2,96.6,110.2,97
		L110.2,97z M108.2,101c0-0.2,0-0.4,0-0.6c0.1-1.2,0.3-2.5,0.4-3.7c0-0.4,0.1-1.2,0.2-1.5c0.3-0.5,0.8-0.5,1.2-0.5
		c0.3,0,0.3,0,0.3-0.1c0,0,0-0.1,0-0.1c0-0.2,0.1-0.4,0.1-0.5c-0.1,0-0.5,0.1-0.6,0.1c-0.4,0.1-0.6,0-1,0.2
		c-0.1,0.1-0.3,0.2-0.4,0.3c-0.6,0.6-0.5,1.1-0.6,1.9c-0.1,0.7-0.2,1.6-0.3,2.3l-0.2,1.7c-0.1,0.7-0.1,1.3,0.4,2
		c0.2,0.3,6,6,6.8,6.8c0.3,0.3,0.5,0.6,0.9,0.7c0.4,0.2,0.9,0.1,1.2-0.1c0.2-0.1,1.3-1.3,1.5-1.4c0.5-0.5,5.2-5.1,5.4-5.4
		c0.4-0.5,0.3-1.3-0.1-1.7c-0.4-0.5-1.2-1.2-1.6-1.6l-2.2-2.2c-0.2-0.2-3.1-3.1-3.4-3.4c-0.3-0.3-0.9-0.5-1.4-0.5
		c-0.3,0-1.5,0.2-1.9,0.2c-0.3,0-0.6,0.1-0.9,0.1c-0.3,0-0.2,0-0.2,0.3c0,0.1-0.1,0.3-0.1,0.4c0.1,0,0.3,0,0.4,0l1.1-0.1
		c0.3,0,0.5-0.1,0.8-0.1c0.6-0.1,1-0.2,1.6,0.1c0.2,0.1,0.3,0.3,0.5,0.4l6.7,6.7c0.2,0.2,0.3,0.3,0.3,0.7c0,0.3-0.2,0.4-0.4,0.6
		l-6.2,6.2c-0.2,0.2-0.3,0.3-0.6,0.3c-0.3,0-0.5-0.2-0.7-0.3l-5.5-5.5c-0.3-0.3-1.3-1.2-1.5-1.5C108.3,101.7,108.2,101.4,108.2,101z
		"/>
	<path class="st7" d="M117.3,101.2c0,0.3,0.2,0.5,0.3,0.6c0.5,0.6,1.2,0.3,1.2-0.3c0-0.3-0.6-0.9-0.9-0.9h-0.1
		C117.5,100.7,117.3,101,117.3,101.2z"/>
	<path class="st7" d="M112.5,101.7c0,0.5,0.6,1,0.9,1h0.1c0.2,0,0.5-0.2,0.5-0.6c0-0.3-0.7-1.2-1.2-0.9
		C112.7,101.3,112.5,101.5,112.5,101.7z"/>
</g>
<g id="icon-price">
	<path class="st7" d="M68.5,96.6V110c0,0.4,0.4,0.7,0.8,0.7h17.6c0.3,0,0.7-0.2,0.8-0.5c0.1-0.2,0-0.9,0-1.2c0-0.8,0-1.7,0-2.5
		c-0.1,0-0.1,0-0.1,0h-1.5c-1,0-1.9-0.6-2.4-1.4c-0.5-1-0.3-2,0.3-2.8c0.2-0.2,0.5-0.4,0.7-0.6c0.7-0.4,1.4-0.3,2.2-0.3l0.6,0
		c0.1,0,0.1,0,0.2,0l0-4.4c0-0.3-0.1-0.4-0.2-0.5c-0.3-0.3-0.7-0.2-1.2-0.2H70.8c-0.3,0-0.5,0-0.7,0c-0.1,0-0.2,0-0.3-0.1
		c-0.2-0.1-0.2-0.5,0.1-0.5l1.7,0c0.2,0,0.2,0,0.4-0.1l0.6-0.4c0.1,0,0.1-0.1,0.1-0.1h-2.2c-0.3,0-0.5,0-0.7,0c-0.4,0-0.8,0.1-1,0.4
		C68.6,95.6,68.5,96.1,68.5,96.6z"/>
	<path class="st7" d="M72.3,95.9l3.5,0l1.9-0.7c0.6-0.2,1.3-0.5,1.9-0.7l2.8-1.1c0.1,0,0.2-0.1,0.3-0.1l0.6-0.2c0-0.1-2-2.7-2.3-3.1
		c0-0.1-0.1-0.2-0.2-0.2c-0.1,0-0.2,0.1-0.3,0.2L79,91c-0.1,0.1-0.2,0.1-0.3,0.2c-0.1,0.1-0.2,0.1-0.3,0.2c-0.5,0.3-1,0.7-1.5,1.1
		c0,0-0.1,0.1-0.1,0.1c-0.1,0.1-0.2,0.1-0.3,0.2l-1.5,1.1c0,0-0.1,0.1-0.1,0.1l-2.1,1.5C72.7,95.6,72.3,95.8,72.3,95.9z"/>
	<path class="st7" d="M85,103.9c0-0.6,0.6-1.1,1.2-0.9c0.6,0.1,1,0.9,0.6,1.5c-0.1,0.1-0.2,0.3-0.4,0.3
		C85.7,105.1,85,104.6,85,103.9L85,103.9z M84.1,103.9c0,0.3,0.1,0.6,0.2,0.8c0.1,0.1,0.1,0.2,0.2,0.3c0.3,0.5,0.9,0.9,1.5,0.9h1.7
		c0.1,0,0.1,0,0.1-0.1c0.1-0.1,1.1-0.9,1.1-1c0-0.1,0-0.6,0-0.8c0-0.1,0-0.2,0-0.4V101c-0.3,0.2-1,0.8-1.2,1c-0.1,0-0.1,0-0.2,0
		c-0.5,0-1.4,0-1.9,0.1c-0.6,0.1-1.1,0.6-1.3,1.1C84.1,103.3,84.1,103.6,84.1,103.9z"/>
	<path class="st7" d="M77.3,95.9h8.3c0-0.1-0.1-0.3-0.1-0.3l-0.9-2.3l-4.6,1.7c-0.3,0.1-0.6,0.2-0.9,0.3L77.3,95.9z"/>
	<path class="st7" d="M86.1,95.6c0.3,0,0.6,0,0.9,0c0.6,0,1.1-0.1,1.2,0.6c0,0.3,0,4.1,0,4.5l0.5-0.2c0,0,0.1,0,0.1-0.1v-4.5
		c0-0.3-0.3-0.7-0.6-0.9c-0.3-0.2-0.9-0.1-1.4-0.1c-0.3,0-0.7,0-1,0C85.9,95,86.1,95.5,86.1,95.6z"/>
	<path class="st7" d="M88.2,105.9v3.7c0.3,0,0.6-0.3,0.6-0.5c0.1-0.2,0-0.9,0-1.1c0-0.8,0-1.6,0-2.3c-0.1,0-0.4,0.2-0.5,0.2
		C88.3,105.8,88.2,105.9,88.2,105.9z"/>
</g>
<g id="icon-equip">
	<path class="st7" d="M188.6,106.3c-0.5,0-1-0.1-1.3-0.1c-0.3-0.1-0.8-0.2-1.1-0.4l-0.5-0.2c-0.7-0.4-1.5-1.1-2-1.8
		c-0.7-1-1.1-2.3-1.1-3.6c0-0.7,0.2-1.3,0.4-1.9c0.2-0.6,0.5-1,0.8-1.5c0.2-0.2,0.3-0.4,0.5-0.6c0.4-0.5,1.4-1.2,2-1.4
		c0.1,0,0.1-0.1,0.2-0.1c0.4-0.2,1.1-0.4,1.6-0.4c1.4-0.1,2.4,0.1,3.7,0.8c0.3,0.1,0.5,0.3,0.7,0.5c2,1.5,2.8,4,2.1,6.4
		c-0.1,0.5-0.3,0.9-0.6,1.4l-0.6,0.8c-0.4,0.4-0.7,0.7-1.2,1.1c-0.4,0.3-1,0.6-1.5,0.8C190,106.1,189.3,106.3,188.6,106.3
		L188.6,106.3z M187.9,89.7c-0.1,0-0.1,0-0.3,0c-0.3,0-0.4,0-0.5,0.2c-0.3,0.3-0.3,0.6-0.4,1c0,0.2-0.2,1.2-0.2,1.4
		c0,0.1-0.6,0.2-0.7,0.3c-0.3,0.1-0.6,0.3-0.9,0.4c-0.1,0.1-0.3,0.2-0.4,0.2c-0.1,0-0.3-0.2-0.4-0.2l-1.2-0.8
		c-0.1-0.1-0.3-0.2-0.5-0.2c-0.3,0-0.5,0.2-0.8,0.4c-0.3,0.3-0.9,0.9-1.1,1.2c-0.4,0.5-0.3,0.7,0,1.2l1,1.5c0,0,0,0,0,0l-0.1,0.1
		c-0.2,0.4-0.3,0.7-0.5,1.1c-0.5,1.4,0.1,0.7-2.2,1.3c-0.2,0.1-0.4,0.1-0.5,0.4c-0.1,0.1-0.1,0.4-0.1,0.7v1.5c0,0.3,0.1,0.5,0.2,0.7
		c0.2,0.2,0.4,0.2,0.7,0.2c0.5,0.1,1.1,0.2,1.6,0.3c0.1,0.6,0.5,1.3,0.8,1.9c0,0.1,0.1,0.2,0.1,0.3l-1,1.5c-0.2,0.3-0.2,0.3-0.2,0.6
		c0,0.2,0.3,0.5,0.4,0.6l0.9,0.9c0.2,0.2,0.5,0.5,0.8,0.5c0.3,0,0.8-0.4,1.1-0.6l1-0.7c0.1,0,0.5,0.2,0.6,0.3
		c0.5,0.2,1.2,0.4,1.4,0.5c0.1,0.1,0.1,0.4,0.2,0.5c0.1,0.5,0.2,1,0.3,1.5c0,0.1,0,0.2,0.1,0.3c0.2,0.3,0.5,0.3,0.9,0.3h1.3
		c0.6,0,0.9,0,1.1-0.7c0.1-0.2,0.1-0.5,0.1-0.7c0-0.3,0.1-0.8,0.2-1.1c0-0.1,0.4-0.2,0.6-0.3c0.1,0,0.2-0.1,0.3-0.1
		c0.2-0.1,1.1-0.5,1.2-0.5c0.1,0,1.5,1.2,1.9,1.2c0.1,0,0.3,0,0.4-0.1c0.2-0.1,1.4-1.3,1.7-1.7c0.2-0.3,0.2-0.5,0-0.8l-0.8-1.1
		c-0.1-0.1-0.2-0.2-0.3-0.4c-0.1-0.2,0-0.2,0.1-0.4c0.2-0.4,0.4-0.9,0.6-1.3c0.2-0.6,0-0.5,0.4-0.5c0.6-0.1,1.3-0.2,1.9-0.4
		c0.1,0,0.1,0,0.2-0.1c0.2-0.2,0.2-0.5,0.2-0.7V99c0,0-0.3-0.4-0.4-0.4c-0.2-0.1-0.5-0.1-0.7-0.1c-0.2,0-0.5-0.1-0.7-0.1
		c-0.2,0-0.4-0.1-0.7-0.1c-0.2,0-0.2-0.2-0.3-0.5c-0.1-0.4-0.3-0.8-0.5-1.1c-0.1-0.1-0.2-0.4-0.3-0.5c0.4-0.6,0.8-1.1,1.2-1.7
		c0.1-0.1,0.1-0.2,0.1-0.4c0-0.2,0-0.3-0.1-0.4c-0.1-0.1-0.1-0.2-0.2-0.3c-0.2-0.3-0.5-0.6-0.8-0.8l-0.4-0.3
		c-0.2-0.1-0.3-0.3-0.6-0.3c-0.2,0-0.4,0.2-0.6,0.2c-0.1,0.1-0.2,0.1-0.2,0.2c-0.1,0.1-0.2,0.1-0.3,0.2l-1,0.7l-0.6-0.3
		c-0.1-0.1-0.2-0.1-0.3-0.1c-0.1,0-0.2-0.1-0.3-0.1c-0.2-0.1-0.5-0.2-0.7-0.3c-0.2-0.1-0.2-0.1-0.2-0.3c-0.1-0.5-0.2-1.7-0.4-2
		c-0.1-0.1-0.1-0.2-0.2-0.2c-0.1-0.1-0.2-0.1-0.4-0.1c-0.3,0-0.6,0-1,0H187.9z"/>
	<path class="st7" d="M184.4,100.2c0,1,0.3,1.9,0.9,2.7c0,0.1,0.1,0.1,0.1,0.1c0.2,0.3,0.9,0.8,1.3,1c0.7,0.3,1.1,0.4,1.9,0.4
		c1.1,0,2.1-0.5,2.8-1.2c0,0,0.1-0.1,0.1-0.1l0.2-0.3c0-0.1,0.1-0.1,0.1-0.1c1-1.4,1-3.3,0-4.7c-0.3-0.5-0.9-1-1.4-1.2
		c-0.1-0.1-0.2-0.1-0.4-0.2c-0.3-0.1-0.4-0.2-0.8-0.3c-1.2-0.3-2.3,0-3.3,0.6c-0.3,0.2-0.4,0.3-0.6,0.5c-0.1,0.1-0.2,0.2-0.2,0.3
		c0,0.1-0.1,0.1-0.1,0.1l-0.3,0.5c-0.1,0.2-0.2,0.5-0.3,0.7c0,0.1-0.1,0.3-0.1,0.4C184.5,99.5,184.4,99.9,184.4,100.2z"/>
</g>
<g id="icon-prog">
	<path class="st7" d="M294,93h1.6v-0.8c0-0.4,0.7-0.7,1-0.8c0.7-0.1,1.4-0.1,1.9,0.4c0.1,0.1,0.2,0.1,0.2,0.3c0,0.1,0,0.8,0,0.9h1.6
		v1.6H294V93L294,93z M291.6,93c-0.3,0-0.6,0.2-0.7,0.4c0,0,0,0.1,0,0.1l0,0c0,0,0,0,0,0c0,0.1-0.1,0.2-0.1,0.4v14.4
		c0,0.5,0.3,0.8,0.9,0.8h11.2c0.3,0,0.5-0.1,0.6-0.2c0.1-0.1,0.2-0.3,0.2-0.6V93.8c0-0.1,0-0.3-0.1-0.4c-0.1-0.3-0.4-0.5-0.8-0.5
		H302v3.2c-0.1,0-9.6,0-9.7,0V93H291.6L291.6,93z M294.5,91.3h-2.9c-0.7,0-1.3,0.2-1.8,0.7c-0.1,0.1-0.2,0.2-0.2,0.3
		c-0.3,0.4-0.5,0.8-0.5,1.3v14.7c0,0.4,0.2,0.9,0.4,1.2c0.3,0.4,0.6,0.7,1,0.9c0.2,0.1,0.6,0.2,0.9,0.2h11.5c0.3,0,0.7-0.1,0.9-0.2
		c0.1,0,0.1-0.1,0.2-0.1c0.2-0.1,0.2-0.1,0.4-0.3l0.1-0.1c0,0,0,0,0,0c0,0,0,0,0,0l0,0c0,0,0-0.1,0.1-0.1c0.1-0.1,0.1-0.1,0.3-0.3
		c0.2-0.3,0.3-0.7,0.3-1.1V93.7c0-0.5-0.2-0.9-0.5-1.3c0,0,0,0,0,0l-0.2-0.2c0,0,0,0-0.1-0.1c-0.1-0.1-0.2-0.1-0.3-0.2l-0.1-0.1
		c-0.2-0.1-0.4-0.2-0.7-0.3c-0.4-0.1-1.2-0.1-1.6-0.1c-0.6,0-1.3,0-1.9,0l-0.2-0.4c-0.2-0.5-0.4-0.7-0.9-0.9c-0.4-0.2-0.6-0.2-1-0.3
		l-0.3,0c-0.2,0-0.4,0-0.6,0c0,0-0.1,0-0.1,0c-0.2,0-0.5,0.1-0.7,0.1c-0.4,0.1-0.4,0.1-0.7,0.2c-0.1,0,0,0-0.1,0
		C294.6,90.5,294.8,90.7,294.5,91.3z"/>
	<path class="st7" d="M297.3,103.9c0,0.1,0.5,0.6,0.6,0.6l0.5,0.6c0,0,0.1,0,0.1,0.1c0,0-0.2,0.2-0.2,0.2l-1,1
		c0,0.1,0.2,0.2,0.3,0.3l0.9,0.9c0.1,0,0.6-0.5,0.6-0.6l0.6-0.6l1.3,1.2c0.1,0,0.5-0.5,0.6-0.6c0.1-0.1,0.5-0.5,0.6-0.6l-1.2-1.2
		l1.2-1.2l-1.1-1.2c-0.1,0-0.3,0.3-0.4,0.4l-0.9,0.8l-1.2-1.2c-0.1,0-0.8,0.7-0.9,0.8C297.5,103.7,297.3,103.8,297.3,103.9z"/>
	<path class="st7" d="M297.1,99c0,0.1,0.4,0.4,0.5,0.4l0.8,0.8c0,0,0,0,0.1,0.1l1,1c0,0,0,0,0,0c0,0,0.1,0.1,0.1,0.1
		c0.1,0,0.4-0.4,0.5-0.5l0.2-0.2c0,0,0,0,0,0l0-0.1c0,0,0.1,0,0.1-0.1l1.3-1.3c0,0,0,0,0,0l0,0c0,0,0,0,0,0l0,0c0,0,0,0,0,0
		c0,0,0.1,0,0.1-0.1c-0.1-0.1-0.2-0.2-0.2-0.2c0,0,0,0,0,0c0,0,0,0,0,0c0,0,0,0,0,0l-0.1-0.1c-0.2-0.2-0.7-0.7-0.8-0.8l-1,1
		c-0.1,0.1-0.2,0.3-0.3,0.3c-0.1-0.1-0.4-0.4-0.4-0.4c-0.2-0.2-0.3-0.3-0.5-0.5l-0.2-0.2c0,0-0.1,0-0.1-0.1
		c-0.1-0.1-0.1-0.1-0.2-0.2c-0.1,0-0.1,0.1-0.1,0.1l-0.2,0.2c-0.2,0.2-0.5,0.6-0.6,0.7C297.2,98.9,297.1,98.9,297.1,99z"/>
	<rect x="292.4" y="99.4" class="st7" width="3.2" height="1.6"/>
	<rect x="292.4" y="104.2" class="st7" width="3.2" height="1.6"/>
</g>
<g id="icon-spec">
	<path class="st7" d="M147.9,101.4c0,0.5,0.4,1,0.9,1.1c0.2,0.1,0.4,0,0.6,0c0,0.2,0,0.4,0.1,0.5c0,0.2,0,0.4,0.1,0.5l0.7,6.2
		c0,0.3,0,0.5,0.2,0.7c0.1,0.1,0.3,0.2,0.4,0.2h1.1c0.3,0,0.6-0.2,0.7-0.5l0.8-7.1c0-0.1,0-0.2,0-0.3c0-0.1,0-0.2,0-0.3
		c0.5,0,0.8,0,1.2-0.3c0.5-0.5,0.3-1.1,0.2-1.8c-0.1-0.9-0.2-2-0.3-3l-0.2-1.5c-0.1-0.7,0-1.1-0.7-1.5c-0.1-0.1-0.3-0.1-0.5-0.1
		h-3.8c-0.5,0-1.1,0.5-1.1,1.1l-0.2,2c0,0.3-0.1,0.6-0.1,1c0,0.3-0.1,0.7-0.1,1C148.1,99.8,147.9,101.2,147.9,101.4z"/>
	<path class="st7" d="M145.6,110h1.1c0.2,0,0.3-0.1,0.4-0.1c0.2-0.2,0.2-0.4,0.2-0.6c0-0.1,0-0.2,0-0.2c0.1-1,0.3-2,0.4-3l0.2-1.5
		c0-0.3,0.2-1.8,0.2-2c0,0-0.3-0.3-0.3-0.3c-0.2-0.2-0.3-0.5-0.3-0.8c0-0.2,0.2-1.7,0.2-2.1c0-0.2,0-0.4,0.1-0.5
		c0.1-0.7,0.2-1.5,0.2-2.1c0-0.3,0.1-0.7,0.1-1c0-0.5,0.1-0.6,0.2-1c-0.1-0.1-0.2-0.1-0.4-0.1h-3.6c-0.4,0-0.7,0.2-0.8,0.4
		c-0.2,0.3-0.2,0.5-0.3,1l-0.1,1.1c-0.1,0.7-0.2,1.5-0.3,2.3l-0.2,1.7c-0.1,0.5,0.2,1,0.7,1.2c0.2,0.1,0.3,0.1,0.5,0.1
		c0.2,0,0.2,0,0.2,0.1l0.2,1.4c0.1,0.4,0.1,0.7,0.1,1.1l0.3,2.2c0,0.2,0.3,2.3,0.3,2.5c0,0.1,0.1,0.1,0.1,0.2
		C145.2,109.9,145.4,110,145.6,110z"/>
	<path class="st7" d="M154.7,94.6c0.1,0.2,0.2,0,0.3,1l0.6,4.9c0,0.2,0,0.4,0.1,0.6c0,0.1,0,0.1,0,0.2c0,0.4-0.1,0.6-0.3,0.9
		c-0.1,0.2-0.3,0.3-0.5,0.4c0,0.2,0,0.3,0,0.5l0.2,1.5c0.2,1.4,0.3,3,0.5,4.4c0.1,0.4,0,0.6,0.3,0.8c0.1,0.1,0.2,0.2,0.4,0.2h1.1
		c0.3,0,0.6-0.2,0.6-0.5l0.9-7.2c0.4,0,0.8,0,1.1-0.3c0.1-0.1,0.2-0.2,0.2-0.3c0.2-0.4,0.1-0.8,0-1.3l-0.5-4.2c0-0.1,0-0.3-0.1-0.5
		c0-0.3-0.1-0.6-0.3-0.7c-0.1-0.2-0.5-0.3-0.7-0.3h-3.6C154.8,94.6,154.8,94.6,154.7,94.6z"/>
	<path class="st7" d="M149.6,91.6c0,0.6,0.1,1.1,0.6,1.5c0.6,0.6,1.5,0.7,2.2,0.4c0.3-0.1,0.3-0.2,0.5-0.3c0.3-0.3,0.5-0.6,0.6-1
		c0.2-0.7-0.1-1.4-0.5-1.8c-0.6-0.6-1.4-0.7-2.2-0.4c-0.1,0-0.2,0.1-0.3,0.2c0,0-0.1,0.1-0.1,0.1C149.9,90.5,149.6,91,149.6,91.6z"
		/>
	<path class="st7" d="M154.8,92.1c0,0.4,0.2,0.8,0.4,1.2c0.7,0.9,2,0.9,2.7,0.1c0.6-0.6,0.7-1.6,0.2-2.4c-0.1-0.2-0.2-0.2-0.3-0.4
		c0,0-0.1-0.1-0.1-0.1c-0.1-0.1-0.2-0.1-0.3-0.2c-0.4-0.2-0.7-0.2-1.1-0.1c-0.4,0.1-0.7,0.2-0.9,0.5C155,91.2,154.8,91.6,154.8,92.1
		z"/>
	<path class="st7" d="M144.3,92.1c0,0.2,0.1,0.5,0.2,0.7c0.2,0.6,0.9,1.1,1.6,1.1c0.8,0,1.4-0.4,1.8-1.1c0.3-0.6,0.2-1.4-0.3-2
		c-0.1-0.2-0.2-0.2-0.4-0.3c-0.6-0.4-1.5-0.4-2.1,0c-0.4,0.2-0.7,0.7-0.8,1.1C144.3,91.8,144.3,92,144.3,92.1z"/>
</g>
<g id="icon-inf">
	<path class="st7" d="M226.9,97.4c0.6-0.3,1.3-0.4,2.4-1c0.4-0.2,0.7-0.3,1.1-0.6c0.4-0.3,0.7-0.5,1.1-0.7v7.7
		c-0.4-0.1-0.7-0.4-1.1-0.6c-0.4-0.2-0.7-0.4-1.1-0.6c-0.5-0.2-1.9-0.9-2.5-0.9V97.4L226.9,97.4z M219.5,100.2
		c-1.3,0-1.8-2.3,0.1-2.3C221.1,97.9,220.9,100.2,219.5,100.2L219.5,100.2z M217,98.8c0,3.3,2.9,3,3.3,3.3l3.4,4.8
		c1.1,1.5,0.8,1.4,2.2,0.3c1.6-1.2,1.2-0.8-1.1-4.1c-0.2-0.4-0.6-0.7-0.7-1.1c4.6,0,7.9,3.7,8.4,3.7c0.6,0,0.9-0.6,0.9-1.2V93.6
		c0-1.2-0.6-1.1-1.1-1.1c-0.2,0-1,0.8-1.5,1.1c-0.9,0.7-2.4,1.6-3.5,1.9c-4.7,1.6-7.3-0.5-9.3,1.5C217.5,97.3,217,98,217,98.8z"/>
	<path class="st7" d="M234.4,101.6c-0.2,1.1,0,0.8,1.6,2.4c0.4,0.4,1.5,1.7,2,1.7c0.4,0,0.5-0.3,0.5-0.6c0-0.3-3.1-3.3-3.3-3.4
		C234.8,101.5,234.8,101.6,234.4,101.6z"/>
	<path class="st7" d="M234.2,96.2c0.7,1,1,0.2,2.4-1.2c0.5-0.5,1.7-1.4,1.7-2c0-0.4-0.3-0.5-0.6-0.5
		C237.4,92.5,234.3,95.5,234.2,96.2z"/>
	<path class="st7" d="M234.3,99c0,0.3,0.1,0.6,0.5,0.6h4.3c0.6,0,0.6-1,0-1h-4.3C234.5,98.6,234.3,98.8,234.3,99z"/>
</g>
<g id="icon-media">
	<path class="st7" d="M270.4,97.5c0-0.4,0-0.7-0.5-0.7c-0.5,0-0.6,0.4-0.6,0.6l0,1.1c0,0.6,0,1.2,0,1.8c0,2-0.1,3.7-1.9,5
		c-2,1.5-5.5,1.3-7.2-1.1c-0.9-1.3-0.8-2.5-0.8-4.3c0-0.8,0-1.7,0-2.5c0-0.4-0.1-0.7-0.6-0.7c-0.5,0-0.6,0.2-0.6,0.7
		c0,3.2-0.5,6.1,1.8,8.4c1,0.9,2,1.3,3.5,1.6l0,1.7l-2.8,0c-0.1,0.1-1,1.3-1,1.5l9.2,0c-0.3-0.4-0.8-1.3-1.1-1.5
		c-0.6,0-2.3,0.1-2.8,0l0-1.6c1.5-0.3,2.6-0.6,3.6-1.6C271,103.5,270.4,100.6,270.4,97.5z"/>
	<path class="st7" d="M263.9,96.6l-0.4,0c-0.2-1.1,0.1-5.2-0.1-6.9c-0.7,0-0.7,0.2-0.7,0.6c0,0.1,0,0.3,0,0.4l0,4.5
		c0,1.2,0.1,1.5-0.5,1.3l0-6.4c-0.8,0.2-0.7,0.7-0.7,1.1c0,0.6,0,1.2,0,1.8c0,0.9,0.1,2.7,0,3.5l-0.4,0.1c-0.1-0.5,0-4.3,0-5.2
		c-0.7,0.4-0.6,2-0.6,3c0,1.1-0.1,2.4,0,3.5l8,0l0-1.4c0-1.6,0.2-3.8-0.5-4.9c-0.2-0.3-0.1-0.2-0.2-0.2c0,0.9,0.1,4.6,0,5.2l-0.4,0
		c-0.1-0.4,0-5.1-0.1-5.9c-0.2-0.2-0.4-0.4-0.7-0.5c0,0.8,0.1,5.9,0,6.4l-0.4,0c-0.2-1.1,0.2-6.2-0.1-6.7c-0.1-0.2-0.4-0.2-0.7-0.2
		l0,6.8c-0.7,0.2-0.5-0.1-0.5-1.3c0-1.2,0.1-5,0-5.6l-0.7,0L263.9,96.6z"/>
	<path class="st7" d="M262.9,105.2c0,0,0.1,0.1,0.2,0.1c1.8,0.2,3.2,0.2,4.4-1.2c1-1.2,0.8-2.7,0.8-4.1l-8,0
		c-0.1,1.2-0.1,2.4,0.4,3.4C261.1,104.2,262,105,262.9,105.2z"/>
	<polygon class="st7" points="259.6,98.8 260.1,98.8 260.1,97.8 259.6,97.8 	"/>
	<polygon class="st7" points="270.7,98.8 271.2,98.8 271.1,97.8 270.6,97.8 	"/>
	<polygon class="st7" points="268.7,98.8 269.2,98.8 269.1,97.8 268.6,97.8 	"/>
	<polygon class="st7" points="257.5,98.8 258,98.8 258,97.8 257.5,97.8 	"/>
	<rect x="260.3" y="98.6" class="st7" width="8" height="0.8"/>
</g>
<path id="icon-dir" class="st7" d="M38.1,100.1l0,5.1c0.2,0,1.1-0.2,1.3-0.2l0-4.9c0.2,0,0.5-0.1,0.7-0.1c0.2,0,0.4-0.1,0.6-0.1
	c1.3-0.3,2-0.8,2.9-1.6c0.1-0.1,0.3-0.2,0.4-0.4c0.6-0.8,1.1-1.4,1.2-2.5c0-0.2,0.1-0.5,0.1-0.7c0-0.3-0.1-0.3-0.4-0.3H32.6
	c-0.3,0-0.4,0.1-0.4,0.3c0,1.4,0.8,2.8,1.8,3.7l0.6,0.5C35.7,99.6,36.9,100,38.1,100.1L38.1,100.1z M38.1,107.7l0,0.8
	c-1.2,0.1-2.8,1-2.7,2.2l6.8,0c0-0.8-0.5-1.3-0.9-1.6c-0.4-0.3-1.2-0.6-1.8-0.7v-1.1L38.1,107.7L38.1,107.7z M37.5,104.1
	c-0.5,0-1.6,0.3-2.1,0.4c-1.2,0.5-0.5,1,0,1.1c3,0.8,6.1-1.5,8.7,0.1c0.1,0.1,0.3,0.2,0.4,0.3l0.3,0.3c0.4,0.3,0.2,0.8-0.2,0.7
	c-0.2,0-0.7-0.7-1.7-0.8c-1.3-0.2-3,0.4-4.2,0.7c-1.3,0.3-3.2,0.5-4.3-0.1c-1.2-0.6-1.7-2.1-0.6-3.2c0.2-0.2,0.4-0.4,0.7-0.5
	c0.3-0.1,0.6-0.3,0.9-0.3c0.6-0.2,1.4-0.4,2.1-0.5L37.5,104.1L37.5,104.1z M39.2,89.7c0.3,0.1,0.8,0.1,1.4,0.4
	c0.2,0.1,0.1,0.1,0.4,0.1c2.2-0.4,5.2,0.7,6.9,2c0.1,0.1,0.2,0.2,0.3,0.3c0.2,0.2,0.7,0.6,0.8,0.8c0.2,0.3,0.2,0.3,0.5,0.6
	c0.1,0.2,0.3,0.5,0.4,0.7c0.9,1.8,0.6,3.7-0.3,5.4c-0.6,1-1.3,1.8-2.2,2.3c-2.2,1.4-4.7,1.4-7.5,1.6l0-1.9l2.2-0.2
	c0.7-0.1,1.4-0.2,2.1-0.3c0.8-0.2,1.8-0.6,2.5-1.2c0.1-0.1,0.2-0.2,0.3-0.3l0.3-0.3c0.3-0.4,0.6-1,0.9-1.6c0.3-1,0.3-2-0.3-2.9
	c-0.2-0.2-0.3-0.5-0.5-0.7c-0.1-0.1-0.2-0.2-0.3-0.3C47,94.1,47,94.1,46.8,94c-1.2-1.1-3.7-2-5.5-1.7c-0.2,0-0.3,0.2-0.7,0.5
	c-0.5,0.3-1.2,0.5-1.8,0.6c-2.8,0.3-4.3-1.8-2.2-3c0.9-0.5,1.6-0.5,1.8-0.6H39.2z"/>
<g id="icon-subscr">
	<path class="st7" d="M326.8,93.4c-0.3,0-0.4,0.2-0.6,0.4l-1.2,1.7c-0.1,0.2-0.2,0.4-0.4,0.5c-0.1,0.2-0.3,0.4-0.4,0.6
		c-0.1,0.2-0.2,0.3-0.4,0.5c-0.7,1.1-1,0.8,0.6,2.1c0.4,0.3,2.4,2,2.7,2.2c0.5-0.4,0.4-0.6,1.3-0.6c0.6,0,1.2,0.6,1.2,1.3
		c0.4-0.1,0.6-0.9,1.6-0.7c0.3,0.1,0.5,0.3,0.7,0.5c0.2,0.2,0.3,0.6,0.3,1c0.9-0.4,1.9,0.3,1.9,1.1c0,0.3,0,0.3,0,0.5
		c0.2,0.1,0.8,0.6,0.8,1c0,0.8-1,1.1,0.2,1.7c0.7,0.4,1.5,0.2,2.1-0.2c-0.2-0.3-1.4-1.3-1.4-1.5c0-0.1,0-0.1,0.1-0.2
		c0.2,0.1,0.8,0.7,1,0.9c0.3,0.3,0.7,0.7,1.2,0.7c0.9,0,1.2-1,0.8-1.5c-0.1-0.1-0.2-0.2-0.3-0.4l-1.7-1.7c-0.1-0.1-0.3-0.2-0.3-0.4
		c0.3-0.2,0.6,0.3,1,0.7l1.6,1.6c0.3,0.3,0.5,0.6,1.1,0.6c0.6,0,1.2-0.7,0.9-1.3c-0.2-0.6-3.5-3.4-3.5-3.7c0-0.5,0.7,0.3,0.7,0.3
		l2.5,2.5c0.7,0.7,0.7,0.9,1.5,0.9c0.4,0,0.8-0.4,0.8-1c0-0.5-0.4-0.8-0.7-1l-5.1-5.1c-0.1-0.1-0.7-0.8-0.9-0.8
		c-0.6,0-1.6,1.3-2,1.8c-0.1,0.1-0.1,0.1-0.2,0.2c-1.3,1.7-2.7,1-2.7,0.3c0-1.3,0.5-2.3,1.1-3.3c0.4-0.7,0.7-1.1,1.3-1.7l0.4-0.3
		c0.1-0.1,0.1,0,0.1-0.2c-0.2-0.1-1-0.7-2.3-0.7c-1,0-1.8,0.4-2.6,0.7C327.9,94.1,327.4,93.4,326.8,93.4z"/>
	<path class="st7" d="M331.8,98.7c0,0.4,0.1,0.8,0.6,0.8c0.3,0,0.5-0.1,0.7-0.2l1.1-1.1c0.1-0.1,0.1-0.2,0.2-0.3
		c0.1-0.2,0.3-0.3,0.4-0.5c0.4-0.4,0.9-1.1,1.6-1.1c0,0,5.3,5.2,5.5,5.5c0.4-0.2,2.5-1.7,3-2.1c1-0.7,1-0.5,0.3-1.7
		c-0.5-0.9-1-1.7-1.5-2.6c-0.8-1.4-0.6-1.5-1.5-1.3c-2,0.5-2.3-0.4-4.2-1c-1.5-0.5-3.2,0.3-4.3,1.5c-0.1,0.1-0.1,0.2-0.2,0.3
		c-0.5,0.5-1,1.5-1.3,2.2C332.1,97.4,331.8,98.3,331.8,98.7z"/>
	<path class="st7" d="M328.4,104c0,0.4,0,0.6,0.3,0.9c0.7,0.6,1.3,0.1,1.6-0.3c0.3-0.3,1.5-1.4,1.5-1.8v-0.3c0-0.4-0.5-0.8-0.8-0.8
		c-0.8,0-0.9,0.3-1.6,1C329.1,103,328.4,103.6,328.4,104z"/>
	<path class="st7" d="M330.2,105.5c0,0.7,0.4,1,1.1,1c0.5,0,0.9-0.6,1.4-1.1l0.9-0.9c0.4-0.7-0.2-1.5-0.7-1.5c-0.8,0-1,0.4-1.6,1
		C330.9,104.4,330.2,104.9,330.2,105.5z"/>
	<path class="st7" d="M329.2,102.1c0-0.6-0.4-1-1-1c-0.5,0-1,0.6-1.3,0.9c-0.2,0.2-0.3,0.3-0.4,0.7c0,0.3,0.1,0.6,0.3,0.8
		c0.2,0.2,0.5,0.3,0.7,0.3C328.2,103.7,329.2,102.6,329.2,102.1z"/>
	<path class="st7" d="M331.9,106.7c0.3,0.5,1,0.9,1.9,0.9c0.4,0,0.5-0.1,0.8-0.1v-0.1c-0.2-0.1-0.6-0.5-0.6-0.8c0-0.6,1-1.1-0.2-1.9
		L331.9,106.7z"/>
</g>
<g id="icon-breadcrumbs-home">
	<path class="st8" d="M41,155.1c0-1.4-0.3-2.2,1.2-2.2c5.2,0,5-0.4,5,1.8c0,2.1-0.1,3.9,0.2,5.9c0.9,0.3,7.8,0.3,8.8,0
		c0.3-1.1,0.2-7.6,0.2-9.3c0-3.1,0.3-2.7-0.9-3.9l-9.7-9.7c-0.5-0.6-0.9-1.2-1.9-1.3c-0.3,0.1-3.2,3-3.4,3.3l-6.6,6.8
		c-0.5,0.5-1.5,1.2-1.8,1.6c-0.4,0.7-0.2,2.2-0.2,3.1c0,3.1-0.2,6.3,0.2,9.3c0.7,0.2,7.6,0.4,8.8,0C41.1,159.9,41,156.4,41,155.1z"
		/>
	<path class="st8" d="M43.5,129.4c-1,0.4-7.8,7.9-9.4,9.4c-0.4,0.4-0.7,0.6-1.1,1c-0.7,0.7-1.4,1.4-2.1,2.2
		c-0.7,0.7-3.9,3.6-3.9,4.7c0,1.2,1.1,2,2.3,1.5c0.7-0.3,5.6-5.6,6.3-6.4c0.4-0.4,0.7-0.6,1.2-1l5.2-5.4c2-2.1,2.5-1.7,4.8,0.7
		c0.7,0.8,1.3,1.4,2.1,2.2l6.2,6.4c1.9,1.6,3.5,3.9,4.8,3.7c1.2-0.1,1.9-1.5,1-2.6c-1-1.3-6.7-6.7-8.3-8.5c-1.2-1.3-6.1-6.5-7.4-7.5
		C44.6,129.3,44.2,129.2,43.5,129.4z"/>
</g>
<path id="icon-about-addr" class="st6" d="M86.9,137.5c2.4,0,4.7,0.9,6.3,2.4c1.6,1.5,2.6,3.6,2.6,5.9c0,1.9-1.2,4.6-2.7,7.1
	c-2.2,3.7-5.2,7-6.2,7c-0.9,0-4-3.4-6.2-7c-1.5-2.5-2.7-5.2-2.7-7.1c0-2.3,1-4.4,2.6-5.9C82.3,138.4,84.5,137.5,86.9,137.5
	L86.9,137.5z M86.9,141.1c-1.3,0-2.5,0.5-3.4,1.4l0,0c-0.9,0.9-1.4,2.1-1.4,3.4c0,1.3,0.5,2.5,1.4,3.4c0.9,0.9,2.1,1.4,3.4,1.4
	c1.3,0,2.5-0.5,3.4-1.4l0,0c0.9-0.9,1.4-2.1,1.4-3.4c0-1.3-0.5-2.5-1.4-3.4l0,0l0,0C89.4,141.6,88.2,141.1,86.9,141.1L86.9,141.1z
	 M88.5,144.3c-0.4-0.4-1-0.7-1.6-0.7c-0.6,0-1.2,0.3-1.6,0.7h0c-0.4,0.4-0.7,1-0.7,1.6c0,0.6,0.3,1.2,0.7,1.6s1,0.7,1.6,0.7
	c0.6,0,1.2-0.2,1.6-0.7v0c0.4-0.4,0.7-1,0.7-1.6C89.2,145.2,88.9,144.7,88.5,144.3L88.5,144.3L88.5,144.3z M91.8,141.4
	c-1.2-1.1-2.9-1.9-4.8-1.9c-1.9,0-3.6,0.7-4.8,1.9c-1.2,1.1-2,2.7-2,4.4c0,1.5,1.1,3.8,2.4,6.1c1.9,3.1,4,6,4.4,6
	c0.4,0,2.5-2.9,4.4-6c1.3-2.2,2.4-4.6,2.4-6.1C93.7,144.1,93,142.6,91.8,141.4z"/>
<path id="icon-about" class="st6" d="M116.1,144.8c0-0.4,0.1-0.7,0.4-1c0.3-0.3,0.6-0.4,1-0.4c0.4,0,0.7,0.1,1,0.4
	c0.3,0.3,0.4,0.6,0.4,1c0,0.4-0.1,0.7-0.4,1c-0.3,0.3-0.6,0.4-1,0.4c-0.4,0-0.7-0.1-1-0.4C116.3,145.5,116.1,145.2,116.1,144.8
	L116.1,144.8z M117.7,139.7c-2.5,0-4.7,1-6.4,2.6c-1.6,1.6-2.6,3.9-2.6,6.4c0,2.5,1,4.7,2.6,6.4c1.6,1.6,3.9,2.6,6.4,2.6
	c2.5,0,4.7-1,6.4-2.6c1.6-1.6,2.6-3.9,2.6-6.4c0-2.5-1-4.7-2.6-6.4C122.5,140.7,120.2,139.7,117.7,139.7L117.7,139.7z M122.8,143.6
	c-1.3-1.3-3.1-2.1-5.1-2.1c-2,0-3.8,0.8-5.1,2.1c-1.3,1.3-2.1,3.1-2.1,5.1s0.8,3.8,2.1,5.1c1.3,1.3,3.1,2.1,5.1,2.1
	c2,0,3.8-0.8,5.1-2.1c1.3-1.3,2.1-3.1,2.1-5.1S124.2,144.9,122.8,143.6L122.8,143.6z M119.3,152c0,0.3,0,0.5,0.1,0.6
	c0.1,0.1,0.3,0.1,0.6,0.1h0.3v1.4h-5v-1.4h0.3c0.3,0,0.5,0,0.6-0.1c0.1-0.1,0.1-0.3,0.1-0.6v-3.1c0-0.3,0-0.5-0.1-0.6
	c-0.1-0.1-0.3-0.1-0.6-0.1h-0.3v-1.4h4.1V152z"/>
<g id="icon-about-respond">
	<path class="st6" d="M153.6,143.4c-1.5-1.4-3.4-2-5.2-2c-1.9,0.1-3.7,0.8-5.1,2.3c-1.4,1.5-2,3.4-2,5.2c0.1,1.9,0.8,3.7,2.3,5.1
		c1.2,1.2,2.8,1.8,4.4,1.9c1.6,0.1,3.2-0.3,4.6-1.2c0.6-0.4,1.3,0,2.2,0.4c0.5,0.3,1.2,0.6,1.2,0.6c0.1-0.1-0.3-0.8-0.6-1.4
		c-0.4-0.8-0.8-1.5-0.4-2.1c0.8-1.4,1.1-3.1,0.8-4.7C155.6,146,154.8,144.6,153.6,143.4L153.6,143.4z M148.3,139.7
		c2.3-0.1,4.6,0.7,6.4,2.4c1.5,1.4,2.4,3.3,2.7,5.2c0.5,3.3-1.3,4.8-0.6,6.3c0.6,1.1,1.3,2.4,0.4,3.4c-0.9,1-2.2,0.3-3.3-0.3
		c-1.3-0.7-2.8,1.3-6.1,1c-1.9-0.2-3.9-1-5.4-2.4c-1.8-1.7-2.8-4-2.9-6.3c-0.1-2.3,0.7-4.6,2.4-6.4
		C143.7,140.8,146,139.8,148.3,139.7z"/>
	<g>
		<circle class="st6" cx="144.9" cy="149" r="1.6"/>
		<circle class="st6" cx="148.6" cy="149" r="1.6"/>
		<circle class="st6" cx="152.4" cy="149" r="1.6"/>
	</g>
</g>
<path id="icon-about-sitemap" class="st6" d="M214.9,139.9c1.7,0.6,2.5,2.4,2,4c-0.3,0.9-1,1.6-1.8,1.9l0.6,2.8l0.6,2.8
	c0.4,0,0.8,0,1.1,0.2c1.7,0.6,2.5,2.4,2,4c-0.6,1.7-2.4,2.5-4,2c-1.5-0.5-2.3-1.9-2.1-3.4l-2.8-0.9l-2.8-1c-0.7,1.5-2.3,2.2-3.9,1.7
	c-1.7-0.6-2.5-2.4-2-4c0.6-1.7,2.4-2.5,4-2c0.3,0.1,0.7,0.3,0.9,0.5l2.4-2.1l2.1-1.9c-0.5-0.8-0.6-1.7-0.3-2.6
	C211.4,140.2,213.2,139.3,214.9,139.9L214.9,139.9z M213.9,146c-0.3,0-0.7,0-1.1-0.2c-0.3-0.1-0.7-0.3-0.9-0.5l-2.1,1.9l-2.4,2.1
	c0.3,0.5,0.5,1.2,0.4,1.8l2.9,1l2.8,0.9c0.3-0.6,0.9-1.1,1.5-1.4l-0.6-2.8L213.9,146z"/>
<path id="icon-about-docs" class="st6" d="M174.9,137.7h8.3h0.3l0.2,0.2l4.5,3.2l0.4,0.3v0.5v13.3v0.9h-0.9h-2.5v2.8v0.9h-0.9h-12.8
	h-0.9v-0.9v-16.5v-0.9h0.9h2.5v-2.8v-0.9H174.9L174.9,137.7z M183.4,156h-8.5H174v-0.9v-11.8h-1.6v14.7h11V156L183.4,156z
	 M177.5,143.2v1.8h7.7v-1.8H177.5L177.5,143.2z M177.5,150v1.8h7.7V150H177.5L177.5,150z M177.5,146.6v1.8h7.7v-1.8L177.5,146.6
	L177.5,146.6z M182.9,139.5h-7.1v14.7h11l0-11.9L182.9,139.5z"/>
<path id="icon-contact-letter" class="st7" d="M442.6,94.2l-15,0c0.1,0.2,3.2,3.3,3.6,3.7c0.6,0.6,3,3.5,3.8,3.5
	c0.8,0,3.2-3,3.8-3.5C440.2,96.8,441.5,95.4,442.6,94.2L442.6,94.2z M432.6,101.2c0.6,0.5,1.2,1.6,2.5,1.6c1.3,0,1.9-1,2.5-1.6
	c0.4,0.3,2,2.1,2.5,2.5c0.4,0.4,0.8,0.8,1.3,1.3c0.2,0.2,0.4,0.4,0.6,0.6c0.2,0.2,0.8,0.6,0.3,0.6h-14.5c-0.4,0,0.8-1,1-1.2
	c0.4-0.4,0.8-0.9,1.2-1.3C430.9,102.9,431.8,102,432.6,101.2L432.6,101.2z M426.7,105.2v-10c0.4,0.6,4.9,4.7,4.9,5
	C431.6,100.2,426.9,105.1,426.7,105.2L426.7,105.2z M438.6,100.2l4.8-4.9l0,9.9L438.6,100.2z"/>
<path id="icon-contact-call" class="st7" d="M369,96.7c0.1-0.4-0.8-2.6-1-3.1c-0.2-0.5-0.5-0.9-1.2-0.8c-1.5,0.2-2.9,1.5-3,3.2
	c-0.1,1.3,0.4,2.3,0.9,3.3c0.9,1.9,3.6,4.8,5.3,6.1c1,0.8,1.9,1.5,3.2,2c2.6,1,4.7,0.1,5.4-2c0.5-1.6-0.5-1.7-1.7-2.2
	c-0.5-0.2-1-0.4-1.5-0.6c-0.8-0.2-1,0-1.3,0.6c-0.3,0.6-0.3,1-1.2,0.9c-0.5,0-1-0.4-1.4-0.6c-1.1-0.6-2.5-2-3.2-3
	c-0.2-0.3-0.6-1-0.8-1.3c-0.1-0.2-0.2-0.6-0.1-0.9C367.5,97.3,368.8,97.6,369,96.7z"/>
<path id="icon_x5F_contact_x5F_appoint" class="st7" d="M396.7,107c0,0.4,0.3,0.8,0.5,1c0.4,0.3,0.6,0.3,1.2,0.3l6,0
	c0.7,0,1.8,0.1,2.3-0.3c0.1-0.1,0,0,0.1-0.1c0.3-0.3,0.4-0.7,0.4-1.3c0-1.4,0-3.2,0-4.5c-0.1,0.1-0.6,0.6-0.8,0.8
	c-0.1,0.1-0.1,0.1-0.1,0.3c0,0.7,0.1,2.9-0.1,3.3c-0.3,0.8-1,0.7-2,0.7l-5.4,0c-0.5,0-0.8-0.2-1-0.4c-0.3-0.3-0.3-0.6-0.3-1.1
	c0-0.9,0-1.8,0-2.7c0-0.9-0.1-1.9,0-2.7c0-0.8-0.1-3.4,0.1-3.9c0.1-0.2,0.2-0.4,0.4-0.5c0.2-0.2,0.4-0.2,0.7-0.2c0.9,0,6.3,0,6.6,0
	c0.3,0.1,0.4,0.2,0.6,0.3c0.4,0.4,0.3,1,0.3,1.6c0.1-0.1,0.6-0.6,0.8-0.7c0.2-0.2,0.2-0.2,0.2-0.6c0-0.2,0-0.5,0-0.8
	c-0.1-0.8-0.8-1.4-1.8-1.2c-0.1,0.3,0,0.5-0.3,0.8c-0.2,0.2-0.6,0.1-1,0.1h-4.4c-0.5,0-1,0.1-1.3-0.4c-0.1-0.2,0-0.3-0.1-0.5
	c-0.1-0.1-1-0.1-1.4,0.4c-0.4,0.4-0.4,0.8-0.4,1.6L396.7,107L396.7,107z M399.9,106.6c0.1-0.3,0.9-2.6,0.9-2.7l1.8,1.8
	C402.5,105.8,400,106.6,399.9,106.6L399.9,106.6z M405.8,98.9c0.1-0.1,0.9-0.9,1-1c0.6-0.4,1.1,0.3,1.3,0.5c0.3,0.3,0.8,0.7,0.4,1.3
	c-0.1,0.1-0.1,0.2-0.2,0.3l-0.7,0.7c-0.1-0.1-1.3-1.3-1.6-1.6L405.8,98.9L405.8,98.9z M401.2,103.4l4.1-4.1l1.8,1.8l-4.1,4.1
	l-1.4-1.4C401.4,103.7,401.2,103.6,401.2,103.4L401.2,103.4z M401.6,92.2c1-0.1,2.1,0.2,2.8,0.9c0.6,0.5,0.6,0.4,0.6,1
	c0,0.5,0,0.6-0.5,0.6l-5.4,0c-0.4,0-0.3-0.5-0.3-0.8c0-0.4,0.2-0.5,0.4-0.7C399.9,92.7,400.8,92.2,401.6,92.2L401.6,92.2z M402,92.9
	c0.3,0,0.6,0.3,0.6,0.6c0,0.3-0.3,0.6-0.6,0.6c-0.3,0-0.6-0.3-0.6-0.6C401.4,93.2,401.6,92.9,402,92.9z"/>
<g id="logo-scroll">
	<path class="st7" d="M176.4,234.2c0.1-0.3,0.2-0.7,0.4-1c0.1-0.4,0.3-0.7,0.6-1c0.2-0.3,0.5-0.6,0.7-0.7c0.3-0.2,0.6-0.3,0.9-0.3
		c0.3,0,0.5,0.1,0.7,0.3c0.2,0.2,0.3,0.4,0.3,0.7c0.1,0.3,0.1,0.6,0.1,1c0,0.4,0,0.7-0.1,1c-0.1,0.4-0.1,0.7-0.1,1h-3.8
		C176.2,234.9,176.3,234.6,176.4,234.2L176.4,234.2z M183,236.4c0.2-0.9,0.3-1.8,0.3-2.5c0-0.7-0.2-1.4-0.4-2
		c-0.3-0.6-0.7-1-1.3-1.3c-0.6-0.3-1.3-0.5-2.3-0.5c-0.9,0-1.7,0.1-2.4,0.4c-0.7,0.3-1.4,0.7-2,1.2c-0.6,0.5-1.1,1.2-1.5,1.9
		c-0.4,0.7-0.7,1.5-0.9,2.4c-0.3,1.4-0.3,2.6,0,3.5c0.3,1,0.9,1.8,1.7,2.3c0.8,0.5,1.9,0.8,3.2,0.8c0.4,0,0.8-0.1,1.2-0.1
		c0.4-0.1,0.9-0.2,1.3-0.4c0.4-0.2,0.8-0.4,1.2-0.6l0.8-1.4l-0.2-0.2c-0.3,0.2-0.6,0.4-0.9,0.6c-0.3,0.2-0.7,0.3-1.1,0.4
		c-0.4,0.1-0.7,0.1-1,0.1c-0.7,0-1.2-0.1-1.6-0.4c-0.4-0.2-0.7-0.6-0.9-1c-0.2-0.4-0.3-0.9-0.3-1.5c0-0.6,0.1-1.2,0.2-1.8H183z"/>
	<path class="st7" d="M189.3,240.8c-0.3,0-0.7,0-1,0c-0.5,0-1,0-1.5,0c-0.5,0-0.9-0.1-1.4-0.1c0.3-0.6,0.6-1.1,0.9-1.7
		c0.3-0.5,0.6-1,0.9-1.5c0.3-0.5,0.6-1,0.9-1.5c0.3-0.5,0.7-1.1,1-1.7c0.1,0.7,0.3,1.5,0.4,2.2c0.1,0.7,0.2,1.4,0.3,2.1
		c0.1,0.7,0.2,1.4,0.3,2.1C189.9,240.8,189.6,240.8,189.3,240.8L189.3,240.8z M193.7,240.9c-0.4-1.8-0.7-3.6-1-5.4
		c-0.3-1.8-0.6-3.5-0.9-5.3c-0.1,0-0.3,0-0.4,0.1H191h-0.4c-0.1,0-0.3,0-0.4-0.1c-1,1.8-2.1,3.7-3.2,5.4c-1.1,1.8-2.2,3.5-3.3,5.3
		h-0.9c0,0.1,0,0.3,0,0.5c0,0.2,0,0.4-0.1,0.6c0,0.2-0.1,0.4-0.1,0.7c-0.1,0.2-0.1,0.4-0.2,0.7h0.2c0.3-0.2,0.5-0.4,0.9-0.6
		c0.3-0.1,0.6-0.2,1-0.3c0.4-0.1,0.8-0.1,1.3-0.1h1.7h2.4c0.8,0,1.4,0,2,0c0.5,0,1,0.1,1.4,0.3c0.3,0.1,0.6,0.4,0.8,0.7h0.3
		c0-0.2,0-0.5,0-0.7c0-0.2,0.1-0.4,0.1-0.7c0-0.2,0.1-0.4,0.1-0.6c0.1-0.2,0.1-0.4,0.2-0.5H193.7z"/>
	<path class="st7" d="M206.4,242.5l2.5-12.3c-0.3,0-0.5,0.1-0.8,0c-0.3,0-0.6,0-0.8,0c-0.8,0.9-1.6,1.7-2.4,2.6
		c-0.8,0.9-1.7,1.7-2.5,2.6c-0.8,0.8-1.6,1.6-2.3,2.3l1.5-7.5c-0.3,0-0.5,0-0.8,0.1c-0.3,0-0.6,0.1-0.9,0.1c-0.3,0-0.5,0-0.8-0.1
		c-0.3,0-0.5-0.1-0.8-0.1l-2.5,12.2c0.3,0,0.5,0,0.8,0c0.3,0,0.5,0,0.8,0c0.7-0.8,1.4-1.6,2.2-2.5c0.8-0.9,1.6-1.7,2.5-2.6
		c0.9-0.9,1.7-1.7,2.6-2.6l-1.5,7.6c0.3,0,0.6-0.1,0.9-0.1c0.3,0,0.6,0,0.8,0c0.3,0,0.6,0,0.9,0.1
		C205.9,242.4,206.2,242.5,206.4,242.5z"/>
	<path class="st7" d="M219.6,242.5l0-0.2c-0.2-0.7-0.5-1.5-0.7-2.1c-0.2-0.7-0.5-1.4-0.7-2.1l-1.3-3.2c0.5-0.5,1.1-1,1.6-1.5
		c0.6-0.5,1.1-1,1.7-1.5c0.5-0.5,1.1-1,1.6-1.5l0-0.1c-0.2,0-0.3,0-0.5,0c-0.2,0-0.3,0.1-0.5,0.1c-0.2,0-0.4,0-0.5-0.1
		c-0.2,0-0.3,0-0.5,0c-1,0.9-1.9,1.9-2.9,2.8c-0.9,0.9-1.9,1.8-2.8,2.6h-0.1c-0.1,0-0.1,0-0.1,0l1.1-5.4c-0.3,0-0.6,0.1-0.9,0.1
		c-0.3,0-0.6,0-0.8,0c-0.3,0-0.6,0-0.8,0c-0.3,0-0.6-0.1-0.8-0.1l-2.5,12.2c0.3,0,0.5,0,0.8-0.1c0.3,0,0.6-0.1,0.9-0.1
		c0.3,0,0.5,0,0.8,0.1c0.3,0,0.5,0.1,0.8,0.1l1.2-5.8c0.1,0.1,0.2,0.2,0.3,0.4c0.1,0.1,0.1,0.3,0.2,0.4c0.2,0.5,0.5,1.1,0.7,1.6
		c0.2,0.6,0.4,1.2,0.6,1.8c0.2,0.6,0.4,1.1,0.5,1.6c0.3,0,0.6,0,0.9-0.1c0.3,0,0.6-0.1,0.9-0.1c0.3,0,0.6,0,0.9,0.1
		C219,242.4,219.3,242.5,219.6,242.5z"/>
	<path class="st9" d="M238.5,226c-0.4-0.3-0.9-0.5-1.4-0.7c-0.5-0.2-1.1-0.3-1.6-0.4c-0.6-0.1-1.1-0.1-1.6-0.1
		c-1.1,0-2.1,0.1-3.1,0.4c-1,0.3-2,0.6-2.8,1.1c-0.9,0.5-1.7,1.1-2.5,1.9c-0.7,0.8-1.4,1.7-1.9,2.7c-0.5,1-0.9,2.2-1.2,3.5
		c-0.3,1.3-0.3,2.5,0,3.5c0.3,1,0.7,1.9,1.4,2.7c0.7,0.7,1.5,1.3,2.5,1.7c1,0.4,2.2,0.6,3.5,0.6c0.8,0,1.6-0.1,2.5-0.2
		c0.9-0.2,1.7-0.4,2.5-0.8l1-2.2l-0.3-0.1c-0.4,0.4-0.9,0.7-1.5,1c-0.5,0.3-1.1,0.5-1.7,0.7c-0.5,0.1-1.1,0.2-1.6,0.2
		c-0.9,0-1.7-0.2-2.3-0.5c-0.7-0.4-1.2-0.9-1.5-1.5c-0.3-0.7-0.6-1.4-0.6-2.3c-0.1-0.9,0-1.9,0.2-3c0.1-0.7,0.4-1.5,0.7-2.2
		c0.3-0.7,0.6-1.5,1.1-2.1c0.4-0.7,0.9-1.2,1.5-1.7c0.5-0.5,1.1-0.9,1.8-1.2c0.7-0.3,1.4-0.4,2.2-0.4c0.5,0,1,0.1,1.5,0.3
		c0.5,0.2,0.9,0.5,1.2,0.8c0.3,0.4,0.6,0.7,0.8,1.2h0.3c0.2-0.4,0.4-0.9,0.5-1.3C238.1,226.8,238.3,226.4,238.5,226z"/>
	<path class="st7" d="M248,242.5l2.5-12.3c-0.3,0-0.5,0.1-0.8,0c-0.3,0-0.6,0-0.9,0c-0.8,0.9-1.6,1.7-2.4,2.6
		c-0.8,0.9-1.7,1.7-2.5,2.6c-0.8,0.8-1.6,1.6-2.3,2.3l1.5-7.5c-0.3,0-0.5,0-0.8,0.1c-0.3,0-0.6,0.1-0.9,0.1c-0.3,0-0.6,0-0.8-0.1
		c-0.3,0-0.5-0.1-0.8-0.1l-2.5,12.2c0.3,0,0.5,0,0.8,0c0.3,0,0.5,0,0.8,0c0.7-0.8,1.4-1.6,2.2-2.5c0.8-0.9,1.6-1.7,2.4-2.6
		c0.9-0.9,1.7-1.7,2.6-2.6l-1.5,7.6c0.3,0,0.6-0.1,0.9-0.1c0.3,0,0.6,0,0.8,0c0.3,0,0.6,0,0.8,0.1
		C247.4,242.4,247.7,242.5,248,242.5z"/>
	<path class="st7" d="M261.6,232v-0.4c0-0.2,0-0.3,0.1-0.5c0-0.1,0.1-0.3,0.1-0.4c0.1-0.1,0.1-0.3,0.2-0.4h-10v0.4
		c0,0.1,0,0.3-0.1,0.4c0,0.1-0.1,0.3-0.1,0.5c-0.1,0.1-0.1,0.3-0.2,0.4c0.4-0.1,0.7-0.1,1.1-0.1c0.3-0.1,0.7-0.1,1.1-0.1
		c0.4,0,0.8,0,1.2,0l-2.2,10.7c0.3,0,0.6,0,0.9-0.1c0.3,0,0.6-0.1,0.9-0.1c0.3,0,0.5,0,0.8,0.1c0.3,0,0.5,0.1,0.8,0.1l2.2-10.7
		c0.5,0,0.9,0,1.2,0c0.3,0,0.7,0,1,0.1C260.9,231.9,261.2,231.9,261.6,232z"/>
	<path class="st7" d="M271.6,242.5l2.5-12.3c-0.3,0-0.5,0.1-0.8,0c-0.3,0-0.5,0-0.8,0c-0.8,0.9-1.6,1.7-2.4,2.6
		c-0.9,0.9-1.7,1.7-2.5,2.6c-0.8,0.8-1.6,1.6-2.3,2.3l1.5-7.5c-0.3,0-0.6,0-0.9,0.1c-0.3,0-0.6,0.1-0.9,0.1c-0.3,0-0.5,0-0.8-0.1
		c-0.3,0-0.5-0.1-0.8-0.1l-2.5,12.2c0.3,0,0.6,0,0.8,0c0.3,0,0.5,0,0.8,0c0.7-0.8,1.5-1.6,2.2-2.5c0.8-0.9,1.6-1.7,2.5-2.6
		c0.9-0.9,1.7-1.7,2.6-2.6l-1.5,7.6c0.3,0,0.5-0.1,0.8-0.1c0.3,0,0.6,0,0.9,0c0.3,0,0.5,0,0.8,0.1
		C271.1,242.4,271.4,242.5,271.6,242.5z"/>
	<path class="st9" d="M169.8,244.4c0.1-1.9,0.2-3.8,0.3-5.8c0.1-2,0.3-4.1,0.5-6.4c0.2-2.2,0.4-4.6,0.6-7.2c-0.2,0-0.3,0.1-0.6,0.1
		c-0.2,0-0.3,0-0.5,0.1c-0.2,0-0.3,0-0.5-0.1c-0.1,0-0.3-0.1-0.5-0.1c-0.9,1.6-1.9,3.2-2.8,4.7c-0.9,1.5-1.9,3-2.8,4.4
		c-0.9,1.4-1.8,2.8-2.6,4.1c-0.5-2.2-1.1-4.4-1.7-6.6c-0.6-2.2-1-4.4-1.5-6.6c-0.2,0-0.3,0.1-0.5,0.1c-0.2,0-0.3,0-0.5,0.1
		c-0.2,0-0.3,0-0.5-0.1c-0.2,0-0.3-0.1-0.5-0.1c-1.1,3.6-2.1,7-3.1,10.2c-1,3.3-2,6.3-3,9.1c0.2,0,0.4-0.1,0.6-0.1
		c0.2,0,0.4,0,0.6,0c0.2,0,0.4,0,0.5,0c0.2,0,0.4,0.1,0.6,0.1c0.3-1.3,0.6-2.6,0.9-4c0.3-1.4,0.7-2.8,1.1-4.2c0.4-1.5,0.9-3,1.4-4.7
		c0.3,1.5,0.7,2.9,1,4.4c0.3,1.4,0.7,2.9,1,4.3c0.3,1.4,0.7,2.7,1,4c0.1,0,0.3-0.1,0.5-0.1c0.1,0,0.3,0,0.5,0.1
		c1.3-2.2,2.6-4.4,3.9-6.5c1.3-2.2,2.6-4.3,4-6.5c-0.1,1.4-0.3,2.9-0.4,4.3c-0.1,1.4-0.3,2.9-0.4,4.4c-0.1,1.5-0.3,2.9-0.6,4.4
		c0.3,0,0.7-0.1,1-0.1c0.3,0,0.7,0,1,0c0.3,0,0.7,0,1,0C169.1,244.3,169.5,244.3,169.8,244.4z"/>
</g>
<g id="logo-main">
	<path class="st10" d="M58.1,193.4c0.1-0.3,0.2-0.7,0.4-1c0.1-0.4,0.3-0.7,0.6-1c0.2-0.3,0.5-0.6,0.7-0.7c0.3-0.2,0.6-0.3,0.9-0.3
		c0.3,0,0.5,0.1,0.7,0.3c0.2,0.2,0.3,0.4,0.3,0.7c0.1,0.3,0.1,0.6,0.1,1c0,0.4,0,0.7-0.1,1c-0.1,0.4-0.1,0.7-0.1,1h-3.8
		C57.9,194,57.9,193.7,58.1,193.4L58.1,193.4z M64.7,195.5c0.2-0.9,0.3-1.8,0.3-2.5c0-0.7-0.2-1.4-0.4-2c-0.3-0.6-0.7-1-1.3-1.3
		c-0.6-0.3-1.3-0.5-2.3-0.5c-0.9,0-1.7,0.1-2.4,0.4c-0.7,0.3-1.4,0.7-2,1.2c-0.6,0.5-1.1,1.2-1.5,1.9c-0.4,0.7-0.7,1.5-0.9,2.4
		c-0.3,1.4-0.3,2.6,0,3.5c0.3,1,0.9,1.8,1.7,2.3c0.8,0.5,1.9,0.8,3.2,0.8c0.4,0,0.8-0.1,1.2-0.1c0.4-0.1,0.9-0.2,1.3-0.4
		c0.4-0.2,0.8-0.4,1.2-0.6l0.8-1.4l-0.2-0.2c-0.3,0.2-0.6,0.4-0.9,0.6c-0.3,0.2-0.7,0.3-1.1,0.4c-0.4,0.1-0.7,0.1-1,0.1
		c-0.7,0-1.2-0.1-1.6-0.4c-0.4-0.2-0.7-0.6-0.9-1c-0.2-0.4-0.3-0.9-0.3-1.5c0-0.6,0.1-1.2,0.2-1.8H64.7z"/>
	<path class="st10" d="M71,200c-0.3,0-0.7,0-1,0c-0.5,0-1,0-1.5,0c-0.5,0-0.9-0.1-1.4-0.1c0.3-0.6,0.6-1.1,0.9-1.7
		c0.3-0.5,0.6-1,0.9-1.5c0.3-0.5,0.6-1,0.9-1.5c0.3-0.5,0.7-1.1,1-1.7c0.1,0.7,0.3,1.5,0.4,2.2c0.1,0.7,0.2,1.4,0.3,2.1
		c0.1,0.7,0.2,1.4,0.3,2.1C71.6,200,71.3,200,71,200L71,200z M75.4,200c-0.4-1.8-0.7-3.6-1-5.4c-0.3-1.8-0.6-3.5-0.9-5.3
		c-0.1,0-0.3,0-0.4,0.1h-0.4h-0.4c-0.1,0-0.3,0-0.4-0.1c-1,1.8-2.1,3.7-3.2,5.4c-1.1,1.8-2.2,3.5-3.3,5.3h-0.9c0,0.1,0,0.3,0,0.5
		c0,0.2,0,0.4-0.1,0.6c0,0.2-0.1,0.4-0.1,0.7c-0.1,0.2-0.1,0.4-0.2,0.7h0.2c0.3-0.2,0.5-0.4,0.9-0.6c0.3-0.1,0.6-0.2,1-0.3
		c0.4-0.1,0.8-0.1,1.3-0.1h1.7h2.4c0.8,0,1.4,0,2,0c0.5,0,1,0.1,1.4,0.3c0.3,0.1,0.6,0.4,0.8,0.7h0.3c0-0.2,0-0.5,0-0.7
		c0-0.2,0.1-0.4,0.1-0.7c0-0.2,0.1-0.4,0.1-0.6c0.1-0.2,0.1-0.4,0.2-0.5H75.4z"/>
	<path class="st10" d="M88.1,201.6l2.5-12.3c-0.3,0-0.5,0.1-0.8,0c-0.3,0-0.6,0-0.8,0c-0.8,0.9-1.6,1.7-2.4,2.6
		c-0.8,0.9-1.7,1.7-2.5,2.6c-0.8,0.8-1.6,1.6-2.3,2.3l1.5-7.5c-0.3,0-0.5,0-0.8,0.1c-0.3,0-0.6,0.1-0.9,0.1c-0.3,0-0.5,0-0.8-0.1
		c-0.3,0-0.5-0.1-0.8-0.1l-2.5,12.2c0.3,0,0.5,0,0.8,0c0.3,0,0.5,0,0.8,0c0.7-0.8,1.4-1.6,2.2-2.5c0.8-0.9,1.6-1.7,2.5-2.6
		c0.9-0.9,1.7-1.7,2.6-2.6l-1.5,7.6c0.3,0,0.6-0.1,0.9-0.1c0.3,0,0.6,0,0.8,0c0.3,0,0.6,0,0.9,0.1C87.6,201.6,87.8,201.6,88.1,201.6
		z"/>
	<path class="st10" d="M101.3,201.6l0-0.2c-0.2-0.7-0.5-1.5-0.7-2.1c-0.2-0.7-0.5-1.4-0.7-2.1l-1.3-3.2c0.5-0.5,1.1-1,1.6-1.5
		c0.6-0.5,1.1-1,1.7-1.5c0.5-0.5,1.1-1,1.6-1.5l0-0.1c-0.2,0-0.3,0-0.5,0c-0.2,0-0.3,0.1-0.5,0.1c-0.2,0-0.4,0-0.5-0.1
		c-0.2,0-0.3,0-0.5,0c-1,0.9-1.9,1.9-2.9,2.8c-0.9,0.9-1.9,1.8-2.8,2.6h-0.1c-0.1,0-0.1,0-0.1,0l1.1-5.4c-0.3,0-0.6,0.1-0.9,0.1
		c-0.3,0-0.6,0-0.8,0c-0.3,0-0.6,0-0.8,0c-0.3,0-0.6-0.1-0.8-0.1l-2.5,12.2c0.3,0,0.5,0,0.8-0.1c0.3,0,0.6-0.1,0.9-0.1
		c0.3,0,0.5,0,0.8,0.1c0.3,0,0.5,0.1,0.8,0.1l1.2-5.8c0.1,0.1,0.2,0.2,0.3,0.4c0.1,0.1,0.1,0.3,0.2,0.4c0.2,0.5,0.5,1.1,0.7,1.6
		c0.2,0.6,0.4,1.2,0.6,1.8c0.2,0.6,0.4,1.1,0.5,1.6c0.3,0,0.6,0,0.9-0.1c0.3,0,0.6-0.1,0.9-0.1c0.3,0,0.6,0,0.9,0.1
		C100.7,201.6,101,201.6,101.3,201.6z"/>
	<path class="st9" d="M120.2,185.1c-0.4-0.3-0.9-0.5-1.4-0.7c-0.5-0.2-1.1-0.3-1.6-0.4c-0.6-0.1-1.1-0.1-1.6-0.1
		c-1.1,0-2.1,0.1-3.1,0.4c-1,0.3-2,0.6-2.8,1.1c-0.9,0.5-1.7,1.1-2.5,1.9c-0.7,0.8-1.4,1.7-1.9,2.7c-0.5,1-0.9,2.2-1.2,3.5
		c-0.3,1.3-0.3,2.5,0,3.5c0.3,1,0.7,1.9,1.4,2.7c0.7,0.7,1.5,1.3,2.5,1.7c1,0.4,2.2,0.6,3.5,0.6c0.8,0,1.6-0.1,2.5-0.2
		c0.9-0.2,1.7-0.4,2.5-0.8l1-2.2l-0.3-0.1c-0.4,0.4-0.9,0.7-1.5,1c-0.5,0.3-1.1,0.5-1.7,0.7c-0.5,0.1-1.1,0.2-1.6,0.2
		c-0.9,0-1.7-0.2-2.3-0.5c-0.7-0.4-1.2-0.9-1.5-1.5c-0.3-0.7-0.6-1.4-0.6-2.3c-0.1-0.9,0-1.9,0.2-3c0.1-0.7,0.4-1.5,0.7-2.2
		c0.3-0.7,0.6-1.5,1.1-2.1c0.4-0.7,0.9-1.2,1.5-1.7c0.5-0.5,1.1-0.9,1.8-1.2c0.7-0.3,1.4-0.4,2.2-0.4c0.5,0,1,0.1,1.5,0.3
		c0.5,0.2,0.9,0.5,1.2,0.8c0.3,0.4,0.6,0.7,0.8,1.2h0.3c0.2-0.4,0.4-0.9,0.5-1.3C119.8,186,120,185.5,120.2,185.1z"/>
	<path class="st10" d="M129.6,201.6l2.5-12.3c-0.3,0-0.5,0.1-0.8,0c-0.3,0-0.6,0-0.9,0c-0.8,0.9-1.6,1.7-2.4,2.6
		c-0.8,0.9-1.7,1.7-2.5,2.6c-0.8,0.8-1.6,1.6-2.3,2.3l1.5-7.5c-0.3,0-0.5,0-0.8,0.1c-0.3,0-0.6,0.1-0.9,0.1c-0.3,0-0.6,0-0.8-0.1
		c-0.3,0-0.5-0.1-0.8-0.1l-2.5,12.2c0.3,0,0.5,0,0.8,0c0.3,0,0.5,0,0.8,0c0.7-0.8,1.4-1.6,2.2-2.5c0.8-0.9,1.6-1.7,2.4-2.6
		c0.9-0.9,1.7-1.7,2.6-2.6l-1.5,7.6c0.3,0,0.6-0.1,0.9-0.1c0.3,0,0.6,0,0.8,0c0.3,0,0.6,0,0.8,0.1
		C129.1,201.6,129.4,201.6,129.6,201.6z"/>
	<path class="st10" d="M143.3,191.1v-0.4c0-0.2,0-0.3,0.1-0.5c0-0.1,0.1-0.3,0.1-0.4c0.1-0.1,0.1-0.3,0.2-0.4h-10v0.4
		c0,0.1,0,0.3-0.1,0.4c0,0.1-0.1,0.3-0.1,0.5c-0.1,0.1-0.1,0.3-0.2,0.4c0.4-0.1,0.7-0.1,1.1-0.1c0.3-0.1,0.7-0.1,1.1-0.1
		c0.4,0,0.8,0,1.2,0l-2.2,10.7c0.3,0,0.6,0,0.9-0.1c0.3,0,0.6-0.1,0.9-0.1c0.3,0,0.5,0,0.8,0.1c0.3,0,0.5,0.1,0.8,0.1l2.2-10.7
		c0.5,0,0.9,0,1.2,0c0.3,0,0.7,0,1,0.1C142.5,191,142.9,191,143.3,191.1z"/>
	<path class="st10" d="M153.3,201.6l2.5-12.3c-0.3,0-0.5,0.1-0.8,0c-0.3,0-0.5,0-0.8,0c-0.8,0.9-1.6,1.7-2.4,2.6
		c-0.9,0.9-1.7,1.7-2.5,2.6c-0.8,0.8-1.6,1.6-2.3,2.3l1.5-7.5c-0.3,0-0.6,0-0.9,0.1c-0.3,0-0.6,0.1-0.9,0.1c-0.3,0-0.5,0-0.8-0.1
		c-0.3,0-0.5-0.1-0.8-0.1l-2.5,12.2c0.3,0,0.6,0,0.8,0c0.3,0,0.5,0,0.8,0c0.7-0.8,1.5-1.6,2.2-2.5c0.8-0.9,1.6-1.7,2.5-2.6
		c0.9-0.9,1.7-1.7,2.6-2.6l-1.5,7.6c0.3,0,0.5-0.1,0.8-0.1c0.3,0,0.6,0,0.9,0c0.3,0,0.5,0,0.8,0.1
		C152.8,201.6,153,201.6,153.3,201.6z"/>
	<path class="st9" d="M51.5,203.5c0.1-1.9,0.2-3.8,0.3-5.8c0.1-2,0.3-4.1,0.5-6.4c0.2-2.2,0.4-4.6,0.6-7.2c-0.2,0-0.3,0.1-0.6,0.1
		c-0.2,0-0.3,0-0.5,0.1c-0.2,0-0.3,0-0.5-0.1c-0.1,0-0.3-0.1-0.5-0.1c-0.9,1.6-1.9,3.2-2.8,4.7c-0.9,1.5-1.9,3-2.8,4.4
		c-0.9,1.4-1.8,2.8-2.6,4.1c-0.5-2.2-1.1-4.4-1.7-6.6c-0.6-2.2-1-4.4-1.5-6.6c-0.2,0-0.3,0.1-0.5,0.1c-0.2,0-0.3,0-0.5,0.1
		c-0.2,0-0.3,0-0.5-0.1c-0.2,0-0.3-0.1-0.5-0.1c-1.1,3.6-2.1,7-3.1,10.2c-1,3.3-2,6.3-3,9.1c0.2,0,0.4-0.1,0.6-0.1
		c0.2,0,0.4,0,0.6,0c0.2,0,0.4,0,0.5,0c0.2,0,0.4,0.1,0.6,0.1c0.3-1.3,0.6-2.6,0.9-4c0.3-1.4,0.7-2.8,1.1-4.2c0.4-1.5,0.9-3,1.4-4.7
		c0.3,1.5,0.7,2.9,1,4.4c0.3,1.4,0.7,2.9,1,4.3c0.3,1.4,0.7,2.7,1,4c0.1,0,0.3-0.1,0.5-0.1c0.1,0,0.3,0,0.5,0.1
		c1.3-2.2,2.6-4.4,3.9-6.5c1.3-2.2,2.6-4.3,4-6.5c-0.1,1.4-0.3,2.9-0.4,4.3c-0.1,1.4-0.3,2.9-0.4,4.4c-0.1,1.5-0.3,2.9-0.6,4.4
		c0.3,0,0.7-0.1,1-0.1c0.3,0,0.7,0,1,0c0.3,0,0.7,0,1,0C50.8,203.4,51.1,203.5,51.5,203.5z"/>
	<path class="st11" d="M36.1,212h0.7l-0.3-5.5h-0.9l-1,2.7c-0.2,0.7-0.4,1.3-0.6,1.9h0c-0.1-0.6-0.3-1.2-0.5-1.9l-0.9-2.7h-0.9
		l-0.4,5.5H32l0.1-2.4c0-0.8,0.1-1.8,0.1-2.5h0c0.2,0.7,0.4,1.4,0.6,2.2l0.9,2.6h0.5l1-2.7c0.3-0.8,0.5-1.5,0.7-2.1h0
		c0,0.7,0,1.6,0.1,2.4L36.1,212L36.1,212z M37.8,206.4v5.5h0.8v-2.6h2.9v2.6h0.8v-5.5h-0.8v2.3h-2.9v-2.3H37.8L37.8,206.4z
		 M45.9,206.3c-1.6,0-2.8,1.2-2.8,2.9c0,1.7,1.1,2.8,2.7,2.8c1.5,0,2.8-1,2.8-2.9C48.6,207.5,47.6,206.3,45.9,206.3L45.9,206.3z
		 M45.9,206.9c1.3,0,1.9,1.2,1.9,2.3c0,1.3-0.7,2.3-1.9,2.3c-1.2,0-1.9-1.1-1.9-2.3C43.9,208,44.6,206.9,45.9,206.9L45.9,206.9z
		 M49.4,206.4v5.5h0.8V207h2.4v-0.6H49.4L49.4,206.4z M55.3,206.3c1.7,0,2.7,1.2,2.7,2.8c0,1.9-1.3,2.9-2.8,2.9
		c-1.6,0-2.7-1.1-2.7-2.8C52.5,207.5,53.7,206.3,55.3,206.3L55.3,206.3z M55.3,206.9c-1.3,0-1.9,1.1-1.9,2.3c0,1.2,0.7,2.3,1.9,2.3
		c1.2,0,1.9-1,1.9-2.3C57.2,208.1,56.6,206.9,55.3,206.9L55.3,206.9z M58.9,206.4v5.5h0.8V207h2.8v4.9h0.8v-5.5H58.9L58.9,206.4z
		 M64.4,212h0.8v-2.2c0.2,0,0.4,0,0.6,0c0.8,0,1.4-0.2,1.9-0.6c0.3-0.3,0.5-0.7,0.5-1.2c0-0.5-0.2-0.9-0.5-1.2
		c-0.4-0.3-0.9-0.5-1.7-0.5c-0.6,0-1.1,0-1.5,0.1V212L64.4,212z M65.2,207c0.1,0,0.4-0.1,0.7-0.1c0.9,0,1.4,0.4,1.4,1.1
		c0,0.8-0.6,1.2-1.5,1.2c-0.3,0-0.5,0-0.6-0.1V207L65.2,207z M71.4,206.3c-1.6,0-2.8,1.2-2.8,2.9c0,1.7,1.1,2.8,2.7,2.8
		c1.5,0,2.8-1,2.8-2.9C74.1,207.5,73.1,206.3,71.4,206.3L71.4,206.3z M71.4,206.9c1.3,0,1.9,1.2,1.9,2.3c0,1.3-0.7,2.3-1.9,2.3
		c-1.2,0-1.9-1.1-1.9-2.3C69.4,208,70.1,206.9,71.4,206.9L71.4,206.9z M77.2,206.2v0.5c-1.2,0.1-2.6,0.7-2.6,2.5
		c0,1.8,1.3,2.4,2.5,2.5v0.5h0.8v-0.5c1.3-0.1,2.6-0.7,2.6-2.5c0-1.7-1.3-2.4-2.5-2.5v-0.5H77.2L77.2,206.2z M77.1,211.2
		c-0.9-0.1-1.7-0.6-1.7-2c0-1.4,1-2,1.7-2V211.2L77.1,211.2z M77.9,207.2c0.9,0,1.7,0.6,1.7,2c0,1.4-0.9,1.9-1.7,2V207.2L77.9,207.2
		z M81.3,206.4v5.5h0.8l1.9-2.8c0.4-0.6,0.8-1.3,1.1-1.9l0,0c-0.1,0.7-0.1,1.4-0.1,2.3l0,2.4h0.7v-5.5h-0.8l-2,2.9
		c-0.4,0.7-0.8,1.3-1.1,1.8l0,0c0.1-0.7,0.1-1.5,0.1-2.3l0-2.3H81.3L81.3,206.4z M87.5,206.4v2.3c0,0.9,0,2-0.5,2.4
		c-0.1,0.1-0.4,0.3-0.6,0.3l0.1,0.6c0.4,0,0.7-0.1,0.9-0.3c0.8-0.5,0.9-1.9,0.9-3.1V207h2v4.9H91v-5.5H87.5L87.5,206.4z M92.2,206.4
		v5.5c0.3,0,0.7,0.1,1.2,0.1c0.8,0,1.7-0.2,2.2-0.6c0.3-0.3,0.5-0.7,0.5-1.2c0-1.2-1.1-1.7-2.3-1.7c-0.2,0-0.6,0-0.7,0v-2.1H92.2
		L92.2,206.4z M93,209.1c0.2,0,0.4,0,0.6,0c0.9,0,1.6,0.3,1.6,1.2c0,0.9-0.7,1.2-1.6,1.2c-0.3,0-0.5,0-0.6,0V209.1L93,209.1z
		 M96.9,206.4v5.5h0.8v-2.6h2.9v2.6h0.8v-5.5h-0.8v2.3h-2.9v-2.3H96.9L96.9,206.4z M105.7,210.2l0.6,1.7h0.8l-2.1-5.5h-0.9l-2.1,5.5
		h0.8l0.6-1.7H105.7L105.7,210.2z M103.7,209.7l0.6-1.6c0.1-0.3,0.2-0.7,0.3-1h0c0.1,0.3,0.2,0.7,0.3,1l0.6,1.6H103.7L103.7,209.7z
		 M108.2,212c0.1-0.1,0.1-0.3,0.2-0.4c0.2-0.5,0.4-1.3,0.8-1.7c0.2-0.2,0.5-0.3,0.9-0.3h0.6v2.4h0.8v-5.5c-0.4-0.1-0.9-0.1-1.4-0.1
		c-0.8,0-1.4,0.1-1.7,0.4c-0.3,0.3-0.6,0.6-0.6,1.1c0,0.8,0.6,1.3,1.3,1.4v0c-0.2,0.1-0.4,0.2-0.5,0.3c-0.5,0.5-0.6,1.2-0.9,1.9
		c-0.1,0.2-0.2,0.4-0.3,0.5H108.2L108.2,212z M110.6,209c-0.2,0-0.4,0-0.7,0c-0.9,0-1.5-0.4-1.5-1.1c0-0.8,0.7-1,1.4-1
		c0.4,0,0.6,0,0.7,0.1V209L110.6,209z M119.1,206.4v5.5h0.8v-2.5h0.3c1,0,1.4,0.5,1.7,1.2c0.2,0.4,0.3,0.9,0.6,1.3h0.8
		c-0.3-0.5-0.4-1-0.7-1.6c-0.3-0.7-0.7-1.3-1.7-1.4l2.3-2.5h-0.9l-2.1,2.5h-0.2v-2.5H119.1L119.1,206.4z M124.5,206.4v2.3
		c0,0.9,0,2-0.5,2.4c-0.1,0.1-0.4,0.3-0.6,0.3l0.1,0.6c0.4,0,0.7-0.1,0.9-0.3c0.8-0.5,0.9-1.9,0.9-3.1V207h2v4.9h0.8v-5.5H124.5
		L124.5,206.4z M129.1,206.4v5.5h0.8l1.9-2.8c0.4-0.6,0.8-1.3,1.1-1.9l0,0c-0.1,0.7-0.1,1.4-0.1,2.3v2.4h0.7v-5.5h-0.8l-2,2.9
		c-0.4,0.7-0.8,1.3-1.1,1.8l0,0c0.1-0.7,0.1-1.5,0.1-2.3v-2.3H129.1L129.1,206.4z M134.7,206.4v5.5h0.8v-2.6h2.9v2.6h0.8v-5.5h-0.8
		v2.3h-2.9v-2.3H134.7L134.7,206.4z M140.3,206.4v5.5h0.8l1.9-2.8c0.4-0.6,0.8-1.3,1.1-1.9l0,0c-0.1,0.7-0.1,1.4-0.1,2.3v2.4h0.7
		v-5.5h-0.8l-2,2.9c-0.4,0.7-0.8,1.3-1.1,1.8l0,0c0.1-0.7,0.1-1.5,0.1-2.3v-2.3H140.3L140.3,206.4z M146,206.4v5.5h0.8v-2.5h0.3
		c1,0,1.4,0.5,1.7,1.2c0.2,0.4,0.3,0.9,0.6,1.3h0.8c-0.3-0.5-0.4-1-0.7-1.6c-0.3-0.7-0.7-1.3-1.7-1.4l2.3-2.5h-0.9l-2.1,2.5h-0.2
		v-2.5H146L146,206.4z M153.7,210.2l0.6,1.7h0.8l-2.1-5.5h-0.9l-2.1,5.5h0.8l0.6-1.7H153.7L153.7,210.2z M151.8,209.7l0.6-1.6
		c0.1-0.3,0.2-0.7,0.3-1h0c0.1,0.3,0.2,0.7,0.3,1l0.6,1.6H151.8z"/>
</g>
<g>
	<path class="st9" d="M248.1,194.4c1.3,0,2.3-1,2.3-2.3c0-1.3-1-2.3-2.3-2.3c-1.3,0-2.3,1-2.3,2.3
		C245.8,193.4,246.9,194.4,248.1,194.4z"/>
	<path class="st9" d="M248.1,200.4c1.3,0,2.3-1,2.3-2.3c0-1.3-1-2.3-2.3-2.3c-1.3,0-2.3,1-2.3,2.3
		C245.8,199.3,246.9,200.4,248.1,200.4z"/>
	<path class="st9" d="M248.1,206.3c1.3,0,2.3-1,2.3-2.3c0-1.3-1-2.3-2.3-2.3c-1.3,0-2.3,1-2.3,2.3
		C245.8,205.2,246.9,206.3,248.1,206.3z"/>
</g>
<g>
	<path class="st6" d="M229.1,194.4c1.3,0,2.4-1.1,2.4-2.4c0-1.3-1.1-2.4-2.4-2.4c-1.3,0-2.4,1.1-2.4,2.4
		C226.7,193.3,227.8,194.4,229.1,194.4z"/>
	<path class="st6" d="M229.1,200.4c1.3,0,2.4-1.1,2.4-2.4c0-1.3-1.1-2.4-2.4-2.4c-1.3,0-2.4,1.1-2.4,2.4
		C226.7,199.3,227.8,200.4,229.1,200.4z"/>
	<path class="st6" d="M229.1,206.4c1.3,0,2.4-1.1,2.4-2.4c0-1.3-1.1-2.4-2.4-2.4c-1.3,0-2.4,1.1-2.4,2.4
		C226.7,205.3,227.8,206.4,229.1,206.4z"/>
</g>
<path class="st12" d="M198.5,191.4L198.5,191.4c0.6-0.6,1.7-0.6,2.3,0l4.3,4.3l4.3-4.3c0.6-0.6,1.7-0.6,2.3,0l0,0
	c0.6,0.6,0.6,1.7,0,2.3l-4.3,4.3l4.3,4.3c0.6,0.6,0.6,1.7,0,2.3c-0.6,0.6-1.7,0.6-2.3,0l-4.3-4.3l-4.3,4.3c-0.6,0.6-1.7,0.6-2.3,0
	l0,0c-0.6-0.6-0.6-1.7,0-2.3l4.3-4.3l-4.3-4.3C197.9,193.1,197.9,192,198.5,191.4L198.5,191.4z M211.9,204.7"/>
<path class="st6" d="M270.9,201.8l3.6-3.6c0.2-0.2,0.6-0.2,0.9,0v0c0.2,0.2,0.2,0.6,0,0.9l-4.6,4.6c-0.1,0.1-0.2,0.3-0.4,0.3l0,0
	l0,0l0,0c-0.1,0-0.1,0-0.2,0h0l0,0h0l0,0h0l0,0h0l0,0h0l0,0l0,0h0c-0.1,0-0.1,0-0.2,0l0,0l0,0l0,0c-0.2-0.1-0.3-0.2-0.4-0.3
	l-4.6-4.6c-0.2-0.2-0.2-0.6,0-0.9v0c0.2-0.2,0.6-0.2,0.9,0l3.6,3.6v-9c0-0.4,0.3-0.7,0.7-0.7h0c0.4,0,0.7,0.3,0.7,0.7V201.8z"/>
<path class="st8" d="M296,201.8l3.6-3.6c0.2-0.2,0.6-0.2,0.9,0v0c0.2,0.2,0.2,0.6,0,0.9l-4.6,4.6c-0.1,0.1-0.2,0.3-0.4,0.3l0,0l0,0
	l0,0c-0.1,0-0.1,0-0.2,0l0,0l0,0h0l0,0h0l0,0h0l0,0l0,0l0,0l0,0h0c-0.1,0-0.1,0-0.2,0l0,0l0,0l0,0c-0.2-0.1-0.3-0.2-0.4-0.3
	l-4.6-4.6c-0.2-0.2-0.2-0.6,0-0.9v0c0.2-0.2,0.6-0.2,0.9,0l3.6,3.6v-9c0-0.4,0.3-0.7,0.7-0.7h0c0.4,0,0.7,0.3,0.7,0.7V201.8z"/>
<path class="st5" d="M451.3,35c-3.2-3-7.2-4.4-11.2-4.2c-4,0.1-8,1.8-10.9,5c-3,3.2-4.4,7.2-4.2,11.2c0.1,4,1.8,8,5,10.9
	c2.7,2.5,6,3.9,9.4,4.2c3.5,0.3,7-0.6,10-2.5c1.4-0.9,2.9-0.1,4.7,0.8c1.2,0.6,2.6,1.4,2.6,1.3c0.2-0.2-0.6-1.7-1.3-3
	c-0.9-1.7-1.7-3.2-0.9-4.6c1.7-3.1,2.3-6.7,1.8-10.1C455.5,40.7,453.9,37.5,451.3,35L451.3,35z M433.5,35.3h9.9h0.3l0.3,0.2l5.4,3.8
	l0.5,0.3v0.6v15.8V57h-17.4V35.3H433.5L433.5,35.3z M436.5,41.8h9.2v2.1h-9.2V41.8L436.5,41.8z M436.5,49.8h9.2V52l-9.2,0V49.8
	L436.5,49.8z M436.5,45.8l9.2,0V48h-9.2V45.8L436.5,45.8z M443,37.4l4.6,3.2v14.2h-13.1V37.4H443L443,37.4z M439.9,27.1
	c5-0.2,10,1.6,13.9,5.2c3.3,3.1,5.3,7,5.9,11.2c1.1,7.1-2.9,10.4-1.3,13.5c1.3,2.3,2.7,5.1,0.8,7.3c-2,2.1-4.8,0.7-7.1-0.6
	c-2.9-1.5-6,2.7-13.2,2.1c-4.2-0.4-8.3-2.1-11.6-5.2c-3.9-3.7-6-8.6-6.1-13.5c-0.2-5,1.6-10,5.2-13.9
	C430.1,29.3,435,27.2,439.9,27.1z"/>
<g>
	<path class="st13" d="M59.3,232.2c-0.3,0.1-0.7,0.2-1,0.3c0.4-0.2,0.6-0.6,0.8-1c-0.3,0.2-0.7,0.3-1.1,0.4
		c-0.3-0.3-0.8-0.6-1.3-0.6c-1,0-1.8,0.8-1.8,1.8c0,0.1,0,0.3,0,0.4c-1.5-0.1-2.8-0.8-3.6-1.8c-0.2,0.3-0.2,0.6-0.2,0.9
		c0,0.6,0.3,1.2,0.8,1.5c-0.3,0-0.6-0.1-0.8-0.2c0,0,0,0,0,0c0,0.9,0.6,1.6,1.4,1.7c-0.1,0-0.3,0.1-0.5,0.1c-0.1,0-0.2,0-0.3,0
		c0.2,0.7,0.9,1.2,1.7,1.2c-0.6,0.5-1.4,0.8-2.2,0.8c-0.1,0-0.3,0-0.4,0c0.8,0.5,1.7,0.8,2.7,0.8c3.3,0,5-2.7,5-5c0-0.1,0-0.2,0-0.2
		C58.8,232.9,59.1,232.6,59.3,232.2z"/>
</g>
<g>
	<path class="st7" d="M97.9,236.5l0.6,1.2L97.9,236.5L97.9,236.5z M96,235.8l0.2,0.2L96,235.8L96,235.8z M96.5,236.6l0.4,0.6
		L96.5,236.6L96.5,236.6z M97.3,237.7l0.3,0.5l0,0l0,0l0.1-0.1L97.3,237.7L97.3,237.7z M98.2,237.7l0.3-0.2L98.2,237.7L98.2,237.7z
		 M98.5,237.3l-1.2,0.4L98.5,237.3L98.5,237.3z M97,237.8l-0.4-0.3L97,237.8L97,237.8z M96.2,237.3l-0.4-0.3L96.2,237.3L96.2,237.3z
		 M95.4,236.8l-0.4-0.2L95.4,236.8L95.4,236.8z M94.2,236L94.2,236L94.2,236L94.2,236L94.2,236z M95,236.6l0.4,0.2L95,236.6
		L95,236.6z M95.8,237.1l0.4,0.3L95.8,237.1L95.8,237.1z M96.5,237.5l0.4,0.3L96.5,237.5L96.5,237.5z M97.3,238l0.3,0.2l0,0
		L97.3,238L97.3,238z M97.6,238.2l-0.3-0.5L97.6,238.2L97.6,238.2z M97,237.2l-0.4-0.7L97,237.2L97,237.2z M96.2,236l-0.2-0.2
		L96.2,236L96.2,236z M94.2,236.1l-0.2-0.3L94.2,236.1L94.2,236.1z M93.7,235.8l0.4,0.3L93.7,235.8L93.7,235.8z M97.6,238.2
		L97.6,238.2L97.6,238.2L97.6,238.2L97.6,238.2z M93.4,235.1h4.6c0.6,0,1.1,0.5,1.1,1.1v2.3c0,0.6-0.5,1.1-1.1,1.1h-4.6
		c-0.6,0-1.1-0.5-1.1-1.1v-2.3C92.3,235.6,92.8,235.1,93.4,235.1L93.4,235.1z M98.1,231.3v2.5c-0.1,0.1-0.1,0.1-0.2,0.2
		c-0.1,0-0.1,0.1-0.2,0.1c-0.1,0-0.1,0-0.1-0.1c0,0,0-0.1,0-0.2v-2.5h-0.6v2.7c0,0.2,0,0.3,0.1,0.4s0.2,0.1,0.3,0.1
		c0.1,0,0.2,0,0.3-0.1c0.1-0.1,0.2-0.2,0.3-0.3v0.4h0.6v-3.2H98.1L98.1,231.3z M94.9,234.4c0.2,0.2,0.4,0.2,0.6,0.2h0
		c0.3,0,0.5-0.1,0.6-0.2c0.2-0.2,0.2-0.4,0.2-0.7v-1.7c0-0.2-0.1-0.4-0.2-0.6c-0.2-0.2-0.4-0.2-0.6-0.2c-0.3,0-0.5,0.1-0.7,0.2
		c-0.2,0.1-0.2,0.3-0.2,0.6l0,1.7C94.7,234,94.8,234.2,94.9,234.4L94.9,234.4z M95.3,232L95.3,232c0-0.1,0-0.1,0.1-0.2
		c0,0,0.1-0.1,0.2-0.1c0.1,0,0.1,0,0.2,0.1c0,0,0.1,0.1,0.1,0.2v1.8c0,0.1,0,0.2-0.1,0.2c0,0-0.1,0.1-0.2,0.1c-0.1,0-0.1,0-0.2-0.1
		c0,0-0.1-0.1-0.1-0.2V232L95.3,232z M94.7,230.2l-0.8,2.6v1.8h-0.7v-1.7l-0.8-2.6v0h0.7l0.4,1.8h0l0.4-1.8H94.7L94.7,230.2z
		 M94.2,235.8v0.1v0.1v0v0v0.1h-0.5v2.6h-0.5v-2.6h-0.5v-0.4h0.9H94h0h0H94.2L94.2,235.8z M95,238.3L95,238.3c0,0-0.1,0.1-0.1,0.1
		c0,0-0.1,0-0.1,0c0,0-0.1,0-0.1,0c0,0,0-0.1,0-0.1v-1.7h-0.4v1.8c0,0.1,0,0.2,0.1,0.3c0,0.1,0.1,0.1,0.2,0.1c0.1,0,0.2,0,0.2-0.1
		c0.1,0,0.2-0.1,0.2-0.2v0.2h0.4v-2v-0.1v-0.1h-0.1H95h0h0V238.3L95,238.3z M96.6,236.6L96.6,236.6L96.6,236.6L96.6,236.6
		L96.6,236.6c-0.1,0-0.1,0-0.2,0.1c-0.1,0-0.1,0.1-0.2,0.2V236v0v-0.1v-0.1h-0.1h0h0h-0.3v1.3v0v0v1.7h0.4v-0.2
		c0.1,0.1,0.1,0.1,0.2,0.1c0.1,0,0.1,0,0.2,0c0.1,0,0.2,0,0.3-0.1c0.1-0.1,0.1-0.2,0.1-0.4v-0.5v-0.1v-0.5v-0.1c0-0.1,0-0.1,0-0.2
		c0-0.1,0-0.2-0.1-0.2l0,0C96.8,236.6,96.7,236.6,96.6,236.6L96.6,236.6z M96.5,238.3L96.5,238.3c0,0.1,0,0.1,0,0.2c0,0-0.1,0-0.1,0
		c0,0-0.1,0-0.1,0c0,0-0.1,0-0.1-0.1v-1.1v-0.1V237c0,0,0.1-0.1,0.1-0.1c0,0,0.1,0,0.1,0c0.1,0,0.1,0,0.1,0.1c0,0,0,0.1,0,0.2v0.4v0
		v0V238.3L96.5,238.3z M98.5,237.7L98.5,237.7v-0.3v-0.1v-0.2c0-0.2-0.1-0.4-0.2-0.5c0-0.1-0.1-0.1-0.2-0.1c-0.1,0-0.2,0-0.3,0l0,0
		c-0.2,0-0.3,0.1-0.4,0.2c-0.1,0.1-0.2,0.3-0.2,0.5v0.5v0v0v0v0v0v0.2v0v0.2c0,0.2,0.1,0.4,0.2,0.5c0.1,0.1,0.3,0.2,0.4,0.2
		c0.2,0,0.4-0.1,0.5-0.2c0.1-0.1,0.2-0.3,0.2-0.5V238h-0.4v0.2c0,0.1,0,0.2,0,0.3c0,0-0.1,0.1-0.1,0.1c-0.1,0-0.1,0-0.1-0.1
		c0,0,0-0.1,0-0.2v0l0,0v0V238v-0.3H98.5L98.5,237.7z M97.7,237.2L97.7,237.2c0-0.1,0-0.2,0-0.2c0,0,0.1-0.1,0.1-0.1
		c0.1,0,0.1,0,0.1,0.1c0,0,0,0.1,0,0.2v0.2h-0.4V237.2z"/>
</g>
<path class="st13" d="M34.8,233.5h0.8v-0.4v-0.4v-0.1c0-0.4,0-0.9,0.3-1.3c0.3-0.4,0.7-0.6,1.3-0.6c1.1,0,1.5,0.2,1.5,0.2l-0.2,1.3
	c0,0-0.4-0.1-0.7-0.1c-0.3,0-0.6,0.1-0.6,0.4v0.1v0.4v0.4h1.4l-0.1,1.2h-1.3v4.3h-1.6v-4.3h-0.8V233.5z"/>
<g>
	<path class="st7" d="M111.8,235.1l0-1.6c0-0.8,0-1.5,0.7-2c0.6-0.4,1.7-0.3,2.4-0.3c0.8,0,1.9-0.1,2.7,0.1c0.8,0.1,1.2,0.6,1.4,1.4
		c0.1,0.8,0.1,1.6,0.1,2.4c0,0.6,0,1.7-0.1,2.3c-0.2,0.7-0.9,1-1.6,1.1c-1.2,0-2.5,0.1-3.7,0c-1.3-0.1-1.7-0.7-1.8-2L111.8,235.1
		L111.8,235.1z M111.6,231.4c-0.3,0.4-0.4,0.6-0.5,1.2c-0.1,0.5-0.1,1.1-0.1,1.6l0,1.7c0,0.6,0,1.2,0.2,1.7c0.6,1.7,2.1,1.7,3.7,1.7
		c0.9,0,2.4,0.1,3.3-0.2c0.2-0.1,0.5-0.2,0.7-0.3c0.1-0.1,0.2-0.1,0.3-0.2c0.1-0.1,0.2-0.2,0.2-0.2c0.1-0.1,0.2-0.3,0.2-0.4
		c0.1-0.1,0.1-0.3,0.2-0.5c0.1-0.4,0.1-0.7,0.1-1.1c0-0.7,0-1.5,0-2.3c0-0.7,0-1.4-0.2-2.1c-0.3-0.7-0.7-1.2-1.5-1.4
		c-0.6-0.2-1.2-0.2-1.7-0.2c-0.6,0-1.3,0-1.9,0C113.2,230.5,112.5,230.4,111.6,231.4z"/>
	<path class="st7" d="M113.9,234.8c0.1-1,1.1-1.6,2.1-1.2c0.9,0.4,1.1,1.6,0.5,2.3c-0.4,0.5-1.1,0.6-1.7,0.4
		C114.2,236,113.9,235.4,113.9,234.8L113.9,234.8z M113.5,233.6c-0.3,0.6-0.4,0.9-0.4,1.6c0.1,0.4,0.2,0.7,0.4,1
		c0.3,0.4,0.4,0.4,0.7,0.7c0.2,0,0.3,0.2,0.5,0.2c0.2,0.1,0.4,0.1,0.7,0.1c0.4,0,0.8-0.1,1.1-0.3c0.4-0.2,0.5-0.4,0.7-0.7
		c0.4-0.8,0.5-1.5,0.1-2.3c-0.4-0.7-0.9-1-1.7-1.2c-0.5,0-0.9,0-1.4,0.2C114,233.1,113.8,233.3,113.5,233.6z"/>
	<path class="st7" d="M117.2,232.5c0,0.7,0.9,0.7,1,0.1C118.4,231.9,117.3,231.7,117.2,232.5z"/>
</g>
<path class="st14" d="M170.2,202.7v-2.2h13.5v2.2H170.2L170.2,202.7z M170.2,195.6v-2.2h13.5v2.2H170.2L170.2,195.6z M170.2,199.2
	v-2.2h13.5v2.2H170.2z"/>
<path class="st6" d="M266.6,139.7h11.1c1,0,1.8,0.4,2.4,1c0.6,0.6,1,1.5,1,2.4v11.1c0,1-0.4,1.8-1,2.4c-0.6,0.6-1.5,1-2.4,1h-11.1
	c-1,0-1.8-0.4-2.4-1c-0.6-0.6-1-1.5-1-2.4v-3h2.1v3c0,0.4,0.1,0.7,0.4,0.9c0.2,0.2,0.6,0.4,0.9,0.4h11.1c0.4,0,0.7-0.1,0.9-0.4
	c0.2-0.2,0.4-0.6,0.4-0.9v-11.1c0-0.4-0.1-0.7-0.4-0.9c-0.2-0.2-0.6-0.4-0.9-0.4h-11.1c-0.4,0-0.7,0.1-0.9,0.4
	c-0.2,0.2-0.4,0.6-0.4,0.9v3h-2.1v-3c0-1,0.4-1.8,1-2.4C264.8,140.1,265.7,139.7,266.6,139.7L266.6,139.7z M273.2,142.8l-1.8,1.2
	l2.6,3.6h-10.8v2.1H274l-2.6,3.6l1.8,1.2l4.2-5.9l0,0l0,0l0,0l0,0L273.2,142.8z"/>
<path class="st7" d="M367.3,142.2c3.4,0,6.1,2.7,6.1,6.1c0,1.3-0.4,2.6-1.2,3.6l0,0l1.5,1.8c0.5,0.6,0.5,1.6-0.2,2.1l0,0
	c-0.6,0.5-1.6,0.5-2.1-0.2l-1.5-1.8l0,0c-0.8,0.4-1.7,0.6-2.6,0.6c-3.4,0-6.1-2.7-6.1-6.1C361.2,144.9,363.9,142.2,367.3,142.2
	L367.3,142.2z M367.3,144.6c-2,0-3.7,1.7-3.7,3.7c0,2,1.7,3.7,3.7,3.7c2,0,3.7-1.7,3.7-3.7C371,146.2,369.3,144.6,367.3,144.6z"/>
<path class="st7" d="M403.4,156.9h-15.1c0.5-3.7,3.1-6.6,6.4-7.1c-1.8-0.5-3.1-2.1-3.1-4.1c0-2.4,1.9-4.3,4.3-4.3
	c2.4,0,4.3,1.9,4.3,4.3c0,2-1.3,3.6-3.1,4.1C400.3,150.3,402.9,153.2,403.4,156.9z"/>
<path class="st7" d="M358.8,198l-12,12c-0.7,0.7-0.7,1.8,0,2.5h0c0.7,0.7,1.8,0.7,2.5,0l13-13c0.1-0.1,0.2-0.2,0.3-0.3l0,0
	c0.3-0.3,0.5-0.8,0.5-1.3v0c0-0.5-0.2-0.9-0.5-1.3l0,0c-0.1-0.1-0.2-0.2-0.3-0.3l-13-13c-0.7-0.7-1.8-0.7-2.5,0h0
	c-0.7,0.7-0.7,1.8,0,2.5L358.8,198z"/>
<path class="st7" d="M392.5,193.9l12,12c0.7,0.7,1.8,0.7,2.5,0v0c0.7-0.7,0.7-1.8,0-2.5l-13-13c-0.1-0.1-0.2-0.2-0.3-0.3l0,0
	c-0.3-0.3-0.8-0.5-1.3-0.5h0c-0.5,0-0.9,0.2-1.3,0.5l0,0c-0.1,0.1-0.2,0.2-0.3,0.3l-13,13c-0.7,0.7-0.7,1.8,0,2.5v0
	c0.7,0.7,1.8,0.7,2.5,0L392.5,193.9z"/>
<path class="st7" d="M436.9,202.2l-12-12c-0.7-0.7-1.8-0.7-2.5,0v0c-0.7,0.7-0.7,1.8,0,2.5l13,13c0.1,0.1,0.2,0.2,0.3,0.3l0,0
	c0.3,0.3,0.8,0.5,1.3,0.5h0c0.5,0,0.9-0.2,1.3-0.5l0,0c0.1-0.1,0.2-0.2,0.3-0.3l13-13c0.7-0.7,0.7-1.8,0-2.5v0
	c-0.7-0.7-1.8-0.7-2.5,0L436.9,202.2z"/>
<path class="st7" d="M319.3,198l12,12c0.7,0.7,0.7,1.8,0,2.5h0c-0.7,0.7-1.8,0.7-2.5,0l-13-13c-0.1-0.1-0.2-0.2-0.3-0.3l0,0
	c-0.3-0.3-0.5-0.8-0.5-1.3v0c0-0.5,0.2-0.9,0.5-1.3l0,0c0.1-0.1,0.2-0.2,0.3-0.3l13-13c0.7-0.7,1.8-0.7,2.5,0h0
	c0.7,0.7,0.7,1.8,0,2.5L319.3,198z"/>
<polygon class="st7" points="422.1,146.9 424.4,149.1 426.6,151.4 422.1,151.4 417.6,151.4 419.9,149.1 "/>
<path class="st7" d="M71.5,232.1c-0.4,0.1-0.2,0.7-0.1,1.1c0.6,1.9,2.3,4.6,4.5,4.5c0.7,0,0.5-0.4,0.5-1c0-0.4-0.1-1.1,0.5-0.8
	c0.6,0.3,1.1,1.2,1.5,1.6c0.2,0.2,0.2,0.2,0.5,0.2c1.3,0,1.9,0.1,0.4-1.7c-0.1-0.2-0.6-0.7-0.6-0.9c-0.1-0.2,0.4-0.8,0.5-0.9
	c0.2-0.2,1.1-1.6,1-2c-0.1-0.2-1.1-0.2-1.3-0.1c-0.3,0-0.5,0.5-0.7,0.8c-0.2,0.5-0.9,1.5-1.3,1.7c-0.6,0.3-0.5-0.6-0.5-0.9
	c0-1.7,0.1-1.6-0.6-1.6c-0.2,0-0.5,0-0.7,0c-0.4,0-1.2-0.1-0.8,0.5c0.4,0.6,0.3,1.1,0.3,2c0,0.2,0,0.6-0.2,0.5c-0.4,0-1-1.3-1.2-1.8
	c-0.1-0.3-0.3-0.9-0.4-1.1C72.7,232,71.7,232,71.5,232.1z"/>
</svg>
