<?xml version="1.0" encoding="utf-8"?>
<!-- Generator: Adobe Illustrator 19.1.0, SVG Export Plug-In . SVG Version: 6.00 Build 0)  -->
<svg version="1.1" id="_x31_" xmlns="http://www.w3.org/2000/svg" xmlns:xlink="http://www.w3.org/1999/xlink" x="0px" y="0px"
	 viewBox="0 0 595.3 841.9" style="enable-background:new 0 0 595.3 841.9;" xml:space="preserve">
<style type="text/css">
	.st0{opacity:0.5;fill-rule:evenodd;clip-rule:evenodd;}
	.st1{fill-rule:evenodd;clip-rule:evenodd;fill:#FC051E;}
	.st2{fill-rule:evenodd;clip-rule:evenodd;fill:#365382;}
	.st3{fill-rule:evenodd;clip-rule:evenodd;fill:#FFCC00;}
	.st4{fill-rule:evenodd;clip-rule:evenodd;fill:#BDCFF2;}
	.st5{fill-rule:evenodd;clip-rule:evenodd;fill:#508EF4;}
	.st6{fill-rule:evenodd;clip-rule:evenodd;fill:#FFFFFF;}
	.st7{fill-rule:evenodd;clip-rule:evenodd;fill:#95A6C4;}
	.st8{fill-rule:evenodd;clip-rule:evenodd;fill:#EF041D;}
	.st9{fill-rule:evenodd;clip-rule:evenodd;fill:#3972D1;}
	.st10{fill-rule:evenodd;clip-rule:evenodd;fill:#617599;}
	.st11{fill-rule:evenodd;clip-rule:evenodd;fill:#D2E1FA;}
	.st12{fill-rule:evenodd;clip-rule:evenodd;fill:#FEFEFE;}
	.st13{fill-rule:evenodd;clip-rule:evenodd;fill:#778CB0;}
</style>
<g id="icon-red-star">
	<path class="st0" d="M47,28c0.6,0.1,1.3,0.2,1.9,0.4l3.9-2.1l1.3,4.3c0.6,0.3,1.1,0.7,1.6,1.1l4.4-0.4l-0.5,4.4
		c0.4,0.5,0.7,1.1,1.1,1.6l4.2,1.3l-2.1,3.9c0.2,0.6,0.3,1.3,0.4,1.9l3.4,2.8L63.1,50c-0.1,0.6-0.2,1.3-0.4,1.9l2.1,3.9l-4.3,1.3
		c-0.3,0.6-0.7,1.1-1.1,1.6l0.4,4.4l-4.4-0.5c-0.5,0.4-1.1,0.7-1.6,1.1l-1.3,4.2l-3.9-2.1c-0.6,0.2-1.3,0.3-1.9,0.4l-2.8,3.4
		l-2.8-3.4c-0.6-0.1-1.3-0.2-1.9-0.4l-3.9,2.1L34,63.5c-0.6-0.3-1.1-0.7-1.6-1.1L28,62.8l0.5-4.4c-0.4-0.5-0.7-1.1-1.1-1.6l-4.2-1.3
		l2.1-3.9c-0.2-0.6-0.3-1.3-0.4-1.9l-3.4-2.8L25,44c0.1-0.6,0.2-1.3,0.4-1.9l-2.1-3.9l4.3-1.3c0.3-0.6,0.7-1.1,1.1-1.6L28.3,31
		l4.4,0.5c0.5-0.4,1.1-0.7,1.6-1.1l1.3-4.2l3.9,2.1c0.6-0.2,1.3-0.3,1.9-0.4l2.8-3.4L47,28z" style="fill: var(--secondary-color); opacity:0.5;fill-rule:evenodd;clip-rule:evenodd;"/>
	<path class="st1" d="M45.7,26.8c0.6,0.1,1.3,0.2,1.9,0.4l3.9-2.1l1.3,4.3c0.6,0.3,1.1,0.7,1.6,1.1l4.4-0.4l-0.5,4.4
		c0.4,0.5,0.7,1.1,1.1,1.6l4.2,1.3l-2.1,3.9c0.2,0.6,0.3,1.3,0.4,1.9l3.4,2.8l-3.4,2.8c-0.1,0.6-0.2,1.3-0.4,1.9l2.1,3.9l-4.3,1.3
		c-0.3,0.6-0.7,1.1-1.1,1.6l0.4,4.4l-4.4-0.5c-0.5,0.4-1.1,0.7-1.6,1.1l-1.3,4.2l-3.9-2.1c-0.6,0.2-1.3,0.3-1.9,0.4l-2.8,3.4
		l-2.8-3.4c-0.6-0.1-1.3-0.2-1.9-0.4L34,66.6l-1.3-4.3c-0.6-0.3-1.1-0.7-1.6-1.1l-4.4,0.4l0.5-4.4c-0.4-0.5-0.7-1.1-1.1-1.6
		l-4.2-1.3l2.1-3.9c-0.2-0.6-0.3-1.3-0.4-1.9l-3.4-2.8l3.4-2.8c0.1-0.6,0.2-1.3,0.4-1.9L22,37.1l4.3-1.3c0.3-0.6,0.7-1.1,1.1-1.6
		L27,29.8l4.4,0.5c0.5-0.4,1.1-0.7,1.6-1.1l1.3-4.2l3.9,2.1c0.6-0.2,1.3-0.3,1.9-0.4l2.8-3.4L45.7,26.8z" style="fill: var(--primary-color)"/>
</g>
<g id="icon-blue-star">
	<path class="st0" d="M108.1,28c0.6,0.1,1.3,0.2,1.9,0.4l3.9-2.1l1.3,4.3c0.6,0.3,1.1,0.7,1.6,1.1l4.4-0.4l-0.5,4.4
		c0.4,0.5,0.7,1.1,1.1,1.6l4.2,1.3l-2.1,3.9c0.2,0.6,0.3,1.3,0.4,1.9l3.4,2.8l-3.4,2.8c-0.1,0.6-0.2,1.3-0.4,1.9l2.1,3.9l-4.3,1.3
		c-0.3,0.6-0.7,1.1-1.1,1.6l0.4,4.4l-4.4-0.5c-0.5,0.4-1.1,0.7-1.6,1.1l-1.3,4.2l-3.9-2.1c-0.6,0.2-1.3,0.3-1.9,0.4l-2.8,3.4
		l-2.8-3.4c-0.6-0.1-1.3-0.2-1.9-0.4l-3.9,2.1l-1.3-4.3c-0.6-0.3-1.1-0.7-1.6-1.1l-4.4,0.4l0.5-4.4c-0.4-0.5-0.7-1.1-1.1-1.6
		l-4.2-1.3l2.1-3.9c-0.2-0.6-0.3-1.3-0.4-1.9l-3.4-2.8l3.4-2.8c0.1-0.6,0.2-1.3,0.4-1.9l-2.1-3.9l4.3-1.3c0.3-0.6,0.7-1.1,1.1-1.6
		L89.3,31l4.4,0.5c0.5-0.4,1.1-0.7,1.6-1.1l1.3-4.2l3.9,2.1c0.6-0.2,1.3-0.3,1.9-0.4l2.8-3.4L108.1,28z" style="fill: var(--secondary-color); opacity:0.5;fill-rule:evenodd;clip-rule:evenodd;"/>
	<path class="st2" d="M106.8,26.8c0.6,0.1,1.3,0.2,1.9,0.4l3.9-2.1l1.3,4.3c0.6,0.3,1.1,0.7,1.6,1.1l4.4-0.4l-0.5,4.4
		c0.4,0.5,0.7,1.1,1.1,1.6l4.2,1.3l-2.1,3.9c0.2,0.6,0.3,1.3,0.4,1.9l3.4,2.8l-3.4,2.8c-0.1,0.6-0.2,1.3-0.4,1.9l2.1,3.9l-4.3,1.3
		c-0.3,0.6-0.7,1.1-1.1,1.6l0.4,4.4l-4.4-0.5c-0.5,0.4-1.1,0.7-1.6,1.1l-1.3,4.2l-3.9-2.1c-0.6,0.2-1.3,0.3-1.9,0.4l-2.8,3.4
		l-2.8-3.4c-0.6-0.1-1.3-0.2-1.9-0.4L95,66.6l-1.3-4.3c-0.6-0.3-1.1-0.7-1.6-1.1l-4.4,0.4l0.5-4.4c-0.4-0.5-0.7-1.1-1.1-1.6
		l-4.2-1.3l2.1-3.9c-0.2-0.6-0.3-1.3-0.4-1.9l-3.4-2.8l3.4-2.8c0.1-0.6,0.2-1.3,0.4-1.9l-2.1-3.9l4.3-1.3c0.3-0.6,0.7-1.1,1.1-1.6
		L88,29.8l4.4,0.5c0.5-0.4,1.1-0.7,1.6-1.1l1.3-4.2l3.9,2.1c0.6-0.2,1.3-0.3,1.9-0.4l2.8-3.4L106.8,26.8z" style="fill: var(--primary-color)"/>
</g>
<g id="icon-yellow-star">
	<polygon class="st0" points="167.3,24.7 175.8,37.7 191,41.8 181.2,54 181.9,69.7 167.4,64.1 152.7,69.7 153.4,54.1 143.6,41.8 
		158.6,37.8 	" style="fill: var(--secondary-color); opacity:0.5;fill-rule:evenodd;clip-rule:evenodd;"/>
	<polygon class="st3" points="166,23.2 174.5,36.2 189.7,40.4 180,52.5 180.6,68.2 166.1,62.7 151.4,68.2 152.2,52.7 142.4,40.4 
		157.4,36.3 	" style="fill: var(--primary-color)"/>
</g>
<g id="icon-excl">
	<path class="st4" d="M336.1,33.2l-0.1,15.7h-6.6L329,33.2H336.1L336.1,33.2z M332.5,50.2c1.2,0,2.2,0.4,3.1,1.3
		c0.9,0.9,1.3,1.9,1.3,3.1c0,1.2-0.4,2.2-1.3,3.1c-0.9,0.8-1.9,1.3-3.1,1.3c-1.3,0-2.3-0.4-3.1-1.2c-0.8-0.8-1.2-1.9-1.2-3.1
		c0-1.2,0.4-2.3,1.3-3.1C330.3,50.6,331.3,50.2,332.5,50.2z"/>
	<path class="st4" d="M346.3,32.2c-3.9-3.7-9-5.4-14-5.2c-5,0.2-9.9,2.2-13.6,6.2c-3.7,3.9-5.4,9-5.2,14c0.2,5,2.2,9.9,6.2,13.6
		c3.3,3.1,7.5,4.8,11.7,5.2c7.2,0.6,10.4-3.7,13.3-2.2c2.4,1.3,5.1,2.7,7.1,0.6c2-2.1,0.5-4.9-0.8-7.3c-1.6-3.1,2.4-6.4,1.3-13.6
		C351.6,39.3,349.6,35.3,346.3,32.2L346.3,32.2z M332.4,30.7c4-0.1,8.1,1.3,11.3,4.2c2.7,2.5,4.3,5.7,4.8,9.1
		c0.5,3.4-0.1,7-1.8,10.1c-0.8,1.4,0,2.9,0.9,4.6c0.7,1.3,1.5,2.8,1.3,3c0,0.1-1.5-0.7-2.6-1.3c-1.8-0.9-3.3-1.8-4.7-0.8
		c-3,2-6.5,2.8-10,2.6c-3.4-0.3-6.7-1.7-9.4-4.2c-3.2-3-4.9-6.9-5-11c-0.1-4,1.3-8.1,4.2-11.3C324.4,32.5,328.4,30.8,332.4,30.7z"/>
</g>
<path id="icon-respond" class="st4" d="M397.5,35c-3.2-3-7.2-4.4-11.2-4.2c-4,0.1-8,1.8-10.9,5c-3,3.2-4.4,7.2-4.2,11.2
	c0.1,4,1.8,8,5,10.9c2.7,2.5,6,3.9,9.4,4.2c3.5,0.3,7-0.6,10-2.5c1.4-0.9,2.9-0.1,4.7,0.8c1.2,0.6,2.6,1.4,2.6,1.3
	c0.2-0.2-0.6-1.7-1.3-3c-0.9-1.7-1.7-3.2-0.9-4.6c1.7-3.1,2.3-6.7,1.8-10.1C401.8,40.7,400.2,37.5,397.5,35L397.5,35z M378.7,43.4
	c1.9,0,3.5,1.6,3.5,3.5c0,1.9-1.6,3.5-3.5,3.5c-1.9,0-3.5-1.6-3.5-3.5C375.2,45,376.8,43.4,378.7,43.4L378.7,43.4z M386.8,43.4
	c1.9,0,3.5,1.6,3.5,3.5c0,1.9-1.6,3.5-3.5,3.5c-1.9,0-3.5-1.6-3.5-3.5C383.3,45,384.9,43.4,386.8,43.4L386.8,43.4z M394.9,43.4
	c1.9,0,3.5,1.6,3.5,3.5c0,1.9-1.6,3.5-3.5,3.5s-3.5-1.6-3.5-3.5C391.4,45,393,43.4,394.9,43.4L394.9,43.4z M386.2,27.1
	c5-0.2,10,1.6,13.9,5.2c3.3,3.1,5.3,7,5.9,11.2c1.1,7.1-2.9,10.4-1.3,13.5c1.3,2.3,2.7,5.1,0.8,7.3c-2,2.1-4.8,0.7-7.1-0.6
	c-2.9-1.5-6,2.7-13.2,2.1c-4.2-0.4-8.3-2.1-11.6-5.2c-3.9-3.7-6-8.6-6.1-13.5c-0.2-5,1.6-10,5.2-13.9
	C376.3,29.3,381.2,27.2,386.2,27.1z"/>
<path id="icon-consult" class="st4" d="M212.1,32.3c3.9-3.7,8.9-5.4,13.9-5.2c5,0.2,9.9,2.2,13.5,6.1c3.7,3.9,5.4,8.9,5.2,13.9
	c-0.2,5-2.2,9.9-6.1,13.5c-3.3,3.1-7.4,4.8-11.6,5.2c-7.2,0.6-10.3-3.7-13.2-2.1c-2.3,1.2-5.1,2.7-7.1,0.6c-2-2.1-0.5-4.9,0.8-7.3
	c1.6-3.1-2.4-6.3-1.3-13.5C206.8,39.3,208.8,35.4,212.1,32.3L212.1,32.3z M228.4,49.7c0-0.9,0.1-1.4,0.2-1.7
	c0.2-0.3,0.6-0.6,1.3-0.9c2.2-1.1,3.3-3,3.3-5.7c0-2.2-0.8-4-2.3-5.5c-1.5-1.5-3.4-2.2-5.7-2.2c-1.3,0-2.5,0.3-3.7,0.9
	c-1.2,0.6-2.1,1.4-2.9,2.4c-1,1.4-1.5,3.1-1.5,5.3h6.2c0-1.6,0.6-2.4,1.7-2.4c0.4,0,0.8,0.1,1.1,0.4c0.3,0.3,0.4,0.7,0.4,1.1
	c0,0.7-0.5,1.3-1.4,1.7l-1.2,0.5c-0.9,0.4-1.5,0.9-1.8,1.6c-0.3,0.7-0.5,1.8-0.5,3.3v1.1H228.4L228.4,49.7z M225.2,50.7
	c-1.2,0-2.2,0.4-3,1.2c-0.8,0.8-1.2,1.8-1.2,3c0,1.2,0.4,2.2,1.2,3c0.8,0.8,1.8,1.2,3,1.2c1.2,0,2.2-0.4,3-1.2
	c0.8-0.8,1.2-1.8,1.2-3c0-1.2-0.4-2.2-1.3-3C227.4,51.1,226.3,50.7,225.2,50.7L225.2,50.7z M225.9,30.8c-4-0.1-8.1,1.3-11.2,4.2
	c-2.7,2.5-4.3,5.7-4.8,9c-0.5,3.4,0.1,7,1.8,10.1c0.8,1.4,0,2.9-0.9,4.6c-0.7,1.3-1.5,2.8-1.3,3c0.1,0.1,1.4-0.7,2.6-1.3
	c1.7-0.9,3.3-1.7,4.7-0.8c3,2,6.5,2.8,10,2.5c3.4-0.3,6.7-1.7,9.4-4.2c3.2-3,4.8-6.9,5-10.9c0.1-4-1.3-8.1-4.2-11.2
	C233.8,32.6,229.9,30.9,225.9,30.8z"/>
<path id="icon-consult-blue" class="st5" d="M235.2,142.2c1.8-1.7,4.1-2.5,6.4-2.4c2.3,0.1,4.6,1,6.2,2.8c1.7,1.8,2.5,4.1,2.4,6.4
	c-0.1,2.3-1,4.6-2.8,6.2c-1.5,1.4-3.4,2.2-5.4,2.4c-3.3,0.3-4.8-1.7-6.1-1c-1.1,0.6-2.4,1.3-3.3,0.3c-0.9-1-0.2-2.3,0.4-3.4
	c0.8-1.4-1.1-2.9-0.6-6.2C232.8,145.4,233.7,143.6,235.2,142.2L235.2,142.2z M242.8,150.2c0-0.4,0-0.7,0.1-0.8
	c0.1-0.1,0.3-0.3,0.6-0.4c1-0.5,1.5-1.4,1.5-2.6c0-1-0.4-1.9-1.1-2.5c-0.7-0.7-1.6-1-2.6-1c-0.6,0-1.1,0.1-1.7,0.4
	c-0.5,0.3-1,0.6-1.3,1.1c-0.5,0.6-0.7,1.4-0.7,2.4h2.8c0-0.7,0.3-1.1,0.8-1.1c0.2,0,0.4,0.1,0.5,0.2c0.1,0.1,0.2,0.3,0.2,0.5
	c0,0.3-0.2,0.6-0.6,0.8l-0.6,0.2c-0.4,0.2-0.7,0.4-0.8,0.8c-0.2,0.3-0.2,0.8-0.2,1.5v0.5H242.8L242.8,150.2z M241.3,150.7
	c-0.5,0-1,0.2-1.4,0.6c-0.4,0.4-0.6,0.8-0.6,1.4c0,0.6,0.2,1,0.5,1.4c0.4,0.4,0.8,0.5,1.4,0.5c0.5,0,1-0.2,1.4-0.6
	c0.4-0.4,0.6-0.8,0.6-1.4c0-0.5-0.2-1-0.6-1.4C242.3,150.9,241.8,150.7,241.3,150.7L241.3,150.7z M241.6,141.5
	c-1.9-0.1-3.7,0.6-5.2,1.9c-1.2,1.1-2,2.6-2.2,4.2c-0.2,1.6,0,3.2,0.8,4.7c0.4,0.6,0,1.3-0.4,2.1c-0.3,0.6-0.7,1.3-0.6,1.4
	c0,0,0.7-0.3,1.2-0.6c0.8-0.4,1.5-0.8,2.1-0.4c1.4,0.9,3,1.3,4.6,1.2c1.6-0.1,3.1-0.8,4.3-1.9c1.5-1.4,2.2-3.2,2.3-5
	c0.1-1.9-0.6-3.7-1.9-5.2C245.3,142.3,243.4,141.5,241.6,141.5z"/>
<path id="icon-video" class="st4" d="M292.3,32.2c-3.9-3.7-9-5.4-14-5.2c-5,0.2-9.9,2.2-13.6,6.2c-3.7,3.9-5.4,9-5.2,14
	c0.2,5,2.2,9.9,6.2,13.6c3.3,3.1,7.5,4.8,11.7,5.2c7.2,0.6,10.4-3.7,13.3-2.2c2.4,1.3,5.1,2.7,7.1,0.6c2-2.1,0.5-4.9-0.8-7.3
	c-1.6-3.1,2.4-6.4,1.3-13.6C297.6,39.3,295.6,35.3,292.3,32.2L292.3,32.2z M284.1,43.6l0.1-0.1l4.2-3v5.9v5.9l-4.2-3l-0.1-0.1v0.5
	c0,1.7-1.4,3.1-3.1,3.1h-8c-1.7,0-3.1-1.4-3.1-3.1v-6.7c0-1.7,1.4-3.1,3.1-3.1h8c1.7,0,3.1,1.4,3.1,3.1V43.6L284.1,43.6z
	 M278.4,30.7c4-0.1,8.1,1.3,11.3,4.2c2.7,2.5,4.3,5.7,4.8,9.1c0.5,3.4-0.1,7-1.8,10.1c-0.8,1.4,0,2.9,0.9,4.6c0.7,1.3,1.5,2.8,1.3,3
	c-0.1,0.1-1.5-0.7-2.6-1.3c-1.8-0.9-3.3-1.8-4.7-0.8c-3,2-6.5,2.8-10,2.6c-3.4-0.3-6.7-1.7-9.4-4.2c-3.2-3-4.9-6.9-5-11
	c-0.1-4,1.3-8.1,4.2-11.3C270.4,32.5,274.4,30.8,278.4,30.7z"/>
<path id="icon-documents" class="st4" d="M451.3,35c-3.2-3-7.2-4.4-11.2-4.2c-4,0.1-8,1.8-10.9,5c-3,3.2-4.4,7.2-4.2,11.2
	c0.1,4,1.8,8,5,10.9c2.7,2.5,6,3.9,9.4,4.2c3.5,0.3,7-0.6,10-2.5c1.4-0.9,2.9-0.1,4.7,0.8c1.2,0.6,2.6,1.4,2.6,1.3
	c0.2-0.2-0.6-1.7-1.3-3c-0.9-1.7-1.7-3.2-0.9-4.6c1.7-3.1,2.3-6.7,1.8-10.1C455.5,40.7,453.9,37.5,451.3,35L451.3,35z M433.5,35.3
	h9.9h0.3l0.3,0.2l5.4,3.8l0.5,0.3v0.6v15.8V57h-17.4V35.3H433.5L433.5,35.3z M436.5,41.8h9.2v2.1h-9.2V41.8L436.5,41.8z M436.5,49.8
	h9.2V52l-9.2,0V49.8L436.5,49.8z M436.5,45.8l9.2,0V48h-9.2V45.8L436.5,45.8z M443,37.4l4.6,3.2v14.2h-13.1V37.4H443L443,37.4z
	 M439.9,27.1c5-0.2,10,1.6,13.9,5.2c3.3,3.1,5.3,7,5.9,11.2c1.1,7.1-2.9,10.4-1.3,13.5c1.3,2.3,2.7,5.1,0.8,7.3
	c-2,2.1-4.8,0.7-7.1-0.6c-2.9-1.5-6,2.7-13.2,2.1c-4.2-0.4-8.3-2.1-11.6-5.2c-3.9-3.7-6-8.6-6.1-13.5c-0.2-5,1.6-10,5.2-13.9
	C430.1,29.3,435,27.2,439.9,27.1z"/>
<g id="icon-event">
	<path class="st6" d="M113.2,100.3c0.2,0,0.5,0.1,0.6,0.2c0.1,0,0.2,0.1,0.2,0.2c0.2,0.2,0.4,0.4,0.6,0.6c0.6,1-0.4,2.1-1.2,2.1
		c-0.3,0-0.4,0-0.8-0.2c-0.3-0.2-0.6-0.5-0.7-0.8C111.4,101.3,112.5,100.3,113.2,100.3L113.2,100.3z M111.8,89.7
		c-0.2,0-0.3,0-0.5,0.2c-0.3,0.3-0.2,0.5-0.3,0.9l-0.3,2c0,0.2,0,0.4-0.1,0.5l-1.3,0.1c-0.9,0.1-1.6,0.9-1.9,1.7
		c-0.1,0.2-0.4,3-0.4,3.2c0,0.4-0.1,0.9-0.1,1.3c0,0.4-0.1,1-0.1,1.5c0,0.6,0.3,1.4,0.6,1.7c0.4,0.5,1.8,1.8,2.3,2.4l5,5
		c0.3,0.3,0.8,0.5,1.3,0.5h0.1c0.5,0,0.6,0,1.1-0.2c0.3-0.1,0.4-0.3,0.6-0.5l6.3-6.3c0.2-0.2,0.3-0.3,0.4-0.6
		c0.1-0.3,0.2-0.5,0.2-0.8V102c0-0.3-0.1-0.6-0.2-0.9c-0.2-0.4-1.3-1.5-1.7-1.8l-5.6-5.6c-0.5-0.5-1.3-0.9-2.1-0.9
		c-0.3,0-2.1,0.2-2.5,0.3c-0.1,0-0.3,0-0.4,0c0-0.3,0.4-2.5,0.4-2.7c0-0.4-0.3-0.7-0.6-0.7H111.8L111.8,89.7z M116.5,101.4
		c0-0.3,0-0.4,0.2-0.8c0.2-0.3,0.5-0.6,0.8-0.7c0.2-0.1,0.4-0.1,0.6-0.1c0.2,0,0.4,0.1,0.5,0.2c0.9,0.6,1.2,1.6,0.4,2.4
		C117.9,103.7,116.5,102.3,116.5,101.4L116.5,101.4z M114.6,98.6c0,0.1,0.1,0.7,0.2,0.9l0.9,4.3c0.1,0.3,0.1,0.6,0.2,0.8l0.2,0.9
		c0.1,0,0.7-0.7,0.7-0.7c0-0.1-0.5-2.4-0.5-2.6c-0.2-0.8-0.4-1.8-0.5-2.6l-0.4-1.7C115.2,97.9,114.6,98.6,114.6,98.6L114.6,98.6z
		 M110.2,97c0,0.8,1.2,1,1.4,0.1c0-0.2,0.1-0.4,0.1-0.6c0-0.1,0-0.2,0-0.3c0-0.1,0-0.2,0-0.3c0.1,0,0.3,0.3,0.3,0.4
		c0.3,0.6,0.2,1.3-0.3,1.7c-0.2,0.2-0.7,0.4-1,0.4c-0.6-0.1-1-0.3-1.2-0.8c-0.4-0.9,0.3-1.7,0.7-1.8C110.4,95.9,110.2,96.6,110.2,97
		L110.2,97z M108.2,101c0-0.2,0-0.4,0-0.6c0.1-1.2,0.3-2.5,0.4-3.7c0-0.4,0.1-1.2,0.2-1.5c0.3-0.5,0.8-0.5,1.2-0.5
		c0.3,0,0.3,0,0.3-0.1c0,0,0-0.1,0-0.1c0-0.2,0.1-0.4,0.1-0.5c-0.1,0-0.5,0.1-0.6,0.1c-0.4,0.1-0.6,0-1,0.2
		c-0.1,0.1-0.3,0.2-0.4,0.3c-0.6,0.6-0.5,1.1-0.6,1.9c-0.1,0.7-0.2,1.6-0.3,2.3l-0.2,1.7c-0.1,0.7-0.1,1.3,0.4,2
		c0.2,0.3,6,6,6.8,6.8c0.3,0.3,0.5,0.6,0.9,0.7c0.4,0.2,0.9,0.1,1.2-0.1c0.2-0.1,1.3-1.3,1.5-1.4c0.5-0.5,5.2-5.1,5.4-5.4
		c0.4-0.5,0.3-1.3-0.1-1.7c-0.4-0.5-1.2-1.2-1.6-1.6l-2.2-2.2c-0.2-0.2-3.1-3.1-3.4-3.4c-0.3-0.3-0.9-0.5-1.4-0.5
		c-0.3,0-1.5,0.2-1.9,0.2c-0.3,0-0.6,0.1-0.9,0.1c-0.3,0-0.2,0-0.2,0.3c0,0.1-0.1,0.3-0.1,0.4c0.1,0,0.3,0,0.4,0l1.1-0.1
		c0.3,0,0.5-0.1,0.8-0.1c0.6-0.1,1-0.2,1.6,0.1c0.2,0.1,0.3,0.3,0.5,0.4l6.7,6.7c0.2,0.2,0.3,0.3,0.3,0.7c0,0.3-0.2,0.4-0.4,0.6
		l-6.2,6.2c-0.2,0.2-0.3,0.3-0.6,0.3c-0.3,0-0.5-0.2-0.7-0.3l-5.5-5.5c-0.3-0.3-1.3-1.2-1.5-1.5C108.3,101.7,108.2,101.4,108.2,101z
		"/>
	<path class="st6" d="M117.3,101.2c0,0.3,0.2,0.5,0.3,0.6c0.5,0.6,1.2,0.3,1.2-0.3c0-0.3-0.6-0.9-0.9-0.9h-0.1
		C117.5,100.7,117.3,101,117.3,101.2z"/>
	<path class="st6" d="M112.5,101.7c0,0.5,0.6,1,0.9,1h0.1c0.2,0,0.5-0.2,0.5-0.6c0-0.3-0.7-1.2-1.2-0.9
		C112.7,101.3,112.5,101.5,112.5,101.7z"/>
</g>
<g id="icon-price">
	<path class="st6" d="M68.5,96.6V110c0,0.4,0.4,0.7,0.8,0.7h17.6c0.3,0,0.7-0.2,0.8-0.5c0.1-0.2,0-0.9,0-1.2c0-0.8,0-1.7,0-2.5
		c-0.1,0-0.1,0-0.1,0h-1.5c-1,0-1.9-0.6-2.4-1.4c-0.5-1-0.3-2,0.3-2.8c0.2-0.2,0.5-0.4,0.7-0.6c0.7-0.4,1.4-0.3,2.2-0.3l0.6,0
		c0.1,0,0.1,0,0.2,0l0-4.4c0-0.3-0.1-0.4-0.2-0.5c-0.3-0.3-0.7-0.2-1.2-0.2H70.8c-0.3,0-0.5,0-0.7,0c-0.1,0-0.2,0-0.3-0.1
		c-0.2-0.1-0.2-0.5,0.1-0.5l1.7,0c0.2,0,0.2,0,0.4-0.1l0.6-0.4c0.1,0,0.1-0.1,0.1-0.1h-2.2c-0.3,0-0.5,0-0.7,0c-0.4,0-0.8,0.1-1,0.4
		C68.6,95.6,68.5,96.1,68.5,96.6z"/>
	<path class="st6" d="M72.3,95.9l3.5,0l1.9-0.7c0.6-0.2,1.3-0.5,1.9-0.7l2.8-1.1c0.1,0,0.2-0.1,0.3-0.1l0.6-0.2c0-0.1-2-2.7-2.3-3.1
		c0-0.1-0.1-0.2-0.2-0.2c-0.1,0-0.2,0.1-0.3,0.2L79,91c-0.1,0.1-0.2,0.1-0.3,0.2c-0.1,0.1-0.2,0.1-0.3,0.2c-0.5,0.3-1,0.7-1.5,1.1
		c0,0-0.1,0.1-0.1,0.1c-0.1,0.1-0.2,0.1-0.3,0.2l-1.5,1.1c0,0-0.1,0.1-0.1,0.1l-2.1,1.5C72.7,95.6,72.3,95.8,72.3,95.9z"/>
	<path class="st6" d="M85,103.9c0-0.6,0.6-1.1,1.2-0.9c0.6,0.1,1,0.9,0.6,1.5c-0.1,0.1-0.2,0.3-0.4,0.3
		C85.7,105.1,85,104.6,85,103.9L85,103.9z M84.1,103.9c0,0.3,0.1,0.6,0.2,0.8c0.1,0.1,0.1,0.2,0.2,0.3c0.3,0.5,0.9,0.9,1.5,0.9h1.7
		c0.1,0,0.1,0,0.1-0.1c0.1-0.1,1.1-0.9,1.1-1c0-0.1,0-0.6,0-0.8c0-0.1,0-0.2,0-0.4V101c-0.3,0.2-1,0.8-1.2,1c-0.1,0-0.1,0-0.2,0
		c-0.5,0-1.4,0-1.9,0.1c-0.6,0.1-1.1,0.6-1.3,1.1C84.1,103.3,84.1,103.6,84.1,103.9z"/>
	<path class="st6" d="M77.3,95.9h8.3c0-0.1-0.1-0.3-0.1-0.3l-0.9-2.3l-4.6,1.7c-0.3,0.1-0.6,0.2-0.9,0.3L77.3,95.9z"/>
	<path class="st6" d="M86.1,95.6c0.3,0,0.6,0,0.9,0c0.6,0,1.1-0.1,1.2,0.6c0,0.3,0,4.1,0,4.5l0.5-0.2c0,0,0.1,0,0.1-0.1v-4.5
		c0-0.3-0.3-0.7-0.6-0.9c-0.3-0.2-0.9-0.1-1.4-0.1c-0.3,0-0.7,0-1,0C85.9,95,86.1,95.5,86.1,95.6z"/>
	<path class="st6" d="M88.2,105.9v3.7c0.3,0,0.6-0.3,0.6-0.5c0.1-0.2,0-0.9,0-1.1c0-0.8,0-1.6,0-2.3c-0.1,0-0.4,0.2-0.5,0.2
		C88.3,105.8,88.2,105.9,88.2,105.9z"/>
</g>
<g id="icon-equip">
	<path class="st6" d="M188.6,106.3c-0.5,0-1-0.1-1.3-0.1c-0.3-0.1-0.8-0.2-1.1-0.4l-0.5-0.2c-0.7-0.4-1.5-1.1-2-1.8
		c-0.7-1-1.1-2.3-1.1-3.6c0-0.7,0.2-1.3,0.4-1.9c0.2-0.6,0.5-1,0.8-1.5c0.2-0.2,0.3-0.4,0.5-0.6c0.4-0.5,1.4-1.2,2-1.4
		c0.1,0,0.1-0.1,0.2-0.1c0.4-0.2,1.1-0.4,1.6-0.4c1.4-0.1,2.4,0.1,3.7,0.8c0.3,0.1,0.5,0.3,0.7,0.5c2,1.5,2.8,4,2.1,6.4
		c-0.1,0.5-0.3,0.9-0.6,1.4l-0.6,0.8c-0.4,0.4-0.7,0.7-1.2,1.1c-0.4,0.3-1,0.6-1.5,0.8C190,106.1,189.3,106.3,188.6,106.3
		L188.6,106.3z M187.9,89.7c-0.1,0-0.1,0-0.3,0c-0.3,0-0.4,0-0.5,0.2c-0.3,0.3-0.3,0.6-0.4,1c0,0.2-0.2,1.2-0.2,1.4
		c0,0.1-0.6,0.2-0.7,0.3c-0.3,0.1-0.6,0.3-0.9,0.4c-0.1,0.1-0.3,0.2-0.4,0.2c-0.1,0-0.3-0.2-0.4-0.2l-1.2-0.8
		c-0.1-0.1-0.3-0.2-0.5-0.2c-0.3,0-0.5,0.2-0.8,0.4c-0.3,0.3-0.9,0.9-1.1,1.2c-0.4,0.5-0.3,0.7,0,1.2l1,1.5c0,0,0,0,0,0l-0.1,0.1
		c-0.2,0.4-0.3,0.7-0.5,1.1c-0.5,1.4,0.1,0.7-2.2,1.3c-0.2,0.1-0.4,0.1-0.5,0.4c-0.1,0.1-0.1,0.4-0.1,0.7v1.5c0,0.3,0.1,0.5,0.2,0.7
		c0.2,0.2,0.4,0.2,0.7,0.2c0.5,0.1,1.1,0.2,1.6,0.3c0.1,0.6,0.5,1.3,0.8,1.9c0,0.1,0.1,0.2,0.1,0.3l-1,1.5c-0.2,0.3-0.2,0.3-0.2,0.6
		c0,0.2,0.3,0.5,0.4,0.6l0.9,0.9c0.2,0.2,0.5,0.5,0.8,0.5c0.3,0,0.8-0.4,1.1-0.6l1-0.7c0.1,0,0.5,0.2,0.6,0.3
		c0.5,0.2,1.2,0.4,1.4,0.5c0.1,0.1,0.1,0.4,0.2,0.5c0.1,0.5,0.2,1,0.3,1.5c0,0.1,0,0.2,0.1,0.3c0.2,0.3,0.5,0.3,0.9,0.3h1.3
		c0.6,0,0.9,0,1.1-0.7c0.1-0.2,0.1-0.5,0.1-0.7c0-0.3,0.1-0.8,0.2-1.1c0-0.1,0.4-0.2,0.6-0.3c0.1,0,0.2-0.1,0.3-0.1
		c0.2-0.1,1.1-0.5,1.2-0.5c0.1,0,1.5,1.2,1.9,1.2c0.1,0,0.3,0,0.4-0.1c0.2-0.1,1.4-1.3,1.7-1.7c0.2-0.3,0.2-0.5,0-0.8l-0.8-1.1
		c-0.1-0.1-0.2-0.2-0.3-0.4c-0.1-0.2,0-0.2,0.1-0.4c0.2-0.4,0.4-0.9,0.6-1.3c0.2-0.6,0-0.5,0.4-0.5c0.6-0.1,1.3-0.2,1.9-0.4
		c0.1,0,0.1,0,0.2-0.1c0.2-0.2,0.2-0.5,0.2-0.7V99c0,0-0.3-0.4-0.4-0.4c-0.2-0.1-0.5-0.1-0.7-0.1c-0.2,0-0.5-0.1-0.7-0.1
		c-0.2,0-0.4-0.1-0.7-0.1c-0.2,0-0.2-0.2-0.3-0.5c-0.1-0.4-0.3-0.8-0.5-1.1c-0.1-0.1-0.2-0.4-0.3-0.5c0.4-0.6,0.8-1.1,1.2-1.7
		c0.1-0.1,0.1-0.2,0.1-0.4c0-0.2,0-0.3-0.1-0.4c-0.1-0.1-0.1-0.2-0.2-0.3c-0.2-0.3-0.5-0.6-0.8-0.8l-0.4-0.3
		c-0.2-0.1-0.3-0.3-0.6-0.3c-0.2,0-0.4,0.2-0.6,0.2c-0.1,0.1-0.2,0.1-0.2,0.2c-0.1,0.1-0.2,0.1-0.3,0.2l-1,0.7l-0.6-0.3
		c-0.1-0.1-0.2-0.1-0.3-0.1c-0.1,0-0.2-0.1-0.3-0.1c-0.2-0.1-0.5-0.2-0.7-0.3c-0.2-0.1-0.2-0.1-0.2-0.3c-0.1-0.5-0.2-1.7-0.4-2
		c-0.1-0.1-0.1-0.2-0.2-0.2c-0.1-0.1-0.2-0.1-0.4-0.1c-0.3,0-0.6,0-1,0H187.9z"/>
	<path class="st6" d="M184.4,100.2c0,1,0.3,1.9,0.9,2.7c0,0.1,0.1,0.1,0.1,0.1c0.2,0.3,0.9,0.8,1.3,1c0.7,0.3,1.1,0.4,1.9,0.4
		c1.1,0,2.1-0.5,2.8-1.2c0,0,0.1-0.1,0.1-0.1l0.2-0.3c0-0.1,0.1-0.1,0.1-0.1c1-1.4,1-3.3,0-4.7c-0.3-0.5-0.9-1-1.4-1.2
		c-0.1-0.1-0.2-0.1-0.4-0.2c-0.3-0.1-0.4-0.2-0.8-0.3c-1.2-0.3-2.3,0-3.3,0.6c-0.3,0.2-0.4,0.3-0.6,0.5c-0.1,0.1-0.2,0.2-0.2,0.3
		c0,0.1-0.1,0.1-0.1,0.1l-0.3,0.5c-0.1,0.2-0.2,0.5-0.3,0.7c0,0.1-0.1,0.3-0.1,0.4C184.5,99.5,184.4,99.9,184.4,100.2z"/>
</g>
<g id="icon-prog">
	<path class="st6" d="M294,93h1.6v-0.8c0-0.4,0.7-0.7,1-0.8c0.7-0.1,1.4-0.1,1.9,0.4c0.1,0.1,0.2,0.1,0.2,0.3c0,0.1,0,0.8,0,0.9h1.6
		v1.6H294V93L294,93z M291.6,93c-0.3,0-0.6,0.2-0.7,0.4c0,0,0,0.1,0,0.1l0,0c0,0,0,0,0,0c0,0.1-0.1,0.2-0.1,0.4v14.4
		c0,0.5,0.3,0.8,0.9,0.8h11.2c0.3,0,0.5-0.1,0.6-0.2c0.1-0.1,0.2-0.3,0.2-0.6V93.8c0-0.1,0-0.3-0.1-0.4c-0.1-0.3-0.4-0.5-0.8-0.5
		H302v3.2c-0.1,0-9.6,0-9.7,0V93H291.6L291.6,93z M294.5,91.3h-2.9c-0.7,0-1.3,0.2-1.8,0.7c-0.1,0.1-0.2,0.2-0.2,0.3
		c-0.3,0.4-0.5,0.8-0.5,1.3v14.7c0,0.4,0.2,0.9,0.4,1.2c0.3,0.4,0.6,0.7,1,0.9c0.2,0.1,0.6,0.2,0.9,0.2h11.5c0.3,0,0.7-0.1,0.9-0.2
		c0.1,0,0.1-0.1,0.2-0.1c0.2-0.1,0.2-0.1,0.4-0.3l0.1-0.1c0,0,0,0,0,0c0,0,0,0,0,0l0,0c0,0,0-0.1,0.1-0.1c0.1-0.1,0.1-0.1,0.3-0.3
		c0.2-0.3,0.3-0.7,0.3-1.1V93.7c0-0.5-0.2-0.9-0.5-1.3c0,0,0,0,0,0l-0.2-0.2c0,0,0,0-0.1-0.1c-0.1-0.1-0.2-0.1-0.3-0.2l-0.1-0.1
		c-0.2-0.1-0.4-0.2-0.7-0.3c-0.4-0.1-1.2-0.1-1.6-0.1c-0.6,0-1.3,0-1.9,0l-0.2-0.4c-0.2-0.5-0.4-0.7-0.9-0.9c-0.4-0.2-0.6-0.2-1-0.3
		l-0.3,0c-0.2,0-0.4,0-0.6,0c0,0-0.1,0-0.1,0c-0.2,0-0.5,0.1-0.7,0.1c-0.4,0.1-0.4,0.1-0.7,0.2c-0.1,0,0,0-0.1,0
		C294.6,90.5,294.8,90.7,294.5,91.3z"/>
	<path class="st6" d="M297.3,103.9c0,0.1,0.5,0.6,0.6,0.6l0.5,0.6c0,0,0.1,0,0.1,0.1c0,0-0.2,0.2-0.2,0.2l-1,1
		c0,0.1,0.2,0.2,0.3,0.3l0.9,0.9c0.1,0,0.6-0.5,0.6-0.6l0.6-0.6l1.3,1.2c0.1,0,0.5-0.5,0.6-0.6c0.1-0.1,0.5-0.5,0.6-0.6l-1.2-1.2
		l1.2-1.2l-1.1-1.2c-0.1,0-0.3,0.3-0.4,0.4l-0.9,0.8l-1.2-1.2c-0.1,0-0.8,0.7-0.9,0.8C297.5,103.7,297.3,103.8,297.3,103.9z"/>
	<path class="st6" d="M297.1,99c0,0.1,0.4,0.4,0.5,0.4l0.8,0.8c0,0,0,0,0.1,0.1l1,1c0,0,0,0,0,0c0,0,0.1,0.1,0.1,0.1
		c0.1,0,0.4-0.4,0.5-0.5l0.2-0.2c0,0,0,0,0,0l0-0.1c0,0,0.1,0,0.1-0.1l1.3-1.3c0,0,0,0,0,0l0,0c0,0,0,0,0,0l0,0c0,0,0,0,0,0
		c0,0,0.1,0,0.1-0.1c-0.1-0.1-0.2-0.2-0.2-0.2c0,0,0,0,0,0c0,0,0,0,0,0c0,0,0,0,0,0l-0.1-0.1c-0.2-0.2-0.7-0.7-0.8-0.8l-1,1
		c-0.1,0.1-0.2,0.3-0.3,0.3c-0.1-0.1-0.4-0.4-0.4-0.4c-0.2-0.2-0.3-0.3-0.5-0.5l-0.2-0.2c0,0-0.1,0-0.1-0.1
		c-0.1-0.1-0.1-0.1-0.2-0.2c-0.1,0-0.1,0.1-0.1,0.1l-0.2,0.2c-0.2,0.2-0.5,0.6-0.6,0.7C297.2,98.9,297.1,98.9,297.1,99z"/>
	<rect x="292.4" y="99.4" class="st6" width="3.2" height="1.6"/>
	<rect x="292.4" y="104.2" class="st6" width="3.2" height="1.6"/>
</g>
<g id="icon-spec">
	<path class="st6" d="M147.9,101.4c0,0.5,0.4,1,0.9,1.1c0.2,0.1,0.4,0,0.6,0c0,0.2,0,0.4,0.1,0.5c0,0.2,0,0.4,0.1,0.5l0.7,6.2
		c0,0.3,0,0.5,0.2,0.7c0.1,0.1,0.3,0.2,0.4,0.2h1.1c0.3,0,0.6-0.2,0.7-0.5l0.8-7.1c0-0.1,0-0.2,0-0.3c0-0.1,0-0.2,0-0.3
		c0.5,0,0.8,0,1.2-0.3c0.5-0.5,0.3-1.1,0.2-1.8c-0.1-0.9-0.2-2-0.3-3l-0.2-1.5c-0.1-0.7,0-1.1-0.7-1.5c-0.1-0.1-0.3-0.1-0.5-0.1
		h-3.8c-0.5,0-1.1,0.5-1.1,1.1l-0.2,2c0,0.3-0.1,0.6-0.1,1c0,0.3-0.1,0.7-0.1,1C148.1,99.8,147.9,101.2,147.9,101.4z"/>
	<path class="st6" d="M145.6,110h1.1c0.2,0,0.3-0.1,0.4-0.1c0.2-0.2,0.2-0.4,0.2-0.6c0-0.1,0-0.2,0-0.2c0.1-1,0.3-2,0.4-3l0.2-1.5
		c0-0.3,0.2-1.8,0.2-2c0,0-0.3-0.3-0.3-0.3c-0.2-0.2-0.3-0.5-0.3-0.8c0-0.2,0.2-1.7,0.2-2.1c0-0.2,0-0.4,0.1-0.5
		c0.1-0.7,0.2-1.5,0.2-2.1c0-0.3,0.1-0.7,0.1-1c0-0.5,0.1-0.6,0.2-1c-0.1-0.1-0.2-0.1-0.4-0.1h-3.6c-0.4,0-0.7,0.2-0.8,0.4
		c-0.2,0.3-0.2,0.5-0.3,1l-0.1,1.1c-0.1,0.7-0.2,1.5-0.3,2.3l-0.2,1.7c-0.1,0.5,0.2,1,0.7,1.2c0.2,0.1,0.3,0.1,0.5,0.1
		c0.2,0,0.2,0,0.2,0.1l0.2,1.4c0.1,0.4,0.1,0.7,0.1,1.1l0.3,2.2c0,0.2,0.3,2.3,0.3,2.5c0,0.1,0.1,0.1,0.1,0.2
		C145.2,109.9,145.4,110,145.6,110z"/>
	<path class="st6" d="M154.7,94.6c0.1,0.2,0.2,0,0.3,1l0.6,4.9c0,0.2,0,0.4,0.1,0.6c0,0.1,0,0.1,0,0.2c0,0.4-0.1,0.6-0.3,0.9
		c-0.1,0.2-0.3,0.3-0.5,0.4c0,0.2,0,0.3,0,0.5l0.2,1.5c0.2,1.4,0.3,3,0.5,4.4c0.1,0.4,0,0.6,0.3,0.8c0.1,0.1,0.2,0.2,0.4,0.2h1.1
		c0.3,0,0.6-0.2,0.6-0.5l0.9-7.2c0.4,0,0.8,0,1.1-0.3c0.1-0.1,0.2-0.2,0.2-0.3c0.2-0.4,0.1-0.8,0-1.3l-0.5-4.2c0-0.1,0-0.3-0.1-0.5
		c0-0.3-0.1-0.6-0.3-0.7c-0.1-0.2-0.5-0.3-0.7-0.3h-3.6C154.8,94.6,154.8,94.6,154.7,94.6z"/>
	<path class="st6" d="M149.6,91.6c0,0.6,0.1,1.1,0.6,1.5c0.6,0.6,1.5,0.7,2.2,0.4c0.3-0.1,0.3-0.2,0.5-0.3c0.3-0.3,0.5-0.6,0.6-1
		c0.2-0.7-0.1-1.4-0.5-1.8c-0.6-0.6-1.4-0.7-2.2-0.4c-0.1,0-0.2,0.1-0.3,0.2c0,0-0.1,0.1-0.1,0.1C149.9,90.5,149.6,91,149.6,91.6z"
		/>
	<path class="st6" d="M154.8,92.1c0,0.4,0.2,0.8,0.4,1.2c0.7,0.9,2,0.9,2.7,0.1c0.6-0.6,0.7-1.6,0.2-2.4c-0.1-0.2-0.2-0.2-0.3-0.4
		c0,0-0.1-0.1-0.1-0.1c-0.1-0.1-0.2-0.1-0.3-0.2c-0.4-0.2-0.7-0.2-1.1-0.1c-0.4,0.1-0.7,0.2-0.9,0.5C155,91.2,154.8,91.6,154.8,92.1
		z"/>
	<path class="st6" d="M144.3,92.1c0,0.2,0.1,0.5,0.2,0.7c0.2,0.6,0.9,1.1,1.6,1.1c0.8,0,1.4-0.4,1.8-1.1c0.3-0.6,0.2-1.4-0.3-2
		c-0.1-0.2-0.2-0.2-0.4-0.3c-0.6-0.4-1.5-0.4-2.1,0c-0.4,0.2-0.7,0.7-0.8,1.1C144.3,91.8,144.3,92,144.3,92.1z"/>
</g>
<g id="icon-inf">
	<path class="st6" d="M226.9,97.4c0.6-0.3,1.3-0.4,2.4-1c0.4-0.2,0.7-0.3,1.1-0.6c0.4-0.3,0.7-0.5,1.1-0.7v7.7
		c-0.4-0.1-0.7-0.4-1.1-0.6c-0.4-0.2-0.7-0.4-1.1-0.6c-0.5-0.2-1.9-0.9-2.5-0.9V97.4L226.9,97.4z M219.5,100.2
		c-1.3,0-1.8-2.3,0.1-2.3C221.1,97.9,220.9,100.2,219.5,100.2L219.5,100.2z M217,98.8c0,3.3,2.9,3,3.3,3.3l3.4,4.8
		c1.1,1.5,0.8,1.4,2.2,0.3c1.6-1.2,1.2-0.8-1.1-4.1c-0.2-0.4-0.6-0.7-0.7-1.1c4.6,0,7.9,3.7,8.4,3.7c0.6,0,0.9-0.6,0.9-1.2V93.6
		c0-1.2-0.6-1.1-1.1-1.1c-0.2,0-1,0.8-1.5,1.1c-0.9,0.7-2.4,1.6-3.5,1.9c-4.7,1.6-7.3-0.5-9.3,1.5C217.5,97.3,217,98,217,98.8z"/>
	<path class="st6" d="M234.4,101.6c-0.2,1.1,0,0.8,1.6,2.4c0.4,0.4,1.5,1.7,2,1.7c0.4,0,0.5-0.3,0.5-0.6c0-0.3-3.1-3.3-3.3-3.4
		C234.8,101.5,234.8,101.6,234.4,101.6z"/>
	<path class="st6" d="M234.2,96.2c0.7,1,1,0.2,2.4-1.2c0.5-0.5,1.7-1.4,1.7-2c0-0.4-0.3-0.5-0.6-0.5
		C237.4,92.5,234.3,95.5,234.2,96.2z"/>
	<path class="st6" d="M234.3,99c0,0.3,0.1,0.6,0.5,0.6h4.3c0.6,0,0.6-1,0-1h-4.3C234.5,98.6,234.3,98.8,234.3,99z"/>
</g>
<g id="icon-media">
	<path class="st6" d="M270.4,97.5c0-0.4,0-0.7-0.5-0.7c-0.5,0-0.6,0.4-0.6,0.6l0,1.1c0,0.6,0,1.2,0,1.8c0,2-0.1,3.7-1.9,5
		c-2,1.5-5.5,1.3-7.2-1.1c-0.9-1.3-0.8-2.5-0.8-4.3c0-0.8,0-1.7,0-2.5c0-0.4-0.1-0.7-0.6-0.7c-0.5,0-0.6,0.2-0.6,0.7
		c0,3.2-0.5,6.1,1.8,8.4c1,0.9,2,1.3,3.5,1.6l0,1.7l-2.8,0c-0.1,0.1-1,1.3-1,1.5l9.2,0c-0.3-0.4-0.8-1.3-1.1-1.5
		c-0.6,0-2.3,0.1-2.8,0l0-1.6c1.5-0.3,2.6-0.6,3.6-1.6C271,103.5,270.4,100.6,270.4,97.5z"/>
	<path class="st6" d="M263.9,96.6l-0.4,0c-0.2-1.1,0.1-5.2-0.1-6.9c-0.7,0-0.7,0.2-0.7,0.6c0,0.1,0,0.3,0,0.4l0,4.5
		c0,1.2,0.1,1.5-0.5,1.3l0-6.4c-0.8,0.2-0.7,0.7-0.7,1.1c0,0.6,0,1.2,0,1.8c0,0.9,0.1,2.7,0,3.5l-0.4,0.1c-0.1-0.5,0-4.3,0-5.2
		c-0.7,0.4-0.6,2-0.6,3c0,1.1-0.1,2.4,0,3.5l8,0l0-1.4c0-1.6,0.2-3.8-0.5-4.9c-0.2-0.3-0.1-0.2-0.2-0.2c0,0.9,0.1,4.6,0,5.2l-0.4,0
		c-0.1-0.4,0-5.1-0.1-5.9c-0.2-0.2-0.4-0.4-0.7-0.5c0,0.8,0.1,5.9,0,6.4l-0.4,0c-0.2-1.1,0.2-6.2-0.1-6.7c-0.1-0.2-0.4-0.2-0.7-0.2
		l0,6.8c-0.7,0.2-0.5-0.1-0.5-1.3c0-1.2,0.1-5,0-5.6l-0.7,0L263.9,96.6z"/>
	<path class="st6" d="M262.9,105.2c0,0,0.1,0.1,0.2,0.1c1.8,0.2,3.2,0.2,4.4-1.2c1-1.2,0.8-2.7,0.8-4.1l-8,0
		c-0.1,1.2-0.1,2.4,0.4,3.4C261.1,104.2,262,105,262.9,105.2z"/>
	<polygon class="st6" points="259.6,98.8 260.1,98.8 260.1,97.8 259.6,97.8 	"/>
	<polygon class="st6" points="270.7,98.8 271.2,98.8 271.1,97.8 270.6,97.8 	"/>
	<polygon class="st6" points="268.7,98.8 269.2,98.8 269.1,97.8 268.6,97.8 	"/>
	<polygon class="st6" points="257.5,98.8 258,98.8 258,97.8 257.5,97.8 	"/>
	<rect x="260.3" y="98.6" class="st6" width="8" height="0.8"/>
</g>
<path id="icon-dir" class="st6" d="M38.1,100.1l0,5.1c0.2,0,1.1-0.2,1.3-0.2l0-4.9c0.2,0,0.5-0.1,0.7-0.1c0.2,0,0.4-0.1,0.6-0.1
	c1.3-0.3,2-0.8,2.9-1.6c0.1-0.1,0.3-0.2,0.4-0.4c0.6-0.8,1.1-1.4,1.2-2.5c0-0.2,0.1-0.5,0.1-0.7c0-0.3-0.1-0.3-0.4-0.3H32.6
	c-0.3,0-0.4,0.1-0.4,0.3c0,1.4,0.8,2.8,1.8,3.7l0.6,0.5C35.7,99.6,36.9,100,38.1,100.1L38.1,100.1z M38.1,107.7l0,0.8
	c-1.2,0.1-2.8,1-2.7,2.2l6.8,0c0-0.8-0.5-1.3-0.9-1.6c-0.4-0.3-1.2-0.6-1.8-0.7v-1.1L38.1,107.7L38.1,107.7z M37.5,104.1
	c-0.5,0-1.6,0.3-2.1,0.4c-1.2,0.5-0.5,1,0,1.1c3,0.8,6.1-1.5,8.7,0.1c0.1,0.1,0.3,0.2,0.4,0.3l0.3,0.3c0.4,0.3,0.2,0.8-0.2,0.7
	c-0.2,0-0.7-0.7-1.7-0.8c-1.3-0.2-3,0.4-4.2,0.7c-1.3,0.3-3.2,0.5-4.3-0.1c-1.2-0.6-1.7-2.1-0.6-3.2c0.2-0.2,0.4-0.4,0.7-0.5
	c0.3-0.1,0.6-0.3,0.9-0.3c0.6-0.2,1.4-0.4,2.1-0.5L37.5,104.1L37.5,104.1z M39.2,89.7c0.3,0.1,0.8,0.1,1.4,0.4
	c0.2,0.1,0.1,0.1,0.4,0.1c2.2-0.4,5.2,0.7,6.9,2c0.1,0.1,0.2,0.2,0.3,0.3c0.2,0.2,0.7,0.6,0.8,0.8c0.2,0.3,0.2,0.3,0.5,0.6
	c0.1,0.2,0.3,0.5,0.4,0.7c0.9,1.8,0.6,3.7-0.3,5.4c-0.6,1-1.3,1.8-2.2,2.3c-2.2,1.4-4.7,1.4-7.5,1.6l0-1.9l2.2-0.2
	c0.7-0.1,1.4-0.2,2.1-0.3c0.8-0.2,1.8-0.6,2.5-1.2c0.1-0.1,0.2-0.2,0.3-0.3l0.3-0.3c0.3-0.4,0.6-1,0.9-1.6c0.3-1,0.3-2-0.3-2.9
	c-0.2-0.2-0.3-0.5-0.5-0.7c-0.1-0.1-0.2-0.2-0.3-0.3C47,94.1,47,94.1,46.8,94c-1.2-1.1-3.7-2-5.5-1.7c-0.2,0-0.3,0.2-0.7,0.5
	c-0.5,0.3-1.2,0.5-1.8,0.6c-2.8,0.3-4.3-1.8-2.2-3c0.9-0.5,1.6-0.5,1.8-0.6H39.2z"/>
<g id="icon-subscr">
	<path class="st6" d="M326.8,93.4c-0.3,0-0.4,0.2-0.6,0.4l-1.2,1.7c-0.1,0.2-0.2,0.4-0.4,0.5c-0.1,0.2-0.3,0.4-0.4,0.6
		c-0.1,0.2-0.2,0.3-0.4,0.5c-0.7,1.1-1,0.8,0.6,2.1c0.4,0.3,2.4,2,2.7,2.2c0.5-0.4,0.4-0.6,1.3-0.6c0.6,0,1.2,0.6,1.2,1.3
		c0.4-0.1,0.6-0.9,1.6-0.7c0.3,0.1,0.5,0.3,0.7,0.5c0.2,0.2,0.3,0.6,0.3,1c0.9-0.4,1.9,0.3,1.9,1.1c0,0.3,0,0.3,0,0.5
		c0.2,0.1,0.8,0.6,0.8,1c0,0.8-1,1.1,0.2,1.7c0.7,0.4,1.5,0.2,2.1-0.2c-0.2-0.3-1.4-1.3-1.4-1.5c0-0.1,0-0.1,0.1-0.2
		c0.2,0.1,0.8,0.7,1,0.9c0.3,0.3,0.7,0.7,1.2,0.7c0.9,0,1.2-1,0.8-1.5c-0.1-0.1-0.2-0.2-0.3-0.4l-1.7-1.7c-0.1-0.1-0.3-0.2-0.3-0.4
		c0.3-0.2,0.6,0.3,1,0.7l1.6,1.6c0.3,0.3,0.5,0.6,1.1,0.6c0.6,0,1.2-0.7,0.9-1.3c-0.2-0.6-3.5-3.4-3.5-3.7c0-0.5,0.7,0.3,0.7,0.3
		l2.5,2.5c0.7,0.7,0.7,0.9,1.5,0.9c0.4,0,0.8-0.4,0.8-1c0-0.5-0.4-0.8-0.7-1l-5.1-5.1c-0.1-0.1-0.7-0.8-0.9-0.8
		c-0.6,0-1.6,1.3-2,1.8c-0.1,0.1-0.1,0.1-0.2,0.2c-1.3,1.7-2.7,1-2.7,0.3c0-1.3,0.5-2.3,1.1-3.3c0.4-0.7,0.7-1.1,1.3-1.7l0.4-0.3
		c0.1-0.1,0.1,0,0.1-0.2c-0.2-0.1-1-0.7-2.3-0.7c-1,0-1.8,0.4-2.6,0.7C327.9,94.1,327.4,93.4,326.8,93.4z"/>
	<path class="st6" d="M331.8,98.7c0,0.4,0.1,0.8,0.6,0.8c0.3,0,0.5-0.1,0.7-0.2l1.1-1.1c0.1-0.1,0.1-0.2,0.2-0.3
		c0.1-0.2,0.3-0.3,0.4-0.5c0.4-0.4,0.9-1.1,1.6-1.1c0,0,5.3,5.2,5.5,5.5c0.4-0.2,2.5-1.7,3-2.1c1-0.7,1-0.5,0.3-1.7
		c-0.5-0.9-1-1.7-1.5-2.6c-0.8-1.4-0.6-1.5-1.5-1.3c-2,0.5-2.3-0.4-4.2-1c-1.5-0.5-3.2,0.3-4.3,1.5c-0.1,0.1-0.1,0.2-0.2,0.3
		c-0.5,0.5-1,1.5-1.3,2.2C332.1,97.4,331.8,98.3,331.8,98.7z"/>
	<path class="st6" d="M328.4,104c0,0.4,0,0.6,0.3,0.9c0.7,0.6,1.3,0.1,1.6-0.3c0.3-0.3,1.5-1.4,1.5-1.8v-0.3c0-0.4-0.5-0.8-0.8-0.8
		c-0.8,0-0.9,0.3-1.6,1C329.1,103,328.4,103.6,328.4,104z"/>
	<path class="st6" d="M330.2,105.5c0,0.7,0.4,1,1.1,1c0.5,0,0.9-0.6,1.4-1.1l0.9-0.9c0.4-0.7-0.2-1.5-0.7-1.5c-0.8,0-1,0.4-1.6,1
		C330.9,104.4,330.2,104.9,330.2,105.5z"/>
	<path class="st6" d="M329.2,102.1c0-0.6-0.4-1-1-1c-0.5,0-1,0.6-1.3,0.9c-0.2,0.2-0.3,0.3-0.4,0.7c0,0.3,0.1,0.6,0.3,0.8
		c0.2,0.2,0.5,0.3,0.7,0.3C328.2,103.7,329.2,102.6,329.2,102.1z"/>
	<path class="st6" d="M331.9,106.7c0.3,0.5,1,0.9,1.9,0.9c0.4,0,0.5-0.1,0.8-0.1v-0.1c-0.2-0.1-0.6-0.5-0.6-0.8c0-0.6,1-1.1-0.2-1.9
		L331.9,106.7z"/>
</g>
<g id="icon-breadcrumbs-home">
	<path class="st7" d="M41,158.7c0-1.4-0.3-2.2,1.2-2.2c5.2,0,5-0.4,5,1.8c0,2.1-0.1,3.9,0.2,5.9c0.9,0.3,7.8,0.3,8.8,0
		c0.3-1.1,0.2-7.6,0.2-9.3c0-3.1,0.3-2.7-0.9-3.9l-9.7-9.7c-0.5-0.6-0.9-1.2-1.9-1.3c-0.3,0.1-3.2,3-3.4,3.3l-6.6,6.8
		c-0.5,0.5-1.5,1.2-1.8,1.6c-0.4,0.7-0.2,2.2-0.2,3.1c0,3.1-0.2,6.3,0.2,9.3c0.7,0.2,7.6,0.4,8.8,0C41.1,163.4,41,160,41,158.7z"/>
	<path class="st7" d="M43.5,133c-1,0.4-7.8,7.9-9.4,9.4c-0.4,0.4-0.7,0.6-1.1,1c-0.7,0.7-1.4,1.4-2.1,2.2c-0.7,0.7-3.9,3.6-3.9,4.7
		c0,1.2,1.1,2,2.3,1.5c0.7-0.3,5.6-5.6,6.3-6.4c0.4-0.4,0.7-0.6,1.2-1l5.2-5.4c2-2.1,2.5-1.7,4.8,0.7c0.7,0.8,1.3,1.4,2.1,2.2
		l6.2,6.4c1.9,1.6,3.5,3.9,4.8,3.7c1.2-0.1,1.9-1.5,1-2.6c-1-1.3-6.7-6.7-8.3-8.5c-1.2-1.3-6.1-6.5-7.4-7.5
		C44.6,132.9,44.2,132.8,43.5,133z"/>
</g>
<path id="icon-about-addr" class="st5" d="M86.9,137.5c2.4,0,4.7,0.9,6.3,2.4c1.6,1.5,2.6,3.6,2.6,5.9c0,1.9-1.2,4.6-2.7,7.1
	c-2.2,3.7-5.2,7-6.2,7c-0.9,0-4-3.4-6.2-7c-1.5-2.5-2.7-5.2-2.7-7.1c0-2.3,1-4.4,2.6-5.9C82.3,138.4,84.5,137.5,86.9,137.5
	L86.9,137.5z M86.9,141.1c-1.3,0-2.5,0.5-3.4,1.4l0,0c-0.9,0.9-1.4,2.1-1.4,3.4c0,1.3,0.5,2.5,1.4,3.4c0.9,0.9,2.1,1.4,3.4,1.4
	c1.3,0,2.5-0.5,3.4-1.4l0,0c0.9-0.9,1.4-2.1,1.4-3.4c0-1.3-0.5-2.5-1.4-3.4l0,0l0,0C89.4,141.6,88.2,141.1,86.9,141.1L86.9,141.1z
	 M88.5,144.3c-0.4-0.4-1-0.7-1.6-0.7c-0.6,0-1.2,0.3-1.6,0.7h0c-0.4,0.4-0.7,1-0.7,1.6c0,0.6,0.3,1.2,0.7,1.6s1,0.7,1.6,0.7
	c0.6,0,1.2-0.2,1.6-0.7v0c0.4-0.4,0.7-1,0.7-1.6C89.2,145.2,88.9,144.7,88.5,144.3L88.5,144.3L88.5,144.3z M91.8,141.4
	c-1.2-1.1-2.9-1.9-4.8-1.9c-1.9,0-3.6,0.7-4.8,1.9c-1.2,1.1-2,2.7-2,4.4c0,1.5,1.1,3.8,2.4,6.1c1.9,3.1,4,6,4.4,6
	c0.4,0,2.5-2.9,4.4-6c1.3-2.2,2.4-4.6,2.4-6.1C93.7,144.1,93,142.5,91.8,141.4z"/>
<path id="icon-about" class="st5" d="M116.1,144.8c0-0.4,0.1-0.7,0.4-1c0.3-0.3,0.6-0.4,1-0.4c0.4,0,0.7,0.1,1,0.4
	c0.3,0.3,0.4,0.6,0.4,1c0,0.4-0.1,0.7-0.4,1c-0.3,0.3-0.6,0.4-1,0.4c-0.4,0-0.7-0.1-1-0.4C116.3,145.5,116.1,145.2,116.1,144.8
	L116.1,144.8z M117.7,139.7c-2.5,0-4.7,1-6.4,2.6c-1.6,1.6-2.6,3.9-2.6,6.4c0,2.5,1,4.7,2.6,6.4c1.6,1.6,3.9,2.6,6.4,2.6
	c2.5,0,4.7-1,6.4-2.6c1.6-1.6,2.6-3.9,2.6-6.4c0-2.5-1-4.7-2.6-6.4C122.5,140.7,120.2,139.7,117.7,139.7L117.7,139.7z M122.8,143.6
	c-1.3-1.3-3.1-2.1-5.1-2.1c-2,0-3.8,0.8-5.1,2.1c-1.3,1.3-2.1,3.1-2.1,5.1c0,2,0.8,3.8,2.1,5.1c1.3,1.3,3.1,2.1,5.1,2.1
	c2,0,3.8-0.8,5.1-2.1c1.3-1.3,2.1-3.1,2.1-5.1C125,146.7,124.2,144.9,122.8,143.6L122.8,143.6z M119.3,151.9c0,0.3,0,0.5,0.1,0.6
	c0.1,0.1,0.3,0.1,0.6,0.1h0.3v1.4h-5v-1.4h0.3c0.3,0,0.5,0,0.6-0.1c0.1-0.1,0.1-0.3,0.1-0.6v-3.1c0-0.3,0-0.5-0.1-0.6
	c-0.1-0.1-0.3-0.1-0.6-0.1h-0.3v-1.4h4.1V151.9z"/>
<g id="icon-about-respond">
	<path class="st5" d="M153.6,143.4c-1.5-1.4-3.4-2-5.2-2c-1.9,0.1-3.7,0.8-5.1,2.3c-1.4,1.5-2,3.4-2,5.2c0.1,1.9,0.8,3.7,2.3,5.1
		c1.2,1.2,2.8,1.8,4.4,1.9c1.6,0.1,3.2-0.3,4.6-1.2c0.6-0.4,1.3,0,2.2,0.4c0.5,0.3,1.2,0.6,1.2,0.6c0.1-0.1-0.3-0.8-0.6-1.4
		c-0.4-0.8-0.8-1.5-0.4-2.1c0.8-1.4,1.1-3.1,0.8-4.7C155.6,146,154.8,144.5,153.6,143.4L153.6,143.4z M148.3,139.7
		c2.3-0.1,4.6,0.7,6.4,2.4c1.5,1.4,2.4,3.3,2.7,5.2c0.5,3.3-1.3,4.8-0.6,6.3c0.6,1.1,1.3,2.4,0.4,3.4c-0.9,1-2.2,0.3-3.3-0.3
		c-1.3-0.7-2.8,1.3-6.1,1c-1.9-0.2-3.9-1-5.4-2.4c-1.8-1.7-2.8-4-2.9-6.3c-0.1-2.3,0.7-4.6,2.4-6.4
		C143.7,140.7,146,139.8,148.3,139.7z"/>
	<g>
		<circle class="st5" cx="144.9" cy="148.9" r="1.6"/>
		<circle class="st5" cx="148.6" cy="148.9" r="1.6"/>
		<circle class="st5" cx="152.4" cy="148.9" r="1.6"/>
	</g>
</g>
<path id="icon-about-sitemap" class="st5" d="M214.9,139.9c1.7,0.6,2.5,2.4,2,4c-0.3,0.9-1,1.6-1.8,1.9l0.6,2.8l0.6,2.8
	c0.4,0,0.8,0,1.1,0.2c1.7,0.6,2.5,2.4,2,4c-0.6,1.7-2.4,2.5-4,2c-1.5-0.5-2.3-1.9-2.1-3.4l-2.8-0.9l-2.8-1c-0.7,1.5-2.3,2.2-3.9,1.7
	c-1.7-0.6-2.5-2.4-2-4c0.6-1.7,2.4-2.5,4-2c0.3,0.1,0.7,0.3,0.9,0.5l2.4-2.1l2.1-1.9c-0.5-0.8-0.6-1.7-0.3-2.6
	C211.4,140.2,213.2,139.3,214.9,139.9L214.9,139.9z M213.9,146c-0.3,0-0.7,0-1.1-0.2c-0.3-0.1-0.7-0.3-0.9-0.5l-2.1,1.9l-2.4,2.1
	c0.3,0.5,0.5,1.2,0.4,1.8l2.9,1l2.8,0.9c0.3-0.6,0.9-1.1,1.5-1.4l-0.6-2.8L213.9,146z"/>
<path id="icon-about-docs" class="st5" d="M174.9,137.7h8.3h0.3l0.2,0.2l4.5,3.2l0.4,0.3v0.5v13.3v0.9h-0.9h-2.5v2.8v0.9h-0.9h-12.8
	h-0.9v-0.9v-16.5v-0.9h0.9h2.5v-2.8v-0.9H174.9L174.9,137.7z M183.4,156h-8.5H174v-0.9v-11.8h-1.6v14.7h11V156L183.4,156z
	 M177.5,143.2v1.8h7.7v-1.8H177.5L177.5,143.2z M177.5,150v1.8h7.7V150H177.5L177.5,150z M177.5,146.6v1.8h7.7v-1.8L177.5,146.6
	L177.5,146.6z M182.9,139.5h-7.1v14.7h11l0-11.9L182.9,139.5z"/>
<path id="icon-about-exit" class="st5" d="M266.6,139.7h11.1c1,0,1.8,0.4,2.4,1c0.6,0.6,1,1.5,1,2.4v11.1c0,1-0.4,1.8-1,2.4
	c-0.6,0.6-1.5,1-2.4,1h-11.1c-1,0-1.8-0.4-2.4-1c-0.6-0.6-1-1.5-1-2.4v-3h2.1v3c0,0.4,0.1,0.7,0.4,0.9c0.2,0.2,0.6,0.4,0.9,0.4h11.1
	c0.4,0,0.7-0.1,0.9-0.4c0.2-0.2,0.4-0.6,0.4-0.9v-11.1c0-0.4-0.1-0.7-0.4-0.9c-0.2-0.2-0.6-0.4-0.9-0.4h-11.1
	c-0.4,0-0.7,0.1-0.9,0.4c-0.2,0.2-0.4,0.6-0.4,0.9v3h-2.1v-3c0-1,0.4-1.8,1-2.4C264.8,140.1,265.7,139.7,266.6,139.7L266.6,139.7z
	 M273.2,142.8l-1.8,1.2l2.6,3.6h-10.8v2.1H274l-2.6,3.6l1.8,1.2l4.2-5.9l0,0l0,0l0,0l0,0L273.2,142.8z"/>
<path id="icon-contact-letter" class="st6" d="M442.6,94.2l-15,0c0.1,0.2,3.2,3.3,3.6,3.7c0.6,0.6,3,3.5,3.8,3.5
	c0.8,0,3.2-3,3.8-3.5C440.2,96.8,441.5,95.4,442.6,94.2L442.6,94.2z M432.6,101.2c0.6,0.5,1.2,1.6,2.5,1.6c1.3,0,1.9-1,2.5-1.6
	c0.4,0.3,2,2.1,2.5,2.5c0.4,0.4,0.8,0.8,1.3,1.3c0.2,0.2,0.4,0.4,0.6,0.6c0.2,0.2,0.8,0.6,0.3,0.6h-14.5c-0.4,0,0.8-1,1-1.2
	c0.4-0.4,0.8-0.9,1.2-1.3C430.9,102.9,431.8,102,432.6,101.2L432.6,101.2z M426.7,105.2v-10c0.4,0.6,4.9,4.7,4.9,5
	C431.6,100.2,426.9,105.1,426.7,105.2L426.7,105.2z M438.6,100.2l4.8-4.9l0,9.9L438.6,100.2z"/>
<path id="icon-contact-call" class="st6" d="M369,96.7c0.1-0.4-0.8-2.6-1-3.1c-0.2-0.5-0.5-0.9-1.2-0.8c-1.5,0.2-2.9,1.5-3,3.2
	c-0.1,1.3,0.4,2.3,0.9,3.3c0.9,1.9,3.6,4.8,5.3,6.1c1,0.8,1.9,1.5,3.2,2c2.6,1,4.7,0.1,5.4-2c0.5-1.6-0.5-1.7-1.7-2.2
	c-0.5-0.2-1-0.4-1.5-0.6c-0.8-0.2-1,0-1.3,0.6c-0.3,0.6-0.3,1-1.2,0.9c-0.5,0-1-0.4-1.4-0.6c-1.1-0.6-2.5-2-3.2-3
	c-0.2-0.3-0.6-1-0.8-1.3c-0.1-0.2-0.2-0.6-0.1-0.9C367.5,97.3,368.8,97.6,369,96.7z"/>
<path id="icon_x5F_contact_x5F_appoint" class="st6" d="M396.7,107c0,0.4,0.3,0.8,0.5,1c0.4,0.3,0.6,0.3,1.2,0.3l6,0
	c0.7,0,1.8,0.1,2.3-0.3c0.1-0.1,0,0,0.1-0.1c0.3-0.3,0.4-0.7,0.4-1.3c0-1.4,0-3.2,0-4.5c-0.1,0.1-0.6,0.6-0.8,0.8
	c-0.1,0.1-0.1,0.1-0.1,0.3c0,0.7,0.1,2.9-0.1,3.3c-0.3,0.8-1,0.7-2,0.7l-5.4,0c-0.5,0-0.8-0.2-1-0.4c-0.3-0.3-0.3-0.6-0.3-1.1
	c0-0.9,0-1.8,0-2.7c0-0.9-0.1-1.9,0-2.7c0-0.8-0.1-3.4,0.1-3.9c0.1-0.2,0.2-0.4,0.4-0.5c0.2-0.2,0.4-0.2,0.7-0.2c0.9,0,6.3,0,6.6,0
	c0.3,0.1,0.4,0.2,0.6,0.3c0.4,0.4,0.3,1,0.3,1.6c0.1-0.1,0.6-0.6,0.8-0.7c0.2-0.2,0.2-0.2,0.2-0.6c0-0.2,0-0.5,0-0.8
	c-0.1-0.8-0.8-1.4-1.8-1.2c-0.1,0.3,0,0.5-0.3,0.8c-0.2,0.2-0.6,0.1-1,0.1h-4.4c-0.5,0-1,0.1-1.3-0.4c-0.1-0.2,0-0.3-0.1-0.5
	c-0.1-0.1-1-0.1-1.4,0.4c-0.4,0.4-0.4,0.8-0.4,1.6L396.7,107L396.7,107z M399.9,106.6c0.1-0.3,0.9-2.6,0.9-2.7l1.8,1.8
	C402.5,105.8,400,106.6,399.9,106.6L399.9,106.6z M405.8,98.9c0.1-0.1,0.9-0.9,1-1c0.6-0.4,1.1,0.3,1.3,0.5c0.3,0.3,0.8,0.7,0.4,1.3
	c-0.1,0.1-0.1,0.2-0.2,0.3l-0.7,0.7c-0.1-0.1-1.3-1.3-1.6-1.6L405.8,98.9L405.8,98.9z M401.2,103.4l4.1-4.1l1.8,1.8l-4.1,4.1
	l-1.4-1.4C401.4,103.7,401.2,103.6,401.2,103.4L401.2,103.4z M401.6,92.2c1-0.1,2.1,0.2,2.8,0.9c0.6,0.5,0.6,0.4,0.6,1
	c0,0.5,0,0.6-0.5,0.6l-5.4,0c-0.4,0-0.3-0.5-0.3-0.8c0-0.4,0.2-0.5,0.4-0.7C399.9,92.7,400.8,92.2,401.6,92.2L401.6,92.2z M402,92.9
	c0.3,0,0.6,0.3,0.6,0.6c0,0.3-0.3,0.6-0.6,0.6c-0.3,0-0.6-0.3-0.6-0.6C401.4,93.2,401.6,92.9,402,92.9z"/>
<g id="logo-scroll">
	<path class="st6" d="M57.8,238.5c0.1-0.3,0.2-0.7,0.4-1c0.1-0.4,0.3-0.7,0.6-1c0.2-0.3,0.5-0.6,0.7-0.7c0.3-0.2,0.6-0.3,0.9-0.3
		c0.3,0,0.5,0.1,0.7,0.3c0.2,0.2,0.3,0.4,0.3,0.7c0.1,0.3,0.1,0.6,0.1,1c0,0.4,0,0.7-0.1,1c-0.1,0.4-0.1,0.7-0.1,1h-3.8
		C57.6,239.1,57.7,238.8,57.8,238.5L57.8,238.5z M64.4,240.6c0.2-0.9,0.3-1.8,0.3-2.5c0-0.7-0.2-1.4-0.4-2c-0.3-0.6-0.7-1-1.3-1.3
		c-0.6-0.3-1.3-0.5-2.3-0.5c-0.9,0-1.7,0.1-2.4,0.4c-0.7,0.3-1.4,0.7-2,1.2c-0.6,0.5-1.1,1.2-1.5,1.9c-0.4,0.7-0.7,1.5-0.9,2.4
		c-0.3,1.4-0.3,2.6,0,3.5c0.3,1,0.9,1.8,1.7,2.3c0.8,0.5,1.9,0.8,3.2,0.8c0.4,0,0.8-0.1,1.2-0.1c0.4-0.1,0.9-0.2,1.3-0.4
		c0.4-0.2,0.8-0.4,1.2-0.6l0.8-1.4l-0.2-0.2c-0.3,0.2-0.6,0.4-0.9,0.6c-0.3,0.2-0.7,0.3-1.1,0.4c-0.4,0.1-0.7,0.1-1,0.1
		c-0.7,0-1.2-0.1-1.6-0.4c-0.4-0.2-0.7-0.6-0.9-1c-0.2-0.4-0.3-0.9-0.3-1.5c0-0.6,0.1-1.2,0.2-1.8H64.4z"/>
	<path class="st6" d="M70.7,245.1c-0.3,0-0.7,0-1,0c-0.5,0-1,0-1.5,0c-0.5,0-0.9-0.1-1.4-0.1c0.3-0.6,0.6-1.1,0.9-1.7
		c0.3-0.5,0.6-1,0.9-1.5c0.3-0.5,0.6-1,0.9-1.5c0.3-0.5,0.7-1.1,1-1.7c0.1,0.7,0.3,1.5,0.4,2.2c0.1,0.7,0.2,1.4,0.3,2.1
		c0.1,0.7,0.2,1.4,0.3,2.1C71.3,245.1,71,245.1,70.7,245.1L70.7,245.1z M75.1,245.1c-0.4-1.8-0.7-3.6-1-5.4
		c-0.3-1.8-0.6-3.5-0.9-5.3c-0.1,0-0.3,0-0.4,0.1h-0.4h-0.4c-0.1,0-0.3,0-0.4-0.1c-1,1.8-2.1,3.7-3.2,5.4c-1.1,1.8-2.2,3.5-3.3,5.3
		h-0.9c0,0.1,0,0.3,0,0.5c0,0.2,0,0.4-0.1,0.6c0,0.2-0.1,0.4-0.1,0.7c-0.1,0.2-0.1,0.4-0.2,0.7h0.2c0.3-0.2,0.5-0.4,0.9-0.6
		c0.3-0.1,0.6-0.2,1-0.3c0.4-0.1,0.8-0.1,1.3-0.1h1.7h2.4c0.8,0,1.4,0,2,0c0.5,0,1,0.1,1.4,0.3c0.3,0.1,0.6,0.4,0.8,0.7h0.3
		c0-0.2,0-0.5,0-0.7c0-0.2,0.1-0.4,0.1-0.7c0-0.2,0.1-0.4,0.1-0.6c0.1-0.2,0.1-0.4,0.2-0.5H75.1z"/>
	<path class="st6" d="M87.8,246.7l2.5-12.3c-0.3,0-0.5,0.1-0.8,0c-0.3,0-0.6,0-0.8,0c-0.8,0.9-1.6,1.7-2.4,2.6
		c-0.8,0.9-1.7,1.7-2.5,2.6c-0.8,0.8-1.6,1.6-2.3,2.3l1.5-7.5c-0.3,0-0.5,0-0.8,0.1c-0.3,0-0.6,0.1-0.9,0.1c-0.3,0-0.5,0-0.8-0.1
		c-0.3,0-0.5-0.1-0.8-0.1l-2.5,12.2c0.3,0,0.5,0,0.8,0c0.3,0,0.5,0,0.8,0c0.7-0.8,1.4-1.6,2.2-2.5c0.8-0.9,1.6-1.7,2.5-2.6
		c0.9-0.9,1.7-1.7,2.6-2.6l-1.5,7.6c0.3,0,0.6-0.1,0.9-0.1c0.3,0,0.6,0,0.8,0c0.3,0,0.6,0,0.9,0.1C87.3,246.7,87.6,246.7,87.8,246.7
		z"/>
	<path class="st6" d="M101,246.7l0-0.2c-0.2-0.7-0.5-1.5-0.7-2.1c-0.2-0.7-0.5-1.4-0.7-2.1l-1.3-3.2c0.5-0.5,1.1-1,1.6-1.5
		c0.6-0.5,1.1-1,1.7-1.5c0.5-0.5,1.1-1,1.6-1.5l0-0.1c-0.2,0-0.3,0-0.5,0c-0.2,0-0.3,0.1-0.5,0.1c-0.2,0-0.4,0-0.5-0.1
		c-0.2,0-0.3,0-0.5,0c-1,0.9-1.9,1.9-2.9,2.8c-0.9,0.9-1.9,1.8-2.8,2.6h-0.1c-0.1,0-0.1,0-0.1,0l1.1-5.4c-0.3,0-0.6,0.1-0.9,0.1
		c-0.3,0-0.6,0-0.8,0c-0.3,0-0.6,0-0.8,0c-0.3,0-0.6-0.1-0.8-0.1l-2.5,12.2c0.3,0,0.5,0,0.8-0.1c0.3,0,0.6-0.1,0.9-0.1
		c0.3,0,0.5,0,0.8,0.1c0.3,0,0.5,0.1,0.8,0.1l1.2-5.8c0.1,0.1,0.2,0.2,0.3,0.4c0.1,0.1,0.1,0.3,0.2,0.4c0.2,0.5,0.5,1.1,0.7,1.6
		c0.2,0.6,0.4,1.2,0.6,1.8c0.2,0.6,0.4,1.1,0.5,1.6c0.3,0,0.6,0,0.9-0.1c0.3,0,0.6-0.1,0.9-0.1c0.3,0,0.6,0,0.9,0.1
		C100.4,246.7,100.7,246.7,101,246.7z"/>
	<path class="st8" d="M119.9,230.2c-0.4-0.3-0.9-0.5-1.4-0.7c-0.5-0.2-1.1-0.3-1.6-0.4c-0.6-0.1-1.1-0.1-1.6-0.1
		c-1.1,0-2.1,0.1-3.1,0.4c-1,0.3-2,0.6-2.8,1.1c-0.9,0.5-1.7,1.1-2.5,1.9c-0.7,0.8-1.4,1.7-1.9,2.7c-0.5,1-0.9,2.2-1.2,3.5
		c-0.3,1.3-0.3,2.5,0,3.5c0.3,1,0.7,1.9,1.4,2.7c0.7,0.7,1.5,1.3,2.5,1.7c1,0.4,2.2,0.6,3.5,0.6c0.8,0,1.6-0.1,2.5-0.2
		c0.9-0.2,1.7-0.4,2.5-0.8l1-2.2l-0.3-0.1c-0.4,0.4-0.9,0.7-1.5,1c-0.5,0.3-1.1,0.5-1.7,0.7c-0.5,0.1-1.1,0.2-1.6,0.2
		c-0.9,0-1.7-0.2-2.3-0.5c-0.7-0.4-1.2-0.9-1.5-1.5c-0.3-0.7-0.6-1.4-0.6-2.3c-0.1-0.9,0-1.9,0.2-3c0.1-0.7,0.4-1.5,0.7-2.2
		c0.3-0.7,0.6-1.5,1.1-2.1c0.4-0.7,0.9-1.2,1.5-1.7c0.5-0.5,1.1-0.9,1.8-1.2c0.7-0.3,1.4-0.4,2.2-0.4c0.5,0,1,0.1,1.5,0.3
		c0.5,0.2,0.9,0.5,1.2,0.8c0.3,0.4,0.6,0.7,0.8,1.2h0.3c0.2-0.4,0.4-0.9,0.5-1.3C119.5,231.1,119.7,230.6,119.9,230.2z"/>
	<path class="st6" d="M129.4,246.7l2.5-12.3c-0.3,0-0.5,0.1-0.8,0c-0.3,0-0.6,0-0.9,0c-0.8,0.9-1.6,1.7-2.4,2.6
		c-0.8,0.9-1.7,1.7-2.5,2.6c-0.8,0.8-1.6,1.6-2.3,2.3l1.5-7.5c-0.3,0-0.5,0-0.8,0.1c-0.3,0-0.6,0.1-0.9,0.1c-0.3,0-0.6,0-0.8-0.1
		c-0.3,0-0.5-0.1-0.8-0.1l-2.5,12.2c0.3,0,0.5,0,0.8,0c0.3,0,0.5,0,0.8,0c0.7-0.8,1.4-1.6,2.2-2.5c0.8-0.9,1.6-1.7,2.4-2.6
		c0.9-0.9,1.7-1.7,2.6-2.6l-1.5,7.6c0.3,0,0.6-0.1,0.9-0.1c0.3,0,0.6,0,0.8,0c0.3,0,0.6,0,0.8,0.1
		C128.8,246.7,129.1,246.7,129.4,246.7z"/>
	<path class="st6" d="M143,236.2v-0.4c0-0.2,0-0.3,0.1-0.5c0-0.1,0.1-0.3,0.1-0.4c0.1-0.1,0.1-0.3,0.2-0.4h-10v0.4
		c0,0.1,0,0.3-0.1,0.4c0,0.1-0.1,0.3-0.1,0.5c-0.1,0.1-0.1,0.3-0.2,0.4c0.4-0.1,0.7-0.1,1.1-0.1c0.3-0.1,0.7-0.1,1.1-0.1
		c0.4,0,0.8,0,1.2,0l-2.2,10.7c0.3,0,0.6,0,0.9-0.1c0.3,0,0.6-0.1,0.9-0.1c0.3,0,0.5,0,0.8,0.1c0.3,0,0.5,0.1,0.8,0.1l2.2-10.7
		c0.5,0,0.9,0,1.2,0c0.3,0,0.7,0,1,0.1C142.3,236.1,142.6,236.1,143,236.2z"/>
	<path class="st6" d="M153,246.7l2.5-12.3c-0.3,0-0.5,0.1-0.8,0c-0.3,0-0.5,0-0.8,0c-0.8,0.9-1.6,1.7-2.4,2.6
		c-0.9,0.9-1.7,1.7-2.5,2.6c-0.8,0.8-1.6,1.6-2.3,2.3l1.5-7.5c-0.3,0-0.6,0-0.9,0.1c-0.3,0-0.6,0.1-0.9,0.1c-0.3,0-0.5,0-0.8-0.1
		c-0.3,0-0.5-0.1-0.8-0.1l-2.5,12.2c0.3,0,0.6,0,0.8,0c0.3,0,0.5,0,0.8,0c0.7-0.8,1.5-1.6,2.2-2.5c0.8-0.9,1.6-1.7,2.5-2.6
		c0.9-0.9,1.7-1.7,2.6-2.6l-1.5,7.6c0.3,0,0.5-0.1,0.8-0.1c0.3,0,0.6,0,0.9,0c0.3,0,0.5,0,0.8,0.1
		C152.5,246.7,152.7,246.7,153,246.7z"/>
	<path class="st8" d="M51.2,248.6c0.1-1.9,0.2-3.8,0.3-5.8c0.1-2,0.3-4.1,0.5-6.4c0.2-2.2,0.4-4.6,0.6-7.2c-0.2,0-0.3,0.1-0.6,0.1
		c-0.2,0-0.3,0-0.5,0.1c-0.2,0-0.3,0-0.5-0.1c-0.1,0-0.3-0.1-0.5-0.1c-0.9,1.6-1.9,3.2-2.8,4.7c-0.9,1.5-1.9,3-2.8,4.4
		c-0.9,1.4-1.8,2.8-2.6,4.1c-0.5-2.2-1.1-4.4-1.7-6.6c-0.6-2.2-1-4.4-1.5-6.6c-0.2,0-0.3,0.1-0.5,0.1c-0.2,0-0.3,0-0.5,0.1
		c-0.2,0-0.3,0-0.5-0.1c-0.2,0-0.3-0.1-0.5-0.1c-1.1,3.6-2.1,7-3.1,10.2c-1,3.3-2,6.3-3,9.1c0.2,0,0.4-0.1,0.6-0.1
		c0.2,0,0.4,0,0.6,0c0.2,0,0.4,0,0.5,0c0.2,0,0.4,0.1,0.6,0.1c0.3-1.3,0.6-2.6,0.9-4c0.3-1.4,0.7-2.8,1.1-4.2c0.4-1.5,0.9-3,1.4-4.7
		c0.3,1.5,0.7,2.9,1,4.4c0.3,1.4,0.7,2.9,1,4.3c0.3,1.4,0.7,2.7,1,4c0.1,0,0.3-0.1,0.5-0.1c0.1,0,0.3,0,0.5,0.1
		c1.3-2.2,2.6-4.4,3.9-6.5c1.3-2.2,2.6-4.3,4-6.5c-0.1,1.4-0.3,2.9-0.4,4.3c-0.1,1.4-0.3,2.9-0.4,4.4c-0.1,1.5-0.3,2.9-0.6,4.4
		c0.3,0,0.7-0.1,1-0.1c0.3,0,0.7,0,1,0c0.3,0,0.7,0,1,0C50.5,248.5,50.9,248.6,51.2,248.6z"/>
</g>
<g id="logo-main">
	<path class="st9" d="M57.8,193.7c0.1-0.3,0.2-0.7,0.4-1c0.1-0.4,0.3-0.7,0.6-1c0.2-0.3,0.5-0.6,0.7-0.7c0.3-0.2,0.6-0.3,0.9-0.3
		c0.3,0,0.5,0.1,0.7,0.3c0.2,0.2,0.3,0.4,0.3,0.7c0.1,0.3,0.1,0.6,0.1,1c0,0.4,0,0.7-0.1,1c-0.1,0.4-0.1,0.7-0.1,1h-3.8
		C57.6,194.4,57.7,194.1,57.8,193.7L57.8,193.7z M64.4,195.9c0.2-0.9,0.3-1.8,0.3-2.5c0-0.7-0.2-1.4-0.4-2c-0.3-0.6-0.7-1-1.3-1.3
		c-0.6-0.3-1.3-0.5-2.3-0.5c-0.9,0-1.7,0.1-2.4,0.4c-0.7,0.3-1.4,0.7-2,1.2c-0.6,0.5-1.1,1.2-1.5,1.9c-0.4,0.7-0.7,1.5-0.9,2.4
		c-0.3,1.4-0.3,2.6,0,3.5c0.3,1,0.9,1.8,1.7,2.3c0.8,0.5,1.9,0.8,3.2,0.8c0.4,0,0.8-0.1,1.2-0.1c0.4-0.1,0.9-0.2,1.3-0.4
		c0.4-0.2,0.8-0.4,1.2-0.6l0.8-1.4l-0.2-0.2c-0.3,0.2-0.6,0.4-0.9,0.6c-0.3,0.2-0.7,0.3-1.1,0.4c-0.4,0.1-0.7,0.1-1,0.1
		c-0.7,0-1.2-0.1-1.6-0.4c-0.4-0.2-0.7-0.6-0.9-1c-0.2-0.4-0.3-0.9-0.3-1.5c0-0.6,0.1-1.2,0.2-1.8H64.4z"/>
	<path class="st9" d="M70.7,200.3c-0.3,0-0.7,0-1,0c-0.5,0-1,0-1.5,0c-0.5,0-0.9-0.1-1.4-0.1c0.3-0.6,0.6-1.1,0.9-1.7
		c0.3-0.5,0.6-1,0.9-1.5c0.3-0.5,0.6-1,0.9-1.5c0.3-0.5,0.7-1.1,1-1.7c0.1,0.7,0.3,1.5,0.4,2.2c0.1,0.7,0.2,1.4,0.3,2.1
		c0.1,0.7,0.2,1.4,0.3,2.1C71.3,200.3,71,200.3,70.7,200.3L70.7,200.3z M75.1,200.4c-0.4-1.8-0.7-3.6-1-5.4
		c-0.3-1.8-0.6-3.5-0.9-5.3c-0.1,0-0.3,0-0.4,0.1h-0.4H72c-0.1,0-0.3,0-0.4-0.1c-1,1.8-2.1,3.7-3.2,5.4c-1.1,1.8-2.2,3.5-3.3,5.3
		h-0.9c0,0.1,0,0.3,0,0.5c0,0.2,0,0.4-0.1,0.6c0,0.2-0.1,0.4-0.1,0.7c-0.1,0.2-0.1,0.4-0.2,0.7h0.2c0.3-0.2,0.5-0.4,0.9-0.6
		c0.3-0.1,0.6-0.2,1-0.3c0.4-0.1,0.8-0.1,1.3-0.1h1.7h2.4c0.8,0,1.4,0,2,0c0.5,0,1,0.1,1.4,0.3c0.3,0.1,0.6,0.4,0.8,0.7h0.3
		c0-0.2,0-0.5,0-0.7c0-0.2,0.1-0.4,0.1-0.7c0-0.2,0.1-0.4,0.1-0.6c0.1-0.2,0.1-0.4,0.2-0.5H75.1z"/>
	<path class="st9" d="M87.8,202l2.5-12.3c-0.3,0-0.5,0.1-0.8,0c-0.3,0-0.6,0-0.8,0c-0.8,0.9-1.6,1.7-2.4,2.6
		c-0.8,0.9-1.7,1.7-2.5,2.6c-0.8,0.8-1.6,1.6-2.3,2.3l1.5-7.5c-0.3,0-0.5,0-0.8,0.1c-0.3,0-0.6,0.1-0.9,0.1c-0.3,0-0.5,0-0.8-0.1
		c-0.3,0-0.5-0.1-0.8-0.1L77.1,202c0.3,0,0.5,0,0.8,0c0.3,0,0.5,0,0.8,0c0.7-0.8,1.4-1.6,2.2-2.5c0.8-0.9,1.6-1.7,2.5-2.6
		c0.9-0.9,1.7-1.7,2.6-2.6l-1.5,7.6c0.3,0,0.6-0.1,0.9-0.1c0.3,0,0.6,0,0.8,0c0.3,0,0.6,0,0.9,0.1C87.3,201.9,87.6,202,87.8,202z"/>
	<path class="st9" d="M101,202l0-0.2c-0.2-0.7-0.5-1.5-0.7-2.1c-0.2-0.7-0.5-1.4-0.7-2.1l-1.3-3.2c0.5-0.5,1.1-1,1.6-1.5
		c0.6-0.5,1.1-1,1.7-1.5c0.5-0.5,1.1-1,1.6-1.5l0-0.1c-0.2,0-0.3,0-0.5,0c-0.2,0-0.3,0.1-0.5,0.1c-0.2,0-0.4,0-0.5-0.1
		c-0.2,0-0.3,0-0.5,0c-1,0.9-1.9,1.9-2.9,2.8c-0.9,0.9-1.9,1.8-2.8,2.6h-0.1c-0.1,0-0.1,0-0.1,0l1.1-5.4c-0.3,0-0.6,0.1-0.9,0.1
		c-0.3,0-0.6,0-0.8,0c-0.3,0-0.6,0-0.8,0c-0.3,0-0.6-0.1-0.8-0.1L90.5,202c0.3,0,0.5,0,0.8-0.1c0.3,0,0.6-0.1,0.9-0.1
		c0.3,0,0.5,0,0.8,0.1c0.3,0,0.5,0.1,0.8,0.1l1.2-5.8c0.1,0.1,0.2,0.2,0.3,0.4c0.1,0.1,0.1,0.3,0.2,0.4c0.2,0.5,0.5,1.1,0.7,1.6
		c0.2,0.6,0.4,1.2,0.6,1.8c0.2,0.6,0.4,1.1,0.5,1.6c0.3,0,0.6,0,0.9-0.1c0.3,0,0.6-0.1,0.9-0.1c0.3,0,0.6,0,0.9,0.1
		C100.4,201.9,100.7,202,101,202z"/>
	<path class="st8" d="M119.9,185.5c-0.4-0.3-0.9-0.5-1.4-0.7c-0.5-0.2-1.1-0.3-1.6-0.4c-0.6-0.1-1.1-0.1-1.6-0.1
		c-1.1,0-2.1,0.1-3.1,0.4c-1,0.3-2,0.6-2.8,1.1c-0.9,0.5-1.7,1.1-2.5,1.9c-0.7,0.8-1.4,1.7-1.9,2.7c-0.5,1-0.9,2.2-1.2,3.5
		c-0.3,1.3-0.3,2.5,0,3.5c0.3,1,0.7,1.9,1.4,2.7c0.7,0.7,1.5,1.3,2.5,1.7c1,0.4,2.2,0.6,3.5,0.6c0.8,0,1.6-0.1,2.5-0.2
		c0.9-0.2,1.7-0.4,2.5-0.8l1-2.2l-0.3-0.1c-0.4,0.4-0.9,0.7-1.5,1c-0.5,0.3-1.1,0.5-1.7,0.7c-0.5,0.1-1.1,0.2-1.6,0.2
		c-0.9,0-1.7-0.2-2.3-0.5c-0.7-0.4-1.2-0.9-1.5-1.5c-0.3-0.7-0.6-1.4-0.6-2.3c-0.1-0.9,0-1.9,0.2-3c0.1-0.7,0.4-1.5,0.7-2.2
		c0.3-0.7,0.6-1.5,1.1-2.1c0.4-0.7,0.9-1.2,1.5-1.7c0.5-0.5,1.1-0.9,1.8-1.2c0.7-0.3,1.4-0.4,2.2-0.4c0.5,0,1,0.1,1.5,0.3
		c0.5,0.2,0.9,0.5,1.2,0.8c0.3,0.4,0.6,0.7,0.8,1.2h0.3c0.2-0.4,0.4-0.9,0.5-1.3C119.5,186.3,119.7,185.9,119.9,185.5z"/>
	<path class="st9" d="M129.4,202l2.5-12.3c-0.3,0-0.5,0.1-0.8,0c-0.3,0-0.6,0-0.9,0c-0.8,0.9-1.6,1.7-2.4,2.6
		c-0.8,0.9-1.7,1.7-2.5,2.6c-0.8,0.8-1.6,1.6-2.3,2.3l1.5-7.5c-0.3,0-0.5,0-0.8,0.1c-0.3,0-0.6,0.1-0.9,0.1c-0.3,0-0.6,0-0.8-0.1
		c-0.3,0-0.5-0.1-0.8-0.1l-2.5,12.2c0.3,0,0.5,0,0.8,0c0.3,0,0.5,0,0.8,0c0.7-0.8,1.4-1.6,2.2-2.5c0.8-0.9,1.6-1.7,2.4-2.6
		c0.9-0.9,1.7-1.7,2.6-2.6L126,202c0.3,0,0.6-0.1,0.9-0.1c0.3,0,0.6,0,0.8,0c0.3,0,0.6,0,0.8,0.1C128.8,201.9,129.1,202,129.4,202z"
		/>
	<path class="st9" d="M143,191.5V191c0-0.2,0-0.3,0.1-0.5c0-0.1,0.1-0.3,0.1-0.4c0.1-0.1,0.1-0.3,0.2-0.4h-10v0.4
		c0,0.1,0,0.3-0.1,0.4c0,0.1-0.1,0.3-0.1,0.5c-0.1,0.1-0.1,0.3-0.2,0.4c0.4-0.1,0.7-0.1,1.1-0.1c0.3-0.1,0.7-0.1,1.1-0.1
		c0.4,0,0.8,0,1.2,0l-2.2,10.7c0.3,0,0.6,0,0.9-0.1c0.3,0,0.6-0.1,0.9-0.1c0.3,0,0.5,0,0.8,0.1c0.3,0,0.5,0.1,0.8,0.1l2.2-10.7
		c0.5,0,0.9,0,1.2,0c0.3,0,0.7,0,1,0.1C142.3,191.4,142.6,191.4,143,191.5z"/>
	<path class="st9" d="M153,202l2.5-12.3c-0.3,0-0.5,0.1-0.8,0c-0.3,0-0.5,0-0.8,0c-0.8,0.9-1.6,1.7-2.4,2.6
		c-0.9,0.9-1.7,1.7-2.5,2.6c-0.8,0.8-1.6,1.6-2.3,2.3l1.5-7.5c-0.3,0-0.6,0-0.9,0.1c-0.3,0-0.6,0.1-0.9,0.1c-0.3,0-0.5,0-0.8-0.1
		c-0.3,0-0.5-0.1-0.8-0.1l-2.5,12.2c0.3,0,0.6,0,0.8,0c0.3,0,0.5,0,0.8,0c0.7-0.8,1.5-1.6,2.2-2.5c0.8-0.9,1.6-1.7,2.5-2.6
		c0.9-0.9,1.7-1.7,2.6-2.6l-1.5,7.6c0.3,0,0.5-0.1,0.8-0.1c0.3,0,0.6,0,0.9,0c0.3,0,0.5,0,0.8,0.1C152.5,201.9,152.7,202,153,202z"
		/>
	<path class="st8" d="M51.2,203.9c0.1-1.9,0.2-3.8,0.3-5.8c0.1-2,0.3-4.1,0.5-6.4c0.2-2.2,0.4-4.6,0.6-7.2c-0.2,0-0.3,0.1-0.6,0.1
		c-0.2,0-0.3,0-0.5,0.1c-0.2,0-0.3,0-0.5-0.1c-0.1,0-0.3-0.1-0.5-0.1c-0.9,1.6-1.9,3.2-2.8,4.7c-0.9,1.5-1.9,3-2.8,4.4
		c-0.9,1.4-1.8,2.8-2.6,4.1c-0.5-2.2-1.1-4.4-1.7-6.6c-0.6-2.2-1-4.4-1.5-6.6c-0.2,0-0.3,0.1-0.5,0.1c-0.2,0-0.3,0-0.5,0.1
		c-0.2,0-0.3,0-0.5-0.1c-0.2,0-0.3-0.1-0.5-0.1c-1.1,3.6-2.1,7-3.1,10.2c-1,3.3-2,6.3-3,9.1c0.2,0,0.4-0.1,0.6-0.1
		c0.2,0,0.4,0,0.6,0c0.2,0,0.4,0,0.5,0c0.2,0,0.4,0.1,0.6,0.1c0.3-1.3,0.6-2.6,0.9-4c0.3-1.4,0.7-2.8,1.1-4.2c0.4-1.5,0.9-3,1.4-4.7
		c0.3,1.5,0.7,2.9,1,4.4c0.3,1.4,0.7,2.9,1,4.3c0.3,1.4,0.7,2.7,1,4c0.1,0,0.3-0.1,0.5-0.1c0.1,0,0.3,0,0.5,0.1
		c1.3-2.2,2.6-4.4,3.9-6.5c1.3-2.2,2.6-4.3,4-6.5c-0.1,1.4-0.3,2.9-0.4,4.3c-0.1,1.4-0.3,2.9-0.4,4.4c-0.1,1.5-0.3,2.9-0.6,4.4
		c0.3,0,0.7-0.1,1-0.1c0.3,0,0.7,0,1,0c0.3,0,0.7,0,1,0C50.5,203.8,50.9,203.8,51.2,203.9z"/>
	<path class="st10" d="M35.8,212.3h0.7l-0.3-5.5h-0.9l-1,2.7c-0.2,0.7-0.4,1.3-0.6,1.9h0c-0.1-0.6-0.3-1.2-0.5-1.9l-0.9-2.7h-0.9
		l-0.4,5.5h0.7l0.1-2.4c0-0.8,0.1-1.8,0.1-2.5h0c0.2,0.7,0.4,1.4,0.6,2.2l0.9,2.6H34l1-2.7c0.3-0.8,0.5-1.5,0.7-2.1h0
		c0,0.7,0,1.6,0.1,2.4L35.8,212.3L35.8,212.3z M37.5,206.8v5.5h0.8v-2.6h2.9v2.6H42v-5.5h-0.8v2.3h-2.9v-2.3H37.5L37.5,206.8z
		 M45.6,206.7c-1.6,0-2.8,1.2-2.8,2.9c0,1.7,1.1,2.8,2.7,2.8c1.5,0,2.8-1,2.8-2.9C48.3,207.8,47.3,206.7,45.6,206.7L45.6,206.7z
		 M45.6,207.3c1.3,0,1.9,1.2,1.9,2.3c0,1.3-0.7,2.3-1.9,2.3c-1.2,0-1.9-1.1-1.9-2.3C43.6,208.4,44.3,207.3,45.6,207.3L45.6,207.3z
		 M49.2,206.8v5.5H50v-4.9h2.4v-0.6H49.2L49.2,206.8z M55,206.7c1.7,0,2.7,1.2,2.7,2.8c0,1.9-1.3,2.9-2.8,2.9
		c-1.6,0-2.7-1.1-2.7-2.8C52.2,207.8,53.4,206.7,55,206.7L55,206.7z M55,207.3c-1.3,0-1.9,1.1-1.9,2.3c0,1.2,0.7,2.3,1.9,2.3
		c1.2,0,1.9-1,1.9-2.3C56.9,208.4,56.3,207.3,55,207.3L55,207.3z M58.6,206.8v5.5h0.8v-4.9h2.8v4.9H63v-5.5H58.6L58.6,206.8z
		 M64.1,212.3h0.8v-2.2c0.2,0,0.4,0,0.6,0c0.8,0,1.4-0.2,1.9-0.6c0.3-0.3,0.5-0.7,0.5-1.2c0-0.5-0.2-0.9-0.5-1.2
		c-0.4-0.3-0.9-0.5-1.7-0.5c-0.6,0-1.1,0-1.5,0.1V212.3L64.1,212.3z M64.9,207.4c0.1,0,0.4-0.1,0.7-0.1c0.9,0,1.4,0.4,1.4,1.1
		c0,0.8-0.6,1.2-1.5,1.2c-0.3,0-0.5,0-0.6-0.1V207.4L64.9,207.4z M71.1,206.7c-1.6,0-2.8,1.2-2.8,2.9c0,1.7,1.1,2.8,2.7,2.8
		c1.5,0,2.8-1,2.8-2.9C73.8,207.8,72.8,206.7,71.1,206.7L71.1,206.7z M71.1,207.3c1.3,0,1.9,1.2,1.9,2.3c0,1.3-0.7,2.3-1.9,2.3
		s-1.9-1.1-1.9-2.3C69.1,208.4,69.8,207.3,71.1,207.3L71.1,207.3z M76.9,206.5v0.5c-1.2,0.1-2.6,0.7-2.6,2.5c0,1.8,1.3,2.4,2.5,2.5
		v0.5h0.8V212c1.3-0.1,2.6-0.7,2.6-2.5c0-1.7-1.3-2.4-2.5-2.5v-0.5H76.9L76.9,206.5z M76.9,211.5c-0.9-0.1-1.7-0.6-1.7-2
		c0-1.4,1-2,1.7-2V211.5L76.9,211.5z M77.6,207.6c0.9,0,1.7,0.6,1.7,2c0,1.4-0.9,1.9-1.7,2V207.6L77.6,207.6z M81,206.8v5.5h0.8
		l1.9-2.8c0.4-0.6,0.8-1.3,1.1-1.9l0,0c-0.1,0.7-0.1,1.4-0.1,2.3l0,2.4h0.7v-5.5h-0.8l-2,2.9c-0.4,0.7-0.8,1.3-1.1,1.8l0,0
		c0.1-0.7,0.1-1.5,0.1-2.3l0-2.3H81L81,206.8z M87.2,206.8v2.3c0,0.9,0,2-0.5,2.4c-0.1,0.1-0.4,0.3-0.6,0.3l0.1,0.6
		c0.4,0,0.7-0.1,0.9-0.3c0.8-0.5,0.9-1.9,0.9-3.1v-1.7h2v4.9h0.8v-5.5H87.2L87.2,206.8z M91.9,206.8v5.5c0.3,0,0.7,0.1,1.2,0.1
		c0.8,0,1.7-0.2,2.2-0.6c0.3-0.3,0.5-0.7,0.5-1.2c0-1.2-1.1-1.7-2.3-1.7c-0.2,0-0.6,0-0.7,0v-2.1H91.9L91.9,206.8z M92.7,209.4
		c0.2,0,0.4,0,0.6,0c0.9,0,1.6,0.3,1.6,1.2c0,0.9-0.7,1.2-1.6,1.2c-0.3,0-0.5,0-0.6,0V209.4L92.7,209.4z M96.6,206.8v5.5h0.8v-2.6
		h2.9v2.6h0.8v-5.5h-0.8v2.3h-2.9v-2.3H96.6L96.6,206.8z M105.4,210.6l0.6,1.7h0.8l-2.1-5.5h-0.9l-2.1,5.5h0.8l0.6-1.7H105.4
		L105.4,210.6z M103.4,210l0.6-1.6c0.1-0.3,0.2-0.7,0.3-1h0c0.1,0.3,0.2,0.7,0.3,1l0.6,1.6H103.4L103.4,210z M107.9,212.3
		c0.1-0.1,0.1-0.3,0.2-0.4c0.2-0.5,0.4-1.3,0.8-1.7c0.2-0.2,0.5-0.3,0.9-0.3h0.6v2.4h0.8v-5.5c-0.4-0.1-0.9-0.1-1.4-0.1
		c-0.8,0-1.4,0.1-1.7,0.4c-0.3,0.3-0.6,0.6-0.6,1.1c0,0.8,0.6,1.3,1.3,1.4v0c-0.2,0.1-0.4,0.2-0.5,0.3c-0.5,0.5-0.6,1.2-0.9,1.9
		c-0.1,0.2-0.2,0.4-0.3,0.5H107.9L107.9,212.3z M110.3,209.4c-0.2,0-0.4,0-0.7,0c-0.9,0-1.5-0.4-1.5-1.1c0-0.8,0.7-1,1.4-1
		c0.4,0,0.6,0,0.7,0.1V209.4L110.3,209.4z M118.8,206.8v5.5h0.8v-2.5h0.3c1,0,1.4,0.5,1.7,1.2c0.2,0.4,0.3,0.9,0.6,1.3h0.8
		c-0.3-0.5-0.4-1-0.7-1.6c-0.3-0.7-0.7-1.3-1.7-1.4l2.3-2.5h-0.9l-2.1,2.5h-0.2v-2.5H118.8L118.8,206.8z M124.2,206.8v2.3
		c0,0.9,0,2-0.5,2.4c-0.1,0.1-0.4,0.3-0.6,0.3l0.1,0.6c0.4,0,0.7-0.1,0.9-0.3c0.8-0.5,0.9-1.9,0.9-3.1v-1.7h2v4.9h0.8v-5.5H124.2
		L124.2,206.8z M128.8,206.8v5.5h0.8l1.9-2.8c0.4-0.6,0.8-1.3,1.1-1.9l0,0c-0.1,0.7-0.1,1.4-0.1,2.3v2.4h0.7v-5.5h-0.8l-2,2.9
		c-0.4,0.7-0.8,1.3-1.1,1.8l0,0c0.1-0.7,0.1-1.5,0.1-2.3v-2.3H128.8L128.8,206.8z M134.5,206.8v5.5h0.8v-2.6h2.9v2.6h0.8v-5.5h-0.8
		v2.3h-2.9v-2.3H134.5L134.5,206.8z M140,206.8v5.5h0.8l1.9-2.8c0.4-0.6,0.8-1.3,1.1-1.9l0,0c-0.1,0.7-0.1,1.4-0.1,2.3v2.4h0.7v-5.5
		h-0.8l-2,2.9c-0.4,0.7-0.8,1.3-1.1,1.8l0,0c0.1-0.7,0.1-1.5,0.1-2.3v-2.3H140L140,206.8z M145.7,206.8v5.5h0.8v-2.5h0.3
		c1,0,1.4,0.5,1.7,1.2c0.2,0.4,0.3,0.9,0.6,1.3h0.8c-0.3-0.5-0.4-1-0.7-1.6c-0.3-0.7-0.7-1.3-1.7-1.4l2.3-2.5h-0.9l-2.1,2.5h-0.2
		v-2.5H145.7L145.7,206.8z M153.5,210.6l0.6,1.7h0.8l-2.1-5.5h-0.9l-2.1,5.5h0.8l0.6-1.7H153.5L153.5,210.6z M151.5,210l0.6-1.6
		c0.1-0.3,0.2-0.7,0.3-1h0c0.1,0.3,0.2,0.7,0.3,1l0.6,1.6H151.5z"/>
</g>
<g id="icon-dots-red">
	<path class="st8" d="M248.1,194.8c1.3,0,2.3-1,2.3-2.3c0-1.3-1-2.3-2.3-2.3c-1.3,0-2.3,1-2.3,2.3
		C245.8,193.7,246.9,194.8,248.1,194.8z"/>
	<path class="st8" d="M248.1,200.7c1.3,0,2.3-1,2.3-2.3c0-1.3-1-2.3-2.3-2.3c-1.3,0-2.3,1-2.3,2.3
		C245.8,199.7,246.9,200.7,248.1,200.7z"/>
	<path class="st8" d="M248.1,206.6c1.3,0,2.3-1,2.3-2.3c0-1.3-1-2.3-2.3-2.3c-1.3,0-2.3,1-2.3,2.3
		C245.8,205.6,246.9,206.6,248.1,206.6z"/>
</g>
<g id="icon-dots-bl">
	<path class="st5" d="M236.1,194.7c1.3,0,2.4-1.1,2.4-2.4c0-1.3-1.1-2.4-2.4-2.4c-1.3,0-2.4,1.1-2.4,2.4
		C233.8,193.7,234.8,194.7,236.1,194.7z"/>
	<path class="st5" d="M236.1,200.7c1.3,0,2.4-1.1,2.4-2.4c0-1.3-1.1-2.4-2.4-2.4c-1.3,0-2.4,1.1-2.4,2.4
		C233.8,199.7,234.8,200.7,236.1,200.7z"/>
	<path class="st5" d="M236.1,206.8c1.3,0,2.4-1.1,2.4-2.4c0-1.3-1.1-2.4-2.4-2.4c-1.3,0-2.4,1.1-2.4,2.4
		C233.8,205.7,234.8,206.8,236.1,206.8z"/>
</g>
<path id="close-mark" class="st11" d="M202.5,191.7L202.5,191.7c0.6-0.6,1.7-0.6,2.3,0l4.3,4.3l4.3-4.3c0.6-0.6,1.7-0.6,2.3,0l0,0
	c0.6,0.6,0.6,1.7,0,2.3l-4.3,4.3l4.3,4.3c0.6,0.6,0.6,1.7,0,2.3c-0.6,0.6-1.7,0.6-2.3,0l-4.3-4.3l-4.3,4.3c-0.6,0.6-1.7,0.6-2.3,0
	l0,0c-0.6-0.6-0.6-1.7,0-2.3l4.3-4.3l-4.3-4.3C201.8,193.4,201.8,192.4,202.5,191.7L202.5,191.7z M215.8,205.1"/>
<path id="arrow-sort-down-bl" class="st5" d="M281.9,202.1l3.6-3.6c0.2-0.2,0.6-0.2,0.9,0v0c0.2,0.2,0.2,0.6,0,0.9l-4.6,4.6
	c-0.1,0.1-0.2,0.3-0.4,0.3l0,0l0,0l0,0c-0.1,0-0.1,0-0.2,0h0l0,0h0l0,0h0l0,0h0l0,0h0l0,0l0,0h0c-0.1,0-0.1,0-0.2,0l0,0l0,0l0,0
	c-0.2-0.1-0.3-0.2-0.4-0.3l-4.6-4.6c-0.2-0.2-0.2-0.6,0-0.9v0c0.2-0.2,0.6-0.2,0.9,0l3.6,3.6v-9c0-0.4,0.3-0.7,0.7-0.7h0
	c0.4,0,0.7,0.3,0.7,0.7V202.1z"/>
<path id="arrow-sort-up-bl" class="st5" d="M297.4,194.6l3.6,3.6c0.2,0.2,0.6,0.2,0.9,0v0c0.2-0.2,0.2-0.6,0-0.9l-4.6-4.6
	c-0.1-0.1-0.2-0.3-0.4-0.3l0,0l0,0l0,0c-0.1,0-0.1,0-0.2,0h0l0,0h0l0,0h0l0,0h0l0,0h0l0,0l0,0h0c-0.1,0-0.1,0-0.2,0l0,0l0,0l0,0
	c-0.2,0.1-0.3,0.2-0.4,0.3l-4.6,4.6c-0.2,0.2-0.2,0.6,0,0.9v0c0.2,0.2,0.6,0.2,0.9,0l3.6-3.6v9c0,0.4,0.3,0.7,0.7,0.7h0
	c0.4,0,0.7-0.3,0.7-0.7V194.6z"/>
<path id="arrow-sort-down-gr" class="st7" d="M312.9,202.1l3.6-3.6c0.2-0.2,0.6-0.2,0.9,0v0c0.2,0.2,0.2,0.6,0,0.9l-4.6,4.6
	c-0.1,0.1-0.2,0.3-0.4,0.3l0,0l0,0l0,0c-0.1,0-0.1,0-0.2,0l0,0l0,0h0l0,0h0l0,0h0l0,0l0,0l0,0l0,0h0c-0.1,0-0.1,0-0.2,0l0,0l0,0l0,0
	c-0.2-0.1-0.3-0.2-0.4-0.3l-4.6-4.6c-0.2-0.2-0.2-0.6,0-0.9v0c0.2-0.2,0.6-0.2,0.9,0l3.6,3.6v-9c0-0.4,0.3-0.7,0.7-0.7h0
	c0.4,0,0.7,0.3,0.7,0.7V202.1z"/>
<path id="arrow-sort-up-gr" class="st7" d="M328.5,194.6l3.6,3.6c0.2,0.2,0.6,0.2,0.9,0v0c0.2-0.2,0.2-0.6,0-0.9l-4.6-4.6
	c-0.1-0.1-0.2-0.3-0.4-0.3l0,0l0,0l0,0c-0.1,0-0.1,0-0.2,0l0,0l0,0h0l0,0h0l0,0h0l0,0l0,0l0,0l0,0h0c-0.1,0-0.1,0-0.2,0l0,0l0,0l0,0
	c-0.2,0.1-0.3,0.2-0.4,0.3l-4.6,4.6c-0.2,0.2-0.2,0.6,0,0.9v0c0.2,0.2,0.6,0.2,0.9,0l3.6-3.6v9c0,0.4,0.3,0.7,0.7,0.7h0
	c0.4,0,0.7-0.3,0.7-0.7V194.6z"/>
<g id="icon-twit">
	<path class="st12" d="M496.4,146c-0.3,0.1-0.7,0.2-1,0.3c0.4-0.2,0.6-0.6,0.8-1c-0.3,0.2-0.7,0.3-1.1,0.4c-0.3-0.3-0.8-0.6-1.3-0.6
		c-1,0-1.8,0.8-1.8,1.8c0,0.1,0,0.3,0,0.4c-1.5-0.1-2.8-0.8-3.6-1.8c-0.2,0.3-0.2,0.6-0.2,0.9c0,0.6,0.3,1.2,0.8,1.5
		c-0.3,0-0.6-0.1-0.8-0.2c0,0,0,0,0,0c0,0.9,0.6,1.6,1.4,1.7c-0.1,0-0.3,0.1-0.5,0.1c-0.1,0-0.2,0-0.3,0c0.2,0.7,0.9,1.2,1.7,1.2
		c-0.6,0.5-1.4,0.8-2.2,0.8c-0.1,0-0.3,0-0.4,0c0.8,0.5,1.7,0.8,2.7,0.8c3.3,0,5-2.7,5-5c0-0.1,0-0.2,0-0.2
		C495.9,146.7,496.2,146.4,496.4,146z"/>
</g>
<g id="icon-youtube">
	<path class="st6" d="M533.7,150.4l0.6,1.2L533.7,150.4L533.7,150.4z M531.8,149.6l0.2,0.2L531.8,149.6L531.8,149.6z M532.3,150.4
		l0.4,0.6L532.3,150.4L532.3,150.4z M533.1,151.5l0.3,0.5l0,0l0,0l0.1-0.1L533.1,151.5L533.1,151.5z M534,151.6l0.3-0.2L534,151.6
		L534,151.6z M534.3,151.2l-1.2,0.4L534.3,151.2L534.3,151.2z M532.8,151.6l-0.4-0.3L532.8,151.6L532.8,151.6z M532,151.1l-0.4-0.3
		L532,151.1L532,151.1z M531.2,150.6l-0.4-0.2L531.2,150.6L531.2,150.6z M530,149.9L530,149.9L530,149.9L530,149.9L530,149.9z
		 M530.8,150.4l0.4,0.2L530.8,150.4L530.8,150.4z M531.6,150.9l0.4,0.3L531.6,150.9L531.6,150.9z M532.3,151.4l0.4,0.3L532.3,151.4
		L532.3,151.4z M533.1,151.8l0.3,0.2l0,0L533.1,151.8L533.1,151.8z M533.4,152l-0.3-0.5L533.4,152L533.4,152z M532.8,151l-0.4-0.7
		L532.8,151L532.8,151z M532,149.9l-0.2-0.2L532,149.9L532,149.9z M530,149.9l-0.2-0.3L530,149.9L530,149.9z M529.5,149.6l0.4,0.3
		L529.5,149.6L529.5,149.6z M533.4,152L533.4,152L533.4,152L533.4,152L533.4,152z M529.2,148.9h4.6c0.6,0,1.1,0.5,1.1,1.1v2.3
		c0,0.6-0.5,1.1-1.1,1.1h-4.6c-0.6,0-1.1-0.5-1.1-1.1V150C528.1,149.4,528.6,148.9,529.2,148.9L529.2,148.9z M533.9,145.1v2.5
		c-0.1,0.1-0.1,0.1-0.2,0.2c-0.1,0-0.1,0.1-0.2,0.1c-0.1,0-0.1,0-0.1-0.1c0,0,0-0.1,0-0.2v-2.5h-0.6v2.7c0,0.2,0,0.3,0.1,0.4
		c0.1,0.1,0.2,0.1,0.3,0.1c0.1,0,0.2,0,0.3-0.1c0.1-0.1,0.2-0.2,0.3-0.3v0.4h0.6v-3.2H533.9L533.9,145.1z M530.7,148.2
		c0.2,0.2,0.4,0.2,0.6,0.2h0c0.3,0,0.5-0.1,0.6-0.2c0.2-0.2,0.2-0.4,0.2-0.7v-1.7c0-0.2-0.1-0.4-0.2-0.6c-0.2-0.2-0.4-0.2-0.6-0.2
		c-0.3,0-0.5,0.1-0.7,0.2c-0.2,0.1-0.2,0.3-0.2,0.6l0,1.7C530.5,147.8,530.6,148,530.7,148.2L530.7,148.2z M531.1,145.9L531.1,145.9
		c0-0.1,0-0.1,0.1-0.2c0,0,0.1-0.1,0.2-0.1c0.1,0,0.1,0,0.2,0.1c0,0,0.1,0.1,0.1,0.2v1.8c0,0.1,0,0.2-0.1,0.2c0,0-0.1,0.1-0.2,0.1
		c-0.1,0-0.1,0-0.2-0.1c0,0-0.1-0.1-0.1-0.2V145.9L531.1,145.9z M530.5,144l-0.8,2.6v1.8h-0.7v-1.7l-0.8-2.6v0h0.7l0.4,1.8h0
		l0.4-1.8H530.5L530.5,144z M530,149.6v0.1v0.1v0v0v0.1h-0.5v2.6h-0.5v-2.6h-0.5v-0.4h0.9h0.3h0h0H530L530,149.6z M530.8,152.1
		L530.8,152.1c0,0-0.1,0.1-0.1,0.1c0,0-0.1,0-0.1,0c0,0-0.1,0-0.1,0c0,0,0-0.1,0-0.1v-1.7H530v1.8c0,0.1,0,0.2,0.1,0.3
		c0,0.1,0.1,0.1,0.2,0.1c0.1,0,0.2,0,0.2-0.1c0.1,0,0.2-0.1,0.2-0.2v0.2h0.4v-2v-0.1v-0.1h-0.1h-0.3h0h0V152.1L530.8,152.1z
		 M532.4,150.4L532.4,150.4L532.4,150.4L532.4,150.4L532.4,150.4c-0.1,0-0.1,0-0.2,0.1c-0.1,0-0.1,0.1-0.2,0.2v-0.7v0v-0.1v-0.1
		h-0.1h0h0h-0.3v1.3v0v0v1.7h0.4v-0.2c0.1,0.1,0.1,0.1,0.2,0.1c0.1,0,0.1,0,0.2,0c0.1,0,0.2,0,0.3-0.1c0.1-0.1,0.1-0.2,0.1-0.4v-0.5
		v-0.1V151v-0.1c0-0.1,0-0.1,0-0.2c0-0.1,0-0.2-0.1-0.2l0,0C532.6,150.4,532.5,150.4,532.4,150.4L532.4,150.4z M532.3,152.1
		L532.3,152.1c0,0.1,0,0.1,0,0.2c0,0-0.1,0-0.1,0c0,0-0.1,0-0.1,0c0,0-0.1,0-0.1-0.1v-1.1V151v-0.2c0,0,0.1-0.1,0.1-0.1
		c0,0,0.1,0,0.1,0c0.1,0,0.1,0,0.1,0.1c0,0,0,0.1,0,0.2v0.4v0v0V152.1L532.3,152.1z M534.3,151.6L534.3,151.6v-0.3v-0.1V151
		c0-0.2-0.1-0.4-0.2-0.5c0-0.1-0.1-0.1-0.2-0.1c-0.1,0-0.2,0-0.3,0l0,0c-0.2,0-0.3,0.1-0.4,0.2c-0.1,0.1-0.2,0.3-0.2,0.5v0.5v0v0v0
		v0v0v0.2v0v0.2c0,0.2,0.1,0.4,0.2,0.5c0.1,0.1,0.3,0.2,0.4,0.2c0.2,0,0.4-0.1,0.5-0.2c0.1-0.1,0.2-0.3,0.2-0.5v-0.2h-0.4v0.2
		c0,0.1,0,0.2,0,0.3c0,0-0.1,0.1-0.1,0.1c-0.1,0-0.1,0-0.1-0.1c0,0,0-0.1,0-0.2v0l0,0v0v-0.1v-0.3H534.3L534.3,151.6z M533.5,151
		L533.5,151c0-0.1,0-0.2,0-0.2c0,0,0.1-0.1,0.1-0.1c0.1,0,0.1,0,0.1,0.1c0,0,0,0.1,0,0.2v0.2h-0.4V151z"/>
</g>
<path id="icon-fb" class="st12" d="M470.5,147.3h0.8v-0.4v-0.4v-0.1c0-0.4,0-0.9,0.3-1.3c0.3-0.4,0.7-0.6,1.3-0.6
	c1.1,0,1.5,0.2,1.5,0.2l-0.2,1.3c0,0-0.4-0.1-0.7-0.1c-0.3,0-0.6,0.1-0.6,0.4v0.1v0.4v0.4h1.4l-0.1,1.2h-1.3v4.3h-1.6v-4.3h-0.8
	V147.3z"/>
<g id="icon-inst">
	<path class="st6" d="M547.5,149l0-1.6c0-0.8,0-1.5,0.7-2c0.6-0.4,1.7-0.3,2.4-0.3c0.8,0,1.9-0.1,2.7,0.1c0.8,0.1,1.2,0.6,1.4,1.4
		c0.1,0.8,0.1,1.6,0.1,2.4c0,0.6,0,1.7-0.1,2.3c-0.2,0.7-0.9,1-1.6,1.1c-1.2,0-2.5,0.1-3.7,0c-1.3-0.1-1.7-0.7-1.8-2L547.5,149
		L547.5,149z M547.3,145.2c-0.3,0.4-0.4,0.6-0.5,1.2c-0.1,0.5-0.1,1.1-0.1,1.6l0,1.7c0,0.6,0,1.2,0.2,1.7c0.6,1.7,2.1,1.7,3.7,1.7
		c0.9,0,2.4,0.1,3.3-0.2c0.2-0.1,0.5-0.2,0.7-0.3c0.1-0.1,0.2-0.1,0.3-0.2c0.1-0.1,0.2-0.2,0.2-0.2c0.1-0.1,0.2-0.3,0.2-0.4
		c0.1-0.1,0.1-0.3,0.2-0.5c0.1-0.4,0.1-0.7,0.1-1.1c0-0.7,0-1.5,0-2.3c0-0.7,0-1.4-0.2-2.1c-0.3-0.7-0.7-1.2-1.5-1.4
		c-0.6-0.2-1.2-0.2-1.7-0.2c-0.6,0-1.3,0-1.9,0C548.9,144.3,548.2,144.3,547.3,145.2z"/>
	<path class="st6" d="M549.6,148.6c0.1-1,1.1-1.6,2.1-1.2c0.9,0.4,1.1,1.6,0.5,2.3c-0.4,0.5-1.1,0.6-1.7,0.4
		C549.9,149.8,549.6,149.2,549.6,148.6L549.6,148.6z M549.2,147.4c-0.3,0.6-0.4,0.9-0.4,1.6c0.1,0.4,0.2,0.7,0.4,1
		c0.3,0.4,0.4,0.4,0.7,0.7c0.2,0,0.3,0.2,0.5,0.2c0.2,0.1,0.4,0.1,0.7,0.1c0.4,0,0.8-0.1,1.1-0.3c0.4-0.2,0.5-0.4,0.7-0.7
		c0.4-0.8,0.5-1.5,0.1-2.3c-0.4-0.7-0.9-1-1.7-1.2c-0.5,0-0.9,0-1.4,0.2C549.7,146.9,549.5,147.1,549.2,147.4z"/>
	<path class="st6" d="M552.9,146.3c0,0.7,0.9,0.7,1,0.1C554.1,145.7,553,145.6,552.9,146.3z"/>
</g>
<path id="icon-vk" class="st6" d="M507.5,145.9c-0.4,0.1-0.2,0.7-0.1,1.1c0.6,1.9,2.3,4.6,4.5,4.5c0.7,0,0.5-0.4,0.5-1
	c0-0.4-0.1-1.1,0.5-0.8c0.6,0.3,1.1,1.2,1.5,1.6c0.2,0.2,0.2,0.2,0.5,0.2c1.3,0,1.9,0.1,0.4-1.7c-0.1-0.2-0.6-0.7-0.6-0.9
	c-0.1-0.2,0.4-0.8,0.5-0.9c0.2-0.2,1.1-1.6,1-2c-0.1-0.2-1.1-0.2-1.3-0.1c-0.3,0-0.5,0.5-0.7,0.8c-0.2,0.5-0.9,1.6-1.3,1.7
	c-0.6,0.3-0.5-0.6-0.5-0.9c0-1.7,0.1-1.6-0.6-1.6c-0.2,0-0.5,0-0.7,0c-0.4,0-1.2-0.1-0.8,0.5c0.4,0.6,0.3,1.1,0.3,2
	c0,0.2,0,0.6-0.2,0.5c-0.4,0-1-1.3-1.2-1.8c-0.1-0.3-0.3-0.9-0.4-1.1C508.7,145.9,507.7,145.9,507.5,145.9z"/>
<path id="icon-sandwich" class="st13" d="M170.2,203.1v-2.2h13.5v2.2H170.2L170.2,203.1z M170.2,196v-2.2h13.5v2.2H170.2L170.2,196z
	 M170.2,199.5v-2.2h13.5v2.2H170.2z"/>
<path id="icon-search" class="st6" d="M367.3,141.7c3.4,0,6.1,2.7,6.1,6.1c0,1.3-0.4,2.6-1.2,3.6l0,0l1.5,1.8
	c0.5,0.6,0.5,1.6-0.2,2.1l0,0c-0.6,0.5-1.6,0.5-2.1-0.2l-1.5-1.8l0,0c-0.8,0.4-1.7,0.6-2.6,0.6c-3.4,0-6.1-2.7-6.1-6.1
	C361.2,144.4,363.9,141.7,367.3,141.7L367.3,141.7z M367.3,144.1c-2,0-3.7,1.7-3.7,3.7s1.7,3.7,3.7,3.7c2,0,3.7-1.7,3.7-3.7
	S369.3,144.1,367.3,144.1z"/>
<path id="icon-auth" class="st6" d="M403.4,156.5h-15.1c0.5-3.7,3.1-6.6,6.4-7.1c-1.8-0.5-3.1-2.1-3.1-4.1c0-2.4,1.9-4.3,4.3-4.3
	c2.4,0,4.3,1.9,4.3,4.3c0,2-1.3,3.6-3.1,4.1C400.3,149.9,402.9,152.8,403.4,156.5z"/>
<path id="arrow-right" class="st6" d="M406.8,198.4l-12,12c-0.7,0.7-0.7,1.8,0,2.5h0c0.7,0.7,1.8,0.7,2.5,0l13-13
	c0.1-0.1,0.2-0.2,0.3-0.3l0,0c0.3-0.3,0.5-0.8,0.5-1.3v0c0-0.5-0.2-0.9-0.5-1.3l0,0c-0.1-0.1-0.2-0.2-0.3-0.3l-13-13
	c-0.7-0.7-1.8-0.7-2.5,0h0c-0.7,0.7-0.7,1.8,0,2.5L406.8,198.4z"/>
<path id="arrow-up" class="st6" d="M440.5,194.3l12,12c0.7,0.7,1.8,0.7,2.5,0v0c0.7-0.7,0.7-1.8,0-2.5l-13-13
	c-0.1-0.1-0.2-0.2-0.3-0.3l0,0c-0.3-0.3-0.8-0.5-1.3-0.5h0c-0.5,0-0.9,0.2-1.3,0.5l0,0c-0.1,0.1-0.2,0.2-0.3,0.3l-13,13
	c-0.7,0.7-0.7,1.8,0,2.5v0c0.7,0.7,1.8,0.7,2.5,0L440.5,194.3z"/>
<path id="arrow-down" class="st6" d="M478.3,202.5l-12-12c-0.7-0.7-1.8-0.7-2.5,0v0c-0.7,0.7-0.7,1.8,0,2.5l13,13
	c0.1,0.1,0.2,0.2,0.3,0.3l0,0c0.3,0.3,0.8,0.5,1.3,0.5h0c0.5,0,0.9-0.2,1.3-0.5l0,0c0.1-0.1,0.2-0.2,0.3-0.3l13-13
	c0.7-0.7,0.7-1.8,0-2.5v0c-0.7-0.7-1.8-0.7-2.5,0L478.3,202.5z"/>
<path id="arrow-left" class="st6" d="M360.7,198.4l12,12c0.7,0.7,0.7,1.8,0,2.5h0c-0.7,0.7-1.8,0.7-2.5,0l-13-13
	c-0.1-0.1-0.2-0.2-0.3-0.3l0,0c-0.3-0.3-0.5-0.8-0.5-1.3v0c0-0.5,0.2-0.9,0.5-1.3l0,0c0.1-0.1,0.2-0.2,0.3-0.3l13-13
	c0.7-0.7,1.8-0.7,2.5,0h0c0.7,0.7,0.7,1.8,0,2.5L360.7,198.4z"/>
<polygon id="arrow_x5F_thick_x5F_up" class="st6" points="422.1,146.5 424.4,148.7 426.6,151 422.1,151 417.6,151 419.9,148.7 "/>
</svg>
