<svg id="_1" data-name="???? 1" xmlns="http://www.w3.org/2000/svg" viewBox="0 0 357.9 419.8"><defs><style>.cls-1{fill:#fff;}.cls-1,.cls-2{fill-rule:evenodd;}.cls-2{fill:#e3110f;}</style></defs><path class="cls-1" d="M104.07,511.67c-4.52,35.82,8.17,68.3,36,75.94,12,3.31,25.06,5.55,38.34,7.66,37.58,6,75.88,6.51,114.07,6.55h18.38c23.44,0,60.43-3,84.44-6.57,60.81-3.31,65.76-70.38,65.76-80.23,0-35-9.84-59.3-29.42-84.58-9.34-12.06-32.12-22.49-46.24-28.76-7.29-3.25-37.25-16.53-43.34-16.66-1.19,14.39-18.75,65.83-23.71,78.29S297.12,509,288.5,522.44c-2.6,4-2.33,3.81-6.43,6-5.94-5.17-10.16-14.84-14.42-22-5.77-9.66-16.81-33-20.86-43.13a384.63,384.63,0,0,1-13.14-37.87c-2.41-8.43-10-33.36-10.58-40.42-8.18.18-53.78,21.4-63.66,26.33-7.65,3.82-20.69,12.33-25.92,19.08-7.64,9.87-12.14,15.15-17.28,27.73-5,12.16-12.14,31.28-12.14,47.86Z" transform="translate(-103.18 -182.02)"/><path class="cls-1" d="M202.07,309c0,36.54,15.92,41.11,20.33,51.67,2.71,6.48,2.53,8,6.61,15.39,19.18,34.64,58.91,43.71,86.65,23.53,9.73-7.08,14.63-13,20.48-23.53,2.79-5.05,4-8.6,6.33-14.67,4.8-12.39,20.6-15.72,20.6-52.39a16.92,16.92,0,0,0-3.77-11.23c-2.55-2.94-2.33-.77-3.08-4.91-.81-4.39,1-2.95-1.37-6.63-2.05-3.12-12.81-12.48-16.44-14.57-29.92-17.21-81.76-17.2-111.67,0-3.63,2.09-14.4,11.45-16.44,14.57-2.29,3.49-.7,1.31-1.28,5.72C208,299.85,202.07,297.05,202.07,309Z" transform="translate(-103.18 -182.02)"/><path class="cls-1" d="M277.53,189.91c16.42-3.56,29.47,8.47,32.19,21.33,3.66,17.32-8.4,30.09-21.26,32.95-35.13,7.82-48.6-46.1-10.93-54.28ZM202.07,216c0,9.11-1.46,55.8,1.25,60.75,7.1,13,12.61-22.75,70.75-22.75,27,0,56.89.74,77.27,20.73,2.55,2.5,3.21,4.33,6.73,5.27,2.65-1.77,5-3.56,5-8V216c0-22.26-50.23-34-70-34-28.62,0-57,.29-80.87,18.13C207.49,203.67,202.07,208,202.07,216Z" transform="translate(-103.18 -182.02)"/><path class="cls-2" d="M265.07,480c0,5,14.19,28.68,17,34,2.06-1.51,3.64-4.73,4.95-7,14.12-24.91,14.58-22,10.45-40.35-3.18-14.12.23-11.6-24.4-11.6-3.75,0-4.32,7-5.21,10.79C267.15,468.86,265.07,476.58,265.07,480Z" transform="translate(-103.18 -182.02)"/><path class="cls-2" d="M273.07,450c26.33,0,21.45,3.2,24.92-14.08,3.61-18,6.58-14.92-28.92-14.92-6.68,0-2.93,9.88-2.08,14.08.61,3,1,5,1.61,8.39C269.26,447.09,269.28,450,273.07,450Z" transform="translate(-103.18 -182.02)"/><path class="cls-2" d="M261.06,213.87c-.89,3.68-.63,4.4.74,7.64l15.88.78c.19,5.36-.37,11.57,1.3,15.81a9,9,0,0,0,7.2,0c1.68-4.22,1.1-10.46,1.28-16l15.87-1c1.87-3.94,1.86-4.33-.1-8.5l-15.81-.82c-.09-5.37.41-11.63-1.28-15.88a9,9,0,0,0-7.14,0c-1.69,4.24-1.18,10.52-1.28,15.89C270.57,213.14,267,210.93,261.06,213.87Z" transform="translate(-103.18 -182.02)"/></svg>